<?xml version="1.0" encoding="UTF-8" standalone="no"?>
<!DOCTYPE svg PUBLIC "-//W3C//DTD SVG 1.1//EN" "http://www.w3.org/Graphics/SVG/1.1/DTD/svg11.dtd">
<svg width="100%" height="100%" viewBox="0 0 565 769" version="1.1" xmlns="http://www.w3.org/2000/svg" xmlns:xlink="http://www.w3.org/1999/xlink" xml:space="preserve" xmlns:serif="http://www.serif.com/" style="fill-rule:evenodd;clip-rule:evenodd;stroke-linejoin:round;stroke-miterlimit:2;">
    <g transform="matrix(1,0,0,1,-6345.847951,-4127.598501)">
        <g transform="matrix(4.166667,0,0,4.166667,5580.7125,3946.359375)">
            <g transform="matrix(-0.806185,-0.591664,-0.591664,0.806185,242.526383,56.508773)">
                <path d="M0.275,-0.263C0.221,-0.226 0.139,-0.2 0.118,-0.15C0.036,0.044 0.102,0.116 0.275,0.026C0.324,0.001 0.359,-0.082 0.367,-0.145C0.371,-0.18 0.307,-0.223 0.275,-0.263" style="fill:rgb(95,95,93);fill-rule:nonzero;"/>
            </g>
        </g>
        <g transform="matrix(4.166667,0,0,4.166667,5580.7125,3946.359375)">
            <g transform="matrix(0.999966,0.008196,0.008196,-0.999966,237.842227,111.51939)">
                <path d="M-0.25,-0.236C-0.295,-0.123 -0.356,-0.012 -0.378,0.104C-0.386,0.144 -0.295,0.203 -0.25,0.252C-0.201,0.136 -0.138,0.021 -0.11,-0.1C-0.102,-0.132 -0.2,-0.19 -0.25,-0.236" style="fill:rgb(95,95,93);fill-rule:nonzero;"/>
            </g>
        </g>
        <g transform="matrix(4.166667,0,0,4.166667,5580.7125,3946.359375)">
            <g transform="matrix(0.959229,-0.28263,-0.28263,-0.959229,237.684764,136.866103)">
                <path d="M-0.109,-0.154C-0.145,-0.122 -0.214,-0.079 -0.209,-0.06C-0.193,-0.007 -0.145,0.034 -0.109,0.08C-0.077,0.048 -0.014,0.009 -0.019,-0.014C-0.031,-0.065 -0.077,-0.108 -0.109,-0.154" style="fill:rgb(95,95,93);fill-rule:nonzero;"/>
            </g>
        </g>
        <g transform="matrix(4.166667,0,0,4.166667,5580.7125,3946.359375)">
            <g transform="matrix(0.340136,0.940376,0.940376,-0.340136,242.382792,66.286972)">
                <path d="M-0.051,-0.032C-0.11,-0.015 -0.202,-0.015 -0.223,0.024C-0.296,0.161 -0.228,0.26 -0.051,0.267C-0.017,0.269 0.052,0.175 0.052,0.126C0.05,0.072 -0.014,0.02 -0.051,-0.032" style="fill:rgb(95,95,93);fill-rule:nonzero;"/>
            </g>
        </g>
        <g transform="matrix(4.166667,0,0,4.166667,5580.7125,3946.359375)">
            <g transform="matrix(-0.539923,0.841714,0.841714,0.539923,192.454677,61.592556)">
                <path d="M0.095,-0.032C0.026,-0.006 -0.042,0.019 -0.111,0.044C-0.045,0.162 0.017,0.282 0.095,0.392C0.101,0.401 0.252,0.347 0.276,0.296C0.358,0.121 0.284,0.006 0.095,-0.032" style="fill:rgb(95,95,93);fill-rule:nonzero;"/>
            </g>
        </g>
        <g transform="matrix(4.166667,0,0,4.166667,5580.7125,3946.359375)">
            <g transform="matrix(-0.886616,0.462506,0.462506,0.886616,319.124032,218.030215)">
                <path d="M0.104,-0.314C0.041,-0.244 -0.022,-0.174 -0.085,-0.104C-0.021,-0.067 0.053,0.007 0.104,-0.006C0.155,-0.018 0.203,-0.117 0.213,-0.185C0.219,-0.221 0.144,-0.27 0.104,-0.314" style="fill:rgb(95,95,93);fill-rule:nonzero;"/>
            </g>
        </g>
        <g transform="matrix(4.166667,0,0,4.166667,5580.7125,3946.359375)">
            <g transform="matrix(0,1,-1,0,316.547705,172.53249)">
                <path d="M0,0.024L-0.174,0.096L-0.162,-0.072L0,0.024Z" style="fill:rgb(95,95,93);fill-rule:nonzero;"/>
            </g>
        </g>
        <g transform="matrix(4.166667,0,0,4.166667,5580.7125,3946.359375)">
            <g transform="matrix(0.965926,-0.258819,0.258819,0.965926,272.926434,220.005354)">
                <path d="M0,-0.328C0.052,-0.272 0.104,-0.215 0.156,-0.159C0.099,-0.108 0.017,0 -0.01,-0.013C-0.23,-0.115 -0.222,-0.23 0,-0.328" style="fill:rgb(95,95,93);fill-rule:nonzero;"/>
            </g>
        </g>
        <g transform="matrix(4.166667,0,0,4.166667,5580.7125,3946.359375)">
            <g transform="matrix(0.982399,-0.186794,-0.186794,-0.982399,240.078114,164.747566)">
                <path d="M-0.079,-0.24C-0.125,-0.23 -0.188,-0.234 -0.213,-0.205C-0.311,-0.091 -0.263,0.007 -0.079,0.049C-0.058,0.053 0.007,-0.055 0.016,-0.118C0.02,-0.153 -0.046,-0.199 -0.079,-0.24" style="fill:rgb(95,95,93);fill-rule:nonzero;"/>
            </g>
        </g>
        <g transform="matrix(4.166667,0,0,4.166667,5580.7125,3946.359375)">
            <g transform="matrix(0,1,-1,0,239.975505,113.99979)">
                <path d="M0,-0.049L0.139,-0.086L0.116,0.037L0,-0.049Z" style="fill:rgb(95,95,93);fill-rule:nonzero;"/>
            </g>
        </g>
        <g transform="matrix(4.166667,0,0,4.166667,5580.7125,3946.359375)">
            <g transform="matrix(0,1,-1,0,280.243305,94.30839)">
                <path d="M0,-0.036L0.133,-0.078L0.115,0.042L0,-0.036Z" style="fill:rgb(95,95,93);fill-rule:nonzero;"/>
            </g>
        </g>
        <g transform="matrix(4.166667,0,0,4.166667,5580.7125,3946.359375)">
            <g transform="matrix(0,1,-1,0,225.122605,43.63689)">
                <path d="M0,0.166L-0.075,0L0.085,0.005L0,0.166Z" style="fill:rgb(95,95,93);fill-rule:nonzero;"/>
            </g>
        </g>
        <g transform="matrix(4.166667,0,0,4.166667,5580.7125,3946.359375)">
            <g transform="matrix(0.996215,0.086918,0.086918,-0.996215,288.034412,227.705849)">
                <path d="M-0.153,-0.139C-0.207,-0.086 -0.26,-0.035 -0.314,0.018C-0.26,0.07 -0.206,0.162 -0.153,0.16C-0.099,0.162 -0.045,0.068 0.009,0.016C-0.045,-0.035 -0.099,-0.087 -0.153,-0.139" style="fill:rgb(95,95,93);fill-rule:nonzero;"/>
            </g>
        </g>
        <g transform="matrix(4.166667,0,0,4.166667,5580.7125,3946.359375)">
            <g transform="matrix(0.994641,0.103386,0.103386,-0.994641,230.052358,43.665735)">
                <path d="M-0.14,-0.126C-0.185,-0.079 -0.265,-0.032 -0.265,0.015C-0.265,0.061 -0.185,0.108 -0.14,0.155C-0.094,0.108 -0.014,0.061 -0.014,0.014C-0.013,-0.033 -0.094,-0.079 -0.14,-0.126" style="fill:rgb(95,95,93);fill-rule:nonzero;"/>
            </g>
        </g>
        <g transform="matrix(4.166667,0,0,4.166667,5580.7125,3946.359375)">
            <g transform="matrix(0.999692,-0.024815,-0.024815,-0.999692,270.343364,84.290196)">
                <path d="M-0.129,-0.157C-0.187,-0.124 -0.23,-0.099 -0.274,-0.075C-0.225,-0.008 -0.177,0.059 -0.129,0.125C-0.086,0.077 -0.009,0.028 -0.009,-0.019C-0.01,-0.067 -0.087,-0.114 -0.129,-0.157" style="fill:rgb(95,95,93);fill-rule:nonzero;"/>
            </g>
        </g>
        <g transform="matrix(4.166667,0,0,4.166667,5580.7125,3946.359375)">
            <g transform="matrix(0.998067,0.062151,0.062151,-0.998067,270.346478,179.77385)">
                <path d="M-0.138,-0.129C-0.187,-0.082 -0.235,-0.035 -0.285,0.013C-0.235,0.06 -0.186,0.144 -0.138,0.144C-0.089,0.143 -0.041,0.059 0.008,0.012C-0.041,-0.035 -0.089,-0.082 -0.138,-0.129" style="fill:rgb(95,95,93);fill-rule:nonzero;"/>
            </g>
        </g>
        <g transform="matrix(4.166667,0,0,4.166667,5580.7125,3946.359375)">
            <g transform="matrix(0,1,-1,0,255.354505,54.24559)">
                <path d="M0,0.033L-0.146,0.084L-0.13,-0.051L0,0.033Z" style="fill:rgb(95,95,93);fill-rule:nonzero;"/>
            </g>
        </g>
        <g transform="matrix(4.166667,0,0,4.166667,5580.7125,3946.359375)">
            <g transform="matrix(0.992804,0.119755,0.119755,-0.992804,263.079946,167.315663)">
                <path d="M-0.131,-0.116C-0.178,-0.071 -0.224,-0.026 -0.27,0.018C-0.224,0.063 -0.177,0.142 -0.131,0.143C-0.085,0.142 -0.038,0.063 0.008,0.019C-0.038,-0.026 -0.084,-0.071 -0.131,-0.116" style="fill:rgb(95,95,93);fill-rule:nonzero;"/>
            </g>
        </g>
        <g transform="matrix(4.166667,0,0,4.166667,5580.7125,3946.359375)">
            <g transform="matrix(0,1,-1,0,245.277305,179.73779)">
                <path d="M0,0.164L-0.063,0L0.089,0.012L0,0.164Z" style="fill:rgb(95,95,93);fill-rule:nonzero;"/>
            </g>
        </g>
        <g transform="matrix(4.166667,0,0,4.166667,5580.7125,3946.359375)">
            <g transform="matrix(0,1,-1,0,277.920905,66.62719)">
                <path d="M0,0.146L-0.052,0L0.086,0.017L0,0.146Z" style="fill:rgb(95,95,93);fill-rule:nonzero;"/>
            </g>
        </g>
        <g transform="matrix(4.166667,0,0,4.166667,5580.7125,3946.359375)">
            <g transform="matrix(0,1,-1,0,277.841405,177.28989)">
                <path d="M0,-0.054L0.147,-0.091L0.121,0.037L0,-0.054Z" style="fill:rgb(95,95,93);fill-rule:nonzero;"/>
            </g>
        </g>
        <g transform="matrix(4.166667,0,0,4.166667,5580.7125,3946.359375)">
            <g transform="matrix(0,1,-1,0,242.789705,162.03909)">
                <path d="M0,-0.14L0.04,0L-0.086,-0.023L0,-0.14Z" style="fill:rgb(95,95,93);fill-rule:nonzero;"/>
            </g>
        </g>
        <g transform="matrix(4.166667,0,0,4.166667,5580.7125,3946.359375)">
            <g transform="matrix(0,1,-1,0,250.473305,64.07639)">
                <path d="M0,-0.013L0.136,-0.075L0.129,0.062L0,-0.013Z" style="fill:rgb(95,95,93);fill-rule:nonzero;"/>
            </g>
        </g>
        <g transform="matrix(4.166667,0,0,4.166667,5580.7125,3946.359375)">
            <g transform="matrix(0,1,-1,0,247.621305,212.23659)">
                <path d="M0,-0.031L0.137,-0.081L0.123,0.05L0,-0.031Z" style="fill:rgb(95,95,93);fill-rule:nonzero;"/>
            </g>
        </g>
        <g transform="matrix(4.166667,0,0,4.166667,5580.7125,3946.359375)">
            <g transform="matrix(0,1,-1,0,310.700405,48.49609)">
                <path d="M0,0.23C0.019,0.183 0.062,0.102 0.053,0.096C-0.085,0 -0.129,0.033 -0.072,0.182L0,0.23Z" style="fill:rgb(95,95,93);fill-rule:nonzero;"/>
            </g>
        </g>
        <g transform="matrix(4.166667,0,0,4.166667,5580.7125,3946.359375)">
            <g transform="matrix(0,1,-1,0,310.927405,185.09229)">
                <path d="M0,0.046L-0.16,0.1L-0.135,-0.054L0,0.046Z" style="fill:rgb(95,95,93);fill-rule:nonzero;"/>
            </g>
        </g>
        <g transform="matrix(4.166667,0,0,4.166667,5580.7125,3946.359375)">
            <g transform="matrix(0,1,-1,0,310.624605,48.42439)">
                <path d="M0,0.106C0.05,0.097 0.1,0.089 0.151,0.08C0.117,-0.048 0.089,-0.026 0.07,0.15C0.072,0.154 0,0.106 0,0.106" style="fill:rgb(95,95,93);fill-rule:nonzero;"/>
            </g>
        </g>
        <g transform="matrix(4.166667,0,0,4.166667,5580.7125,3946.359375)">
            <g transform="matrix(0,1,-1,0,310.397505,114.50949)">
                <path d="M0,-0.145L0.061,0L-0.084,-0.012L0,-0.145Z" style="fill:rgb(95,95,93);fill-rule:nonzero;"/>
            </g>
        </g>
        <g transform="matrix(4.166667,0,0,4.166667,5580.7125,3946.359375)">
            <g transform="matrix(0,1,-1,0,197.297305,157.20779)">
                <path d="M0,-0.139L0.053,0L-0.08,-0.014L0,-0.139Z" style="fill:rgb(95,95,93);fill-rule:nonzero;"/>
            </g>
        </g>
        <g transform="matrix(4.166667,0,0,4.166667,5580.7125,3946.359375)">
            <g transform="matrix(0,1,-1,0,308.114805,167.35469)">
                <path d="M0,0.027L-0.138,0.082L-0.123,-0.055L0,0.027Z" style="fill:rgb(95,95,93);fill-rule:nonzero;"/>
            </g>
        </g>
        <g transform="matrix(4.166667,0,0,4.166667,5580.7125,3946.359375)">
            <g transform="matrix(0,1,-1,0,192.527005,91.52549)">
                <path d="M0,0.138L-0.048,0L0.077,0.014L0,0.138Z" style="fill:rgb(95,95,93);fill-rule:nonzero;"/>
            </g>
        </g>
        <g transform="matrix(4.166667,0,0,4.166667,5580.7125,3946.359375)">
            <g transform="matrix(0.996662,0.081638,0.081638,-0.996662,220.020395,119.403408)">
                <path d="M-0.147,-0.135C-0.195,-0.085 -0.281,-0.036 -0.281,0.012C-0.282,0.062 -0.195,0.11 -0.147,0.159C-0.098,0.11 -0.012,0.061 -0.013,0.012C-0.012,-0.037 -0.099,-0.086 -0.147,-0.135" style="fill:rgb(95,95,93);fill-rule:nonzero;"/>
            </g>
        </g>
        <g transform="matrix(4.166667,0,0,4.166667,5580.7125,3946.359375)">
            <g transform="matrix(-0.07892,0.996881,0.996881,0.07892,305.523114,204.672795)">
                <path d="M0.01,-0C-0.033,0.041 -0.077,0.083 -0.12,0.125C-0.076,0.166 -0.033,0.241 0.01,0.24C0.053,0.241 0.096,0.166 0.14,0.124C0.097,0.083 0.054,0.041 0.01,-0" style="fill:rgb(95,95,93);fill-rule:nonzero;"/>
            </g>
        </g>
        <g transform="matrix(4.166667,0,0,4.166667,5580.7125,3946.359375)">
            <g transform="matrix(0.986679,-0.162678,-0.162678,-0.986679,209.961467,104.362845)">
                <path d="M-0.113,-0.2C-0.168,-0.135 -0.222,-0.072 -0.277,-0.009C-0.222,0.025 -0.159,0.094 -0.113,0.083C-0.068,0.074 -0.023,-0.013 -0.013,-0.073C-0.007,-0.106 -0.071,-0.15 -0.113,-0.2" style="fill:rgb(95,95,93);fill-rule:nonzero;"/>
            </g>
        </g>
        <g transform="matrix(4.166667,0,0,4.166667,5580.7125,3946.359375)">
            <g transform="matrix(0,1,-1,0,196.649005,136.26919)">
                <path d="M0,-105.228C0.065,-105.114 0.132,-104.995 0.199,-104.876C0.259,-104.938 0.379,-105.014 0.369,-105.059C0.339,-105.188 0.256,-105.304 0.193,-105.426C0.133,-105.364 0.073,-105.302 0,-105.228M-20.851,-115.175C-20.736,-115.24 -20.618,-115.307 -20.499,-115.374C-20.56,-115.435 -20.636,-115.554 -20.681,-115.544C-20.81,-115.514 -20.927,-115.431 -21.048,-115.369C-20.986,-115.308 -20.925,-115.248 -20.851,-115.175M-24.445,-36.613C-24.33,-36.678 -24.212,-36.745 -24.093,-36.812C-24.155,-36.872 -24.23,-36.992 -24.275,-36.981C-24.404,-36.951 -24.521,-36.868 -24.642,-36.806C-24.581,-36.746 -24.519,-36.685 -24.445,-36.613M-41.811,-24.276C-41.872,-24.215 -41.992,-24.139 -41.981,-24.094C-41.951,-23.965 -41.868,-23.848 -41.806,-23.727C-41.745,-23.789 -41.625,-23.864 -41.636,-23.909C-41.666,-24.038 -41.749,-24.155 -41.811,-24.276M-44.379,-33.86C-44.318,-33.8 -44.242,-33.679 -44.197,-33.69C-44.068,-33.72 -43.952,-33.803 -43.831,-33.865C-43.892,-33.926 -43.968,-34.046 -44.013,-34.035C-44.142,-34.005 -44.258,-33.922 -44.379,-33.86M-46.726,-48.663C-46.665,-48.602 -46.589,-48.482 -46.544,-48.493C-46.415,-48.523 -46.299,-48.606 -46.177,-48.668C-46.239,-48.728 -46.315,-48.848 -46.36,-48.838C-46.489,-48.808 -46.605,-48.725 -46.726,-48.663M-51.336,-70.032C-51.275,-69.972 -51.199,-69.851 -51.154,-69.862C-51.025,-69.892 -50.909,-69.975 -50.787,-70.037C-50.849,-70.098 -50.924,-70.218 -50.97,-70.207C-51.098,-70.177 -51.215,-70.094 -51.336,-70.032M-53.434,-79.541C-53.507,-79.467 -53.567,-79.405 -53.627,-79.344C-53.505,-79.284 -53.387,-79.204 -53.257,-79.176C-53.212,-79.166 -53.139,-79.288 -53.078,-79.349C-53.198,-79.414 -53.318,-79.479 -53.434,-79.541M-76.039,-15.417C-75.978,-15.356 -75.902,-15.236 -75.857,-15.247C-75.728,-15.277 -75.612,-15.36 -75.491,-15.422C-75.552,-15.483 -75.628,-15.602 -75.673,-15.592C-75.802,-15.562 -75.918,-15.479 -76.039,-15.417M-82.937,-37.94C-83.011,-38.013 -83.073,-38.073 -83.134,-38.134C-83.194,-38.011 -83.275,-37.893 -83.302,-37.763C-83.312,-37.718 -83.19,-37.645 -83.129,-37.584C-83.064,-37.704 -82.999,-37.824 -82.937,-37.94M-85.287,-95.692C-85.402,-95.627 -85.52,-95.559 -85.639,-95.492C-85.577,-95.432 -85.502,-95.312 -85.457,-95.323C-85.328,-95.353 -85.211,-95.436 -85.09,-95.498C-85.151,-95.559 -85.213,-95.619 -85.287,-95.692M-87.776,-81.822C-87.85,-81.894 -87.911,-81.955 -87.973,-82.015C-88.033,-81.892 -88.113,-81.774 -88.141,-81.645C-88.15,-81.599 -88.029,-81.526 -87.967,-81.466C-87.903,-81.586 -87.838,-81.706 -87.776,-81.822M-87.945,-79.27C-88.005,-79.208 -88.125,-79.132 -88.115,-79.087C-88.085,-78.958 -88.002,-78.842 -87.939,-78.721C-87.879,-78.782 -87.759,-78.858 -87.77,-78.903C-87.8,-79.032 -87.883,-79.148 -87.945,-79.27M-34.119,-23.847C-34.47,-23.345 -34.626,-22.994 -34.028,-22.773C-33.733,-23.097 -33.755,-23.401 -34.119,-23.847M-42.915,-24.856C-43.266,-24.354 -43.422,-24.003 -42.824,-23.782C-42.529,-24.106 -42.551,-24.41 -42.915,-24.856M-37.825,-91.311C-37.981,-91.245 -38.149,-91.198 -38.288,-91.108C-38.435,-91.011 -38.555,-90.873 -38.704,-90.738C-39.049,-90.735 -39.41,-90.731 -39.986,-90.725C-40.212,-90.396 -40.52,-89.949 -40.869,-89.441C-41.312,-89.703 -41.603,-89.875 -41.954,-90.083C-42.093,-89.79 -42.257,-89.445 -42.418,-89.107C-42.609,-89.091 -42.786,-89.076 -42.983,-89.06C-43.173,-89.232 -43.372,-89.412 -43.582,-89.601C-43.93,-89.598 -44.294,-89.594 -44.662,-89.59C-44.854,-89.408 -45.049,-89.222 -45.242,-89.039C-45.521,-89.036 -45.795,-89.033 -46.089,-89.03C-46.45,-88.849 -46.814,-88.622 -47.209,-88.48C-47.687,-88.308 -47.983,-87.797 -48.619,-87.873C-48.96,-87.913 -49.342,-87.61 -49.706,-87.461C-49.836,-87.588 -49.966,-87.716 -50.141,-87.887C-50.316,-87.512 -50.481,-87.155 -50.648,-86.796C-51.029,-86.792 -51.392,-86.788 -51.748,-86.785C-52.251,-86.177 -52.194,-85.187 -53.118,-85.01C-53.113,-84.517 -53.109,-84.157 -53.105,-83.751C-53.474,-83.571 -53.845,-83.389 -54.329,-83.153C-53.914,-83.018 -53.599,-82.916 -53.281,-82.812C-52.928,-82.429 -53.212,-81.943 -53.087,-81.553C-52.904,-81.346 -52.738,-81.158 -52.588,-80.988C-52.759,-80.773 -52.906,-80.588 -53.065,-80.389C-52.689,-80.24 -52.375,-80.117 -52.004,-79.971C-52.171,-79.764 -52.321,-79.578 -52.492,-79.366C-52.336,-79.194 -52.166,-79.005 -51.996,-78.816C-52.159,-78.63 -52.33,-78.434 -52.609,-78.115C-52.231,-77.745 -51.847,-77.368 -51.407,-76.938C-51.416,-76.685 -51.405,-76.302 -51.918,-76.264C-52.011,-76.613 -51.975,-77.038 -52.451,-76.661C-52.3,-76.535 -52.15,-76.409 -51.918,-76.264C-51.947,-76.071 -51.944,-75.8 -51.941,-75.53C-51.761,-75.34 -51.58,-75.15 -51.405,-74.966C-51.585,-74.767 -51.763,-74.57 -51.931,-74.384C-51.917,-74.188 -51.904,-74.013 -51.887,-73.778C-51.593,-73.68 -51.278,-73.576 -50.837,-73.429C-50.985,-73.227 -51.109,-73.056 -51.297,-72.798C-51.191,-72.663 -51.056,-72.491 -50.869,-72.253C-50.988,-72.1 -51.13,-71.919 -51.348,-71.641C-50.558,-71.138 -50.168,-70.287 -49.811,-69.373C-49.87,-69.309 -50.051,-69.114 -50.227,-68.925C-50.22,-68.284 -50.214,-67.654 -50.179,-66.998C-50.186,-67.009 -50.222,-67.045 -50.258,-67.08C-50.406,-66.951 -50.554,-66.822 -50.703,-66.693C-50.644,-66.636 -50.586,-66.579 -50.528,-66.521C-50.402,-66.672 -50.276,-66.823 -50.179,-66.998C-49.874,-66.961 -49.492,-67.19 -49.2,-66.855C-49.372,-66.506 -49.544,-66.158 -49.773,-65.692C-49.335,-65.502 -48.974,-65.346 -48.496,-65.139C-48.908,-64.943 -49.243,-64.783 -49.575,-64.625C-49.593,-64.446 -49.611,-64.275 -49.629,-64.104C-49.305,-63.413 -48.601,-63.263 -47.908,-62.913C-48.336,-62.558 -48.738,-62.223 -49.222,-61.821C-48.961,-61.382 -48.749,-61.027 -48.495,-60.599C-48.491,-60.248 -48.487,-59.801 -48.453,-59.328C-48.46,-59.339 -48.496,-59.374 -48.533,-59.41C-48.681,-59.281 -48.829,-59.152 -48.977,-59.023C-48.919,-58.965 -48.861,-58.908 -48.802,-58.851C-48.676,-59.002 -48.55,-59.153 -48.453,-59.328C-47.944,-59.402 -47.941,-59.025 -47.92,-58.611C-48.067,-58.432 -48.233,-58.229 -48.425,-57.994C-48.277,-57.826 -48.114,-57.64 -47.949,-57.452C-48.136,-57.194 -48.331,-56.926 -48.57,-56.597C-48.33,-56.285 -48.129,-56.024 -47.926,-55.76C-48.053,-55.63 -48.181,-55.5 -48.374,-55.302C-48.37,-54.941 -48.366,-54.512 -48.362,-54.06C-47.996,-53.87 -47.88,-53.292 -47.323,-53.324C-47.32,-53.056 -47.317,-52.787 -47.315,-52.518C-47.493,-52.325 -47.671,-52.131 -47.93,-51.851C-47.372,-51.756 -46.878,-51.673 -46.379,-51.588C-46.045,-51.308 -46.265,-50.922 -46.197,-50.59C-46.548,-50.486 -47.047,-50.847 -47.245,-50.258C-46.516,-50.025 -46.516,-50.025 -46.197,-50.59C-46.04,-50.527 -45.883,-50.464 -45.686,-50.386C-45.681,-49.865 -45.675,-49.328 -45.67,-48.787C-45.481,-48.568 -45.308,-48.368 -45.117,-48.146C-45.692,-47.846 -46.342,-47.622 -46.693,-46.999C-45.628,-45.424 -45.628,-45.424 -45.664,-44.199C-45.792,-44.069 -45.92,-43.938 -46.2,-43.652C-45.758,-43.373 -45.316,-43.095 -44.882,-42.822C-45.209,-42.455 -45.385,-42.257 -45.552,-42.069C-45.549,-41.696 -45.545,-41.332 -45.541,-40.995C-45.343,-40.779 -45.162,-40.582 -44.97,-40.373C-44.963,-39.647 -44.956,-38.923 -44.949,-38.253C-44.739,-38.009 -44.566,-37.809 -44.32,-37.524C-44.484,-37.235 -44.652,-36.94 -44.842,-36.607C-44.804,-36.557 -44.705,-36.337 -44.633,-36.346C-44.222,-36.393 -43.985,-36.159 -43.691,-35.934C-43.438,-35.741 -43.067,-35.702 -42.638,-35.558C-43.112,-35.331 -43.477,-35.156 -43.842,-34.981C-43.635,-34.756 -43.454,-34.558 -43.283,-34.373C-43.369,-33.726 -43.142,-33.194 -42.844,-32.763C-43.029,-32.433 -43.195,-32.138 -43.428,-31.724C-42.928,-31.357 -42.49,-31.036 -42.125,-30.768C-42.526,-30.04 -42.848,-29.456 -43.163,-28.885C-43.014,-28.705 -42.863,-28.523 -42.7,-28.326C-43.073,-28.171 -43.385,-28.04 -43.811,-27.863C-43.389,-27.663 -43.048,-27.501 -42.678,-27.326C-42.856,-27.121 -43.023,-26.929 -43.135,-26.8C-42.888,-26.326 -42.65,-25.871 -42.423,-25.435C-42,-25.439 -41.568,-25.444 -41.089,-25.449C-41.194,-26.09 -41.752,-26.273 -42.037,-26.673C-42.203,-27.167 -42.172,-27.55 -41.524,-27.577C-40.949,-27.434 -40.695,-26.905 -40.264,-26.568C-40.144,-26.64 -39.996,-26.693 -39.896,-26.793C-39.253,-27.435 -38.62,-28.088 -37.897,-28.826C-37.54,-28.631 -37.188,-28.438 -36.835,-28.246C-36.133,-28.892 -36.956,-29.151 -37.173,-29.565C-36.605,-30.027 -35.572,-29.971 -35.554,-31.057C-35.55,-31.339 -35.308,-31.419 -35.016,-31.51C-34.458,-31.686 -33.949,-32.016 -33.396,-32.293C-33.576,-32.49 -33.75,-32.679 -33.945,-32.893C-33.566,-33.269 -33.138,-33.621 -32.803,-34.047C-32.493,-34.439 -32.283,-34.91 -32.016,-35.37C-31.835,-34.999 -31.661,-34.641 -31.48,-34.27C-31.013,-34.676 -31.305,-35.164 -31.206,-35.649C-30.745,-35.883 -30.25,-36.135 -29.76,-36.385C-29.615,-36.243 -29.484,-36.115 -29.329,-35.963C-29.143,-36.128 -28.956,-36.294 -28.746,-36.48C-28.231,-36.485 -27.685,-36.491 -27.15,-36.496C-26.944,-36.687 -26.749,-36.868 -26.563,-37.042C-26.37,-36.874 -26.178,-36.708 -25.987,-36.543C-25.712,-36.824 -25.456,-37.085 -25.198,-37.348C-25.2,-37.529 -25.202,-37.712 -25.204,-37.902C-24.949,-38.157 -24.691,-38.416 -24.409,-38.698C-24.225,-38.541 -24.034,-38.378 -23.822,-38.196C-23.488,-38.2 -23.124,-38.203 -22.751,-38.207C-22.567,-38.378 -22.372,-38.559 -22.177,-38.739C-21.654,-38.227 -21.132,-37.715 -20.61,-37.204C-19.957,-37.558 -19.304,-37.912 -18.669,-38.256C-17.947,-38.153 -17.718,-37.433 -17.163,-37.157C-16.889,-37.159 -16.615,-37.162 -16.251,-37.166C-16.033,-37.323 -15.755,-37.523 -15.471,-37.727C-15.108,-37.715 -14.723,-37.727 -14.762,-37.181C-14.913,-37.119 -15.176,-37.082 -15.196,-36.991C-15.267,-36.662 -15.023,-36.61 -14.789,-36.708C-14.695,-36.36 -14.731,-35.935 -14.255,-36.312C-14.406,-36.438 -14.557,-36.564 -14.789,-36.708C-14.759,-36.815 -14.76,-36.998 -14.762,-37.181C-14.489,-37.184 -14.215,-37.187 -13.95,-37.189C-13.747,-37.003 -13.548,-36.821 -13.343,-36.633C-12.981,-36.637 -12.62,-36.64 -12.272,-36.644C-11.998,-36.375 -11.738,-36.12 -11.512,-35.899C-11.449,-35.609 -11.396,-35.36 -11.34,-35.102C-10.848,-35.053 -10.416,-35.01 -9.909,-34.96C-9.857,-34.714 -9.804,-34.465 -9.744,-34.184C-9.336,-33.98 -8.884,-33.755 -8.361,-33.494C-8.249,-33.595 -8.062,-33.763 -7.812,-33.988C-7.699,-33.658 -7.593,-33.349 -7.461,-32.962C-7.25,-32.922 -7,-32.873 -6.664,-32.809C-6.602,-32.638 -6.516,-32.401 -6.341,-31.919C-5.814,-31.402 -5.14,-30.664 -4.383,-30.022C-3.654,-29.405 -2.557,-29.267 -2.06,-27.794C-2.054,-27.205 -2.043,-26.117 -2.031,-25.014C-1.656,-24.626 -1.283,-24.242 -0.911,-23.857C-1.038,-23.727 -1.166,-23.596 -1.396,-23.361C-1.416,-22.856 -1.44,-22.242 -1.462,-21.696C-1.835,-21.24 -2.367,-20.867 -2.464,-20.403C-2.594,-19.781 -3.094,-19.559 -3.368,-19.122C-3.679,-18.624 -4.28,-18.654 -4.688,-18.419C-4.685,-18.156 -4.683,-17.974 -4.68,-17.689C-5.161,-17.593 -5.66,-17.493 -6.157,-17.393C-6.286,-17.261 -6.414,-17.131 -6.542,-17C-6.813,-17.181 -7.083,-17.362 -7.439,-17.6C-7.73,-17.373 -7.996,-17.165 -8.261,-16.959C-8.444,-17.123 -8.643,-17.303 -8.925,-17.558C-9.202,-17.418 -9.503,-17.265 -9.898,-17.066C-9.902,-17.067 -10.026,-17.127 -10.155,-17.172C-10.951,-17.452 -11.605,-18.152 -12.6,-17.975C-12.768,-17.826 -12.966,-17.649 -13.18,-17.458C-13.361,-17.619 -13.554,-17.791 -13.756,-17.971C-14.106,-17.967 -14.47,-17.963 -14.828,-17.96C-15.031,-18.146 -15.229,-18.328 -15.387,-18.473C-15.988,-18.674 -16.196,-17.984 -16.569,-17.981C-17.11,-17.977 -17.295,-17.491 -17.706,-17.391C-18.121,-17.291 -18.619,-17.545 -18.951,-17.091C-18.95,-16.908 -18.948,-16.726 -18.946,-16.477C-19.244,-16.372 -19.561,-16.26 -20.001,-16.106C-20.018,-15.722 -20.037,-15.29 -20.056,-14.858C-20.567,-14.336 -21.077,-13.815 -21.681,-13.199C-21.674,-12.498 -21.666,-11.702 -21.659,-11.003C-21.88,-10.777 -22.008,-10.647 -22.157,-10.495C-22.151,-9.975 -22.146,-9.434 -22.142,-8.999C-22.525,-8.316 -22.857,-7.724 -23.195,-7.121C-23.098,-7.025 -22.967,-6.897 -22.79,-6.723C-22.929,-6.394 -23.178,-6.046 -23.203,-5.684C-23.235,-5.214 -23.366,-4.872 -23.643,-4.48C-23.863,-4.169 -23.777,-3.641 -23.835,-3.149C-24.09,-3.094 -24.34,-3.04 -24.67,-2.969C-24.756,-2.712 -24.863,-2.394 -24.971,-2.075C-25.287,-1.96 -25.603,-1.845 -25.912,-1.733C-25.791,-1.356 -25.288,-1.277 -25.375,-0.83C-25.526,-0.769 -25.789,-0.731 -25.808,-0.641C-25.879,-0.311 -25.636,-0.259 -25.369,-0.281C-25.508,0.511 -26.315,0.759 -26.692,1.353C-26.876,1.365 -27.053,1.376 -27.236,1.387C-27.729,1.766 -27.616,2.508 -28.177,2.887C-28.773,3.289 -28.774,4.086 -29.147,4.659C-29.462,5.145 -29.638,5.722 -29.906,6.329C-30.102,6.175 -30.284,6.033 -30.48,5.88C-30.575,5.962 -30.728,6.036 -30.785,6.155C-30.893,6.381 -30.936,6.636 -31.026,6.871C-31.055,6.949 -31.147,7.003 -31.211,7.068C-31.338,7.197 -31.484,7.453 -31.589,7.437C-32.576,7.282 -32.695,8.591 -33.57,8.587C-34.294,8.584 -33.886,9.304 -34.274,9.625C-34.439,9.64 -34.686,9.662 -34.921,9.683C-35.098,9.31 -35.257,8.976 -35.435,8.602C-35.898,9.075 -35.604,9.552 -35.698,9.972C-36.561,10.703 -37.765,10.691 -38.743,11.308C-38.87,11.197 -39.061,11.03 -39.314,10.809C-39.42,11.143 -39.518,11.454 -39.617,11.765C-40.069,11.971 -40.585,12.058 -40.926,12.47C-41.055,12.343 -41.185,12.216 -41.394,12.011C-41.554,12.135 -41.726,12.269 -41.983,12.468C-42.498,12.473 -43.108,12.48 -43.705,12.486C-43.784,12.297 -43.849,12.143 -43.99,12.02C-43.642,11.926 -43.216,11.962 -43.593,11.486C-43.72,11.637 -43.846,11.788 -43.99,12.02C-44.097,11.99 -44.28,11.992 -44.463,11.994C-44.524,11.842 -44.562,11.58 -44.652,11.56C-44.982,11.489 -45.034,11.733 -45.012,11.999C-45.3,12.17 -45.589,12.34 -45.958,12.558C-46.118,12.56 -46.385,12.562 -46.653,12.565C-46.643,12.185 -46.828,12.004 -47.208,12.022C-47.27,11.87 -47.307,11.608 -47.398,11.588C-47.727,11.517 -47.779,11.76 -47.757,12.027C-48.721,12.037 -49.686,12.066 -50.65,12.044C-50.91,12.038 -51.115,11.838 -51.133,11.544C-50.785,11.45 -50.36,11.486 -50.736,11.01C-50.863,11.161 -50.989,11.311 -51.133,11.544C-51.342,11.681 -51.628,11.851 -51.92,12.025C-52.412,11.542 -52.927,11.037 -53.496,10.48C-53.667,10.62 -53.845,10.764 -54.061,10.94C-54.678,10.585 -55.022,9.731 -55.892,9.792C-56.016,9.434 -56.124,9.12 -56.242,8.778C-56.482,9.004 -56.67,9.182 -56.908,9.406C-57.029,9.061 -57.139,8.747 -57.248,8.434C-59.125,7.682 -59.125,7.682 -61.252,5.598C-61.437,5.766 -61.623,5.936 -61.857,6.149C-61.971,5.831 -62.049,5.51 -62.204,5.232C-62.267,5.119 -62.498,5.101 -62.653,5.04C-62.719,4.885 -62.76,4.615 -62.856,4.594C-63.277,4.499 -63.715,4.476 -64.118,4.431C-64.189,4.331 -64.285,4.226 -64.272,4.21C-64.158,4.068 -64.024,3.943 -63.897,3.812C-64.143,3.005 -64.456,2.243 -65.252,1.751C-65.579,1.754 -65.938,1.758 -66.373,1.762C-66.429,1.511 -66.399,1.144 -66.552,1.038C-67.462,0.401 -67.591,-0.813 -68.469,-1.472C-68.658,-1.298 -68.847,-1.121 -69.037,-0.945C-69.502,-1.276 -69.213,-1.78 -69.351,-2.201C-69.17,-2.419 -69,-2.621 -68.827,-2.829C-68.958,-3.264 -69.43,-3.01 -69.658,-3.203C-70.128,-3.599 -70.548,-4.056 -70.971,-4.47C-70.757,-4.728 -70.588,-4.931 -70.406,-5.152C-70.688,-5.878 -71.17,-6.527 -71.093,-7.314C-71.195,-7.394 -71.259,-7.483 -71.335,-7.495C-71.51,-7.524 -71.691,-7.516 -71.869,-7.523C-72.316,-7.873 -72.039,-8.369 -72.142,-8.851C-72.354,-9.07 -72.603,-9.328 -72.908,-9.644C-73.087,-9.501 -73.266,-9.357 -73.445,-9.213C-73.857,-9.701 -73.857,-9.701 -73.317,-10.574C-73.448,-10.702 -73.578,-10.83 -73.758,-11.006C-73.617,-11.184 -73.471,-11.369 -73.319,-11.561C-73.424,-12.024 -73.863,-11.791 -74.226,-11.979C-74.272,-12.148 -74.338,-12.393 -74.43,-12.729C-74.734,-13.042 -75.11,-13.428 -75.472,-13.8C-75.488,-14.004 -75.501,-14.181 -75.519,-14.416C-75.817,-14.518 -76.135,-14.627 -76.454,-14.736C-76.673,-15.413 -76.816,-16.078 -75.813,-16.618C-76.385,-16.729 -76.635,-16.777 -76.932,-16.835C-77.135,-17.033 -77.135,-17.033 -77.169,-18.222C-77.504,-18.477 -77.935,-18.806 -78.179,-18.992C-78.478,-19.795 -77.974,-20.024 -77.749,-20.36C-77.753,-20.741 -77.757,-21.102 -77.761,-21.452C-78.099,-21.784 -78.425,-22.103 -78.804,-22.474C-78.806,-22.669 -78.809,-22.917 -78.811,-23.149C-78.464,-23.292 -78.152,-23.42 -77.594,-23.65C-78.189,-23.938 -78.674,-24.173 -79.142,-24.399C-78.697,-24.907 -78.526,-25.102 -78.363,-25.289C-78.545,-25.488 -78.726,-25.685 -78.891,-25.866C-78.894,-26.169 -78.897,-26.443 -78.901,-26.803C-78.747,-27.027 -78.553,-27.308 -78.356,-27.596C-78.375,-27.959 -78.373,-28.342 -78.916,-28.292C-78.971,-28.437 -79.024,-28.706 -79.082,-28.707C-79.681,-28.719 -80.017,-29.294 -80.574,-29.373C-80.577,-29.647 -80.58,-29.919 -80.582,-30.186C-80.772,-30.383 -80.958,-30.578 -81.148,-30.776C-81.153,-31.322 -81.159,-31.865 -81.164,-32.37C-81.361,-32.599 -81.576,-32.779 -81.697,-33.009C-81.811,-33.224 -81.825,-33.492 -81.871,-33.683C-82.211,-33.749 -82.461,-33.798 -82.758,-33.856C-82.765,-34.613 -82.773,-35.325 -82.781,-36.151C-83.406,-36.601 -84.064,-37.074 -84.8,-37.605C-83.858,-38.227 -84.047,-39.115 -83.442,-39.561C-83.354,-39.625 -83.517,-40.031 -83.582,-40.373C-83.856,-40.134 -84.042,-39.973 -84.228,-39.811C-84.322,-39.919 -84.512,-40.035 -84.514,-40.156C-84.55,-41.785 -84.561,-43.415 -84.578,-45.104C-84.868,-45.173 -85.115,-45.231 -85.47,-45.316C-85.914,-45.628 -85.326,-45.764 -85.174,-46.094C-85.178,-46.537 -85.184,-47.073 -85.19,-47.661C-85.352,-47.885 -85.551,-48.162 -85.753,-48.441C-85.514,-48.931 -85.294,-49.383 -85.054,-49.876C-85.535,-50.094 -85.913,-50.266 -86.279,-50.432C-86.282,-50.735 -86.285,-51.008 -86.288,-51.281C-86.137,-51.343 -85.874,-51.38 -85.854,-51.47C-85.783,-51.8 -86.027,-51.852 -86.293,-51.83C-86.298,-52.284 -86.303,-52.739 -86.307,-53.19C-86.495,-53.386 -86.681,-53.58 -86.871,-53.778C-86.875,-54.139 -86.878,-54.5 -86.883,-54.921C-87.191,-55.023 -87.509,-55.129 -87.827,-55.235C-87.862,-55.299 -87.898,-55.363 -87.933,-55.427C-87.624,-55.558 -87.314,-55.688 -86.985,-55.828C-86.973,-56.409 -87.438,-56.116 -87.686,-56.221C-87.791,-56.266 -87.836,-56.449 -87.949,-56.639C-87.399,-56.725 -86.895,-56.803 -86.399,-56.88C-86.501,-57.481 -86.935,-57.247 -87.216,-57.354C-87.47,-57.604 -87.73,-57.858 -87.997,-58.12C-88.006,-59.019 -88.016,-59.926 -88.024,-60.794C-88.171,-61.15 -88.666,-61.234 -88.59,-61.691C-88.21,-61.681 -88.029,-61.866 -88.047,-62.245C-87.895,-62.307 -87.633,-62.345 -87.613,-62.435C-87.542,-62.765 -87.785,-62.817 -88.052,-62.795C-88.042,-63.175 -88.227,-63.356 -88.607,-63.338C-88.61,-63.612 -88.612,-63.885 -88.615,-64.148C-88.798,-64.344 -88.975,-64.534 -89.152,-64.723C-89.012,-64.866 -88.885,-64.996 -88.675,-65.209C-88.798,-65.369 -88.931,-65.541 -89.118,-65.784C-89.002,-65.934 -88.861,-66.116 -88.687,-66.341C-88.827,-66.504 -88.984,-66.689 -89.159,-66.893C-89.001,-67.072 -88.832,-67.264 -88.607,-67.518C-88.675,-67.711 -88.689,-68.071 -88.856,-68.167C-89.331,-68.44 -89.047,-69.044 -89.435,-69.31C-89.901,-69.629 -89.698,-70.119 -89.795,-70.536C-89.865,-70.832 -90.095,-71.091 -90.253,-71.367C-89.611,-72.107 -89.354,-71.219 -88.866,-71.033C-88.793,-71.281 -88.721,-71.524 -88.651,-71.762C-88.861,-71.989 -89.042,-72.186 -89.224,-72.383C-89.06,-72.571 -88.89,-72.766 -88.727,-72.952C-88.897,-73.141 -89.066,-73.329 -89.234,-73.516C-89.086,-73.667 -88.958,-73.797 -88.782,-73.977C-88.94,-74.223 -89.106,-74.482 -89.321,-74.817C-89.138,-75.15 -88.935,-75.52 -88.699,-75.951C-89.05,-76.585 -89.419,-77.25 -89.795,-77.928C-89.66,-78.078 -89.48,-78.277 -89.327,-78.446C-89.333,-79.029 -89.338,-79.571 -89.343,-80.071C-89.532,-80.29 -89.691,-80.475 -89.848,-80.657C-89.496,-81.016 -89.176,-81.342 -88.868,-81.656C-88.631,-82.199 -88.964,-82.5 -89.351,-82.787C-89.163,-82.998 -88.991,-83.19 -88.732,-83.481C-88.934,-83.88 -89.162,-84.329 -89.38,-84.759C-89.252,-85.362 -88.712,-85.607 -88.358,-86.07C-88.32,-86.455 -88.278,-86.887 -88.238,-87.293C-88.086,-87.448 -87.958,-87.578 -87.83,-87.709C-88,-87.98 -88.171,-88.251 -88.314,-88.477C-88.318,-89.3 -87.463,-89.427 -87.259,-90.033C-87.021,-90.558 -87.589,-90.748 -87.748,-91.141C-87.365,-91.35 -87.26,-91.933 -86.733,-91.988C-86.639,-91.64 -86.675,-91.215 -86.199,-91.592C-86.35,-91.718 -86.501,-91.844 -86.733,-91.988C-86.638,-92.069 -86.618,-92.302 -86.504,-92.366C-86.231,-92.519 -85.914,-92.592 -85.574,-92.711C-85.902,-93.032 -86.162,-93.288 -86.423,-93.543C-86.845,-93.665 -87.324,-93.371 -87.724,-93.727C-87.72,-94.309 -87.254,-94.025 -86.979,-94.124C-86.734,-94.375 -86.478,-94.635 -86.203,-94.917C-86.206,-95.256 -86.21,-95.615 -86.213,-95.907C-86.028,-96.393 -85.621,-96.293 -85.229,-96.381C-85.177,-96.62 -85.122,-96.868 -85.052,-97.186C-84.925,-97.325 -84.744,-97.525 -84.564,-97.724C-84.472,-98.148 -84.767,-98.631 -84.336,-99.042C-84.151,-98.888 -83.962,-98.733 -83.749,-98.556C-83.512,-98.788 -83.262,-99.031 -82.967,-99.318C-83.119,-99.501 -83.27,-99.683 -83.428,-99.873C-83.08,-100.231 -83.059,-100.822 -82.749,-101.155C-82.41,-101.518 -82.479,-101.98 -82.351,-102.229C-81.784,-102.591 -81.13,-102.07 -80.806,-102.716C-80.939,-102.845 -81.069,-102.973 -81.199,-103.101C-81.218,-103.165 -81.269,-103.275 -81.252,-103.287C-80.674,-103.688 -80.431,-104.461 -79.625,-104.635C-79.102,-104.748 -78.702,-105.133 -78.605,-105.723C-78.335,-105.726 -78.065,-105.716 -77.798,-105.739C-77.729,-105.745 -77.605,-105.869 -77.615,-105.909C-77.65,-106.04 -77.721,-106.249 -77.805,-106.263C-78.067,-106.307 -78.341,-106.275 -78.61,-106.272C-78.548,-106.429 -78.485,-106.585 -78.407,-106.782C-77.522,-106.791 -76.62,-106.801 -75.835,-106.809C-74.951,-107.126 -74.93,-107.94 -74.532,-108.495C-74.336,-108.319 -74.141,-108.144 -73.947,-107.97C-73.584,-107.974 -73.22,-107.978 -72.859,-107.981C-72.409,-108.466 -72.512,-109.343 -71.71,-109.567C-71.58,-109.439 -71.45,-109.311 -71.321,-109.185C-70.885,-109.395 -70.451,-109.605 -70.152,-109.749C-69.771,-110.35 -69.45,-110.856 -69.059,-111.471C-68.622,-111.229 -68.261,-111.029 -67.901,-110.831C-67.504,-111.478 -66.87,-111.363 -66.165,-111.266C-66.11,-111.048 -66.047,-110.802 -65.943,-110.391C-65.744,-110.351 -65.437,-110.289 -65.052,-110.212C-64.966,-110.84 -64.898,-111.343 -64.829,-111.849C-64.227,-111.759 -64.455,-111.316 -64.334,-111.032C-63.977,-110.618 -63.489,-110.908 -63.048,-110.819C-62.86,-110.995 -62.664,-111.179 -62.444,-111.384C-62.269,-111.018 -62.096,-110.655 -61.915,-110.277C-61.43,-110.659 -61.721,-111.152 -61.633,-111.602C-61.154,-111.89 -60.655,-112.19 -60.088,-112.532C-59.782,-112.388 -59.428,-112.221 -59.072,-112.053C-58.953,-112.394 -58.841,-112.711 -58.712,-113.079C-58.475,-112.875 -58.284,-112.711 -58.064,-112.523C-57.898,-112.89 -57.731,-113.258 -57.564,-113.628C-57.338,-113.426 -57.138,-113.248 -56.84,-112.983C-56.515,-113.168 -56.167,-113.367 -55.812,-113.57C-55.682,-113.258 -55.553,-112.947 -55.424,-112.635C-54.764,-112.817 -54.578,-113.78 -53.693,-113.658C-53.525,-114.024 -53.353,-114.402 -53.138,-114.872C-52.803,-114.732 -52.491,-114.603 -52.003,-114.4C-51.841,-114.473 -51.483,-114.613 -51.146,-114.793C-50.776,-114.991 -50.426,-115.226 -50.066,-115.444C-49.779,-115.213 -49.575,-115.047 -49.335,-114.853C-49.169,-114.998 -48.983,-115.159 -48.768,-115.347C-48.445,-115.35 -48.084,-115.354 -47.784,-115.357C-47.402,-115.506 -47.319,-116.008 -46.861,-115.93C-46.795,-115.775 -46.73,-115.619 -46.63,-115.383C-46.309,-115.386 -45.849,-115.248 -45.622,-115.42C-44.863,-115.991 -43.78,-116.108 -43.256,-117.3C-42.785,-116.839 -42.417,-116.478 -42.022,-116.092C-41.962,-116.54 -41.894,-117.043 -41.826,-117.546C-41.19,-117.517 -41.457,-117.058 -41.352,-116.781C-40.823,-116.212 -40.131,-116.798 -39.6,-116.474C-39.334,-116.71 -39.136,-116.886 -38.92,-117.078C-38.74,-116.918 -38.547,-116.748 -38.358,-116.58C-37.96,-116.48 -37.688,-116.656 -37.422,-116.949C-37.133,-117.267 -36.794,-117.206 -36.462,-116.896C-36.626,-116.702 -36.786,-116.512 -36.946,-116.322C-36.831,-116.231 -36.705,-116.047 -36.581,-116.048C-35.666,-116.06 -35.667,-116.071 -33.99,-117.128C-33.806,-116.97 -33.615,-116.805 -33.42,-116.637C-33.045,-117 -32.662,-117.372 -32.226,-117.793C-31.768,-117.594 -31.32,-117.287 -30.838,-117.22C-30.334,-117.151 -29.838,-117.184 -29.603,-116.623C-29.339,-116.892 -29.212,-117.022 -29.058,-117.179C-28.87,-117.021 -28.681,-116.861 -28.464,-116.678C-28.137,-116.682 -27.776,-116.685 -27.415,-116.689C-27.211,-116.502 -27.013,-116.321 -26.815,-116.14C-26.69,-116.268 -26.562,-116.399 -26.416,-116.548C-25.843,-116.838 -25.214,-116.669 -24.599,-116.675C-24.468,-116.546 -24.338,-116.419 -24.126,-116.211C-23.966,-116.334 -23.793,-116.468 -23.595,-116.621C-22.874,-116.665 -23.557,-115.797 -22.982,-115.68C-22.826,-115.813 -22.641,-115.971 -22.438,-116.145C-22.259,-115.988 -22.067,-115.818 -21.861,-115.637C-21.559,-115.96 -21.25,-116.292 -20.98,-116.581C-20.859,-116.633 -20.756,-116.701 -20.736,-116.682C-20.208,-116.179 -19.688,-115.667 -19.145,-115.135C-18.808,-115.138 -18.449,-115.142 -18.088,-115.146C-17.879,-114.959 -17.679,-114.78 -17.463,-114.588C-17.122,-114.592 -16.759,-114.595 -16.404,-114.599C-16.199,-114.416 -16.001,-114.24 -15.804,-114.064C-15.676,-114.194 -15.548,-114.325 -15.363,-114.513C-14.89,-114.288 -14.391,-114.05 -13.896,-113.815C-13.892,-113.435 -13.889,-113.07 -13.885,-112.7C-13.431,-112.473 -12.977,-112.246 -12.322,-111.917C-12.021,-111.92 -11.482,-111.926 -11.009,-111.931C-10.368,-111.655 -10.163,-110.905 -9.503,-110.895C-9.409,-110.547 -9.445,-110.121 -8.969,-110.499C-9.12,-110.625 -9.271,-110.751 -9.503,-110.895C-9.408,-110.975 -9.376,-111.24 -9.279,-111.267C-8.942,-111.359 -8.583,-111.368 -8.094,-111.425C-7.421,-110.671 -6.703,-109.868 -6.101,-109.194C-5.485,-109.201 -5.125,-109.204 -4.708,-109.208C-4.598,-108.9 -4.485,-108.584 -4.372,-108.269C-3.953,-107.843 -3.273,-108.456 -2.892,-107.903C-2.501,-107.337 -1.877,-107.764 -1.359,-107.507C-1.256,-107.237 -1.136,-106.924 -0.997,-106.561C-0.484,-106.567 0.047,-106.572 0.495,-106.577C1.123,-106.213 1.637,-105.877 1.599,-105.135C2.156,-104.876 1.984,-104.158 2.388,-103.835C3.231,-103.159 3.368,-101.942 4.367,-101.399C4.164,-101.173 3.991,-100.98 3.817,-100.786C4.381,-100.191 4.754,-100.627 5.138,-101.041C5.53,-100.231 6.177,-99.528 6.132,-98.538C6.13,-98.482 6.424,-98.414 6.58,-98.352C6.583,-98.078 6.585,-97.805 6.588,-97.501C6.946,-97.339 7.315,-97.172 7.699,-96.998C7.538,-96.833 7.41,-96.703 7.212,-96.501C7.486,-95.872 8.182,-95.601 8.488,-95.084C8.766,-95.067 8.944,-95.057 9.122,-95.046C9.542,-94.22 9.961,-93.394 10.394,-92.543C10.293,-92.427 10.128,-92.236 9.963,-92.046C10.309,-91.707 10.635,-91.388 11.004,-91.027C11.007,-90.718 11.01,-90.366 11.013,-90.143C11.323,-89.235 12.144,-89.226 12.701,-88.823C12.527,-88.629 12.354,-88.436 12.174,-88.235C13.031,-87.581 13.468,-86.642 13.864,-85.622C13.716,-85.436 13.554,-85.231 13.278,-84.883C13.717,-84.655 14.192,-84.409 14.445,-84.278C14.258,-82.475 15.466,-81.591 15.747,-80.341C16.147,-80.345 16.507,-80.349 16.856,-80.353C17.563,-79.917 16.817,-78.862 17.671,-78.513C17.705,-77.7 18.372,-77.326 18.863,-76.799C18.866,-76.458 18.87,-76.098 18.874,-75.661C19.123,-75.462 19.405,-75.236 19.792,-74.926C20.065,-74.891 20.584,-74.969 20.908,-74.753C21.627,-74.275 22.583,-74.113 22.986,-73.258C23.31,-73.262 23.583,-73.264 23.857,-73.267C23.923,-73.112 23.947,-72.877 24.062,-72.816C24.43,-72.62 24.833,-72.489 25.311,-72.298C25.399,-72.376 25.586,-72.543 25.776,-72.712C25.962,-72.549 26.157,-72.379 26.352,-72.208C26.48,-72.339 26.608,-72.469 26.793,-72.658C27.266,-72.433 27.766,-72.195 28.261,-71.96C28.263,-71.761 28.265,-71.579 28.266,-71.393C28.721,-71.165 29.176,-70.937 29.696,-70.677C29.805,-70.773 29.992,-70.938 30.216,-71.135C30.35,-71.137 30.634,-71.212 30.692,-71.129C31.128,-70.503 32.048,-70.702 32.443,-70.06C32.913,-70.065 33.369,-70.069 33.826,-70.074C34.484,-69.746 35.142,-69.417 35.798,-69.089C35.932,-69.226 36.06,-69.356 36.218,-69.517C36.404,-69.362 36.593,-69.204 36.799,-69.033C37.392,-69.02 38.054,-69.134 38.457,-68.473C39.082,-68.698 39.334,-67.929 39.901,-67.888C40.178,-68.073 40.447,-68.254 40.781,-68.478C40.85,-68.205 40.912,-67.959 40.977,-67.705C41.715,-66.43 43.385,-66.242 44.231,-64.899C44.234,-64.659 44.237,-64.301 44.243,-63.734C44.782,-63.313 45.424,-62.813 45.95,-62.403C45.958,-61.635 45.963,-61.092 45.968,-60.569C46.118,-60.422 46.248,-60.294 46.439,-60.108C46.287,-59.864 46.049,-59.623 45.981,-59.34C45.902,-59.009 45.969,-58.642 45.973,-58.24C45.638,-58.168 45.388,-58.115 45.114,-58.056C44.727,-57.359 44.586,-56.369 43.441,-56.363C42.93,-55.841 42.418,-55.319 41.899,-54.789C40.814,-54.778 39.721,-54.767 38.73,-54.757C38.071,-54.369 37.493,-54.028 36.907,-53.683C36.789,-53.799 36.658,-53.927 36.467,-54.115C35.996,-54.11 35.465,-54.105 34.8,-54.098C34.637,-53.987 34.354,-53.795 33.964,-53.529C33.72,-53.678 33.431,-53.854 33.116,-54.045C33.056,-53.99 32.899,-53.91 32.851,-53.787C32.76,-53.555 32.731,-53.298 32.663,-52.99C32.398,-53.229 32.204,-53.402 32.004,-53.581C31.559,-53.577 31.102,-53.572 30.646,-53.567C30.584,-53.719 30.546,-53.981 30.456,-54.001C30.127,-54.072 30.075,-53.829 30.097,-53.562C29.457,-53.555 28.818,-53.549 28.186,-53.542C27.987,-53.352 27.791,-53.166 27.616,-52.999C27.023,-52.776 26.834,-53.371 26.518,-53.495C26.083,-53.49 25.726,-53.487 25.337,-53.483C25.218,-53.147 25.105,-52.83 24.963,-52.434C24.761,-52.591 24.578,-52.732 24.354,-52.905C24.19,-52.764 24.005,-52.605 23.782,-52.414C23.608,-52.775 23.433,-53.137 23.263,-53.491C22.872,-53.487 22.506,-53.483 22.147,-53.48C21.949,-53.291 21.754,-53.105 21.577,-52.936C20.986,-52.715 20.796,-53.306 20.292,-53.509C19.912,-53.315 19.463,-53.085 18.841,-52.767C18.539,-53.202 18.228,-53.648 17.911,-54.104C17.571,-53.791 17.381,-53.616 17.23,-53.476C16.633,-53.823 16.064,-54.22 15.441,-54.489C15.14,-54.618 14.736,-54.504 14.438,-54.501C14.051,-54.88 13.725,-55.2 13.343,-55.574C13.168,-55.206 13.003,-54.861 12.824,-54.486C12.531,-55.129 12.254,-55.751 11.637,-56.12C11.363,-56.117 11.089,-56.114 10.815,-56.112C8.864,-57.172 8.3,-57.618 6.705,-59.362C6.525,-59.36 6.344,-59.358 6.088,-59.355C5.984,-59.653 5.873,-59.969 5.738,-60.356C5.524,-60.398 5.273,-60.447 4.897,-60.52C4.82,-60.953 4.731,-61.455 4.64,-61.973C4.371,-62.031 4.122,-62.084 3.793,-62.155C3.737,-62.365 3.671,-62.611 3.597,-62.888C2.988,-63.11 2.384,-63.43 1.987,-64.041C1.95,-64.562 2.055,-65.056 1.577,-65.536C1.191,-65.925 0.914,-66.59 0.903,-67.14C0.89,-67.756 0.472,-68.076 0.286,-68.548C0.102,-69.015 -0.141,-69.459 -0.347,-69.89C-0.095,-70.166 0.085,-70.365 0.207,-70.498C-0.045,-70.974 -0.283,-71.425 -0.534,-71.902C-0.727,-71.727 -0.916,-71.556 -1.126,-71.365C-1.269,-72.211 -1.922,-72.692 -2.473,-73.247C-2.259,-73.606 -1.748,-73.832 -1.969,-74.385C-2.293,-74.702 -2.62,-75.022 -2.985,-75.381C-3.035,-75.769 -3.091,-76.2 -3.146,-76.625C-3.283,-76.759 -3.413,-76.887 -3.641,-77.11C-3.648,-77.81 -3.656,-78.606 -3.665,-79.454C-3.998,-79.518 -4.248,-79.567 -4.582,-79.632C-4.673,-79.885 -4.721,-80.254 -4.918,-80.506C-5.146,-80.797 -5.416,-81.025 -5.311,-81.474C-5.155,-81.645 -4.973,-81.844 -4.792,-82.042C-6.633,-83.656 -6.633,-83.656 -7.305,-85.551C-7.489,-85.387 -7.677,-85.219 -7.868,-85.048C-8.301,-85.683 -8.274,-86.699 -9.386,-86.672C-9.525,-86.669 -9.711,-86.831 -9.803,-86.966C-10.179,-87.514 -10.815,-87.62 -11.322,-87.94C-11.851,-88.273 -12.252,-88.81 -12.783,-89.33C-13.057,-89.343 -13.408,-89.358 -13.945,-89.382C-14.22,-89.651 -14.542,-90.156 -14.998,-90.357C-15.396,-90.532 -15.837,-90.579 -16.107,-90.976C-16.309,-90.793 -16.501,-90.618 -16.693,-90.444C-17.076,-91 -17.15,-91.787 -17.916,-92.066C-18.275,-92.047 -18.659,-92.051 -18.609,-91.506C-19.066,-91.501 -19.523,-91.497 -20.202,-91.49C-20.416,-91.788 -20.722,-92.215 -21.029,-92.643C-21.282,-92.384 -21.41,-92.253 -21.634,-92.025C-21.89,-92.022 -22.44,-91.874 -22.561,-92.039C-23.165,-92.864 -24.401,-92.12 -24.879,-93.109C-25.109,-92.894 -25.299,-92.718 -25.595,-92.443C-25.91,-92.616 -26.271,-92.815 -26.64,-93.019C-26.746,-92.91 -26.874,-92.779 -27.066,-92.583C-27.532,-92.578 -28.063,-92.573 -28.747,-92.566C-28.896,-92.665 -29.181,-92.854 -29.531,-93.085C-30.174,-92.745 -30.849,-92.388 -31.569,-92.007C-31.69,-92.115 -31.884,-92.288 -32.072,-92.456C-32.262,-92.276 -32.457,-92.09 -32.66,-91.897C-33.021,-91.893 -33.383,-91.89 -33.634,-91.887C-33.994,-91.635 -34.273,-91.439 -34.565,-91.235C-34.861,-91.456 -35.069,-91.612 -35.298,-91.784C-35.794,-91.636 -36.02,-91.122 -36.409,-90.814C-36.743,-90.908 -36.832,-91.414 -37.276,-91.316C-37.338,-91.468 -37.376,-91.73 -37.466,-91.75C-37.796,-91.821 -37.848,-91.578 -37.825,-91.311" style="fill:rgb(13,75,153);fill-rule:nonzero;"/>
            </g>
        </g>
        <g transform="matrix(4.166667,0,0,4.166667,5580.7125,3946.359375)">
            <g transform="matrix(0,1,-1,0,257.468605,192.57569)">
                <path d="M0,0.597C-0.074,0.524 -0.136,0.464 -0.197,0.404C-0.257,0.526 -0.338,0.645 -0.365,0.774C-0.375,0.819 -0.253,0.892 -0.192,0.953C-0.127,0.833 -0.062,0.713 0,0.597M-0.519,-4.368C-0.284,-4.632 -0.103,-4.788 0.013,-4.982C0.097,-5.121 0.095,-5.312 0.129,-5.471C0.824,-5.794 1.515,-6.115 2.197,-6.432C2.195,-6.652 2.193,-6.833 2.191,-7.046C2.443,-7.284 2.709,-7.533 3.006,-7.813C3.169,-7.678 3.359,-7.519 3.614,-7.307C3.719,-7.628 3.819,-7.932 3.919,-8.235C4.373,-8.469 4.926,-8.526 5.266,-9.006C5.613,-9.01 5.974,-9.013 6.288,-9.017C6.509,-9.205 6.694,-9.363 6.876,-9.517C7.043,-9.354 7.173,-9.226 7.475,-8.93C7.742,-9.377 8.01,-9.825 8.276,-10.27C8.66,-9.926 8.856,-9.751 9.048,-9.58C9.415,-9.584 9.779,-9.587 10.125,-9.591C10.334,-9.786 10.531,-9.969 10.717,-10.143C10.916,-10.129 11.134,-10.177 11.262,-10.091C11.549,-9.897 11.745,-9.474 12.16,-9.618C12.757,-9.825 13.065,-9.264 13.531,-9.169C13.67,-9.311 13.798,-9.442 13.959,-9.606C14.341,-9.25 14.724,-8.894 15.114,-8.531C15.655,-8.536 16.202,-8.542 16.715,-8.547C16.945,-8.356 17.129,-8.142 17.363,-8.024C17.581,-7.914 17.851,-7.905 18.097,-7.852C18.104,-7.233 18.109,-6.688 18.116,-6.003C18.59,-5.572 19.293,-5.171 19.619,-4.567C19.915,-4.017 20.162,-3.488 20.676,-3.093C21.207,-3.099 21.754,-3.104 22.272,-3.11C22.494,-2.915 22.695,-2.738 22.909,-2.551C25.464,-2.577 28.019,-2.603 30.569,-2.629C30.956,-1.879 31.701,-2.233 32.259,-2.042C32.639,-1.655 32.366,-1.173 32.46,-0.74C31.965,-0.177 30.958,-0.814 30.597,0.069C27.852,0.097 25.113,0.125 22.283,0.154C22.093,0.402 21.872,0.691 21.597,1.052C21.872,1.179 22.252,1.279 22.531,1.504C22.791,1.713 23.172,1.889 23.162,2.322C23.104,2.489 23.065,2.657 22.991,2.808C22.642,3.51 21.644,3.287 21.344,4.01C20.749,4.016 20.205,4.021 19.697,4.026C19.113,4.333 19.418,4.843 19.284,5.569C19.056,5.717 18.599,6.014 18.482,6.09C18.24,6.793 18.136,7.097 17.992,7.514C17.502,7.268 17.142,7.088 16.795,6.914C16.402,7.498 16.793,8.155 16.529,8.862C16.044,9.393 15.209,8.743 14.59,9.167C14.48,9.486 14.371,9.806 14.268,10.104C14.033,10.121 13.855,10.134 13.66,10.148C13.469,9.974 13.269,9.792 13.064,9.604C12.709,9.608 12.343,9.612 11.909,9.616C11.81,9.916 11.704,10.236 11.597,10.56C11.197,10.867 10.741,10.676 10.328,10.698C10.114,10.514 9.912,10.342 9.658,10.125C8.465,10.66 7.548,9.459 6.386,9.573C5.531,8.823 4.358,8.689 3.434,7.951C3.126,8.18 2.861,8.377 2.593,8.576C2.355,8.123 2.116,7.671 1.797,7.065C1.795,6.893 1.792,6.528 1.788,6.166C1.264,5.866 0.745,5.568 0.224,5.271C0.22,4.415 -0.116,3.721 -0.491,3.016C-0.315,2.793 -0.153,2.588 0.019,2.37C-0.196,1.591 -1.077,1.696 -1.554,1.248C-1.374,1.049 -1.193,0.851 -1.032,0.674C-1.036,0.284 -1.04,-0.078 -1.043,-0.425C-1.189,-0.567 -1.319,-0.696 -1.477,-0.85C-1.337,-1.197 -1.147,-1.547 -1.058,-1.921C-0.98,-2.247 -1.154,-2.64 -0.746,-2.879C-0.573,-2.525 -0.399,-2.17 -0.209,-1.783C0.289,-2.406 -0.053,-3.063 0.037,-3.669C-0.177,-3.938 -0.39,-4.205 -0.519,-4.368" style="fill:rgb(13,75,153);fill-rule:nonzero;"/>
            </g>
        </g>
        <g transform="matrix(4.166667,0,0,4.166667,5580.7125,3946.359375)">
            <g transform="matrix(0,1,-1,0,302.892905,57.66439)">
                <path d="M0,0.521C-0.269,0.524 -0.544,0.556 -0.805,0.512C-0.889,0.498 -0.96,0.289 -0.995,0.158C-1.006,0.118 -0.882,-0.006 -0.813,-0.012C-0.545,-0.035 -0.275,-0.025 -0.006,-0.028L0,0.521Z" style="fill:rgb(13,75,153);fill-rule:nonzero;"/>
            </g>
        </g>
        <g transform="matrix(4.166667,0,0,4.166667,5580.7125,3946.359375)">
            <g transform="matrix(0.436334,0.899785,0.899785,-0.436334,280.423256,46.235435)">
                <path d="M-0.09,-0.017C-0.167,0.09 -0.247,0.2 -0.327,0.311C-0.245,0.34 -0.126,0.418 -0.09,0.389C0.014,0.308 0.086,0.183 0.17,0.076C0.089,0.048 0.008,0.018 -0.09,-0.017" style="fill:rgb(13,75,153);fill-rule:nonzero;"/>
            </g>
        </g>
        <g transform="matrix(4.166667,0,0,4.166667,5580.7125,3946.359375)">
            <g transform="matrix(0.891507,-0.453008,-0.453008,-0.891507,256.632409,46.648357)">
                <path d="M-0.247,-0.499C-0.325,-0.318 -0.402,-0.137 -0.48,0.044C-0.403,0.069 -0.325,0.096 -0.247,0.122C-0.199,-0.069 -0.152,-0.26 -0.104,-0.45C-0.151,-0.467 -0.2,-0.482 -0.247,-0.499" style="fill:rgb(13,75,153);fill-rule:nonzero;"/>
            </g>
        </g>
        <g transform="matrix(4.166667,0,0,4.166667,5580.7125,3946.359375)">
            <g transform="matrix(-0.891507,0.453008,0.453008,0.891507,257.077509,47.085457)">
                <path d="M0.306,-0.152C0.228,0.029 0.151,0.21 0.073,0.391C0.15,0.416 0.229,0.443 0.306,0.469C0.354,0.278 0.402,0.088 0.449,-0.103C0.402,-0.12 0.353,-0.135 0.306,-0.152" style="fill:rgb(13,75,153);fill-rule:nonzero;"/>
            </g>
        </g>
        <g transform="matrix(4.166667,0,0,4.166667,5580.7125,3946.359375)">
            <g transform="matrix(0,1,-1,0,258.866805,47.67919)">
                <path d="M0,0.527C-0.267,0.549 -0.51,0.497 -0.439,0.168C-0.42,0.077 -0.157,0.04 -0.006,-0.022C-0.004,0.161 -0.002,0.344 0,0.527" style="fill:rgb(13,75,153);fill-rule:nonzero;"/>
            </g>
        </g>
        <g transform="matrix(4.166667,0,0,4.166667,5580.7125,3946.359375)">
            <g transform="matrix(0,1,-1,0,259.965005,47.66799)">
                <path d="M0,0.527C-0.267,0.549 -0.51,0.497 -0.439,0.168C-0.42,0.077 -0.157,0.04 -0.006,-0.022C-0.004,0.161 -0.002,0.344 0,0.527" style="fill:rgb(13,75,153);fill-rule:nonzero;"/>
            </g>
        </g>
        <g transform="matrix(4.166667,0,0,4.166667,5580.7125,3946.359375)">
            <g transform="matrix(-0.699337,0.714792,0.714792,0.699337,259.15792,47.556958)">
                <path d="M0.272,-0.111C0.142,0.019 0.013,0.148 -0.117,0.278C0.013,0.407 0.142,0.536 0.272,0.666C0.401,0.536 0.53,0.407 0.66,0.278C0.53,0.148 0.401,0.019 0.272,-0.111" style="fill:rgb(13,75,153);fill-rule:nonzero;"/>
            </g>
        </g>
        <g transform="matrix(4.166667,0,0,4.166667,5580.7125,3946.359375)">
            <g transform="matrix(0,1,-1,0,248.456705,49.98139)">
                <path d="M0,0.527C-0.267,0.549 -0.51,0.497 -0.439,0.168C-0.42,0.077 -0.157,0.04 -0.006,-0.022C-0.004,0.161 -0.002,0.344 0,0.527" style="fill:rgb(13,75,153);fill-rule:nonzero;"/>
            </g>
        </g>
        <g transform="matrix(4.166667,0,0,4.166667,5580.7125,3946.359375)">
            <g transform="matrix(0.891507,-0.453008,-0.453008,-0.891507,232.517509,51.286357)">
                <path d="M-0.247,-0.499C-0.325,-0.318 -0.402,-0.137 -0.48,0.044C-0.402,0.069 -0.324,0.096 -0.247,0.122C-0.199,-0.069 -0.151,-0.259 -0.104,-0.45C-0.151,-0.467 -0.2,-0.482 -0.247,-0.499" style="fill:rgb(13,75,153);fill-rule:nonzero;"/>
            </g>
        </g>
        <g transform="matrix(4.166667,0,0,4.166667,5580.7125,3946.359375)">
            <g transform="matrix(-0.891507,0.453008,0.453008,0.891507,232.962709,51.723357)">
                <path d="M0.306,-0.152C0.228,0.029 0.151,0.21 0.073,0.391C0.15,0.416 0.229,0.443 0.306,0.469C0.354,0.278 0.401,0.087 0.449,-0.103C0.402,-0.12 0.353,-0.135 0.306,-0.152" style="fill:rgb(13,75,153);fill-rule:nonzero;"/>
            </g>
        </g>
        <g transform="matrix(4.166667,0,0,4.166667,5580.7125,3946.359375)">
            <g transform="matrix(0.891507,-0.453008,-0.453008,-0.891507,225.967809,55.196457)">
                <path d="M-0.247,-0.499C-0.325,-0.318 -0.402,-0.137 -0.48,0.044C-0.402,0.069 -0.324,0.096 -0.247,0.122C-0.199,-0.069 -0.151,-0.259 -0.104,-0.45C-0.151,-0.467 -0.2,-0.482 -0.247,-0.499" style="fill:rgb(13,75,153);fill-rule:nonzero;"/>
            </g>
        </g>
        <g transform="matrix(4.166667,0,0,4.166667,5580.7125,3946.359375)">
            <g transform="matrix(0.891507,-0.453008,-0.453008,-0.891507,224.886836,56.855403)">
                <path d="M-0.248,-0.498C-0.325,-0.317 -0.403,-0.136 -0.479,0.044C-0.402,0.071 -0.325,0.097 -0.248,0.122C-0.2,-0.068 -0.152,-0.258 -0.104,-0.45C-0.152,-0.466 -0.2,-0.482 -0.248,-0.498" style="fill:rgb(13,75,153);fill-rule:nonzero;"/>
            </g>
        </g>
        <g transform="matrix(4.166667,0,0,4.166667,5580.7125,3946.359375)">
            <g transform="matrix(-0.999959,0.009107,0.009107,0.999959,211.77697,58.85759)">
                <path d="M0.275,-0.272C0.214,-0.15 0.132,-0.033 0.103,0.097C0.092,0.142 0.213,0.216 0.275,0.277C0.335,0.155 0.417,0.038 0.446,-0.092C0.457,-0.137 0.335,-0.211 0.275,-0.272" style="fill:rgb(13,75,153);fill-rule:nonzero;"/>
            </g>
        </g>
        <g transform="matrix(4.166667,0,0,4.166667,5580.7125,3946.359375)">
            <g transform="matrix(-0.436334,-0.899785,-0.899785,0.436334,305.318656,63.004935)">
                <path d="M0.073,-0.392C-0.004,-0.285 -0.084,-0.175 -0.164,-0.064C-0.082,-0.035 0.037,0.043 0.073,0.014C0.177,-0.067 0.249,-0.192 0.333,-0.299C0.252,-0.327 0.17,-0.357 0.073,-0.392" style="fill:rgb(13,75,153);fill-rule:nonzero;"/>
            </g>
        </g>
        <g transform="matrix(4.166667,0,0,4.166667,5580.7125,3946.359375)">
            <g transform="matrix(-0.999959,0.009107,0.009107,0.999959,193.780666,71.12009)">
                <path d="M0.275,-0.272C0.214,-0.15 0.132,-0.032 0.103,0.097C0.093,0.142 0.213,0.216 0.275,0.278C0.336,0.156 0.418,0.038 0.447,-0.091C0.456,-0.136 0.336,-0.21 0.275,-0.272" style="fill:rgb(13,75,153);fill-rule:nonzero;"/>
            </g>
        </g>
        <g transform="matrix(4.166667,0,0,4.166667,5580.7125,3946.359375)">
            <g transform="matrix(0.418434,-0.908247,-0.908247,-0.418434,191.18222,71.547108)">
                <path d="M-0.069,-0.394C-0.166,-0.359 -0.248,-0.33 -0.328,-0.301C-0.245,-0.193 -0.173,-0.069 -0.069,0.012C-0.032,0.04 0.086,-0.037 0.168,-0.066C0.088,-0.177 0.009,-0.287 -0.069,-0.394" style="fill:rgb(13,75,153);fill-rule:nonzero;"/>
            </g>
        </g>
        <g transform="matrix(4.166667,0,0,4.166667,5580.7125,3946.359375)">
            <g transform="matrix(0.891507,-0.453008,-0.453008,-0.891507,191.554409,73.117357)">
                <path d="M-0.247,-0.499C-0.325,-0.318 -0.402,-0.137 -0.48,0.044C-0.402,0.069 -0.324,0.096 -0.247,0.122C-0.199,-0.069 -0.151,-0.259 -0.104,-0.45C-0.151,-0.467 -0.2,-0.482 -0.247,-0.499" style="fill:rgb(13,75,153);fill-rule:nonzero;"/>
            </g>
        </g>
        <g transform="matrix(4.166667,0,0,4.166667,5580.7125,3946.359375)">
            <g transform="matrix(-0.436334,-0.899785,-0.899785,0.436334,279.724356,84.130435)">
                <path d="M0.073,-0.392C-0.004,-0.285 -0.084,-0.175 -0.164,-0.064C-0.083,-0.035 0.036,0.043 0.073,0.014C0.177,-0.067 0.248,-0.191 0.333,-0.299C0.252,-0.327 0.17,-0.357 0.073,-0.392" style="fill:rgb(13,75,153);fill-rule:nonzero;"/>
            </g>
        </g>
        <g transform="matrix(4.166667,0,0,4.166667,5580.7125,3946.359375)">
            <g transform="matrix(0,1,-1,0,184.609305,89.06699)">
                <path d="M0,0.531C-0.38,0.549 -0.565,0.368 -0.555,-0.013C-0.372,-0.014 -0.189,-0.016 -0.006,-0.018C-0.004,0.165 -0.002,0.348 0,0.531" style="fill:rgb(13,75,153);fill-rule:nonzero;"/>
            </g>
        </g>
        <g transform="matrix(4.166667,0,0,4.166667,5580.7125,3946.359375)">
            <g transform="matrix(0,1,-1,0,183.574005,89.61599)">
                <path d="M0,-0.51C0.022,-0.243 -0.03,0 -0.359,-0.071C-0.45,-0.09 -0.487,-0.353 -0.549,-0.504C-0.366,-0.506 -0.183,-0.508 0,-0.51" style="fill:rgb(13,75,153);fill-rule:nonzero;"/>
            </g>
        </g>
        <g transform="matrix(4.166667,0,0,4.166667,5580.7125,3946.359375)">
            <g transform="matrix(-0.891507,0.453008,0.453008,0.891507,250.363709,88.884757)">
                <path d="M0.306,-0.152C0.228,0.029 0.151,0.21 0.073,0.391C0.151,0.416 0.229,0.443 0.306,0.469C0.354,0.278 0.401,0.087 0.449,-0.103C0.402,-0.12 0.353,-0.135 0.306,-0.152" style="fill:rgb(13,75,153);fill-rule:nonzero;"/>
            </g>
        </g>
        <g transform="matrix(4.166667,0,0,4.166667,5580.7125,3946.359375)">
            <g transform="matrix(-0.891507,0.453008,0.453008,0.891507,312.969409,89.346757)">
                <path d="M0.306,-0.152C0.228,0.029 0.151,0.21 0.073,0.391C0.15,0.416 0.229,0.443 0.306,0.469C0.354,0.278 0.401,0.087 0.449,-0.103C0.402,-0.12 0.353,-0.135 0.306,-0.152" style="fill:rgb(13,75,153);fill-rule:nonzero;"/>
            </g>
        </g>
        <g transform="matrix(4.166667,0,0,4.166667,5580.7125,3946.359375)">
            <g transform="matrix(0,1,-1,0,184.145405,91.80659)">
                <path d="M0,-0.51C0.022,-0.243 -0.03,0 -0.359,-0.071C-0.449,-0.091 -0.487,-0.353 -0.549,-0.504C-0.366,-0.506 -0.183,-0.508 0,-0.51" style="fill:rgb(13,75,153);fill-rule:nonzero;"/>
            </g>
        </g>
        <g transform="matrix(4.166667,0,0,4.166667,5580.7125,3946.359375)">
            <g transform="matrix(0.909181,0.4164,0.4164,-0.909181,243.269623,91.09366)">
                <path d="M-0.181,-0.127C-0.279,-0.092 -0.36,-0.063 -0.441,-0.034C-0.357,0.074 -0.285,0.198 -0.181,0.279C-0.143,0.307 -0.025,0.229 0.056,0.2C-0.024,0.09 -0.104,-0.02 -0.181,-0.127" style="fill:rgb(13,75,153);fill-rule:nonzero;"/>
            </g>
        </g>
        <g transform="matrix(4.166667,0,0,4.166667,5580.7125,3946.359375)">
            <g transform="matrix(0.899785,-0.436334,-0.436334,-0.899785,237.782353,91.943245)">
                <path d="M-0.196,-0.286C-0.273,-0.179 -0.353,-0.069 -0.433,0.042C-0.351,0.071 -0.232,0.149 -0.196,0.12C-0.091,0.039 -0.02,-0.086 0.064,-0.193C-0.017,-0.221 -0.098,-0.251 -0.196,-0.286" style="fill:rgb(13,75,153);fill-rule:nonzero;"/>
            </g>
        </g>
        <g transform="matrix(4.166667,0,0,4.166667,5580.7125,3946.359375)">
            <g transform="matrix(-0.999959,0.009107,0.009107,0.999959,239.571666,92.06929)">
                <path d="M0.275,-0.272C0.214,-0.15 0.132,-0.032 0.103,0.097C0.093,0.142 0.213,0.216 0.275,0.278C0.336,0.156 0.418,0.038 0.447,-0.091C0.456,-0.136 0.337,-0.21 0.275,-0.272" style="fill:rgb(13,75,153);fill-rule:nonzero;"/>
            </g>
        </g>
        <g transform="matrix(4.166667,0,0,4.166667,5580.7125,3946.359375)">
            <g transform="matrix(0,1,-1,0,287.455405,98.99289)">
                <path d="M0,-0.51C0.022,-0.243 -0.03,0 -0.359,-0.071C-0.45,-0.09 -0.487,-0.353 -0.549,-0.504C-0.366,-0.506 -0.183,-0.508 0,-0.51" style="fill:rgb(13,75,153);fill-rule:nonzero;"/>
            </g>
        </g>
        <g transform="matrix(4.166667,0,0,4.166667,5580.7125,3946.359375)">
            <g transform="matrix(0,1,-1,0,196.952405,110.89449)">
                <path d="M0,-0.527C0.267,-0.549 0.51,-0.497 0.439,-0.168C0.42,-0.077 0.157,-0.04 0.006,0.022C0.004,-0.161 0.002,-0.344 0,-0.527" style="fill:rgb(13,75,153);fill-rule:nonzero;"/>
            </g>
        </g>
        <g transform="matrix(4.166667,0,0,4.166667,5580.7125,3946.359375)">
            <g transform="matrix(0,1,-1,0,287.457805,117.59599)">
                <path d="M0,-0.85C0.264,-0.629 0.415,-0.503 0.566,-0.377C0.09,0 0.126,-0.425 0,-0.85" style="fill:rgb(13,75,153);fill-rule:nonzero;"/>
            </g>
        </g>
        <g transform="matrix(4.166667,0,0,4.166667,5580.7125,3946.359375)">
            <g transform="matrix(-0.891507,0.453008,0.453008,0.891507,295.391209,142.787557)">
                <path d="M0.306,-0.152C0.228,0.029 0.151,0.21 0.073,0.391C0.15,0.416 0.229,0.443 0.306,0.469C0.354,0.278 0.401,0.087 0.449,-0.103C0.402,-0.12 0.353,-0.135 0.306,-0.152" style="fill:rgb(13,75,153);fill-rule:nonzero;"/>
            </g>
        </g>
        <g transform="matrix(4.166667,0,0,4.166667,5580.7125,3946.359375)">
            <g transform="matrix(-0.891507,0.453008,0.453008,0.891507,270.306609,160.064457)">
                <path d="M0.306,-0.152C0.228,0.029 0.151,0.21 0.073,0.391C0.15,0.416 0.229,0.443 0.306,0.469C0.354,0.278 0.402,0.088 0.449,-0.103C0.402,-0.12 0.353,-0.135 0.306,-0.152" style="fill:rgb(13,75,153);fill-rule:nonzero;"/>
            </g>
        </g>
        <g transform="matrix(4.166667,0,0,4.166667,5580.7125,3946.359375)">
            <g transform="matrix(0,1,-1,0,249.706505,166.91519)">
                <path d="M0,-0.51C0.022,-0.243 -0.03,0 -0.359,-0.071C-0.449,-0.091 -0.487,-0.353 -0.549,-0.504C-0.366,-0.506 -0.183,-0.508 0,-0.51" style="fill:rgb(13,75,153);fill-rule:nonzero;"/>
            </g>
        </g>
        <g transform="matrix(4.166667,0,0,4.166667,5580.7125,3946.359375)">
            <g transform="matrix(0,1,-1,0,262.700905,192.11789)">
                <path d="M0,0.85C-0.264,0.629 -0.415,0.503 -0.566,0.377C-0.09,0 -0.126,0.425 0,0.85" style="fill:rgb(13,75,153);fill-rule:nonzero;"/>
            </g>
        </g>
    </g>
</svg>
