<?xml version="1.0" encoding="UTF-8" standalone="no"?>
<!DOCTYPE svg PUBLIC "-//W3C//DTD SVG 1.1//EN" "http://www.w3.org/Graphics/SVG/1.1/DTD/svg11.dtd">
<svg width="100%" height="100%" viewBox="0 0 1902 1956" version="1.1" xmlns="http://www.w3.org/2000/svg" xmlns:xlink="http://www.w3.org/1999/xlink" xml:space="preserve" xmlns:serif="http://www.serif.com/" style="fill-rule:evenodd;clip-rule:evenodd;stroke-linejoin:round;stroke-miterlimit:2;">
    <g transform="matrix(1,0,0,1,-11442.467681,-4958.058535)">
        <g transform="matrix(4.166667,0,0,4.166667,11161.425,3946.359375)">
            <g transform="matrix(0,-0.154734,0.154734,0,295.68242,477.487212)">
                <g transform="matrix(1,0,0,1,-1516.666667,-1475)">
                    <g transform="matrix(4.166667,0,0,4.166667,0,0)">
                        <path d="M654.023,206.497L654.125,205.987L654.492,205.864L654.452,205.742L654.125,205.579L653.718,206.191L653.718,206.802L654.023,206.497ZM326.655,587.696L327.878,585.657L327.471,584.026L325.024,583.21L324.616,583.21L323.392,584.841L323.392,587.288L323.8,588.104L326.655,587.696ZM372.248,614.938L371.922,614.611L372.656,614.122L371.922,613.388L373.961,612.164L378.262,609.427L378.061,608.222L376.408,606.805L376.408,606.863L375.184,606.863L373.553,609.31L372.194,609.854L371.106,610.941L370.698,611.757L370.562,611.485L370.29,611.757L370.009,612.094L370.29,612.164L366.212,616.243L366.212,618.282L368.659,618.689L369.475,618.282L370.29,616.243L371.514,615.019L371.959,615.13L372.248,614.938ZM374.659,612.944L374.708,612.912L374.369,612.98L374.659,612.944ZM370.698,599.93L370.698,598.299L370.29,597.891L369.067,597.891L366.62,599.115L365.805,600.746L365.805,603.193L367.844,603.193L369.883,601.154L370.698,599.93ZM366.62,613.796L367.028,610.941L364.581,610.941L363.358,611.757L361.726,613.796L361.726,615.835L362.542,616.243L364.989,616.243L364.989,615.427L366.62,613.796ZM338.889,606.863L340.52,606.047L343.375,604.008L346.638,601.561L347.045,601.561L349.492,600.338L351.531,598.707L351.531,596.26L350.308,594.221L350.452,594.149L349.492,592.997L347.861,592.997L343.375,596.26L340.928,598.707L337.87,602.785L337.095,604.335L336.442,607.271L338.889,606.863ZM84.008,370.742L87.271,367.887L87.678,365.848L87.096,365.362L86.863,365.44L85.232,364.217L81.969,362.178L79.93,362.993L77.6,367.654L77.891,369.11L79.93,371.149L83.193,371.149L84.008,370.742ZM332.142,679.342L332.392,678.876L332.772,676.598L332.364,671.705L333.18,670.889L335.627,670.073L336.034,669.666L336.279,669.339L334.811,670.073L337.258,666.811L338.074,663.548L340.52,665.18L342.559,664.772L344.859,661.705L344.598,659.878L344.191,656.208L342.559,656.48L342.559,656.616L341.744,657.023L339.705,658.655L336.85,661.917L333.18,665.18L330.733,669.258L326.247,677.006L324.616,682.715L324.616,685.57L327.063,685.162L329.51,683.123L331.141,680.676L332.142,679.342ZM66.88,495.939L69.735,491.861L74.221,486.152L75.852,479.219L78.707,475.549L84.824,471.878L86.047,469.839L87.678,466.169L91.757,463.722L94.611,459.644L96.65,458.013L102.768,457.605L104.224,457.022L105.26,456.246L105.972,455.391L106.735,454.12L106.37,453.391L103.991,450.672L103.583,447.817L107.662,442.108L108.64,441.374L108.477,441.293L110.924,439.661L112.963,438.846L112.555,438.03L110.516,437.214L106.846,437.214L102.36,437.622L101.952,438.03L100.219,438.846L99.505,439.254L98.981,439.428L95.019,441.293L94.203,440.885L94.611,437.418L94.611,433.952L92.98,432.321L93.388,431.097L95.835,431.505L99.097,424.98L103.991,418.047L109.293,412.338L113.779,408.668L117.017,405.07L117.449,403.774L117.449,400.512L118.672,397.657L121.935,393.987L122.343,393.171L123.566,390.724L122.343,391.132L118.672,393.579L114.594,398.065L111.332,400.919L110.516,400.512L110.516,398.473L107.254,398.473L105.215,399.288L98.689,399.288L97.466,399.696L90.533,404.59L87.678,405.813L80.338,405.405L78.299,406.629L75.444,410.299L74.629,410.299L74.629,411.115L72.997,412.338L69.735,413.154L67.696,413.969L63.21,414.785L60.763,416.416L57.908,416.824L55.869,415.601L52.607,416.008L52.607,416.824L50.16,419.679L47.713,421.31L44.451,421.31L42.412,420.902L39.965,419.271L36.295,418.455L34.255,417.64L33.848,416.416L35.071,414.785L38.741,410.707L39.557,407.444L42.412,401.735L45.266,398.065L48.529,394.802L53.015,391.132L58.316,386.238L61.171,384.607L64.026,382.568L65.657,381.752L65.657,380.937L66.88,379.306L70.958,378.49L72.997,377.674L72.182,375.228L68.919,373.188L67.288,373.596L66.065,378.082L64.433,378.082L61.986,377.267L61.171,374.82L60.355,373.596L58.316,373.596L58.316,372.781L59.947,370.334L60.763,365.848L61.462,363.518L61.579,362.993L61.724,362.644L61.986,361.77L64.841,355.245L67.288,350.351L68.104,345.457L68.511,343.826L68.919,343.011L69.327,341.787L69.871,341.108L70.143,340.564L70.415,340.428L70.958,339.748L71.502,339.884L71.774,339.748L72.145,340.045L72.59,340.156L73.201,340.89L73.813,341.379L75.444,343.011L76.124,343.35L76.551,343.244L77.985,342.383L78.707,341.481L79.708,339.73L80.024,338.305L80.338,334.854L81.154,333.223L81.571,332.834L81.561,332.815L84.416,329.961L84.713,329.901L87.271,327.514L88.086,325.475L86.455,322.62L86.455,320.173L86.727,319.901L86.863,318.542L87.135,317.998L87.271,317.319L87.984,316.299L88.086,316.095L90.941,312.017L92.572,310.386L96.242,309.162L100.525,309.162L100.729,308.755L100.729,308.347L101.952,306.308L104.345,304.214L106.438,301.822L106.574,301.686L109.293,298.152L112.963,291.627L113.131,291.627L113.371,291.219L116.226,284.286L119.488,278.577L122.75,274.907L124.463,272.704L126.421,270.013L130.091,258.594L130.295,257.982L130.907,255.74L132.13,252.477L133.354,248.807L135.8,242.69L135.393,240.243L132.538,239.019L132.538,236.165L132.946,234.941L133.354,234.475L133.354,234.126L135.8,231.679L139.878,229.64L144.772,229.64L146.403,230.048L146.607,230.251L147.219,230.455L147.264,230.637L148.85,231.271L156.191,232.494L160.677,232.494L168.017,231.271L170.464,230.863L172.911,230.863L177.052,230.487L177.499,230.387L181.067,228.009L185.145,225.969L187.184,224.746L189.223,220.668L189.631,218.833L189.631,216.998L185.553,214.551L185.553,211.288L185.961,210.065L187.009,207.793L187.592,206.395L189.223,201.909L191.262,199.462L194.117,194.976L197.787,191.714L203.497,189.267L207.575,186.412L212.468,184.373L216.139,183.15L218.586,178.256L220.625,177.032L223.887,176.625L226.334,177.032L226.334,177.114L227.965,177.44L232.043,178.256L234.184,177.338L235.034,176.489L235.306,175.401L235.306,172.139L236.121,171.731L238.976,168.876L241.015,164.798L243.462,160.72L243.87,158.273L241.423,154.603L241.831,150.525L242.005,150.525L242.238,148.894L243.87,146.855L249.579,144L254.065,143.184L258.959,140.737L261.405,140.737L262.221,141.145L265.076,141.145L266.707,140.33L274.048,140.33L276.494,139.106L278.533,136.252L278.533,132.989L278.941,131.358L281.796,128.095L285.466,125.241L287.913,124.833L288.525,125.343L288.729,125.241L290.36,126.872L293.622,128.095L294.03,130.134L291.991,132.989L287.505,138.291L284.651,141.961L284.295,143.737L285.874,144L287.505,143.184L294.03,136.659L297.7,132.581L301.371,130.134L307.896,128.911L309.527,128.095L312.789,124.425L318.091,119.939L322.577,117.492L324.616,115.453L328.286,110.56L330.733,106.481L331.141,104.442L326.655,104.85L322.577,105.666L320.946,106.006L320.946,106.074L314.828,107.297L313.197,107.705L313.081,107.647L312.789,107.705L312.731,107.472L312.382,107.297L312.517,106.617L312.382,106.074L312.654,105.938L312.789,105.258L314.421,102.811L314.661,102.667L315.644,101.305L315.644,101.18L318.091,97.918L322.985,92.616L327.063,88.946L331.549,85.684L335.219,84.46L335.538,84.487L335.627,84.46L340.113,84.868L343.783,83.645L347.861,80.79L349.492,78.751L350.308,75.488L353.162,72.226L356.425,70.595L359.687,66.924L364.989,64.07L368.251,61.215L371.514,59.584L375.184,59.584L377.631,57.545L378.243,57.137L379.262,56.321L379.534,56.276L380.078,55.914L380.893,56.05L381.709,55.914L382.525,56.321L385.379,56.729L391.904,51.02L394.351,47.757L396.39,45.718L398.021,44.903L398.021,44.087L399.245,42.456L400.876,40.417L406.993,36.747L409.236,35.319L412.805,32.77L416.781,29.406L417.572,28.83L418.82,27.775L419.985,27.076L421.267,26.144L422.082,25.817L422.898,25.328L423.985,25.056L424.121,25.002L424.121,24.92L424.529,24.839L425.345,24.512L425.79,24.587L426.16,24.512L429.015,24.92L434.316,24.92L435.54,25.736L438.802,25.736L441.249,24.512L442.298,24.279L442.473,24.207L442.473,24.105L442.88,24.037L443.696,23.697L448.59,23.697L448.998,24.512L448.59,26.959L447.366,28.427L447.366,28.59L446.551,29.406L446.396,29.519L446.143,29.814L440.218,34.18L437.579,36.339L436.837,36.635L435.54,37.562L432.685,39.601L429.015,43.272L426.16,46.534L425.805,46.85L422.898,50.204L418.82,55.914L416.373,60.4L411.479,75.081L411.479,77.935L413.518,77.935L416.781,76.304L420.043,75.896L420.859,76.712L420.733,77.716L420.859,78.343L420.496,79.612L420.451,79.974L420.288,80.341L420.043,81.198L419.431,82.268L418.82,83.645L414.538,90.985L411.887,96.287L410.664,99.141L406.993,107.705L406.838,107.938L406.585,108.521L406.498,108.608L406.178,109.336L405.688,109.662L404.546,111.375L404.139,113.006L406.585,113.006L409.44,111.375L414.742,107.705L417.188,107.297L419.635,108.521L422.49,108.928L426.16,106.889L430.646,104.086L430.646,104.035L432.685,102.811L435.132,101.996L436.763,105.258L437.987,109.336L439.618,111.375L443.696,113.006L448.998,113.414L451.037,114.23L454.707,116.677L456.746,116.677L458.494,113.88L460.008,109.336L461.232,105.258L461.64,104.442L462.047,103.219L462.591,102.539L462.863,101.996L463.316,101.633L463.679,101.18L465.193,100.044L466.941,98.122L466.941,97.918L470.204,94.655L470.448,94.594L472.243,93.024L474.69,89.762L477.136,86.907L482.846,83.237L487.739,81.606L491.002,81.606L492.021,82.013L492.225,82.013L492.361,82.149L493.041,82.421L494.264,84.868L494.381,85.742L494.672,86.907L494.769,88.655L495.08,90.985L495.896,95.879L497.935,95.879L498.342,94.655L501.197,90.17L501.314,90.034L502.013,88.946L503.644,87.315L506.279,84.303L508.538,81.198L508.538,75.081L506.906,70.595L506.499,65.701L506.906,63.254L506.906,62.031L507.314,60.807L508.363,58.535L508.945,57.137L509.012,57.129L509.353,56.389L509.353,56.321L509.385,56.321L509.761,55.506L509.761,52.243L510.984,51.02L514.247,49.389L519.956,49.389L523.627,49.797L528.928,51.428L530.559,52.651L532.598,53.059L533.822,51.836L534.23,51.754L534.637,51.428L535.249,51.55L535.861,51.428L536.676,51.836L537.217,52.298L537.492,52.243L539.531,54.282L540.755,58.768L543.901,60.341L544.425,60.4L544.833,60.807L548.095,63.662L549.217,64.682L551.358,66.517L551.62,66.866L552.581,67.74L553.56,69.453L553.804,69.779L553.94,70.119L555.843,73.449L557.412,76.116L559.106,78.751L559.152,79.074L559.488,79.645L559.514,79.567L562.776,85.276L565.631,90.17L565.742,90.466L566.039,90.985L566.243,91.801L566.854,93.432L569.301,99.549L569.627,100.446L570.117,101.588L570.052,101.614L570.932,104.035L573.379,106.889L575.01,113.006L576.234,114.638L579.904,117.085L583.167,117.085L583.167,121.57L584.254,124.561L585.512,127.076L587.653,130.134L588.264,130.95L590.507,133.805L590.915,135.436L589.692,140.33L589.692,142.573L590.099,144.816L590.507,145.223L592.32,146.673L595.809,148.894L600.702,148.894L606.004,147.262L610.082,146.855L611.713,147.67L610.898,150.117L610.49,153.787L610.49,159.089L611.305,160.72L613.752,159.904L619.054,158.273L627.21,158.273L628.433,158.681L631.288,158.681L632.104,158.273L634.551,158.273L636.59,160.312L636.386,160.312L636.59,160.72L637.813,163.167L637.813,167.653L637.405,169.284L635.774,171.731L632.512,174.178L632.104,175.809L633.735,178.256L633.735,181.926L633.327,182.64L633.327,182.742L631.424,186.004L630.262,188.184L628.799,191.985L628.433,194.364L628.433,197.423L630.472,199.462L632.919,199.87L634.958,196.607L637.813,193.345L639.205,192.585L639.036,192.529L641.483,191.306L645.154,189.267L645.503,189.15L646.785,188.451L647.845,188.125L648.824,187.635L651.026,187.146L652.086,186.82L652.278,186.868L652.494,186.82L653.718,187.228L654.533,188.451L654.533,192.121L654.125,193.617L654.125,193.753L653.31,196.607L653.31,201.909L654.533,203.132L654.533,199.462L655.757,194.568L659.019,188.043L662.282,183.965L662.407,183.902L662.689,183.557L663.641,183.285L664.728,182.742L665.163,182.85L665.544,182.742L666.36,183.15L666.36,186.004L665.544,189.267L665.136,193.753L666.36,197.423L668.807,199.462L673.292,201.093L677.37,201.093L679.002,200.685L682.264,199.054L685.935,195.792L687.974,195.792L688.789,196.607L688.789,199.054L687.974,201.501L685.527,205.171L681.856,208.434L676.147,211.288L676.147,213.327L679.41,215.774L681.856,216.182L683.08,215.366L685.119,213.327L685.935,212.104L686.179,212.267L686.342,212.104L687.158,212.92L685.935,215.366L682.211,217.973L681.856,219.037L681.856,220.668L683.08,224.338L683.08,231.679L682.672,232.087L682.672,232.494L681.856,232.902L679.41,232.902L678.71,232.553L678.186,232.494L676.555,231.475L675.331,230.863L672.069,228.212L669.214,225.969L668.998,225.718L668.807,225.562L668.399,225.018L666.767,223.115L664.932,221.28L663.505,220.26L661.874,219.037L660.243,217.813L657.796,214.551L656.232,211.424L656.164,211.696L655.126,209.361L654.125,208.026L653.31,210.881L653.718,212.92L653.609,213.572L653.718,214.551L652.902,216.59L652.902,225.154L658.611,224.338L659.019,224.746L659.427,226.785L659.019,227.04L659.019,227.193L656.164,228.824L654.125,230.863L655.349,236.98L655.349,246.768L654.941,248.807L654.805,248.807L654.533,249.826L654.533,250.438L653.718,252.885L653.718,261.857L654.533,265.527L657.388,276.13L660.243,284.694L662.282,285.917L663.75,287.141L663.913,287.141L664.728,287.956L664.747,288.031L665.136,288.364L665,289.044L665.136,289.588L664.742,290.572L665.111,294.991L665.253,295.938L666.496,302.773L667.583,307.123L667.889,308.653L667.991,308.755L669.214,314.464L671.253,316.911L670.03,319.358L668.399,323.436L668.399,326.698L674.108,329.553L676.827,331.184L678.186,331.184L678.186,332.815L677.982,333.019L677.778,334.039L674.516,338.117L671.661,343.011L669.214,349.536L666.36,357.862L666.36,358.1L664.185,364.262L661.874,371.965L660.243,376.043L660.049,376.344L659.835,376.859L659.427,377.47L659.427,377.674L656.572,381.752L656.266,382.211L656.164,382.568L654.941,384.199L650.047,389.093L645.969,392.763L643.522,394.686L643.522,394.802L641.891,395.968L640.381,397.154L638.425,399.288L636.59,401.327L636.481,401.409L636.182,401.735L635.774,401.939L633.327,403.774L625.987,405.813L619.054,408.668L614.16,410.299L609.266,412.746L608.043,412.95L608.043,413.154L604.047,413.725L599.479,416.008L595.401,419.679L592.546,422.941L588.468,426.611L584.662,429.874L581.943,432.321L580.638,433.463L577.457,436.399L577.235,436.51L573.379,440.069L572.768,440.341L572.156,440.749L572.156,440.885L570.117,442.108L562.776,443.739L556.659,445.778L555.436,446.186L551.765,447.41L550.542,447.817L543.38,448.215L541.005,449.7L539.123,452.711L538.308,458.828L536.676,461.275L533.414,468.616L532.598,473.509L532.191,483.705L530.559,486.967L530.559,492.676L530.151,493.492L529.744,493.9L528.928,495.123L527.297,498.386L526.073,504.911L523.219,508.581L519.956,513.883L519.723,514.174L519.141,515.106L517.781,516.601L516.693,517.961L515.878,518.695L515.063,519.592L513.635,520.713L512.616,521.631L512.466,521.631L509.353,524.078L504.052,528.156L501.197,532.642L497.527,539.982L497.193,540.316L496.303,542.021L493.857,544.876L486.924,549.362L483.254,551.809L482.03,552.624L478.36,555.887L477.544,556.702L476.729,557.11L473.466,558.742L472.65,560.373L472.243,564.859L471.427,567.305L471.353,567.305L470.611,569.345L468.572,571.791L464.086,575.462L459.601,579.948L458.468,582.213L458.785,584.433L458.785,588.512L458.377,589.327L458.377,594.629L457.969,597.483L454.707,601.154L448.182,603.601L447.392,603.904L447.366,604.008L442.88,605.64L437.987,606.455L431.054,608.902L430.891,608.861L428.607,609.718L418.004,614.204L409.13,617.596L402.948,620.199L399.245,622.36L395.575,624.807L387.011,631.331L382.933,634.186L378.447,637.449L373.961,641.119L369.067,646.013L368.659,646.217L368.659,646.42L367.436,646.828L367.436,647.644L366.62,648.052L360.911,653.761L358.056,656.82L355.609,659.47L353.366,662.121L351.531,664.364L349.696,666.403L348.269,668.034L348.258,668.001L347.861,668.442L345.006,672.112L344.751,673.387L347.045,674.151L347.045,674.967L347.453,675.375L347.045,675.987L347.045,676.19L346.819,676.326L346.638,676.598L346.171,676.715L345.006,677.414L336.442,681.492L333.588,685.162L331.956,688.425L329.51,694.542L329.102,695.357L329.102,695.765L327.063,699.436L323.8,703.921L320.13,706.368L314.013,708L304.633,708L304.225,706.368L305.857,703.106L311.158,702.698L311.974,702.29L312.341,700.455L312.246,699.979L311.566,698.62L311.158,697.804L311.158,694.95L311.974,693.726L312.993,693.115L313.197,692.911L313.333,692.911L314.013,692.503L317.275,692.503L321.353,690.056L322.169,687.201L319.722,687.201L317.275,688.017L313.605,690.056L311.158,690.056L310.75,689.648L309.935,685.162L307.896,683.531L305.041,683.939L303.818,685.468L302.458,687.337L300.555,690.056L297.7,692.911L295.661,693.726L294.03,696.173L291.991,698.212L286.69,701.067L281.388,704.329L278.941,703.921L274.455,703.106L272.824,701.882L272.671,701.679L272.416,701.475L272.212,701.067L270.377,698.62L270.377,690.872L272.824,688.017L274.455,684.347L275.271,680.676L276.087,678.229L278.126,673.744L278.126,670.889L275.679,659.47L274.863,653.353L274.048,651.314L274.455,643.158L277.31,637.449L277.31,632.963L276.494,631.331L275.271,627.661L272.824,627.661L271.193,628.885L265.076,632.555L260.182,636.633L254.881,636.633L254.473,637.856L251.618,642.75L248.763,646.013L246.317,649.683L243.054,652.13L237.753,659.062L231.635,665.587L227.965,669.666L224.703,675.783L222.256,678.637L219.809,683.531L216.954,684.754L211.653,690.056L211.245,690.464L211.07,690.464L207.575,692.911L205.481,693.672L205.536,693.726L203.089,694.542L200.234,694.95L198.671,694.168L194.933,694.542L192.486,695.357L193.301,692.911L195.855,691.953L196.972,690.464L201.05,685.162L204.312,680.269L208.39,674.967L208.39,672.52L206.759,672.52L204.312,674.151L201.05,677.006L195.748,681.084L190.855,683.939L186.776,684.754L185.145,685.57L181.883,688.425L177.805,690.464L174.542,693.318L170.872,694.542L169.648,695.357L167.609,697.804L166.658,698.892L165.163,700.659L165.097,700.675L164.755,701.067L163.976,700.956L163.531,701.067L163.327,700.863L161.9,700.659L159.861,702.29L156.599,704.329L154.56,704.737L154.56,703.921L159.453,699.028L161.9,696.989L162.308,695.765L159.861,694.95L160.024,694.623L159.861,694.542L160.218,694.236L160.269,694.134L160.495,693.998L162.716,692.095L163.124,690.056L162.308,690.056L157.822,691.687L155.375,691.687L155.783,690.872L155.783,688.833L153.336,688.017L152.521,687.201L149.666,687.201L148.171,687.881L148.035,688.017L147.777,688.06L145.18,689.24L144.248,689.124L143.549,689.24L143.222,688.996L141.917,688.833L138.247,690.464L133.348,692.497L133.354,692.503L116.633,699.436L112.969,701.048L112.963,701.067L106.438,703.921L103.176,706.368L100.729,706.368L100.321,705.553L100.321,703.106L100.729,702.29L102.768,701.475L103.176,700.659L102.36,700.659L102.36,696.173L100.729,694.95L99.913,693.318L101.952,691.279L107.254,690.464L110.924,688.017L120.304,678.637L121.527,676.19L124.382,675.783L128.052,673.336L129.274,670.889L133.354,668.034L134.985,667.219L135.393,665.995L139.471,658.655L139.471,654.169L138.655,653.353L134.169,649.683L130.907,647.644L130.907,645.605L131.277,645.049L131.314,644.789L131.45,644.789L131.722,644.381L134.169,644.789L138.247,643.974L141.917,643.974L142.733,645.605L143.141,646.42L145.18,646.828L145.996,646.013L145.996,643.974L144.772,642.342L144.364,641.391L143.957,640.711L143.898,640.303L143.549,639.488L143.549,637.856L143.141,635.41L143.178,635.298L142.733,634.186L142.733,630.924L143.141,628.885L144.772,625.214L145.112,624.942L145.18,624.807L145.792,624.399L146.811,623.583L147.071,623.546L147.627,623.175L152.928,623.175L155.375,623.991L158.172,624.69L158.763,624.493L159.453,622.768L159.453,612.98L159.861,609.31L160.269,607.882L160.269,607.271L160.485,607.127L160.677,606.455L161.9,605.232L164.347,601.969L170.464,595.852L172.376,595.597L172.911,595.444L177.315,594.71L178.25,594.295L180.219,592.818L180.252,592.59L180.795,592.318L181.883,591.366L185.553,589.327L189.223,585.657L191.507,582.721L193.301,579.132L193.403,579.005L193.709,578.316L194.106,576.331L193.981,576.277L192.078,576.277L191.262,578.316L190.039,578.724L188.816,577.093L188.816,574.646L182.291,574.646L179.028,573.423L177.805,573.83L176.989,575.462L174.134,582.802L172.095,585.249L170.056,585.249L169.648,584.841L167.609,583.618L165.57,584.026L162.716,586.065L159.861,588.919L156.611,589.28L156.599,589.327L156.558,589.286L156.191,589.327L155.783,588.512L155.783,584.841L156.191,584.026L156.359,583.978L156.599,583.618L157.618,583.618L159.045,583.21L161.492,579.948L162.716,577.501L162.308,576.277L161.492,574.646L162.716,572.199L163.531,569.752L160.269,569.752L157.414,570.976L150.481,577.909L149.147,578.947L148.035,579.948L147.675,580.092L146.811,580.763L141.917,581.987L140.694,583.21L141.102,585.657L142.325,586.88L142.325,589.327L141.51,590.143L139.063,591.366L137.432,594.221L134.577,594.629L129.274,597.891L125.605,597.891L123.566,596.668L120.711,596.668L117.857,598.707L110.924,602.377L108.885,603.193L108.885,604.008L107.662,605.232L105.622,605.64L103.991,604.416L103.176,601.561L100.321,601.561L98.281,601.154L98.689,597.891L98.955,597.448L99.097,596.668L99.75,596.124L99.913,595.852L100.321,595.648L101.544,594.629L106.03,594.221L108.069,592.182L111.74,589.735L116.226,584.841L117.857,584.026L117.857,583.21L121.935,578.724L127.236,572.199L130.907,567.713L133.761,563.635L136.208,560.373L140.286,554.663L140.694,552.217L137.839,550.585L137.432,548.954L139.063,546.915L138.655,544.06L140.286,542.837L140.578,542.779L141.102,542.429L142.325,541.614L145.18,541.614L146.403,542.021L148.035,541.614L149.691,540.288L149.938,539.303L149.724,538.235L148.442,536.312L144.772,534.273L144.364,533.05L145.588,531.418L148.442,527.748L148.442,522.854L146.403,522.854L145.996,521.631L148.035,518.776L149.666,512.251L149.258,511.028L145.588,511.028L144.364,511.436L140.286,514.291L140.179,514.333L139.063,515.106L132.946,521.223L130.091,520.815L127.644,521.631L123.566,524.893L119.08,530.195L116.226,533.865L111.332,539.167L108.885,539.575L108.069,538.759L108.069,536.312L109.293,534.273L108.885,532.234L106.846,529.379L106.438,526.525L107.662,523.67L108.885,519.592L110.516,517.145L112.147,513.067L115.474,508.262L115.682,507.222L115.451,506.297L115.138,506.089L112.963,505.726L108.885,508.581L106.03,508.989L105.622,508.173L106.846,505.319L106.846,500.833L104.807,500.833L101.544,503.687L98.281,507.765L95.835,508.989L93.388,511.028L89.31,514.291L86.863,515.106L84.416,514.698L82.785,513.476L77.483,513.883L75.852,512.659L72.59,512.659L62.394,514.698L60.355,515.106L59.132,515.922L56.685,516.329L56.685,514.698L62.802,502.464L66.88,495.939Z" style="fill:rgb(219,8,18);"/>
                        <path d="M693.275,196.607L695.45,193.073L697.761,188.451L698.653,186.31L698.577,186.004L699.8,183.557L702.247,181.518L713.258,175.401L719.375,172.954L723.861,172.547L724.269,172.954L724.676,174.993L723.045,177.44L719.375,180.703L716.928,183.965L713.258,192.121L713.666,197.423L712.442,199.462L707.956,201.093L707.344,201.161L703.878,202.317L697.353,204.763L694.718,206.269L692.459,208.026L690.828,208.842L691.644,205.987L693.275,196.607Z" style="fill:rgb(219,8,18);"/>
                        <path d="M32.624,460.052L33.032,456.381L35.479,451.488L37.926,443.332L39.557,440.885L43.635,438.438L46.327,436.97L46.898,436.399L47.495,436.332L48.121,435.991L55.462,435.991L55.869,436.399L55.869,438.846L53.423,446.594L51.791,450.672L51.791,455.566L50.976,457.197L48.937,458.421L44.043,460.46L40.347,462.492L40.373,462.499L35.887,464.945L32.216,469.431L31.809,467.8L32.624,464.538L32.624,460.052Z" style="fill:rgb(219,8,18);"/>
                        <path d="M233.674,123.202L230.82,126.872L228.781,128.095L226.334,128.748L226.334,128.911L222.664,129.727L221.032,131.358L218.178,130.95L213.284,133.397L211.653,133.805L212.468,132.173L214.671,130.338L215.004,129.922L216.954,125.241L217.362,121.57L220.217,117.9L221.032,117.492L225.11,115.453L228.373,114.638L235.714,114.638L237.753,115.453L238.16,117.492L236.937,119.124L233.674,123.202Z" style="fill:rgb(219,8,18);"/>
                        <path d="M289.544,115.045L287.913,115.818L287.913,115.861L284.651,117.492L283.205,118.048L281.796,118.716L280.864,118.949L279.349,119.531L278.941,119.429L278.533,119.531L278.126,119.226L277.718,119.124L277.555,118.797L276.902,118.308L271.193,118.308L269.969,117.085L269.562,115.453L270.377,113.822L271.95,112.773L272.009,112.599L272.212,112.599L272.824,112.191L276.494,112.191L277.718,113.006L278.533,115.045L280.572,115.045L286.282,112.599L287.829,112.317L287.913,112.191L290.768,111.783L291.583,113.006L289.952,114.638L289.544,115.045Z" style="fill:rgb(219,8,18);"/>
                        <path d="M88.086,606.863L88.086,604.416L88.2,603.623L88.086,602.377L88.457,601.821L88.494,601.561L88.793,601.317L88.902,601.154L89.135,601.037L92.98,597.891L93.872,597.713L93.796,597.483L95.019,597.483L97.058,601.969L93.866,605.87L93.796,606.047L93.67,606.11L93.388,606.455L91.757,610.941L90.533,611.757L90.355,611.782L87.678,613.388L85.232,613.388L85.232,610.533L86.863,608.902L88.086,606.863Z" style="fill:rgb(219,8,18);"/>
                        <path d="M74.629,296.52L71.774,296.928L68.511,294.889L68.104,292.442L68.919,290.811L71.366,288.772L74.221,287.956L76.26,288.364L77.483,289.588L77.891,292.442L77.075,294.481L74.629,296.52Z" style="fill:rgb(219,8,18);"/>
                        <path d="M68.104,562.412L72.182,559.149L73.405,555.887L74.629,555.887L75.036,556.702L75.852,562.412L72.997,564.043L66.88,566.082L65.249,567.713L63.618,567.305L63.618,565.674L66.945,564.343L68.104,562.412Z" style="fill:rgb(219,8,18);"/>
                        <path d="M203.089,135.436L199.419,136.252L197.787,135.844L197.461,135.517L196.156,135.028L194.117,133.805L194.525,132.173L196.972,130.134L200.642,129.727L201.865,130.134L203.089,131.766L203.348,133.842L203.497,133.397L203.371,134.024L203.497,135.028L203.089,135.436Z" style="fill:rgb(219,8,18);"/>
                        <path d="M223.479,168.468L225.11,169.692L225.11,172.547L224.703,173.362L222.664,174.993L220.217,174.993L219.401,174.586L217.362,172.547L217.77,170.507L221.032,168.468L223.479,168.468Z" style="fill:rgb(219,8,18);"/>
                        <path d="M398.866,34.649L398.837,34.708L398.829,34.684L397.614,35.806L397.614,35.931L393.943,39.193L391.904,39.193L391.904,37.562L392.231,36.583L392.312,35.931L392.475,35.849L392.72,35.115L394.759,33.076L398.021,30.222L400.468,28.998L400.876,30.629L399.245,34.3L398.866,34.649Z" style="fill:rgb(219,8,18);"/>
                        <path d="M189.631,698.212L191.262,697.397L190.039,700.251L188,704.737L187.208,705.793L187.184,705.961L186.369,706.776L185.961,706.776L185.145,707.184L184.941,706.776L184.737,706.776L184.737,706.368L183.922,702.698L186.369,700.659L189.631,698.212Z" style="fill:rgb(219,8,18);"/>
                        <path d="M242.646,93.024L241.423,92.209L241.26,91.801L241.015,91.801L240.607,90.17L241.831,88.131L244.685,87.315L246.724,88.538L246.724,91.393L245.501,92.616L242.646,93.024Z" style="fill:rgb(219,8,18);"/>
                        <path d="M112.147,671.297L112.147,669.666L115.002,669.666L115.818,670.073L119.488,672.52L120.711,674.559L118.999,674.804L115.41,675.783L114.594,675.375L115.002,672.52L114.186,672.52L112.147,671.297Z" style="fill:rgb(219,8,18);"/>
                        <path d="M384.972,12.278L385.379,12.686L385.379,14.725L385.025,15.168L384.972,15.541L383.049,17.638L382.117,18.803L379.262,21.658L378.039,22.575L378.039,22.881L376.941,23.54L373.553,26.551L373.145,26.959L372.194,27.367L371.514,27.775L368.251,29.406L366.62,29.406L367.028,27.775L367.028,23.697L367.844,20.842L371.106,17.58L372.047,16.011L372.329,14.317L371.106,11.87L371.106,9.423L371.514,9.016L373.553,7.792L379.262,7.792L380.486,8.608L380.893,12.278L384.972,12.278Z" style="fill:rgb(219,8,18);"/>
                        <path d="M121.527,663.141L120.711,662.325L120.304,659.878L121.119,659.062L125.605,659.062L126.013,661.102L124.382,663.141L121.527,663.141Z" style="fill:rgb(219,8,18);"/>
                        <path d="M92.164,418.863L92.98,420.902L91.757,422.533L88.902,422.941L88.086,422.126L88.086,419.679L88.902,418.047L91.349,418.047L92.164,418.863Z" style="fill:rgb(219,8,18);"/>
                        <path d="M184.33,695.357L185.961,696.989L185.961,699.028L185.145,699.843L183.106,700.251L181.475,698.62L181.475,696.581L182.291,695.765L184.33,695.357Z" style="fill:rgb(219,8,18);"/>
                        <path d="M361.726,7.384L360.503,6.161L360.503,4.122L362.542,1.675L364.989,0.859L367.028,2.899L367.436,5.753L366.212,7.384L361.726,7.384Z" style="fill:rgb(219,8,18);"/>
                        <path d="M342.559,44.903L342.152,44.495L342.152,42.456L343.375,41.233L346.23,41.233L346.638,41.64L347.045,43.272L345.006,44.903L342.559,44.903Z" style="fill:rgb(219,8,18);"/>
                        <path d="M5.301,482.481L5.505,482.481L6.524,480.442L8.156,480.034L11.01,481.258L13.049,481.666L16.312,480.442L18.934,478.986L20.435,477.859L22.021,475.956L25.284,474.325L27.73,472.694L28.138,473.102L27.73,475.549L25.284,478.403L22.837,481.666L19.574,484.52L17.128,487.783L14.681,488.482L14.681,488.598L13.702,488.762L11.989,489.251L10.195,491.045L9.962,491.162L9.379,491.861L6.932,491.861L6.524,491.045L3.262,489.822L2.854,489.006L3.262,487.783L5.301,482.481Z" style="fill:rgb(219,8,18);"/>
                        <path d="M381.709,5.753L382.117,2.491L383.748,2.491L387.011,2.899L387.011,4.122L384.564,5.753L381.709,5.753Z" style="fill:rgb(219,8,18);"/>
                        <path d="M88.086,540.798L88.494,539.167L90.941,538.759L91.757,539.167L92.164,541.206L91.349,542.429L88.902,542.429L88.086,540.798Z" style="fill:rgb(219,8,18);"/>
                        <path d="M622.316,44.903L621.909,42.864L622.724,41.64L624.763,41.233L625.579,41.64L626.394,43.272L624.355,44.495L622.316,44.903Z" style="fill:rgb(219,8,18);"/>
                        <path d="M447.811,92.728L447.774,93.024L447.548,93.387L447.366,93.84L447.094,94.112L446.261,95.445L446.143,95.879L445.929,95.976L445.735,96.287L440.841,98.734L437.987,98.734L436.355,97.51L436.763,93.84L438.395,91.393L442.065,88.538L445.735,87.315L446.958,87.723L447.774,88.946L447.8,89.125L448.182,89.762L448.046,90.849L448.182,91.801L447.811,92.728Z" style="fill:rgb(219,8,18);"/>
                        <path d="M35.479,402.143L35.479,400.512L37.926,396.841L39.557,396.841L39.557,398.473L37.11,401.735L35.479,402.143Z" style="fill:rgb(219,8,18);"/>
                        <path d="M624.355,53.875L618.238,59.992L614.976,62.439L612.529,65.293L608.043,67.332L606.412,67.74L606.412,60.807L607.635,58.768L610.082,56.729L611.713,54.282L611.713,48.981L612.121,48.165L615.384,46.534L619.054,46.534L620.277,47.757L620.685,50.612L624.763,51.428L624.355,53.875Z" style="fill:rgb(219,8,18);"/>
                        <path d="M95.427,531.826L95.835,530.603L97.874,528.971L99.913,528.564L99.913,530.195L98.281,532.234L95.835,532.234L95.427,531.826Z" style="fill:rgb(219,8,18);"/>
                        <path d="M245.093,120.347L245.093,121.57L243.054,123.202L241.423,122.794L242.238,120.755L244.278,119.939L245.093,120.347Z" style="fill:rgb(219,8,18);"/>
                        <path d="M99.097,624.399L99.097,626.438L98.281,627.253L95.835,627.661L95.835,626.438L97.466,624.807L99.097,624.399Z" style="fill:rgb(219,8,18);"/>
                        <path d="M56.685,431.913L57.908,430.69L61.579,429.058L65.657,429.058L66.472,430.282L65.657,432.729L64.892,433.493L64.841,433.952L63.618,434.768L61.171,436.399L57.908,436.399L56.277,435.175L56.277,432.729L56.779,432.101L56.685,431.913Z" style="fill:rgb(219,8,18);"/>
                        <path d="M78.707,550.585L79.114,550.993L78.707,554.256L77.075,554.663L77.075,551.809L77.483,550.993L78.707,550.585Z" style="fill:rgb(219,8,18);"/>
                        <path d="M597.848,41.64L597.934,41.619L598.256,41.233L602.742,40.825L603.965,41.64L606.412,41.64L608.859,42.048L608.953,42.707L609.266,42.864L609.266,44.903L608.451,47.35L605.596,49.797L602.334,49.797L601.926,49.389L601.904,49.281L600.295,47.35L596.217,47.757L595.809,47.35L595.809,44.495L596.217,43.679L596.726,43.068L596.624,42.864L597.848,41.64Z" style="fill:rgb(219,8,18);"/>
                        <path d="M123.158,654.577L122.75,654.658L122.75,654.984L121.119,654.984L118.265,652.13L115.818,650.906L115.002,649.275L115.002,646.013L116.633,644.381L119.488,644.381L122.75,645.197L127.236,647.644L127.644,648.867L126.829,649.905L126.829,650.091L123.158,654.577Z" style="fill:rgb(219,8,18);"/>
                        <path d="M584.288,83.262L583.982,83.645L581.128,83.645L581.128,81.198L581.943,80.382L585.206,80.382L585.614,81.606L584.39,83.237L584.288,83.262Z" style="fill:rgb(219,8,18);"/>
                        <path d="M0.407,464.13L0.679,463.994L2.039,462.906L5.709,462.499L6.117,461.275L7.748,460.867L11.418,462.906L15.496,464.13L18.759,463.722L20.798,462.499L26.099,456.789L27.73,456.381L28.954,457.605L28.954,460.867L28.546,462.499L26.507,466.169L24.468,468.208L21.613,469.024L21.613,469.839L19.574,473.102L17.128,474.733L13.457,474.733L9.787,472.286L6.117,471.063L6.524,469.431L6.117,465.761L3.67,465.761L1.631,466.985L0,466.577L0,464.538L0.407,464.13Z" style="fill:rgb(219,8,18);"/>
                        <path d="M607.609,30.169L606.82,31.037L602.334,33.484L598.663,35.931L595.401,35.931L594.585,35.115L594.993,33.076L595.284,32.785L595.809,31.037L596.176,30.793L596.217,30.629L597.44,29.95L598.256,29.406L602.742,26.959L604.509,26.28L605.596,25.736L606.369,25.564L608.043,24.92L610.898,24.92L610.898,26.551L607.635,30.222L607.609,30.169Z" style="fill:rgb(219,8,18);"/>
                        <path d="M26.099,486.152L24.468,486.152L24.06,484.113L25.692,483.705L26.099,486.152Z" style="fill:rgb(219,8,18);"/>
                        <path d="M93.796,427.019L93.388,425.796L95.019,424.98L95.427,426.611L93.796,427.019Z" style="fill:rgb(219,8,18);"/>
                        <path d="M274.863,101.18L276.494,100.773L276.494,101.996L274.455,102.811L274.863,101.18Z" style="fill:rgb(219,8,18);"/>
                        <path d="M727.939,186.412L725.9,186.82L725.9,185.596L727.531,185.189L727.939,186.412Z" style="fill:rgb(219,8,18);"/>
                        <path d="M329.51,67.332L331.141,66.924L331.141,68.556L329.51,68.556L329.51,67.332Z" style="fill:rgb(219,8,18);"/>
                        <path d="M144.772,594.629L143.141,595.036L143.549,593.405L144.772,593.405L144.772,594.629Z" style="fill:rgb(219,8,18);"/>
                        <path d="M42.412,495.939L40.78,496.755L40.78,495.531L42.412,495.123L42.412,495.939Z" style="fill:rgb(219,8,18);"/>
                        <path d="M657.796,263.896L658.611,263.896L658.611,265.527L657.388,265.527L657.796,263.896Z" style="fill:rgb(219,8,18);"/>
                        <path d="M97.058,534.681L97.874,534.273L98.281,535.904L97.466,536.312L97.058,534.681Z" style="fill:rgb(219,8,18);"/>
                        <path d="M54.646,376.859L56.277,375.635L56.277,376.451L55.054,377.674L54.646,376.859Z" style="fill:rgb(219,8,18);"/>
                        <path d="M11.418,492.676L10.603,493.492L10.195,492.269L11.01,492.269L11.418,492.676Z" style="fill:rgb(219,8,18);"/>
                        <path d="M340.52,77.935L340.52,78.343L339.297,78.343L340.52,77.935Z" style="fill:rgb(219,8,18);"/>
                    </g>
                </g>
            </g>
            <g transform="matrix(15.2507,0,0,15.2507,328.280791,476.023144)">
                <path d="M0,0.192L6.316,8.358L3.892,10.654L-2.999,2.552L-10.463,8.294L-12.696,5.87L-5.486,-0.318L-7.145,-2.296L-10.271,-6.315L-8.868,-10.462L-4.147,-5.167L-2.424,-2.934L0.255,-5.167L4.721,-10.271L8.421,-6.953L3.126,-2.168L0,0.192Z" style="fill:white;fill-rule:nonzero;"/>
            </g>
        </g>
    </g>
</svg>
