<?xml version="1.0" encoding="UTF-8" standalone="no"?>
<!DOCTYPE svg PUBLIC "-//W3C//DTD SVG 1.1//EN" "http://www.w3.org/Graphics/SVG/1.1/DTD/svg11.dtd">
<svg width="100%" height="100%" viewBox="0 0 69 102" version="1.1" xmlns="http://www.w3.org/2000/svg" xmlns:xlink="http://www.w3.org/1999/xlink" xml:space="preserve" xmlns:serif="http://www.serif.com/" style="fill-rule:evenodd;clip-rule:evenodd;stroke-linejoin:round;stroke-miterlimit:2;">
    <g transform="matrix(1,0,0,1,-12519.553651,-4656.618775)">
        <g transform="matrix(3.382769,0,0,4.620691,11490.053836,3867.894673)">
            <g transform="matrix(-0.637546,0.770412,-0.770412,-0.637546,306.890299,192.544046)">
                <path d="M-1.885,-2.085L-1.877,-1.361L-4.301,0.935L-4.884,0.275L-5.486,-0.318L-6.014,-0.93L-6.502,-1.76L-5.099,-5.907L-3.016,-3.801L-2.424,-2.934L-1.885,-2.085Z" style="fill:white;fill-rule:nonzero;"/>
            </g>
        </g>
        <g transform="matrix(3.382769,0,0,4.620691,11490.053836,3867.894673)">
            <g transform="matrix(1.059993,0.448031,-0.860809,0.579562,313.705195,179.337221)">
                <path d="M5.403,6.845L6.316,8.358L3.892,10.654L2.404,9.205L-0.083,6.335L-0.811,5.504L-2.068,3.777L-1.678,0.787L1.256,1.486L2.979,3.719L5.403,6.845Z" style="fill:white;fill-rule:nonzero;"/>
            </g>
        </g>
        <g transform="matrix(3.382769,0,0,4.620691,11490.053836,3867.894673)">
            <g transform="matrix(-0.634378,0.773023,-0.773023,-0.634378,310.90263,174.760706)">
                <path d="M-0.649,1.107L3.463,4.199L1.267,7.455L-2.999,2.552L-5.486,-0.318L-7.145,-2.296L-10.271,-6.315L-9.203,-10.187L-5.546,-5.166L-4.732,-3.699L-0.649,1.107Z" style="fill:white;fill-rule:nonzero;"/>
            </g>
        </g>
        <g transform="matrix(3.382769,0,0,4.620691,11490.053836,3867.894673)">
            <g transform="matrix(0.318819,0.871077,-1.160313,-0.03363,320.033609,178.035171)">
                <path d="M4.177,5.416L6.316,8.358L3.892,10.654L1.178,7.776L-1.309,4.906L-2.968,2.928L-6.094,-1.091L-4.691,-5.238L0.03,0.057L1.753,2.29L4.177,5.416Z" style="fill:white;fill-rule:nonzero;"/>
            </g>
        </g>
    </g>
</svg>
