<?xml version="1.0" encoding="UTF-8" standalone="no"?>
<!DOCTYPE svg PUBLIC "-//W3C//DTD SVG 1.1//EN" "http://www.w3.org/Graphics/SVG/1.1/DTD/svg11.dtd">
<svg width="100%" height="100%" viewBox="0 0 88 88" version="1.1" xmlns="http://www.w3.org/2000/svg" xmlns:xlink="http://www.w3.org/1999/xlink" xml:space="preserve" xmlns:serif="http://www.serif.com/" style="fill-rule:evenodd;clip-rule:evenodd;stroke-linejoin:round;stroke-miterlimit:2;">
    <g transform="matrix(1,0,0,1,-12385.595833,-4661.056667)">
        <g transform="matrix(3.382769,0,0,4.620691,11389.053836,3858.894673)">
            <g transform="matrix(-0.637546,0.770412,-0.770412,-0.637546,306.890299,192.544046)">
                <path d="M0,0.192L6.316,8.358L3.892,10.654L-2.999,2.552L-5.486,-0.318L-7.145,-2.296L-10.271,-6.315L-8.868,-10.462L-4.147,-5.167L-2.424,-2.934L0,0.192Z" style="fill:white;fill-rule:nonzero;"/>
            </g>
        </g>
        <g transform="matrix(3.382769,0,0,4.620691,11389.053836,3858.894673)">
            <g transform="matrix(0.651683,-0.758491,0.758491,0.651683,308.308073,181.236874)">
                <path d="M0,0.192L6.316,8.358L3.892,10.654L-2.999,2.552L-5.486,-0.318L-7.145,-2.296L-10.271,-6.315L-8.868,-10.462L-4.147,-5.167L-2.424,-2.934L0,0.192Z" style="fill:white;fill-rule:nonzero;"/>
            </g>
        </g>
        <g transform="matrix(3.382769,0,0,4.620691,11389.053836,3858.894673)">
            <g transform="matrix(-0.634378,0.773023,-0.773023,-0.634378,306.89108,177.668905)">
                <path d="M0,0.192L6.316,8.358L3.892,10.654L-2.999,2.552L-5.486,-0.318L-7.145,-2.296L-10.271,-6.315L-8.868,-10.462L-4.147,-5.167L-2.424,-2.934L0,0.192Z" style="fill:white;fill-rule:nonzero;"/>
            </g>
        </g>
    </g>
</svg>
