<?xml version="1.0" encoding="UTF-8" standalone="no"?>
<!DOCTYPE svg PUBLIC "-//W3C//DTD SVG 1.1//EN" "http://www.w3.org/Graphics/SVG/1.1/DTD/svg11.dtd">
<svg width="100%" height="100%" viewBox="0 0 1805 1780" version="1.1" xmlns="http://www.w3.org/2000/svg" xmlns:xlink="http://www.w3.org/1999/xlink" xml:space="preserve" xmlns:serif="http://www.serif.com/" style="fill-rule:evenodd;clip-rule:evenodd;stroke-linejoin:round;stroke-miterlimit:2;">
    <g transform="matrix(1,0,0,1,-11567.099306,-5095.029063)">
        <g transform="matrix(4.166667,0,0,4.166667,11161.425,3946.359375)">
            <g transform="matrix(0.24,0,0,0.24,313.861833,489.180725)">
                <g transform="matrix(1,0,0,1,-902.083333,-889.583333)">
                    <clipPath id="_clip1">
                        <rect x="0" y="0" width="1804.167" height="1779.167"/>
                    </clipPath>
                    <g clip-path="url(#_clip1)">
                        <g transform="matrix(4.166667,0,0,4.166667,-48568.766696,-20954.819738)">
                            <g transform="matrix(4.166667,0,0,4.166667,11161.425,3946.359375)">
                                <g transform="matrix(0.036841,0,0,0.036841,170.703227,311.064866)">
                                    <g transform="matrix(1,0,0,1,-1408.333333,-1389.583333)">
                                        <g>
                                            <clipPath id="_clip2">
                                                <rect x="0" y="0" width="2816.667" height="2779.167"/>
                                            </clipPath>
                                            <g clip-path="url(#_clip2)">
                                                <g transform="matrix(4.166667,0,0,4.166667,0,-1.091767)">
                                                    <g>
                                                        <path d="M656.635,208.076L654.23,208.557L650.863,209.038L647.496,210.482L644.609,211.444L644.248,211.925L644.128,211.925L643.166,213.368L643.166,219.141L643.551,219.91L643.647,220.584L644.489,221.786L645.09,222.989L645.382,223.062L647.014,225.394L650.591,224.997L652.787,225.875L654.23,226.837L654.755,226.662L655.192,226.837L655.433,226.436L655.673,226.356L655.77,225.875L656.635,224.432L658.56,224.432L661.266,227.739L661.446,228.28L662.889,229.724L665.776,229.724L666.257,227.799L665.776,226.837L662.729,224.661L662.372,224.254L661.927,222.027L663.37,221.546L664.813,219.141L664.813,216.254L662.889,213.849L661.927,208.557L661.446,208.076L661.102,208.145L659.041,207.114L659.865,206.083L660.484,205.671L660.58,205.19L660.965,204.709L660.805,204.068L660.965,203.266L660.484,202.785L658.079,202.304L657.117,203.747L656.635,208.076Z" style="fill:rgb(219,8,18);"/>
                                                        <path d="M608.049,124.854L608.049,134.956L606.606,135.438L605.913,136.361L605.644,136.4L605.575,136.812L605.163,137.362L605.338,138.236L605.163,139.286L605.548,139.286L605.644,139.767L608.049,139.767L609.011,138.805L609.974,135.438L615.314,135.771L615.265,135.919L617.67,135.919L621.038,133.994L622.028,133.4L622.481,133.513L623.443,132.551L623.924,130.146L624.886,130.146L625.848,128.703L624.405,125.816L624.886,121.968L621.038,121.006L621.038,120.044L619.595,118.12L616.227,118.12L614.303,117.158L611.417,117.158L609.974,121.487L608.049,124.854Z" style="fill:rgb(219,8,18);"/>
                                                        <path d="M590.25,335.555L588.326,335.555L586.883,342.29L586.883,347.1L587.364,347.581L589.288,351.43L589.89,352.151L589.769,352.392L591.694,354.316L593.618,354.797L593.618,352.873L594.58,352.873L596.504,352.392L599.39,351.911L599.711,351.59L600.352,351.43L601.112,350.518L601.315,350.468L602.758,348.543L603.72,343.252L604.201,340.847L603.72,340.366L601.796,337.479L597.947,335.555L594.58,335.074L592.656,336.036L590.25,335.555Z" style="fill:rgb(219,8,18);"/>
                                                        <path d="M306.43,63.761L306.109,63.601L306.43,62.799L306.911,62.799L307.392,60.394L308.354,60.394L308.354,62.318L308.547,62.318L308.835,65.204L305.949,66.167L306.43,63.761ZM518.573,545.053L518.573,544.331L518.093,543.369L514.724,542.888L514.244,543.369L514.084,544.171L513.763,544.812L513.932,544.926L513.763,545.775L512.801,545.294L508.472,545.775L506.547,543.85L503.661,541.926L500.775,542.407L498.483,541.134L498.37,540.964L496.445,540.002L495.483,538.078L495.964,535.673L495.964,530.862L496.358,528.5L496.445,528.457L496.371,528.42L496.445,527.976L497.407,526.533L498.851,525.089L498.851,524.849L501.737,524.127L510.877,521.241L513.281,519.317L515.687,519.317L515.687,519.798L514.724,521.723L515.206,524.608L516.649,526.533L520.498,526.533L521.94,526.051L523.865,524.608L523.986,524.007L524.346,523.646L524.346,522.564L524.827,521.723L526.752,522.203L531.081,523.165L531.081,524.608L529.638,524.127L528.836,524.288L527.714,524.127L527.634,524.528L527.233,524.608L527.408,525.658L527.233,526.533L527.446,525.891L527.714,527.495L527.233,531.343L527.874,531.984L527.714,532.305L529.638,533.748L530.581,538.937L530.119,539.04L529.638,540.002L529.157,544.331L528.676,544.812L519.055,546.737L518.573,545.053ZM154.225,158.817L154.418,158.047L156.342,158.817L156.342,161.895L154.418,161.895L154.048,160.415L154.225,158.817ZM520.017,169.317L520.017,172.96L518.573,174.403L518.75,175.289L517.612,176.808L516.168,176.808L516.168,175.846L515.182,173.083L515.206,172.96L514.244,170.073L514.03,169.859L513.763,169.111L512.232,166.662L511.935,164.878L512.32,164.301L514.813,161.392L516.649,160.933L515.687,164.301L516.168,167.668L517.612,168.63L519.215,168.859L520.017,169.317ZM527.04,167.187L527.233,168.149L527.714,168.149L527.714,170.073L526.271,170.073L526.271,167.187L527.04,167.187ZM571.008,297.071L570.321,296.246L569.084,294.185L566.198,291.779L566.679,289.374L566.545,287.904L566.679,286.969L566.46,286.969L566.198,284.082L568.122,284.082L568.723,282.88L569.084,282.639L571.489,282.639L572.644,283.537L573.414,284.564L575.819,286.488L578.224,289.374L577.743,290.817L573.414,294.185L571.489,297.071L571.008,297.071ZM567.261,418.271L567.16,418.296L566.679,421.182L565.236,421.182L565.236,420.701L563.793,420.22L562.83,418.296L565.717,417.815L566.198,416.853L566.39,415.506L566.967,414.351L568.122,413.966L567.261,418.271ZM438.719,552.509L438.719,551.547L440.162,551.547L440.162,552.509L438.719,552.509ZM574.857,195.569L574.376,192.202L574.857,191.721L578.224,191.721L578.224,192.202L578.568,192.27L578.705,192.683L578.705,195.088L578.224,195.569L574.857,195.569ZM573.574,232.129L573.414,232.129L573.414,232.225L570.056,232.561L570.367,231.006L570.527,230.686L572.932,230.686L573.681,231.808L573.574,232.129ZM497.888,507.771L493.559,504.885L490.673,504.404L491.154,501.999L492.116,501.037L493.559,501.037L496.926,502.48L497.888,502.576L497.888,502.961L501.256,503.923L500.775,506.328L500.294,508.253L497.888,507.771ZM560.631,424.481L560.425,424.068L559.142,423.748L559.463,423.587L556.096,421.182L555.8,420.442L556.096,419.258L558.982,419.258L561.387,421.663L561.387,424.068L561.147,424.309L560.631,424.481ZM429.579,532.786L429.579,531.824L428.938,531.503L428.136,529.9L428.617,528.457L430.541,528.457L433.428,530.862L432.946,532.305L432.465,532.374L432.465,532.305L429.579,532.786ZM461.329,533.748L463.184,539.315L462.772,539.521L462.772,540.002L462.291,540.483L460.847,540.483L460.366,537.116L459.878,537.058L459.404,533.267L461.329,533.748ZM568.122,366.823L570.046,366.823L572.451,367.785L573.317,369.95L572.894,370.479L569.333,372.458L568.122,369.229L567.942,369.229L567.826,368.304L568.122,366.823ZM119.782,241.269L120.103,240.82L120.263,240.788L121.706,238.864L121.76,238.543L122.187,237.902L122.039,236.865L122.187,235.977L121.886,235.797L121.706,234.534L123.149,234.534L124.962,233.239L125.554,233.091L126.12,232.412L126.517,232.129L127.158,231.167L127.96,230.205L129.403,227.799L134.995,218.479L135.122,218.606L135.176,219.141L135.176,224.913L132.77,226.356L132.77,229.243L133.251,230.205L133.251,233.572L136.619,234.053L135.657,235.496L132.77,236.458L132.289,237.902L128.922,238.864L125.554,242.231L122.187,242.712L119.782,241.269ZM148.645,504.404L144.315,505.847L141.91,505.366L141.429,503.923L142.872,501.037L145.278,500.556L148.645,504.404ZM533.005,538.078L532.524,535.673L534.448,535.673L534.448,537.597L533.005,538.078ZM138.543,103.207L138.543,102.726L139.986,102.726L139.986,103.207L138.543,103.207ZM276.605,637.655L280.934,634.769L288.15,631.883L291.998,628.996L297.29,628.996L300.176,628.034L304.987,628.034L306.43,628.515L307.392,627.072L307.392,624.186L306.924,620.676L307.392,615.527L308.835,613.122L309.797,607.349L310.759,607.349L314.127,605.906L315.089,603.501L317.494,598.69L319.899,597.247L321.824,598.69L324.229,599.171L325.127,598.658L325.191,598.69L327.596,597.247L332.407,598.209L332.407,597.247L330.964,593.88L330.964,590.512L332.407,588.588L332.201,588.451L332.407,588.107L330.964,587.626L325.191,587.145L325.191,586.664L328.558,584.259L331.926,581.853L334.331,578.967L333.85,575.6L335.293,573.195L337.698,572.232L342.028,575.119L347.319,578.005L350.206,578.486L353.092,573.195L353.092,569.346L352.611,568.865L350.687,569.346L345.395,573.195L342.99,573.195L341.547,572.232L338.66,567.903L339.141,564.536L341.066,563.574L341.066,562.13L340.103,561.168L341.066,557.801L344.433,556.839L344.983,556.495L345.395,556.358L349.725,553.471L349.725,546.737L352.37,544.812L355.337,542.835L357.902,542.407L358.865,548.661L359.827,551.547L359.346,554.434L358.865,557.801L361.27,560.206L364.637,560.206L367.523,557.801L367.565,557.696L368.005,557.32L368.76,555.808L368.967,555.877L370.891,552.028L370.891,551.547L371.372,550.585L372.334,545.775L374.258,543.85L380.512,541.445L380.672,541.285L381.474,540.964L383.494,538.366L385.044,536.559L388.69,535.191L389.171,536.154L387.728,537.116L387.607,537.717L387.247,538.078L387.247,539.521L386.766,542.888L386.285,543.85L386.459,544.725L386.285,545.775L386.697,545.912L386.766,546.256L389.171,546.737L390.614,547.218L391.042,547.111L391.576,547.218L391.972,546.878L392.538,546.737L393.741,545.362L394.943,544.331L394.943,543.988L395.906,542.888L395.906,540.002L396.868,540.002L403.121,537.116L406.008,536.635L405.527,537.116L406.489,539.04L410.818,539.04L412.261,537.597L412.261,535.191L410.337,535.191L410.337,534.229L415.148,533.748L417.072,537.116L417.135,536.927L417.553,537.597L420.439,538.078L422.363,538.559L424.288,538.559L426.212,534.229L428.617,533.748L428.617,534.71L428.906,535.191L429.098,536.154L429.339,535.913L430.06,537.116L431.503,539.521L428.617,540.002L425.25,540.964L424.288,548.661L422.844,552.028L422.363,555.396L423.325,557.801L426.693,560.687L428.617,561.168L430.06,559.725L430.541,558.859L431.984,556.839L431.984,556.262L432.465,555.396L432.465,551.547L431.984,548.661L433.428,548.661L434.39,552.028L436.795,553.471L435.352,554.915L435.833,559.244L437.757,563.092L440.162,563.574L441.605,561.649L441.674,561.306L442.086,560.687L442.086,559.244L442.568,552.509L444.011,549.623L444.973,541.926L445.454,540.964L446.897,540.964L451.226,545.294L452.67,547.699L448.34,548.18L445.454,549.623L444.492,551.547L444.203,554.434L444.011,555.396L444.079,555.67L444.011,556.358L444.973,558.282L444.973,558.763L446.416,561.168L442.568,562.13L441.124,565.017L442.086,566.941L442.568,570.789L443.484,571.339L443.53,571.751L444.973,572.232L447.722,570.308L447.859,570.308L449.783,568.865L450.264,565.498L447.859,565.017L447.378,567.422L445.935,566.941L446.157,565.831L447.378,565.017L448.34,563.092L449.783,562.611L449.944,562.291L451.226,561.649L456.999,560.206L458.442,558.763L458.442,554.915L458.923,549.623L460.366,549.623L462.291,550.585L462.772,552.509L461.329,554.915L460.366,556.839L461.81,557.801L467.101,557.801L467.582,557.32L470.469,553.471L470.469,550.585L471.912,549.623L474.798,546.256L474.798,542.888L474.317,542.311L474.317,541.926L472.393,540.002L471.912,537.597L473.355,536.635L474.798,534.229L476.241,534.229L477.203,535.191L477.776,535.306L477.684,535.673L479.609,535.673L480.571,534.71L482.014,531.824L483.938,531.343L484.419,532.305L484.9,534.71L483.457,537.116L482.976,540.002L484.9,540.483L491.635,539.04L491.437,540.823L491.154,540.964L491.154,543.369L492.116,544.331L492.597,547.218L489.23,547.699L488.748,544.812L488.3,544.588L488.267,544.331L485.862,543.369L481.533,544.331L480.09,545.775L480.09,549.623L482.495,551.547L486.343,551.547L488.748,550.585L489.711,553.952L491.154,554.915L495.002,554.915L496.445,554.434L497.888,554.915L498.851,560.687L503.18,561.649L505.585,561.168L506.066,558.282L506.066,555.396L506.547,553.952L510.396,553.952L511.358,554.915L515.206,558.763L515.848,558.603L516.168,558.763L516.489,558.442L517.13,558.282L518.093,556.839L518.573,556.358L518.642,556.014L519.055,555.396L520.498,555.396L521.94,556.358L523.865,559.244L525.308,561.649L527.714,562.13L529.157,560.687L529.638,556.839L532.043,556.358L533.005,554.434L533.967,554.434L536.373,552.028L536.854,546.256L540.702,544.331L542.145,542.888L542.626,540.483L541.183,538.078L540.702,536.154L542.145,535.191L542.241,534.999L542.626,534.71L542.747,533.989L543.107,533.267L542.976,532.611L543.107,531.824L542.626,530.862L540.702,530.862L539.74,531.824L538.297,535.673L535.411,535.673L534.929,531.343L533.967,525.089L535.771,525.089L540.164,525.853L543.107,526.533L543.437,526.423L544.069,526.533L544.19,526.172L544.55,526.051L544.871,524.127L545.031,523.646L544.951,523.646L545.031,523.165L549.361,521.723L549.361,517.393L548.399,512.101L545.994,512.101L544.9,512.538L544.55,512.582L544.276,512.788L543.588,513.064L543.054,513.705L542.626,514.025L542.558,514.301L541.183,515.949L537.816,516.431L537.046,516.911L536.854,516.911L536.533,517.232L533.967,518.836L535.411,515.468L535.411,510.177L534.929,508.253L534.448,507.531L533.486,504.885L531.562,502.48L531.482,502.48L531.081,501.999L528.195,501.999L526.752,502.961L524.827,502.48L523.865,500.075L527.714,500.371L527.714,500.556L530.119,500.556L531.081,499.113L531.081,496.226L526.992,494.863L523.383,492.859L517.612,493.34L519.055,491.897L523.383,488.048L526.271,489.011L530.6,490.935L531.241,490.774L532.043,490.935L532.043,490.574L532.524,490.454L533.146,488.59L536.373,489.973L536.854,491.416L538.297,491.897L539.74,488.529L543.107,487.567L545.031,485.643L544.069,482.276L546.956,482.276L548.88,481.314L551.446,478.107L553.69,475.541L557.058,475.06L558.501,474.098L561.868,473.136L564.274,475.06L565.458,474.912L566.198,475.06L566.198,474.819L568.122,474.579L574.857,474.098L576.781,476.022L578.705,479.87L580.148,481.795L582.554,481.314L582.903,480.089L583.035,480.352L583.035,479.63L583.516,477.946L589.288,475.06L590.113,473.686L590.25,473.617L590.25,473.456L590.731,472.655L590.731,468.806L591.694,466.401L591.584,466.248L591.694,465.92L589.769,463.515L589.673,463.495L589.288,463.034L588.326,463.226L587.364,463.034L587.197,463.452L586.883,463.515L585.921,466.401L583.035,466.882L576.781,466.882L575.338,465.92L572.932,465.439L570.527,466.401L568.122,464.477L567.79,464.294L567.641,463.996L566.642,463.663L564.804,462.652L564.755,462.553L561.387,460.628L561.28,460.682L558.501,459.185L557.058,459.666L556.271,461.765L556.096,461.591L555.013,464.838L553.209,468.806L550.323,471.212L550.401,471.264L549.361,472.174L549.842,475.541L547.437,477.465L541.664,479.389L540.221,480.255L539.74,480.352L539.74,480.544L539.259,480.833L536.854,481.314L535.411,480.352L533.486,480.833L533.005,481.314L532.524,481.314L532.043,482.276L532.524,484.2L532.868,486.605L531.562,486.605L531.081,484.2L530.961,483.899L530.6,482.276L530.119,480.592L530.119,478.908L531.081,477.465L534.545,474.387L534.929,474.098L534.942,474.033L535.411,473.617L535.411,473.569L535.892,473.136L535.892,470.249L535.411,469.768L534.448,467.363L537.816,466.882L541.183,463.996L542.626,460.147L546.475,458.223L546.956,460.628L549.361,460.628L549.842,460.147L549.682,459.346L549.842,458.704L549.393,457.582L549.842,455.337L553.69,453.894L557.058,452.451L558.501,449.564L559.463,446.678L561.387,446.197L563.311,450.045L562.83,452.451L561.868,453.413L561.868,455.818L562.349,456.299L564.274,455.818L564.274,454.856L565.236,454.856L566.198,452.932L567.16,451.007L569.084,447.159L568.936,446.123L569.084,445.235L568.603,443.792L568.397,443.517L568.122,442.83L567.16,441.867L567.641,438.981L567.461,438.26L567.641,437.538L567.16,437.057L563.311,438.019L563.24,438.126L561.868,438.5L562.349,436.095L563.793,433.209L565.236,431.765L569.084,429.841L570.046,427.917L574.376,428.879L578.224,425.512L578.224,423.106L577.773,422.355L577.743,422.144L576.781,420.701L573.414,415.41L572.548,413.389L572.091,411.561L572.291,410.759L573.414,409.637L575.819,407.713L577.262,404.826L578.705,402.421L584.478,399.054L586.883,397.13L586.883,392.8L585.44,392.8L583.035,394.724L577.262,395.205L575.819,395.686L572.932,396.649L572.932,396.78L571.97,397.13L568.723,398.212L566.078,398.453L564.23,398.31L562.83,397.611L560.425,396.649L559.944,392.8L558.982,391.357L558.02,390.876L558.02,390.395L557.058,390.395L557.058,387.509L558.501,387.028L559.463,385.584L559.463,382.698L559.102,380.894L559.463,378.369L566.198,378.369L566.679,377.888L568.603,376.925L569.565,380.293L572.932,380.293L576.3,378.85L576.621,378.449L576.781,378.369L577.07,377.888L578.224,376.444L578.139,376.105L578.224,375.963L577.743,374.52L576.045,372.398L575.745,371.597L575.42,369.322L577.743,369.71L579.667,370.672L579.667,375.482L580.629,376.925L582.554,377.407L586.402,375.001L588.807,370.672L592.656,371.153L594.099,370.191L596.023,369.71L597.466,373.077L598.909,374.039L602.277,373.558L605.163,376.925L608.53,377.407L609.011,376.925L608.836,375.876L609.011,375.001L608.53,374.039L604.682,370.191L604.201,364.418L603.239,363.456L596.985,362.975L596.985,360.089L596.023,358.645L595.542,358.164L594.099,356.24L593.714,356.336L593.618,356.24L592.816,356.561L592.175,356.721L590.01,357.683L588.807,358.164L588.711,358.261L587.845,358.645L586.883,360.089L586.402,360.57L586.402,360.81L585.921,361.532L585.921,364.418L586.883,366.342L582.073,366.342L581.11,363.937L579.186,359.704L579.186,359.608L578.705,358.645L578.162,357.994L578.224,357.683L576.3,355.759L573.895,355.759L571.97,356.721L571.796,357.159L569.565,358.645L568.122,364.899L566.679,364.899L566.373,364.374L566.198,363.937L563.793,359.608L563.566,359.551L563.311,359.127L560.425,359.127L559.463,359.608L561.387,351.911L561.868,353.354L562.029,353.514L562.349,354.316L564.755,356.24L568.122,355.759L571.97,352.392L571.97,347.581L570.046,346.138L566.679,346.138L562.83,348.062L563.793,344.695L563.991,343.209L564.274,342.29L564.274,341.087L564.755,337.479L567.641,331.707L569.084,328.82L569.29,327.996L569.565,327.377L570.287,324.01L570.527,323.048L570.527,322.887L571.008,320.642L574.376,315.832L577.262,314.389L577.262,311.502L578.705,310.059L579.427,308.977L580.148,308.135L580.389,307.534L581.591,305.73L584.478,301.881L592.656,301.4L593.618,300.438L593.618,298.033L591.694,295.147L589.769,291.298L595.542,290.817L596.023,290.336L596.504,290.336L596.985,289.374L596.985,285.045L596.504,284.907L596.504,284.564L593.618,284.082L591.052,282.8L590.994,282.508L592.656,281.677L594.58,280.234L599.39,275.905L599.871,273.98L597.466,273.98L594.58,276.386L590.731,279.753L590.513,280.628L590.25,280.715L590.25,281.677L584.959,281.196L583.035,280.715L583.035,276.867L585.44,274.943L585.44,271.575L582.073,268.208L584.478,264.84L584.959,261.473L582.554,257.625L583.035,256.181L586.402,255.219L587.364,254.257L587.452,253.47L587.845,252.814L588.807,249.447L588.807,247.042L587.364,244.636L591.212,245.117L592.175,242.712L586.883,242.231L584.478,240.307L581.11,240.307L578.224,241.75L578.202,241.806L573.895,244.155L577.743,238.383L578.705,233.572L576.781,231.648L577.262,229.724L577.262,226.837L576.3,225.875L576.3,223.951L582.073,221.065L583.516,219.622L585.44,217.697L587.605,215.533L589.769,214.811L591.694,212.406L592.495,210.802L593.137,210.001L593.257,209.279L594.58,206.633L594.488,206.358L594.58,206.152L594.099,205.19L593.938,205.03L593.618,204.228L592.656,203.747L592.175,203.266L590.972,202.905L590.731,202.785L585.921,201.342L585.921,199.417L587.845,198.455L590.09,196.531L590.731,196.05L590.753,195.963L591.212,195.569L595.542,192.683L597.947,192.683L599.871,194.607L602.277,194.607L605.163,193.645L604.682,195.569L605.163,197.012L608.53,197.012L609.492,196.531L609.492,195.569L611.417,195.569L610.936,198.936L609.974,201.823L610.455,203.266L613.341,204.709L615.746,208.557L615.746,211.925L614.303,211.925L610.936,212.406L609.974,214.811L609.492,222.027L610.455,222.508L613.341,222.989L615.746,222.027L617.67,219.622L618.151,214.811L619.113,213.368L619.113,208.076L618.632,207.595L618.151,204.709L619.595,203.747L620.076,200.861L618.993,199.898L619.113,199.898L617.911,198.936L615.746,197.012L615.746,192.202L616.131,191.047L616.708,190.277L618.512,188.173L623.924,185.467L624.285,185.106L625.367,184.505L626.81,183.062L629.697,181.618L631.14,179.213L631.14,173.922L630.178,172.478L630.017,172.425L629.697,171.997L629.376,171.805L628.734,171.035L628.093,171.035L627.291,170.554L623.924,170.554L621.038,171.516L619.113,173.922L619.113,177.77L619.595,179.053L619.595,182.1L618.151,183.543L614.784,183.543L612.612,182.674L611.898,180.175L610.936,179.213L608.049,179.213L607.568,179.694L600.833,179.213L596.985,180.656L596.844,180.987L596.504,181.137L596.504,181.779L595.542,184.024L591.212,187.391L586.402,190.758L583.997,190.277L581.591,187.391L581.036,186.947L580.148,185.948L579.693,185.872L579.186,185.467L578.224,185.627L577.262,185.467L576.3,185.948L573.895,186.429L573.414,184.986L571.008,182.1L571.008,173.441L568.122,171.035L565.236,171.035L563.311,171.997L561.387,171.035L558.982,171.035L558.501,171.516L557.539,174.403L557.539,177.77L558.501,178.732L558.501,183.062L556.577,184.986L551.285,185.467L548.88,187.391L544.069,187.391L542.626,185.948L542.546,186.108L542.145,185.536L542.145,185.467L539.74,182.1L539.586,182.069L539.259,181.618L536.09,181.166L535.651,180.837L534.891,179.887L534.929,179.694L533.967,178.732L530.6,178.732L530.119,177.77L530.119,172.478L533.967,173.441L536.854,172.96L538.297,171.035L542.145,170.073L543.588,168.63L544.069,165.744L543.107,164.782L541.664,161.414L540.702,160.452L536.373,159.49L530.119,159.49L528.195,162.857L527.677,164.153L527.233,164.301L526.912,165.263L525.789,165.263L525.789,163.82L523.383,159.971L523.143,159.851L522.903,159.49L522.101,159.33L521.46,159.009L520.498,159.009L518.093,158.528L517.021,157.304L517.13,157.085L514.724,154.68L508.953,151.793L507.991,149.388L507.028,149.388L506.066,150.831L501.737,148.426L501.256,148.426L495.483,145.54L494.475,145.229L493.078,144.578L492.356,144.578L491.437,144.295L491.635,144.096L489.23,143.615L486.824,142.172L483.457,141.21L482.014,140.248L480.891,139.874L481.052,139.767L479.127,139.286L477.684,138.805L472.874,136.881L470.95,136.239L469.025,135.438L468.544,135.438L465.658,134.475L464.696,133.513L461.81,131.589L454.498,129.761L453.632,129.184L453.194,129.257L452.876,129.115L452.67,128.703L449.783,127.741L449.302,126.298L448.581,125.335L448.34,124.854L448.163,124.778L447.859,124.373L446.897,124.236L444.973,123.411L443.53,121.968L442.086,117.158L442.018,117.054L441.605,115.714L441.605,104.65L441.124,99.359L440.643,98.397L440.3,98.122L440.025,97.71L440.162,97.435L439.2,96.473L433.909,93.105L431.503,89.257L431.022,85.409L430.541,81.56L429.579,79.636L428.701,78.611L428.617,78.193L428.342,78.193L426.693,76.269L425.846,75.961L425.731,75.788L421.401,74.344L413.223,70.977L408.894,70.496L408.413,69.534L408.413,66.487L409.375,58.47L409.375,54.621L408.413,53.659L403.602,53.178L402.64,54.621L401.9,57.397L401.678,57.989L401.614,58.47L400.716,61.837L399.754,69.534L394.462,69.534L392.538,70.496L390.806,70.207L390.614,70.015L390.229,70.111L389.652,70.015L382.436,72.42L378.107,72.42L377.145,72.901L369.887,71.087L369.841,70.671L369.929,70.496L369.448,67.129L366.561,67.61L366.08,65.204L365.599,64.082L365.599,63.761L365.424,63.674L364.637,61.837L364.156,58.47L365.118,56.546L365.118,45.962L364.637,45.481L364.316,45.321L362.713,44.038L357.902,44.038L357.421,44.519L355.143,45.886L354.375,46.123L351.168,46.924L350.206,47.406L347.319,47.887L345.876,45.481L344.914,39.709L343.952,38.266L342.028,37.303L332.407,37.784L323.748,36.822L322.786,33.936L320.38,31.531L318.937,27.682L316.051,14.213L313.165,13.732L311.721,14.694L311.721,19.505L313.165,26.72L313.62,27.86L313.646,28.163L315.089,31.531L314.608,35.379L313.165,37.784L308.835,37.784L307.873,38.747L307.392,39.228L305.949,42.114L304.506,44.038L303.544,42.595L302.1,39.228L301.619,38.747L301.138,37.784L297.771,35.379L297.29,31.531L295.847,27.682L295.366,27.041L295.366,26.72L294.404,25.758L291.998,23.353L286.707,23.834L286.226,24.315L286.182,24.534L285.264,25.758L282.377,26.72L280.934,28.163L278.529,32.493L273.718,35.86L270.351,42.595L269.389,51.254L271.313,55.102L271.313,66.167L270.832,67.61L271.794,73.382L274.199,82.522L274.68,89.257L270.351,89.257L267.465,86.371L265.059,85.89L262.278,87.082L262.654,84.446L266.022,80.598L266.503,77.712L263.616,76.75L265.059,71.939L265.059,67.61L262.654,64.242L262.462,64.146L262.173,63.761L261.5,63.665L260.088,62.96L260.249,62.799L257.844,61.837L257.844,57.508L256.401,56.064L255.118,52.644L254.476,50.292L251.59,45.481L249.185,43.557L246.966,42.347L246.779,42.114L246.4,42.038L244.838,41.186L244.855,41.152L243.893,40.671L241.007,35.379L238.121,32.974L236.677,29.222L236.677,27.682L236.196,26.72L235.475,26.64L233.035,25.827L231.386,23.353L231.268,23.306L229.462,20.467L225.613,12.77L222.727,10.365L218.878,6.997L215.03,4.111L211.663,4.592L209.739,6.997L209.739,10.365L210.701,12.289L210.893,12.385L211.313,13.12L211.983,14.908L213.106,19.023L215.03,21.429L215.03,30.569L215.511,31.05L216.473,34.898L216.666,35.283L216.954,36.341L217.195,36.341L217.435,36.822L217.435,47.406L218.397,49.33L218.397,55.583L219.841,61.837L220.177,62.258L220.322,62.799L220.803,65.204L220.803,66.648L222.005,68.091L224.039,70.802L225.613,74.344L225.132,77.231L225.132,80.117L225.517,81.464L225.613,82.522L223.689,86.371L224.17,89.257L224.214,89.257L224.651,91.662L220.322,91.662L219.253,90.379L219.36,90.219L217.916,88.776L215.03,88.776L214.068,89.257L208.776,89.257L207.574,89.498L203.966,89.738L202.042,88.776L201.08,86.371L199.636,81.56L198.193,78.193L197.231,79.155L197.231,82.041L195.307,83.484L195.227,83.645L194.826,83.965L194.826,84.446L194.345,85.409L193.383,84.928L191.459,80.598L191.44,80.654L190.978,79.636L188.091,71.939L187.61,70.817L187.61,70.015L186.648,68.572L183.762,66.648L179.913,66.648L178.47,67.85L177.989,68.091L177.852,68.366L177.027,69.053L175.103,72.901L174.141,73.382L174.141,72.42L172.216,68.572L170.292,68.091L169.811,70.496L170.773,71.939L171.735,76.269L172.698,79.155L173.179,82.041L171.254,83.965L171.422,84.049L171.074,84.446L170.773,84.446L169.811,85.89L170.224,90.013L170.052,91.903L169.523,94.549L169.33,94.549L169.009,97.114L168.368,100.321L168.368,103.688L163.558,105.131L159.228,104.65L157.304,103.688L154.418,104.65L148.164,105.612L143.353,105.131L143.353,100.802L142.872,100.321L138.543,99.359L138.543,96.473L137.581,95.992L135.176,97.916L135.176,97.996L134.694,98.397L132.77,98.397L129.403,97.435L128.44,99.359L130.845,108.018L130.845,115.233L129.884,115.233L127.96,117.639L127.96,120.525L128.44,121.006L128.922,121.487L134.213,123.411L134.694,124.373L134.694,130.627L133.251,133.513L133.251,137.843L137.581,141.21L138.543,144.096L139.505,145.059L140.467,146.021L141.486,146.247L141.91,146.502L145.125,147.42L146.24,148.907L147.041,149.228L147.683,149.869L148.645,149.869L150.954,150.254L151.772,151.072L152.974,154.68L153.524,154.954L153.455,155.161L154.899,155.642L154.899,156.604L150.569,154.68L147.683,154.68L147.202,155.161L147.202,157.085L147.614,157.635L147.683,158.047L148.356,158.624L148.645,159.009L148.854,159.051L150.258,160.254L151.198,161.821L151.531,163.82L148.645,164.782L148.645,170.554L146.24,170.554L141.91,169.592L139.986,171.997L137.581,171.997L125.967,172.891L124.479,172.705L118.339,170.073L115.933,170.554L110.161,170.554L107.275,171.997L106.793,173.922L98.615,174.884L97.584,171.791L97.653,171.516L97.391,171.21L97.172,170.554L95.798,169.352L94.767,168.149L94.423,168.149L93.324,167.187L91.453,166.439L91.88,166.225L90.918,166.225L90.437,162.857L88.994,161.414L83.703,158.528L82.74,156.604L77.93,153.717L77.748,153.691L76.968,153.236L73.6,153.236L73.119,151.312L70.714,150.35L66.866,147.464L61.574,145.54L53.396,145.54L52.434,145.059L50.029,144.578L48.586,145.54L48.105,149.869L50.51,160.933L53.396,170.073L55.32,174.403L57.245,174.884L61.574,173.441L63.498,171.997L64.46,167.187L66.866,167.187L68.79,168.149L77.449,170.073L77.93,171.997L78.411,177.77L78.892,179.694L79.854,183.543L80.335,185.467L82.289,191.721L82.259,191.721L82.74,193.164L84.184,195.569L88.994,194.607L89.956,199.898L90.479,200.57L90.437,200.861L93.324,204.228L95.248,206.633L98.615,206.633L99.577,206.152L100.54,205.671L101.342,205.11L101.502,205.19L102.079,204.613L104.388,203.266L104.965,202.573L105.35,202.304L106.45,200.792L106.793,200.379L109.68,196.531L109.733,196.05L111.604,192.683L115.933,193.164L117.858,195.088L122.187,196.05L122.668,204.709L123.63,206.633L126.517,208.076L130.845,208.076L131.808,212.406L130.365,212.406L129.815,212.818L129.403,212.887L129.328,213.183L128.44,213.849L124.592,216.254L117.858,221.546L114.49,225.394L114.009,230.205L116.414,233.091L116.896,235.015L114.009,235.496L113.047,236.458L113.047,241.269L113.528,241.75L113.949,241.99L115.452,243.193L116.414,249.447L113.528,248.966L109.199,248.966L108.718,248.485L104.869,241.269L103.426,235.977L100.059,234.053L99.577,230.686L99.096,230.205L96.691,230.205L93.805,228.762L86.589,229.724L85.627,230.205L84.184,233.091L79.854,234.053L76.487,236.939L74.082,237.42L73.119,236.458L69.752,236.458L68.79,236.939L65.422,239.826L63.498,243.674L63.498,247.042L64.46,251.852L65.904,256.663L64.942,259.549L64.942,262.435L65.904,265.321L65.422,267.727L62.055,272.056L59.65,273.018L58.688,269.17L54.358,269.17L52.915,269.651L48.586,272.537L44.256,273.499L41.851,274.943L35.597,278.31L32.23,278.791L31.268,277.348L29.344,276.386L26.457,276.867L22.609,281.677L21.166,285.526L17.317,288.412L14.431,291.779L12.026,296.59L10.102,298.995L8.177,302.844L8.177,305.73L8.658,306.211L8.658,309.097L7.696,310.059L6.253,313.427L3.848,319.199L4.329,322.086L5.411,322.988L5.291,323.048L7.246,324.568L8.177,326.896L6.253,331.226L6.734,333.15L11.064,336.036L10.583,341.809L13.95,345.657L16.355,346.619L16.355,347.581L15.393,349.987L15.393,352.392L18.28,354.797L18.28,356.721L16.355,359.127L16.836,361.532L20.685,363.937L27.901,363.937L29.344,364.418L29.344,368.748L32.23,370.672L34.154,373.077L37.041,373.558L42.813,374.039L45.699,377.888L49.548,380.774L51.472,381.736L51.472,383.179L45.699,384.622L45.699,383.179L44.737,381.736L42.332,380.293L38.965,380.293L38.484,380.774L38.003,384.141L37.041,384.622L32.711,386.065L31.268,390.395L29.825,391.357L28.382,397.13L26.938,397.13L16.355,399.535L1.924,401.459L0.481,402.421L0.481,406.751L0.962,408.675L0.962,412.523L0,415.891L0,424.068L1.443,428.879L3.367,429.36L5.291,427.917L7.696,428.879L9.621,435.133L11.545,440.424L13.95,441.867L16.836,441.386L24.052,437.057L30.787,435.133L45.699,434.171L49.548,430.803L50.51,428.398L49.067,427.436L49.067,422.144L48.586,421.343L48.586,421.182L48.345,420.942L47.046,418.777L46.256,416.802L46.662,413.966L48.586,413.004L48.586,413.966L50.51,416.372L52.434,415.891L50.991,412.523L51.472,410.118L52.915,405.789L55.32,405.308L61.093,403.864L63.979,404.826L67.828,405.308L72.638,406.751L72.157,408.675L72.638,411.561L75.044,412.042L76.487,410.599L76.487,406.27L77.93,406.751L81.297,408.194L84.665,408.675L89.475,412.042L90.918,411.561L91.88,409.637L93.805,410.118L94.767,411.08L95.568,411.24L95.729,411.561L97.172,411.561L97.653,410.118L96.21,408.194L91.88,404.826L86.108,402.421L80.335,400.978L81.778,399.535L89.956,399.054L90.918,399.535L92.361,401.94L94.286,404.345L94.366,404.345L94.767,404.826L98.134,405.308L101.502,409.156L102.464,412.523L105.831,420.22L108.237,420.22L108.718,419.739L111.604,418.777L112.085,422.144L113.026,423.462L113.047,423.587L113.849,424.656L114.009,425.031L114.157,425.068L114.49,425.512L117.858,426.474L117.858,431.765L115.773,433.85L114.49,434.652L114.544,434.705L113.79,435.185L113.528,435.133L112.192,436.202L111.604,436.576L111.574,436.696L111.123,437.057L111.267,437.923L111.123,438.5L111.535,439.531L111.604,439.943L111.823,440.249L112.085,440.905L112.486,441.226L112.566,441.386L112.807,441.627L114.009,443.311L114.57,443.391L114.971,443.792L116.49,443.665L117.377,443.792L118.579,443.491L120.744,443.311L122.187,445.235L123.149,445.235L123.63,446.678L123.63,449.564L122.187,451.488L121.706,453.413L128.922,460.628L129.884,461.27L131.808,463.034L132.77,466.882L133.732,469.287L134.053,469.448L134.213,469.768L134.694,469.768L136.619,470.731L137.1,471.693L139.024,477.465L141.91,479.87L142.391,482.276L139.024,482.757L138.886,483.238L138.543,483.238L138.062,486.124L135.657,488.529L134.694,491.416L136.619,491.897L136.619,493.34L133.732,493.34L133.732,494.783L135.657,494.783L135.657,498.632L135.176,499.594L134.694,500.556L130.845,500.556L128.922,498.632L126.998,497.669L122.668,495.264L117.377,495.264L113.047,496.226L112.085,499.113L110.161,499.594L108.237,501.518L109.68,506.809L112.085,507.29L113.528,505.847L120.263,505.847L122.187,506.569L126.517,508.734L128.922,510.177L129.884,514.507L132.305,518.944L132.77,522.203L131.808,522.684L125.073,524.127L121.225,526.051L118.82,525.57L116.414,523.646L112.566,523.646L109.68,525.089L102.464,525.57L100.54,527.495L100.54,532.305L101.983,534.229L106.793,536.154L111.123,539.04L110.642,541.445L110.642,544.331L111.123,545.294L114.009,547.699L115.933,547.218L119.301,542.888L120.263,540.483L122.187,540.964L123.63,543.369L126.036,545.775L129.884,546.737L129.403,548.661L127.479,551.547L127.96,553.471L132.289,553.471L135.657,552.509L139.024,549.623L142.391,544.331L144.316,543.369L144.797,543.369L145.278,542.888L146.24,540.002L144.797,536.635L142.391,536.635L141.99,537.035L141.429,537.116L141.91,535.191L141.91,528.938L140.948,525.57L146.721,526.051L148.645,523.646L149.126,520.76L146.24,518.356L142.872,517.874L140.467,519.798L138.543,520.76L139.024,511.139L140.948,512.101L143.353,514.025L147.683,515.949L149.07,516.689L149.126,516.911L154.899,519.798L164.039,520.28L166.925,521.723L171.735,522.203L176.065,522.203L178.47,521.241L185.205,521.241L187.61,520.28L191.459,517.874L201.561,513.064L204.928,513.064L205.89,514.507L207.814,514.987L210.22,512.582L213.106,507.29L216.255,505.322L217.596,505.099L219.841,505.847L220.322,509.215L220.803,510.658L221.078,510.727L221.284,511.139L222.246,511.019L222.727,511.139L223.383,510.877L225.132,510.658L226.094,513.064L226.575,514.025L226.96,514.218L227.537,514.987L228.018,514.747L228.5,514.987L228.82,514.346L229.462,514.025L231.867,513.544L235.715,515.468L238.121,517.874L240.526,518.836L240.526,520.28L239.083,521.241L236.677,525.089L233.791,529.419L231.386,531.343L224.651,535.673L221.284,538.559L220.803,540.483L221.765,542.888L218.878,544.331L216.954,546.737L214.549,551.066L212.144,553.471L209.257,552.99L205.89,552.509L201.561,553.952L199.155,556.358L197.231,559.244L194.345,561.168L192.421,563.092L193.383,565.498L196.269,565.979L199.636,564.055L203.966,561.168L209.257,558.282L211.663,559.244L214.068,560.687L215.992,560.206L218.878,557.801L223.208,554.915L227.537,553.471L226.575,557.32L223.208,560.206L223.208,563.092L223.689,563.574L228.981,565.017L235.715,566.46L235.715,567.903L230.424,568.384L221.284,570.308L220.424,571.291L220.322,571.27L217.916,574.157L217.916,576.562L220.803,580.891L224.651,583.778L227.537,584.259L228.981,583.297L233.31,583.297L234.753,583.778L236.196,583.297L238.602,582.816L240.526,583.778L241.969,586.183L241.488,587.145L236.196,587.626L227.537,590.031L222.246,592.437L220.803,593.88L223.689,595.804L225.613,596.766L228.018,595.323L231.867,595.323L233.31,594.361L237.158,593.88L239.564,592.437L245.817,592.437L246.298,592.918L248.704,593.399L249.666,591.956L252.552,591.956L256.401,593.399L259.768,594.842L261.691,595.804L266.984,592.918L271.313,592.918L272.275,596.285L277.086,595.804L279.491,597.247L285.745,597.728L285.264,599.652L282.858,602.058L280.934,604.944L279.491,607.349L277.086,609.754L276.124,612.16L274.68,615.527L273.237,619.857L269.87,625.148L267.465,630.921L265.059,634.769L264.578,636.693L266.022,637.174L266.503,638.137L266.022,640.542L265.059,642.947L266.503,642.947L269.389,640.542L276.605,637.655Z" style="fill:rgb(219,8,18);"/>
                                                        <path d="M630.659,480.833L628.734,483.238L626.81,482.757L622.962,479.389L620.557,479.87L619.113,480.833L618.993,481.434L618.151,482.276L617.67,486.124L620.076,488.529L623.924,490.454L626.329,490.935L628.734,487.567L634.026,487.567L634.988,487.086L640.761,487.567L641.242,485.643L640.761,484.681L639.799,481.795L638.356,479.389L634.988,477.465L632.583,477.946L630.659,480.833Z" style="fill:rgb(219,8,18);"/>
                                                        <path d="M109.926,127.095L110.161,127.741L110.428,127.741L112.085,129.871L112.085,130.146L113.047,131.108L114.971,131.589L118.339,129.665L119.026,128.52L119.301,128.703L119.449,127.815L119.782,127.26L119.671,126.483L119.782,125.816L119.473,125.095L119.301,123.892L118.535,122.908L118.339,122.449L118.249,122.539L117.858,122.037L117.858,121.968L117.729,121.872L117.251,121.257L117.377,121.006L115.933,119.563L116.414,117.639L119.301,116.195L119.782,114.271L119.301,113.309L118.82,112.828L118.82,112.347L116.896,110.904L114.49,108.018L114.276,107.911L113.528,107.055L112.887,107.216L112.566,107.055L112.245,107.376L111.604,107.537L111.123,108.499L111.108,108.694L110.161,110.904L110.161,115.233L112.085,116.677L112.566,118.12L110.834,118.986L110.161,119.082L110.161,119.322L108.718,120.044L108.237,122.449L109.68,126.779L109.926,127.095Z" style="fill:rgb(219,8,18);"/>
                                                        <path d="M533.005,148.907L532.043,147.464L526.752,144.096L523.383,144.096L521.94,144.578L521.94,141.691L520.498,141.691L518.093,143.615L517.612,146.983L518.974,148.346L518.573,150.35L518.573,153.236L523.383,157.566L528.195,158.047L530.6,159.009L531.562,155.161L533.005,152.274L533.005,148.907Z" style="fill:rgb(219,8,18);"/>
                                                        <path d="M626.329,281.677L624.886,282.639L622,286.488L622,290.336L622.481,290.817L626.81,292.741L630.178,292.741L631.621,291.779L631.681,291.539L632.583,290.817L637.393,289.855L638.837,288.412L639.318,281.677L635.95,281.196L634.507,280.234L629.697,279.272L629.216,278.791L627.291,279.272L626.329,281.677Z" style="fill:rgb(219,8,18);"/>
                                                        <path d="M414.667,648.72L412.261,649.682L411.78,650.163L410.818,651.486L408.413,654.492L408.33,654.907L407.932,655.454L408.092,656.096L407.932,656.897L408.325,657.029L408.413,657.379L408.963,657.241L409.375,657.379L409.893,657.009L410.337,656.897L411.093,656.21L412.742,654.973L413.958,653.606L415.629,652.087L415.703,651.643L416.591,650.644L417.553,647.758L418.996,646.314L423.325,644.871L424.929,643.909L425.25,643.909L425.731,643.428L426.693,641.023L426.212,640.542L423.807,636.693L419.958,634.769L417.072,634.288L415.629,635.25L414.667,636.212L412.261,638.137L412.261,642.947L413.223,646.795L414.667,648.72Z" style="fill:rgb(219,8,18);"/>
                                                        <path d="M367.523,594.842L368.005,595.804L371.372,592.918L371.853,589.069L374.258,590.031L376.182,590.512L376.663,588.588L375.701,582.335L373.296,579.448L370.41,575.6L368.967,574.157L367.523,578.005L365.118,578.967L362.713,581.372L362.713,585.221L363.194,586.664L365.599,590.031L368.005,592.437L367.523,594.842Z" style="fill:rgb(219,8,18);"/>
                                                        <path d="M607.087,303.325L604.201,297.552L601.796,297.552L600.833,299.476L600.352,305.249L601.796,306.692L605.163,306.211L604.201,308.135L603.239,311.021L604.682,312.465L609.974,312.465L611.417,310.54L614.303,309.097L615.563,308.089L615.746,308.135L616.708,307.173L617.189,303.325L616.708,302.362L616.227,302.362L615.746,301.881L611.898,301.4L609.974,302.844L607.087,303.325Z" style="fill:rgb(219,8,18);"/>
                                                        <path d="M524.346,73.863L520.979,75.307L520.017,76.269L518.573,77.712L517.164,81.093L517.13,81.079L516.168,83.484L516.168,87.333L518.093,89.257L521.94,89.257L523.865,87.333L524.346,86.852L524.507,86.05L525.308,84.446L526.887,82.67L527.233,82.522L529.157,80.117L529.638,77.231L529.157,75.788L527.714,74.344L524.346,73.863Z" style="fill:rgb(219,8,18);"/>
                                                        <path d="M203.485,613.603L205.409,612.16L209.257,610.236L210.22,608.792L208.295,604.463L206.371,603.501L200.117,603.501L197.231,604.463L194.826,607.349L193.383,610.236L193.864,612.16L196.75,614.084L199.636,613.603L203.485,613.603Z" style="fill:rgb(219,8,18);"/>
                                                        <path d="M593.377,117.037L592.656,117.158L587.845,120.044L587.76,120.468L586.402,121.487L586.402,124.373L586.701,124.771L586.883,126.779L590.25,129.665L590.25,133.032L592.175,133.032L593.618,130.146L595.061,128.703L594.886,128.528L595.32,128.166L595.542,128.222L596.985,126.779L598.909,123.892L598.909,120.044L598.428,119.082L597.379,118.207L596.504,117.158L595.998,117.056L595.542,116.677L594.755,116.808L594.099,116.677L593.377,117.037Z" style="fill:rgb(219,8,18);"/>
                                                        <path d="M583.035,614.084L588.326,619.375L592.175,618.894L594.58,621.3L597.466,622.743L598.909,622.262L598.909,618.894L598.428,618.413L595.061,616.97L593.618,611.679L592.175,609.273L589.288,608.311L585.44,607.83L583.035,611.679L583.035,614.084Z" style="fill:rgb(219,8,18);"/>
                                                        <path d="M515.687,579.448L514.724,582.335L516.168,585.221L519.536,587.626L523.383,588.107L525.308,587.145L525.308,582.816L524.346,579.929L524.138,579.773L523.762,578.795L523.865,578.486L522.903,576.562L520.017,573.195L517.612,572.713L515.687,576.081L515.687,579.448Z" style="fill:rgb(219,8,18);"/>
                                                        <path d="M578.705,505.366L580.148,504.404L580.148,501.037L577.743,493.821L574.857,490.454L573.414,490.454L571.008,493.34L570.046,499.113L570.527,501.999L574.376,505.366L578.705,505.366Z" style="fill:rgb(219,8,18);"/>
                                                        <path d="M591.453,236.988L591.694,236.939L591.694,236.843L593.137,235.977L596.985,235.977L597.947,234.534L600.352,232.61L601.315,230.686L600.513,228.281L598.909,221.065L597.947,219.622L593.033,219.349L593.137,219.141L589.288,219.141L587.845,219.622L588.028,219.713L587.172,220.103L586.883,220.103L583.997,221.546L581.591,224.432L581.591,228.28L582.554,231.167L584.478,232.129L585.44,234.053L586.471,235.29L586.402,235.496L587.845,236.939L589.288,237.42L589.944,237.289L590.731,237.42L591.453,236.988Z" style="fill:rgb(219,8,18);"/>
                                                        <path d="M637.393,177.77L635.469,179.213L634.507,181.618L634.988,184.024L635.95,184.505L636.912,184.344L637.875,184.505L640.761,183.543L640.761,184.505L642.204,186.91L649.901,186.429L650.382,185.948L650.382,183.543L649.901,181.618L648.939,180.656L644.609,180.656L645.09,178.251L645.571,176.327L643.647,175.846L641.723,177.77L637.393,177.77Z" style="fill:rgb(219,8,18);"/>
                                                        <path d="M587.364,521.723L580.629,521.723L579.815,523.147L579.667,523.165L578.705,525.089L578.224,528.938L579.186,529.9L579.571,529.948L580.148,530.381L583.516,530.862L587.845,529.419L590.731,527.495L590.731,525.089L589.288,522.684L587.364,521.723Z" style="fill:rgb(219,8,18);"/>
                                                        <path d="M632.102,236.458L629.216,235.015L627.384,234.812L627.291,234.534L624.886,234.534L622.962,236.939L620.557,239.345L620.557,242.231L622.481,244.155L623.968,244.068L624.405,244.155L624.525,244.035L630.659,243.674L632.102,239.826L632.583,236.939L632.102,236.458Z" style="fill:rgb(219,8,18);"/>
                                                        <path d="M498.238,570.571L494.521,569.827L488.748,569.827L483.938,573.676L483.938,578.005L482.976,580.41L484.9,582.335L487.786,587.626L488.013,587.671L488.267,588.107L491.154,590.031L493.078,589.55L494.04,587.626L496.445,587.145L499.813,584.74L504.623,584.259L505.104,583.778L505.585,578.967L505.104,578.005L501.737,576.081L502.218,572.713L501.737,570.789L498.238,570.571Z" style="fill:rgb(219,8,18);"/>
                                                        <path d="M329.705,635.324L330.001,635.25L330.322,633.967L331.926,630.44L332.407,627.072L331.445,625.148L329.039,623.224L326.153,623.224L325.191,623.705L322.786,626.11L323.267,628.996L325.431,632.123L327.115,634.769L327.308,634.833L327.596,635.25L328.162,635.392L328.077,635.731L328.799,635.551L329.52,635.731L329.705,635.324Z" style="fill:rgb(219,8,18);"/>
                                                        <path d="M637.875,464.958L637.875,470.249L640.28,471.212L643.647,471.212L645.09,469.768L649.42,468.325L649.42,465.92L647.014,463.034L646.946,463.034L646.533,462.553L642.204,462.553L638.837,463.034L637.875,464.958Z" style="fill:rgb(219,8,18);"/>
                                                        <path d="M449.783,596.285L444.492,595.804L442.568,596.285L442.086,599.652L443.049,605.425L443.53,606.147L443.53,606.387L444.973,608.311L447.859,608.792L448.821,602.539L450.745,602.058L450.745,600.614L450.264,598.209L449.783,596.285Z" style="fill:rgb(219,8,18);"/>
                                                        <path d="M613.822,647.276L617.67,652.087L620.076,652.087L622.481,654.011L624.405,654.973L624.405,655.935L625.848,657.86L628.253,658.341L628.253,655.454L627.291,654.011L623.924,653.049L623.924,652.087L622.481,648.72L621.519,645.352L619.595,643.428L616.227,643.428L614.784,644.39L613.822,647.276Z" style="fill:rgb(219,8,18);"/>
                                                        <path d="M635.469,340.847L634.507,341.809L634.026,341.809L633.064,343.252L632.583,345.176L633.545,346.619L637.875,348.543L640.761,348.543L643.166,346.138L642.685,344.214L641.723,341.809L643.166,340.366L643.166,337.96L641.242,337.96L639.799,339.884L635.469,340.847Z" style="fill:rgb(219,8,18);"/>
                                                        <path d="M620.076,434.652L621.038,435.614L625.367,435.614L629.216,432.727L630.659,429.841L628.253,427.436L625.848,426.955L620.076,428.879L620.076,434.652Z" style="fill:rgb(219,8,18);"/>
                                                        <path d="M658.319,543.85L658.079,543.85L657.598,544.331L657.117,546.737L659.041,549.142L659.255,549.142L660.032,550.017L660.003,550.104L660.965,551.066L665.294,551.547L667.219,549.142L667.7,545.294L667.219,544.812L666.858,544.692L665.71,543.872L665.776,543.85L664.332,542.888L659.041,543.369L658.319,543.85Z" style="fill:rgb(219,8,18);"/>
                                                        <path d="M614.784,445.716L615.746,450.526L618.151,452.932L621.519,452.451L624.886,452.451L625.367,451.007L624.405,449.564L622.962,446.678L621.519,444.754L619.113,443.311L616.708,443.792L614.784,445.716Z" style="fill:rgb(219,8,18);"/>
                                                        <path d="M661.927,357.202L663.37,358.645L669.143,361.051L672.51,361.532L674.916,360.089L675.397,357.683L674.916,356.721L667.7,354.316L664.332,353.835L662.408,355.278L661.927,357.202Z" style="fill:rgb(219,8,18);"/>
                                                        <path d="M543.107,552.509L541.664,553.952L541.183,558.763L542.626,560.206L547.437,561.649L550.804,562.13L551.285,560.687L548.88,554.915L545.031,552.028L543.107,552.509Z" style="fill:rgb(219,8,18);"/>
                                                        <path d="M612.379,512.101L608.53,512.101L607.087,514.507L607.568,516.911L609.974,519.317L612.86,520.28L615.265,521.723L617.189,522.684L617.189,523.646L618.632,524.608L620.557,525.089L620.557,523.165L618.151,521.723L616.227,520.28L614.784,514.987L612.379,512.101Z" style="fill:rgb(219,8,18);"/>
                                                        <path d="M542.626,106.093L539.74,105.612L538.778,106.574L537.335,108.98L535.892,110.904L535.411,112.828L536.373,113.79L539.259,113.79L540.221,113.309L544.55,113.79L545.994,111.866L546.475,109.942L545.994,108.98L542.626,106.093Z" style="fill:rgb(219,8,18);"/>
                                                        <path d="M348.281,558.282L345.395,561.649L344.914,564.536L345.876,565.498L349.725,567.422L352.13,567.903L353.573,565.979L354.054,562.611L353.573,561.649L351.168,558.763L348.281,558.282Z" style="fill:rgb(219,8,18);"/>
                                                        <path d="M131.454,92.695L131.808,92.624L131.808,90.219L131.327,89.738L128.44,88.776L128.922,85.409L128.44,84.928L126.036,84.928L125.073,85.89L124.111,90.7L124.592,94.068L127.479,95.992L129.403,96.954L131.327,93.586L131.454,92.695Z" style="fill:rgb(219,8,18);"/>
                                                        <path d="M596.504,507.29L596.504,505.847L594.58,504.404L592.656,503.442L592.175,499.113L589.288,496.707L585.921,496.226L584.959,497.188L584.959,499.594L586.402,500.556L587.364,503.442L591.694,504.885L594.099,506.809L596.504,507.29Z" style="fill:rgb(219,8,18);"/>
                                                        <path d="M541.183,495.264L538.778,495.264L535.411,498.632L534.448,501.037L536.373,504.885L538.297,504.885L538.778,503.923L542.626,500.556L543.107,497.188L541.183,495.264Z" style="fill:rgb(219,8,18);"/>
                                                        <path d="M395.906,560.687L395.906,566.941L398.311,571.27L400.716,571.27L401.197,575.119L402.159,575.6L406.489,575.6L409.856,570.789L410.337,566.46L407.932,562.611L407.932,560.206L409.375,559.244L412.742,555.396L413.223,552.028L411.78,549.623L408.413,546.737L406.008,546.256L403.121,548.661L400.716,550.104L400.372,550.379L399.273,551.066L399.051,551.436L398.311,552.028L398.21,552.838L397.83,553.471L397.99,554.594L397.83,555.877L398.792,560.206L395.906,560.687Z" style="fill:rgb(219,8,18);"/>
                                                        <path d="M409.856,583.297L410.337,580.891L409.375,578.967L412.261,578.005L412.742,576.081L411.78,575.119L408.894,574.638L407.451,575.6L407.932,577.524L406.008,577.043L403.602,578.486L403.121,581.853L405.046,583.778L409.856,583.297Z" style="fill:rgb(219,8,18);"/>
                                                        <path d="M358.865,570.789L358.865,577.524L360.789,578.005L363.194,575.6L363.675,573.195L361.27,571.27L363.675,568.865L364.156,566.46L363.194,565.498L360.789,565.017L358.384,566.941L358.384,569.827L358.865,570.789Z" style="fill:rgb(219,8,18);"/>
                                                        <path d="M642.204,390.876L642.685,391.357L649.42,393.762L652.306,393.762L652.787,393.281L653.268,391.357L652.787,390.395L649.901,387.99L643.166,387.509L642.204,388.471L642.204,390.876Z" style="fill:rgb(219,8,18);"/>
                                                        <path d="M619.755,355.92L619.113,356.24L616.708,356.721L614.784,355.278L611.898,354.797L609.974,356.721L609.492,361.051L611.898,362.975L615.265,362.975L616.227,362.494L617.189,360.089L620.076,360.57L624.405,360.57L625.367,360.089L626.81,356.721L626.81,354.316L626.329,353.835L623.924,353.835L620.557,355.278L619.755,355.92Z" style="fill:rgb(219,8,18);"/>
                                                        <path d="M559.655,82.137L557.539,82.522L557.779,82.763L557.058,83.003L555.134,82.522L552.728,83.003L551.285,84.446L551.285,89.738L550.323,89.738L550.236,90.088L549.842,90.219L549.842,94.549L550.323,96.473L552.728,98.397L555.134,99.359L555.134,101.764L557.539,102.245L562.349,100.321L564.274,98.878L564.726,98.388L564.755,98.397L570.046,92.624L570.166,92.324L570.527,92.143L570.527,91.422L571.008,90.219L570.527,89.738L569.325,89.588L567.16,88.776L567.641,85.89L567.16,84.446L564.274,83.965L563.311,82.041L563.085,81.985L562.83,81.56L561.995,81.712L561.387,81.56L559.655,82.137Z" style="fill:rgb(219,8,18);"/>
                                                        <path d="M134.694,52.697L135.176,50.292L132.77,46.924L131.327,39.228L129.403,32.493L127.479,31.531L125.554,32.493L124.592,34.898L124.592,39.709L125.073,43.557L126.036,45.481L126.517,46.443L126.517,52.697L128.922,54.621L132.77,55.102L134.694,52.697Z" style="fill:rgb(219,8,18);"/>
                                                        <path d="M656.154,286.488L658.079,287.931L662.408,287.931L663.851,283.601L661.446,281.677L657.598,281.677L656.154,283.12L656.154,286.488Z" style="fill:rgb(219,8,18);"/>
                                                        <path d="M614.944,254.418L614.303,254.738L614.473,254.795L613.341,255.7L613.341,259.068L614.303,260.992L616.227,261.473L619.595,259.549L620.076,256.181L618.632,254.738L616.227,253.776L616.035,253.872L615.746,253.776L614.944,254.418Z" style="fill:rgb(219,8,18);"/>
                                                        <path d="M649.901,530.381L649.42,532.786L654.23,532.786L656.154,535.191L658.079,536.154L658.56,534.229L656.635,531.343L657.598,525.089L656.635,524.608L653.749,528.938L649.901,530.381Z" style="fill:rgb(219,8,18);"/>
                                                        <path d="M536.373,84.446L535.411,82.522L532.524,82.522L531.562,83.965L531.081,86.371L532.524,90.219L536.854,90.7L536.854,87.814L536.373,84.446Z" style="fill:rgb(219,8,18);"/>
                                                        <path d="M392.057,571.27L392.538,569.827L393.019,566.46L391.095,564.536L387.728,564.536L386.766,565.498L386.285,568.865L387.728,570.308L390.133,571.751L392.057,571.27Z" style="fill:rgb(219,8,18);"/>
                                                        <path d="M418.515,588.588L414.185,588.588L413.223,589.55L413.223,593.88L414.185,594.842L417.553,594.361L419.477,592.437L419.477,589.55L418.515,588.588Z" style="fill:rgb(219,8,18);"/>
                                                        <path d="M583.997,144.578L583.516,143.615L580.629,142.172L579.667,137.362L578.224,136.881L575.819,135.438L573.414,135.438L571.008,136.4L567.641,136.4L564.755,137.843L563.311,140.248L563.311,143.134L563.793,144.096L563.528,145.948L563.311,146.021L563.443,146.545L563.311,147.464L564.274,148.426L566.542,149.869L568.603,151.312L568.92,151.383L569.565,151.793L573.093,152.435L573.414,152.755L573.923,152.586L574.857,152.755L575.418,152.194L575.819,152.274L576.781,150.831L579.667,149.388L583.035,146.502L583.997,144.578Z" style="fill:rgb(219,8,18);"/>
                                                        <path d="M522.903,103.207L523.865,102.245L526.752,98.397L527.233,95.511L523.865,95.992L522.422,97.435L520.017,99.359L520.017,101.283L520.979,102.726L522.903,103.207Z" style="fill:rgb(219,8,18);"/>
                                                        <path d="M620.557,145.54L621.519,146.983L624.405,147.464L626.81,145.059L626.81,141.691L625.848,140.729L623.443,140.729L621.038,143.134L620.557,145.54Z" style="fill:rgb(219,8,18);"/>
                                                        <path d="M640.761,237.42L641.723,238.383L645.09,238.383L646.052,237.42L646.533,234.053L644.609,232.129L641.242,232.129L640.761,233.091L640.761,237.42Z" style="fill:rgb(219,8,18);"/>
                                                        <path d="M193.864,532.305L196.75,532.305L198.674,530.862L199.155,528.457L197.712,526.533L194.826,526.051L192.902,527.976L192.421,530.381L193.864,532.305Z" style="fill:rgb(219,8,18);"/>
                                                        <path d="M479.127,587.626L477.684,589.55L478.646,591.956L481.052,594.361L483.457,594.842L483.938,593.88L484.419,590.512L481.052,588.107L479.127,587.626Z" style="fill:rgb(219,8,18);"/>
                                                        <path d="M178.47,533.267L179.913,534.71L182.319,535.191L184.243,532.786L184.724,529.9L183.762,528.938L180.875,528.938L178.951,530.862L178.47,533.267Z" style="fill:rgb(219,8,18);"/>
                                                        <path d="M504.142,109.461L505.104,110.423L509.434,110.423L510.396,109.461L510.396,107.055L509.434,105.131L505.585,105.131L504.623,106.574L504.142,109.461Z" style="fill:rgb(219,8,18);"/>
                                                        <path d="M433.909,655.935L431.984,654.492L429.098,654.011L428.617,654.973L427.655,659.303L428.617,660.265L431.503,660.265L432.465,659.784L433.428,657.86L433.909,655.935Z" style="fill:rgb(219,8,18);"/>
                                                        <path d="M91.399,46.924L85.627,44.038L82.74,43.076L82.259,44.519L85.146,46.443L87.07,49.33L91.399,49.33L91.88,47.406L91.399,46.924Z" style="fill:rgb(219,8,18);"/>
                                                        <path d="M573.414,105.131L573.414,108.98L575.819,109.461L578.705,108.018L579.186,105.612L577.743,103.688L575.819,103.207L573.414,105.131Z" style="fill:rgb(219,8,18);"/>
                                                        <path d="M426.212,562.611L422.844,562.13L421.401,563.574L421.401,566.46L422.363,567.422L425.25,567.903L426.693,566.46L427.655,563.574L426.212,562.611Z" style="fill:rgb(219,8,18);"/>
                                                        <path d="M656.635,491.897L658.079,493.34L662.408,493.821L662.889,491.416L661.446,489.492L658.56,488.048L656.635,488.529L656.635,491.897Z" style="fill:rgb(219,8,18);"/>
                                                        <path d="M372.815,566.941L371.372,565.498L370.685,565.36L370.41,565.017L368.967,565.017L367.042,567.422L366.561,569.827L368.005,570.789L370.891,570.789L372.334,569.346L372.815,566.941Z" style="fill:rgb(219,8,18);"/>
                                                        <path d="M317.013,654.973L315.57,653.049L310.759,652.568L310.759,654.492L315.089,658.341L317.013,659.303L317.494,657.379L317.013,654.973Z" style="fill:rgb(219,8,18);"/>
                                                        <path d="M267.946,608.792L263.135,608.311L262.654,610.236L264.578,611.679L266.984,614.084L269.389,614.565L269.87,613.122L267.946,608.792Z" style="fill:rgb(219,8,18);"/>
                                                        <path d="M90.918,522.203L89.956,520.76L86.589,521.241L85.146,524.127L86.589,526.533L88.994,526.533L90.437,525.089L90.918,522.203Z" style="fill:rgb(219,8,18);"/>
                                                        <path d="M475.76,594.361L475.279,596.766L477.684,599.652L479.609,600.133L481.533,598.209L481.052,597.247L478.165,593.88L475.76,594.361Z" style="fill:rgb(219,8,18);"/>
                                                        <path d="M614.303,226.837L611.898,226.356L610.936,227.799L610.936,231.648L613.822,232.129L615.746,231.167L616.708,229.243L614.303,226.837Z" style="fill:rgb(219,8,18);"/>
                                                        <path d="M338.179,614.084L337.698,616.489L339.141,616.97L340.585,615.768L343.471,613.603L346.357,610.236L345.395,607.349L346.357,606.868L352.13,605.425L354.535,603.501L354.535,600.133L353.092,597.728L348.762,594.842L345.876,595.323L342.028,598.209L342.028,601.577L342.99,608.792L340.585,611.198L338.179,614.084Z" style="fill:rgb(219,8,18);"/>
                                                        <path d="M356.94,620.338L360.789,620.338L361.751,619.375L362.232,616.489L361.27,615.527L358.384,615.046L356.459,618.413L356.94,620.338Z" style="fill:rgb(219,8,18);"/>
                                                        <path d="M576.3,447.159L576.781,447.64L579.186,448.121L581.591,447.159L581.591,443.792L580.629,442.83L578.224,442.83L576.3,444.273L576.3,447.159Z" style="fill:rgb(219,8,18);"/>
                                                        <path d="M427.174,595.323L429.098,596.285L431.503,593.88L431.503,591.475L430.541,590.512L428.136,590.031L426.693,591.475L426.693,594.842L427.174,595.323Z" style="fill:rgb(219,8,18);"/>
                                                        <path d="M481.533,614.084L480.09,613.603L478.646,614.084L478.165,616.97L481.052,620.819L483.457,621.3L483.938,619.375L483.457,618.413L483.254,618.464L482.495,617.451L480.09,618.413L480.09,616.489L482.014,616.97L481.533,614.084Z" style="fill:rgb(219,8,18);"/>
                                                        <path d="M151.05,567.903L151.05,565.498L150.569,564.536L148.164,564.536L146.24,566.46L146.24,569.346L147.683,570.789L148.645,570.308L151.05,567.903Z" style="fill:rgb(219,8,18);"/>
                                                        <path d="M630.178,227.799L632.583,227.799L633.545,226.837L634.026,223.951L633.064,222.508L630.659,222.027L629.697,222.989L629.216,226.356L630.178,227.799Z" style="fill:rgb(219,8,18);"/>
                                                        <path d="M487.305,126.298L484.9,125.335L483.457,126.779L482.976,128.703L485.381,131.108L487.786,130.627L488.267,128.222L487.305,126.298Z" style="fill:rgb(219,8,18);"/>
                                                        <path d="M236.677,518.356L235.234,516.911L232.829,516.431L231.386,517.874L231.386,520.28L232.348,521.241L234.753,521.723L236.196,520.28L236.677,518.356Z" style="fill:rgb(219,8,18);"/>
                                                        <path d="M524.346,108.98L527.233,110.423L529.638,109.942L529.638,107.055L528.676,105.612L526.752,105.131L524.827,106.574L524.346,108.98Z" style="fill:rgb(219,8,18);"/>
                                                        <path d="M608.049,288.893L607.087,288.412L605.163,288.893L604.682,292.26L606.125,294.666L609.011,294.666L609.011,291.779L608.049,288.893Z" style="fill:rgb(219,8,18);"/>
                                                        <path d="M585.44,329.301L587.364,330.263L589.769,329.301L590.25,325.934L589.288,324.972L586.883,324.972L585.44,326.415L585.44,329.301Z" style="fill:rgb(219,8,18);"/>
                                                        <path d="M53.396,243.193L53.877,241.75L50.991,239.345L48.105,238.864L47.624,240.788L50.029,243.674L53.396,243.193Z" style="fill:rgb(219,8,18);"/>
                                                        <path d="M567.16,457.261L567.641,458.223L570.046,458.704L571.97,456.78L571.97,454.375L571.489,453.894L567.641,453.894L567.16,454.375L567.16,457.261Z" style="fill:rgb(219,8,18);"/>
                                                        <path d="M512.801,532.786L514.244,533.748L516.649,532.786L517.612,530.381L516.168,528.457L513.763,528.457L512.801,529.9L512.801,532.786Z" style="fill:rgb(219,8,18);"/>
                                                        <path d="M87.07,441.386L86.108,440.905L84.184,441.386L82.74,443.792L83.221,446.197L85.627,446.678L87.07,445.235L87.07,441.386Z" style="fill:rgb(219,8,18);"/>
                                                        <path d="M106.216,88.391L106.793,88.295L108.237,85.89L110.642,84.446L113.047,86.371L115.452,86.371L116.414,85.409L116.896,84.928L116.896,81.079L118.339,79.155L121.706,78.674L123.149,78.674L123.149,76.269L121.225,72.901L117.858,72.901L117.858,70.977L117.348,69.704L117.377,69.534L116.896,68.572L112.085,68.091L111.604,67.129L110.161,64.723L106.312,64.242L105.35,62.799L103.907,62.318L103.426,63.761L99.096,64.242L98.134,67.129L95.729,68.572L95.729,73.382L95.248,74.825L95.248,78.193L96.21,80.117L100.54,83.484L102.464,87.333L103.907,88.776L104.957,88.601L105.831,88.776L106.216,88.391Z" style="fill:rgb(219,8,18);"/>
                                                        <path d="M511.839,566.46L515.206,567.422L517.13,566.46L517.13,564.055L516.649,563.092L513.281,563.092L512.32,564.055L511.839,566.46Z" style="fill:rgb(219,8,18);"/>
                                                        <path d="M456.999,564.055L454.594,565.979L454.594,569.827L455.075,570.789L455.075,575.6L456.037,577.043L458.923,578.486L461.81,579.448L462.291,581.372L464.215,581.853L465.658,580.41L467.582,577.524L469.025,577.524L470.469,578.967L472.393,578.486L472.393,573.195L475.76,572.713L475.76,570.789L473.355,568.865L473.836,564.536L470.95,564.055L469.987,562.13L467.582,562.611L465.658,562.13L462.772,562.13L459.885,563.092L459.404,563.092L456.999,564.055Z" style="fill:rgb(219,8,18);"/>
                                                        <path d="M454.594,111.866L456.999,112.828L458.442,111.385L458.442,108.499L457.961,108.018L455.556,107.537L454.113,108.499L454.594,111.866Z" style="fill:rgb(219,8,18);"/>
                                                        <path d="M548.88,488.048L545.513,489.492L545.031,490.935L546.956,491.416L551.766,490.935L552.247,489.011L551.766,488.048L551.285,488.048L550.804,487.567L548.88,488.048Z" style="fill:rgb(219,8,18);"/>
                                                        <path d="M112.566,489.011L112.085,488.529L109.68,489.011L108.237,491.416L108.718,493.34L111.123,493.821L112.566,492.378L112.566,489.011Z" style="fill:rgb(219,8,18);"/>
                                                        <path d="M635.95,200.379L636.431,200.861L638.837,201.342L640.28,200.379L640.28,197.493L639.318,196.531L636.912,196.531L635.95,197.493L635.95,200.379Z" style="fill:rgb(219,8,18);"/>
                                                        <path d="M184.724,603.02L185.205,599.652L183.762,599.652L183.341,600.133L183.281,600.133L181.356,602.058L181.356,602.401L180.394,603.501L180.394,605.906L182.8,605.425L184.724,603.02Z" style="fill:rgb(219,8,18);"/>
                                                        <path d="M596.504,490.454L593.618,487.086L591.694,486.605L591.694,488.529L593.618,491.416L596.023,493.34L596.985,491.416L596.504,490.454Z" style="fill:rgb(219,8,18);"/>
                                                        <path d="M592.175,252.333L595.061,252.333L596.023,251.371L596.023,248.004L593.618,248.004L591.212,250.409L592.175,252.333Z" style="fill:rgb(219,8,18);"/>
                                                        <path d="M600.352,625.629L601.315,627.072L603.72,627.553L604.682,625.148L604.201,624.186L601.796,622.262L600.352,622.743L600.352,625.629Z" style="fill:rgb(219,8,18);"/>
                                                        <path d="M126.517,59.432L128.922,59.913L129.884,57.989L128.922,55.583L126.517,55.102L125.554,56.064L125.554,58.47L126.517,59.432Z" style="fill:rgb(219,8,18);"/>
                                                        <path d="M609.974,379.331L611.898,382.217L614.303,381.736L614.784,379.812L611.898,376.925L610.455,377.407L609.974,379.331Z" style="fill:rgb(219,8,18);"/>
                                                        <path d="M632.583,209.519L634.988,209.519L635.469,209.038L635.95,206.633L634.988,205.19L632.583,205.19L631.621,206.152L631.621,208.557L632.583,209.519Z" style="fill:rgb(219,8,18);"/>
                                                        <path d="M515.206,100.321L516.649,98.878L516.649,95.992L515.687,94.549L513.763,95.03L513.281,99.359L515.206,100.321Z" style="fill:rgb(219,8,18);"/>
                                                        <path d="M90.437,130.627L88.513,128.703L86.108,129.184L86.108,132.07L87.07,133.032L89.475,133.032L89.956,132.551L90.437,130.627Z" style="fill:rgb(219,8,18);"/>
                                                        <path d="M664.332,497.669L661.446,497.669L660.484,498.15L660.484,499.113L654.711,499.113L654.23,505.366L653.749,506.809L653.749,512.101L654.23,512.582L656.154,516.431L660.965,515.949L661.446,518.836L662.408,519.317L664.813,518.356L665.776,515.949L666.738,515.949L668.234,515.094L668.662,514.987L668.662,514.85L670.105,514.025L672.029,511.62L672.51,506.328L673.953,505.366L674.916,502.48L673.953,501.518L671.014,500.716L670.586,500.556L668.558,499.62L668.662,499.594L664.332,497.669Z" style="fill:rgb(219,8,18);"/>
                                                        <path d="M117.858,68.091L119.782,67.61L119.782,64.723L118.339,62.799L116.414,63.28L115.933,65.204L117.858,68.091Z" style="fill:rgb(219,8,18);"/>
                                                        <path d="M169.33,34.898L166.444,33.936L166.444,35.379L169.811,38.747L171.735,39.709L172.216,37.303L169.33,34.898Z" style="fill:rgb(219,8,18);"/>
                                                        <path d="M410.818,43.557L407.932,43.076L407.451,45.481L409.375,46.924L412.261,46.924L412.742,45L410.818,43.557Z" style="fill:rgb(219,8,18);"/>
                                                        <path d="M471.912,580.891L469.987,581.853L469.987,584.259L470.95,585.702L473.355,585.702L473.836,582.816L471.912,580.891Z" style="fill:rgb(219,8,18);"/>
                                                        <path d="M547.712,524.54L547.437,524.608L547.196,524.849L545.994,525.57L545.897,526.148L545.513,526.533L545.673,527.495L545.513,528.457L545.897,528.842L545.994,529.419L547.437,531.824L550.804,531.343L550.804,528.457L549.842,524.608L549.481,524.488L549.361,524.127L548.811,524.265L548.399,524.127L547.712,524.54Z" style="fill:rgb(219,8,18);"/>
                                                        <path d="M396.387,554.915L392.057,552.028L390.133,551.547L389.171,552.509L388.69,556.358L390.133,558.282L393.5,558.763L395.424,558.282L396.868,555.396L396.387,554.915Z" style="fill:rgb(219,8,18);"/>
                                                        <path d="M475.76,551.547L473.355,551.066L470.95,552.509L471.912,554.915L474.317,554.915L475.279,553.952L475.76,551.547Z" style="fill:rgb(219,8,18);"/>
                                                        <path d="M518.573,45L519.055,45.481L521.46,45.962L522.422,45L522.422,42.595L521.94,42.114L519.536,41.633L518.573,42.595L518.573,45Z" style="fill:rgb(219,8,18);"/>
                                                        <path d="M541.183,120.525L538.297,120.525L536.854,121.968L536.854,125.816L538.297,127.26L540.702,127.741L541.664,126.779L541.664,121.006L541.183,120.525Z" style="fill:rgb(219,8,18);"/>
                                                        <path d="M533.005,134.475L532.524,138.805L533.967,142.653L534.048,142.333L537.335,148.907L540.221,149.869L543.588,150.35L544.166,150.446L544.55,150.831L546.475,150.831L547.437,149.388L548.88,148.907L551.285,150.35L552.728,150.51L552.728,150.831L555.615,150.831L555.615,149.388L555.134,148.907L550.804,146.502L551.766,140.729L550.804,138.805L547.437,137.843L547.918,135.919L549.361,134.475L548.399,132.551L545.1,132.918L543.726,132.803L542.626,132.07L540.221,132.07L538.778,133.513L535.411,133.513L533.967,132.07L533.486,125.816L530.6,123.411L525.308,122.93L525.789,121.968L527.233,121.487L527.233,120.525L524.827,120.525L524.346,121.006L522.903,124.373L521.46,126.298L520.498,129.665L522.422,131.589L523.865,133.994L527.233,134.475L529.638,133.032L532.043,133.032L533.005,134.475Z" style="fill:rgb(219,8,18);"/>
                                                        <path d="M668.662,394.724L671.067,396.168L674.434,396.168L674.916,394.243L673.953,393.281L669.143,393.762L668.662,394.724Z" style="fill:rgb(219,8,18);"/>
                                                        <path d="M95.729,134.475L94.286,133.032L92.361,133.513L91.88,135.919L93.324,137.362L95.729,136.881L95.729,134.475Z" style="fill:rgb(219,8,18);"/>
                                                        <path d="M97.653,164.782L99.577,164.301L99.577,161.414L99.096,160.452L96.691,160.452L95.729,162.376L97.653,164.782Z" style="fill:rgb(219,8,18);"/>
                                                        <path d="M109.68,45.481L110.161,43.076L109.199,41.633L107.275,41.152L106.312,42.114L107.275,45L109.68,45.481Z" style="fill:rgb(219,8,18);"/>
                                                        <path d="M606.606,266.284L609.974,266.284L610.455,264.359L609.974,263.878L607.568,262.916L605.644,264.84L606.606,266.284Z" style="fill:rgb(219,8,18);"/>
                                                        <path d="M119.301,159.49L121.225,159.009L121.706,157.085L120.744,155.642L118.339,155.642L117.858,158.047L119.301,159.49Z" style="fill:rgb(219,8,18);"/>
                                                        <path d="M101.983,130.146L104.388,129.665L104.869,127.741L103.426,126.298L101.502,126.779L101.021,129.184L101.983,130.146Z" style="fill:rgb(219,8,18);"/>
                                                        <path d="M110.161,433.69L108.718,432.727L107.275,433.209L106.793,434.652L107.756,437.057L110.161,436.576L110.161,433.69Z" style="fill:rgb(219,8,18);"/>
                                                        <path d="M525.308,52.697L527.714,55.583L529.157,60.394L530.6,63.761L531.081,68.091L531.562,68.572L534.448,69.053L535.411,68.091L536.373,64.723L535.892,63.28L533.486,60.875L532.043,56.546L532.043,50.292L530.6,49.426L530.6,49.33L530.491,49.361L529.638,48.849L527.233,48.368L525.308,49.811L525.308,52.697Z" style="fill:rgb(219,8,18);"/>
                                                        <path d="M117.858,515.949L120.263,513.544L116.896,514.507L113.047,516.911L113.047,518.356L114.49,517.874L117.858,515.949Z" style="fill:rgb(219,8,18);"/>
                                                        <path d="M114.009,64.242L114.009,60.394L113.528,59.432L110.642,57.027L110.642,58.47L112.566,63.28L114.009,64.242Z" style="fill:rgb(219,8,18);"/>
                                                        <path d="M535.411,569.827L537.816,570.789L537.816,568.865L535.411,567.422L533.005,566.941L533.005,568.384L535.411,569.827Z" style="fill:rgb(219,8,18);"/>
                                                        <path d="M601.796,272.537L604.201,273.018L605.163,272.056L605.163,269.651L603.239,269.17L602.277,270.132L601.796,272.537Z" style="fill:rgb(219,8,18);"/>
                                                        <path d="M160.671,554.434L158.747,553.952L157.304,555.877L157.785,557.801L160.19,557.32L160.671,554.434Z" style="fill:rgb(219,8,18);"/>
                                                        <path d="M150.088,541.445L148.164,540.964L146.721,542.888L147.683,544.812L150.088,544.331L150.088,541.445Z" style="fill:rgb(219,8,18);"/>
                                                        <path d="M513.281,537.116L510.877,535.191L507.509,534.71L508.472,529.419L507.509,527.495L501.256,528.938L500.294,529.9L499.813,532.305L501.737,537.116L504.142,537.597L506.066,536.635L506.066,540.002L507.028,540.964L510.877,541.445L513.281,539.521L513.281,537.116Z" style="fill:rgb(219,8,18);"/>
                                                        <path d="M532.524,118.12L530.6,118.601L530.119,119.563L531.081,121.487L533.486,121.487L533.967,119.082L532.524,118.12Z" style="fill:rgb(219,8,18);"/>
                                                        <path d="M34.805,245.796L35.597,245.117L39.446,243.674L40.047,243.193L40.408,243.193L41.851,241.75L42.332,237.902L38.484,235.977L35.116,235.977L33.192,236.939L27.901,237.42L26.457,238.864L26.457,241.75L25.976,246.56L27.419,248.004L32.23,248.004L34.635,246.079L34.805,245.796Z" style="fill:rgb(219,8,18);"/>
                                                        <path d="M510.396,569.346L511.358,567.422L510.877,566.941L507.509,566.46L507.028,566.941L507.991,568.865L510.396,569.346Z" style="fill:rgb(219,8,18);"/>
                                                        <path d="M629.216,298.514L631.14,298.514L633.545,297.071L634.026,294.666L633.064,294.666L629.697,297.071L629.216,298.514Z" style="fill:rgb(219,8,18);"/>
                                                        <path d="M577.262,132.07L579.667,131.108L580.148,129.184L578.224,129.184L575.819,130.146L575.819,132.07L577.262,132.07Z" style="fill:rgb(219,8,18);"/>
                                                        <path d="M408.894,621.781L409.856,620.819L410.818,618.894L408.894,618.413L406.97,619.857L407.451,621.781L408.894,621.781Z" style="fill:rgb(219,8,18);"/>
                                                        <path d="M567.641,539.906L567.16,540.483L567.16,546.256L569.084,547.699L571.489,548.18L576.3,548.661L576.781,546.737L576.059,543.369L575.819,541.445L575.518,540.844L575.338,540.002L574.376,538.559L574.228,538.522L573.895,538.078L572.451,537.917L572.451,537.597L569.565,537.597L567.641,539.521L567.641,539.906Z" style="fill:rgb(219,8,18);"/>
                                                        <path d="M514.244,584.259L513.281,582.816L511.839,583.778L512.32,587.145L514.244,586.664L514.244,584.259Z" style="fill:rgb(219,8,18);"/>
                                                        <path d="M657.117,468.806L659.041,468.325L659.041,465.92L656.154,465.92L655.673,467.844L657.117,468.806Z" style="fill:rgb(219,8,18);"/>
                                                        <path d="M447.378,626.591L446.416,620.338L445.454,618.894L440.643,614.084L438.238,614.084L438.238,614.385L436.795,614.565L435.993,615.046L435.352,615.046L434.39,616.008L432.946,621.3L433.428,625.629L436.314,628.515L438.238,629.478L438.238,634.769L438.719,633.807L439.681,633.807L442.086,630.921L442.086,630.279L443.049,628.034L446.897,628.515L447.378,626.591Z" style="fill:rgb(219,8,18);"/>
                                                        <path d="M671.548,497.669L673.472,496.707L673.953,494.783L671.067,494.783L670.105,496.226L671.548,497.669Z" style="fill:rgb(219,8,18);"/>
                                                        <path d="M135.657,18.061L135.176,17.099L132.77,15.175L128.922,15.175L128.151,16.137L127.96,16.137L126.998,17.58L127.479,19.986L129.884,22.872L129.899,22.81L130.365,23.353L132.289,24.315L135.176,20.948L135.657,18.061Z" style="fill:rgb(219,8,18);"/>
                                                        <path d="M594.099,417.815L597.466,417.334L597.466,415.41L596.985,414.929L594.58,415.891L594.099,417.815Z" style="fill:rgb(219,8,18);"/>
                                                        <path d="M236.254,5.03L239.083,9.402L240.045,12.77L241.488,14.694L243.893,15.175L245.817,12.289L245.817,9.402L240.526,5.554L235.715,1.225L233.791,0.262L233.791,1.225L236.196,5.073L236.254,5.03Z" style="fill:rgb(219,8,18);"/>
                                                        <path d="M402.64,584.74L401.678,584.259L401.197,584.379L400.716,584.259L400.279,584.609L399.754,584.74L400.029,584.809L398.311,586.183L398.311,588.588L399.273,589.55L401.678,589.55L402.64,588.588L402.64,584.74Z" style="fill:rgb(219,8,18);"/>
                                                        <path d="M661.927,417.815L661.446,420.22L663.851,419.739L664.332,417.334L661.927,417.815Z" style="fill:rgb(219,8,18);"/>
                                                        <path d="M208.776,41.152L209.257,39.709L207.814,38.266L205.89,39.228L206.371,40.671L208.776,41.152Z" style="fill:rgb(219,8,18);"/>
                                                        <path d="M551.766,535.191L551.285,537.116L552.247,538.078L554.172,537.597L554.172,535.673L551.766,535.191Z" style="fill:rgb(219,8,18);"/>
                                                        <path d="M635.469,392.8L634.603,392.512L632.583,391.357L629.216,390.876L630.178,392.8L634.026,394.724L635.95,395.205L635.95,393.281L635.469,392.8Z" style="fill:rgb(219,8,18);"/>
                                                        <path d="M637.875,384.622L638.356,382.698L637.875,382.217L635.95,381.736L635.469,384.141L637.875,384.622Z" style="fill:rgb(219,8,18);"/>
                                                        <path d="M652.306,417.815L653.268,418.296L654.711,417.815L654.711,415.41L654.23,414.929L652.306,415.41L652.306,417.815Z" style="fill:rgb(219,8,18);"/>
                                                        <path d="M431.503,578.005L433.428,577.524L433.428,574.638L431.022,575.6L431.503,578.005Z" style="fill:rgb(219,8,18);"/>
                                                        <path d="M586.883,419.258L588.807,419.258L589.769,417.334L587.364,416.853L586.402,418.296L586.883,419.258Z" style="fill:rgb(219,8,18);"/>
                                                        <path d="M669.624,207.595L671.548,208.076L673.953,207.114L673.953,205.671L671.067,206.152L669.624,207.595Z" style="fill:rgb(219,8,18);"/>
                                                        <path d="M485.862,65.204L483.457,70.015L482.976,71.939L485.381,75.788L487.305,77.712L491.154,78.674L493.559,79.636L495.964,79.155L496.04,78.927L496.926,78.674L500.294,77.231L502.218,74.825L502.218,71.939L500.775,67.61L500.294,61.837L498.37,61.837L488.748,63.28L488.027,63.761L487.786,63.761L485.862,65.204Z" style="fill:rgb(219,8,18);"/>
                                                        <path d="M598.428,508.253L599.39,510.658L601.315,511.139L601.315,509.215L599.39,507.771L598.428,508.253Z" style="fill:rgb(219,8,18);"/>
                                                        <path d="M602.758,495.264L603.239,493.821L602.758,492.859L600.833,492.859L600.352,494.783L602.758,495.264Z" style="fill:rgb(219,8,18);"/>
                                                        <path d="M615.746,501.999L617.189,501.518L620.076,498.15L618.632,498.15L615.746,500.556L615.746,501.999Z" style="fill:rgb(219,8,18);"/>
                                                        <path d="M434.39,572.232L434.871,570.789L436.795,568.384L437.276,565.979L436.795,565.498L434.39,565.017L432.946,566.46L432.247,571.008L431.984,571.27L432.122,571.82L431.984,572.713L432.397,572.92L432.465,573.195L432.946,573.195L433.909,573.676L434.069,573.195L434.39,573.195L434.39,572.232Z" style="fill:rgb(219,8,18);"/>
                                                        <path d="M387.728,579.448L386.285,579.448L384.841,580.891L384.36,583.297L386.766,581.372L387.728,579.448Z" style="fill:rgb(219,8,18);"/>
                                                        <path d="M129.403,578.005L128.922,580.41L130.845,580.41L131.327,578.486L129.403,578.005Z" style="fill:rgb(219,8,18);"/>
                                                        <path d="M320.38,647.276L320.861,644.871L318.937,644.871L318.456,646.795L320.38,647.276Z" style="fill:rgb(219,8,18);"/>
                                                        <path d="M325.191,611.198L327.115,611.198L327.596,609.273L325.672,608.792L325.191,611.198Z" style="fill:rgb(219,8,18);"/>
                                                        <path d="M472.874,643.428L474.798,643.909L474.798,641.504L473.836,641.023L472.393,641.504L472.874,643.428Z" style="fill:rgb(219,8,18);"/>
                                                        <path d="M599.39,531.343L599.871,529.419L597.466,528.938L596.985,530.862L599.39,531.343Z" style="fill:rgb(219,8,18);"/>
                                                        <path d="M361.27,650.163L359.346,650.163L359.346,652.087L361.27,652.568L361.27,650.163Z" style="fill:rgb(219,8,18);"/>
                                                        <path d="M408.413,658.341L407.451,658.341L405.527,660.746L404.564,662.67L405.527,662.67L406.97,661.227L408.413,658.341Z" style="fill:rgb(219,8,18);"/>
                                                        <path d="M427.174,647.758L427.655,649.201L429.579,649.682L430.06,647.758L429.579,647.276L427.174,647.758Z" style="fill:rgb(219,8,18);"/>
                                                        <path d="M590.25,384.141L590.731,382.217L588.807,382.217L588.326,384.622L590.25,384.141Z" style="fill:rgb(219,8,18);"/>
                                                        <path d="M262.173,646.795L261.211,646.795L258.806,649.682L259.768,650.163L261.691,648.72L262.173,646.795Z" style="fill:rgb(219,8,18);"/>
                                                        <path d="M318.937,601.095L318.456,603.501L320.38,603.501L320.861,601.577L318.937,601.095Z" style="fill:rgb(219,8,18);"/>
                                                        <path d="M338.179,587.626L337.217,589.55L339.141,590.512L339.622,588.107L338.179,587.626Z" style="fill:rgb(219,8,18);"/>
                                                        <path d="M567.641,501.518L568.122,499.594L565.717,499.113L565.717,501.037L567.641,501.518Z" style="fill:rgb(219,8,18);"/>
                                                        <path d="M639.318,327.377L639.799,325.453L637.875,324.972L637.393,327.377L639.318,327.377Z" style="fill:rgb(219,8,18);"/>
                                                        <path d="M156.342,536.635L155.861,538.559L157.785,539.04L158.266,537.116L156.342,536.635Z" style="fill:rgb(219,8,18);"/>
                                                        <path d="M615.746,168.149L616.227,166.225L614.303,165.744L613.822,167.668L615.746,168.149Z" style="fill:rgb(219,8,18);"/>
                                                        <path d="M477.203,612.641L477.203,611.198L476.722,610.236L474.798,609.754L475.279,611.679L477.203,612.641Z" style="fill:rgb(219,8,18);"/>
                                                        <path d="M519.536,74.825L520.017,73.382L519.055,71.939L517.612,72.901L518.093,74.825L519.536,74.825Z" style="fill:rgb(219,8,18);"/>
                                                        <path d="M523.865,533.748L524.827,533.267L525.308,531.343L523.383,531.343L522.903,533.267L523.865,533.748Z" style="fill:rgb(219,8,18);"/>
                                                        <path d="M583.997,502.48L584.959,500.556L582.554,500.075L582.554,501.999L583.997,502.48Z" style="fill:rgb(219,8,18);"/>
                                                        <path d="M598.428,241.269L597.466,241.269L596.985,242.231L596.504,244.636L598.428,243.674L598.428,241.269Z" style="fill:rgb(219,8,18);"/>
                                                        <path d="M602.758,484.2L604.682,484.681L605.163,482.757L604.201,482.276L602.758,482.757L602.758,484.2Z" style="fill:rgb(219,8,18);"/>
                                                        <path d="M609.011,463.034L609.011,464.958L610.455,465.439L611.417,463.515L609.011,463.034Z" style="fill:rgb(219,8,18);"/>
                                                        <path d="M626.329,204.228L625.848,205.671L627.772,206.633L628.253,204.228L626.329,204.228Z" style="fill:rgb(219,8,18);"/>
                                                        <path d="M147.683,100.321L148.164,98.397L145.759,98.878L146.24,100.802L147.683,100.321Z" style="fill:rgb(219,8,18);"/>
                                                        <path d="M329.039,654.011L328.077,654.011L328.077,655.935L329.52,657.86L330.001,655.935L329.039,654.011Z" style="fill:rgb(219,8,18);"/>
                                                        <path d="M602.277,146.502L601.796,148.426L603.72,148.426L604.201,146.502L602.277,146.502Z" style="fill:rgb(219,8,18);"/>
                                                        <path d="M357.902,607.83L356.459,608.311L356.94,610.236L358.384,610.236L358.865,608.792L357.902,607.83Z" style="fill:rgb(219,8,18);"/>
                                                        <path d="M656.154,481.795L656.154,480.833L653.268,479.389L653.749,481.314L656.154,481.795Z" style="fill:rgb(219,8,18);"/>
                                                        <path d="M65.904,196.05L65.422,197.493L67.347,197.974L67.828,196.531L65.904,196.05Z" style="fill:rgb(219,8,18);"/>
                                                        <path d="M189.053,59.432L189.534,57.989L187.61,57.508L187.129,58.951L189.053,59.432Z" style="fill:rgb(219,8,18);"/>
                                                        <path d="M340.585,627.553L341.066,626.11L339.141,625.629L338.66,627.072L340.585,627.553Z" style="fill:rgb(219,8,18);"/>
                                                        <path d="M411.78,666.038L411.299,665.556L408.894,665.556L408.894,667L411.299,667L411.78,666.038Z" style="fill:rgb(219,8,18);"/>
                                                        <path d="M534.929,74.344L535.892,72.42L535.411,71.458L534.448,71.458L533.967,73.863L534.929,74.344Z" style="fill:rgb(219,8,18);"/>
                                                        <path d="M566.198,480.833L565.717,482.276L567.641,482.757L568.122,481.314L566.198,480.833Z" style="fill:rgb(219,8,18);"/>
                                                        <path d="M583.997,138.324L583.516,137.843L581.591,138.805L582.554,140.248L583.997,139.767L583.997,138.324Z" style="fill:rgb(219,8,18);"/>
                                                        <path d="M607.568,277.829L608.049,276.386L606.125,275.905L605.644,277.348L607.568,277.829Z" style="fill:rgb(219,8,18);"/>
                                                        <path d="M94.286,108.499L93.805,110.423L95.248,110.904L95.729,108.98L94.286,108.499Z" style="fill:rgb(219,8,18);"/>
                                                        <path d="M564.274,381.255L563.793,384.141L565.236,383.66L565.236,381.255L564.274,381.255Z" style="fill:rgb(219,8,18);"/>
                                                        <path d="M602.758,445.716L602.758,447.64L604.201,447.64L604.682,445.716L602.758,445.716Z" style="fill:rgb(219,8,18);"/>
                                                        <path d="M548.88,549.623L548.399,551.547L549.361,552.028L550.323,550.104L548.88,549.623Z" style="fill:rgb(219,8,18);"/>
                                                        <path d="M355.978,648.72L355.978,650.644L357.421,651.125L357.421,649.201L355.978,648.72Z" style="fill:rgb(219,8,18);"/>
                                                        <path d="M520.498,62.318L519.055,61.837L518.573,63.761L519.536,64.242L520.498,62.318Z" style="fill:rgb(219,8,18);"/>
                                                        <path d="M545.031,119.563L545.031,121.006L546.475,121.968L546.956,120.525L545.031,119.563Z" style="fill:rgb(219,8,18);"/>
                                                        <path d="M576.781,85.89L577.262,83.965L575.819,83.965L575.338,85.409L576.781,85.89Z" style="fill:rgb(219,8,18);"/>
                                                        <path d="M577.262,416.372L576.781,417.815L577.743,418.296L579.186,416.853L577.262,416.372Z" style="fill:rgb(219,8,18);"/>
                                                        <path d="M597.947,441.386L598.428,439.943L596.985,439.462L596.504,441.386L597.947,441.386Z" style="fill:rgb(219,8,18);"/>
                                                        <rect x="94.767" y="422.625" width="1.443" height="1.925" style="fill:rgb(219,8,18);"/>
                                                        <path d="M556.096,527.014L558.02,527.495L558.501,526.051L556.577,526.051L556.096,527.014Z" style="fill:rgb(219,8,18);"/>
                                                        <path d="M674.434,251.371L674.916,249.928L673.472,249.447L672.991,250.89L674.434,251.371Z" style="fill:rgb(219,8,18);"/>
                                                        <path d="M473.836,98.878L474.798,98.878L475.279,96.954L473.836,96.954L473.836,98.878Z" style="fill:rgb(219,8,18);"/>
                                                        <path d="M499.813,588.588L499.813,587.626L498.37,586.664L497.888,588.107L499.813,588.588Z" style="fill:rgb(219,8,18);"/>
                                                        <path d="M578.705,386.065L578.705,384.622L577.262,384.622L576.781,386.065L578.705,386.065Z" style="fill:rgb(219,8,18);"/>
                                                        <path d="M659.041,361.051L660.003,361.051L660.484,359.127L659.041,359.127L659.041,361.051Z" style="fill:rgb(219,8,18);"/>
                                                        <path d="M623.443,374.039L623.443,372.596L622.481,372.115L622,374.039L623.443,374.039Z" style="fill:rgb(219,8,18);"/>
                                                        <path d="M624.405,256.663L625.848,257.144L626.329,255.7L625.848,255.219L624.405,255.7L624.405,256.663Z" style="fill:rgb(219,8,18);"/>
                                                        <path d="M654.711,349.506L655.192,347.581L653.749,347.581L653.749,349.024L654.711,349.506Z" style="fill:rgb(219,8,18);"/>
                                                        <path d="M669.624,418.296L670.105,416.372L669.143,416.372L668.662,418.296L669.624,418.296Z" style="fill:rgb(219,8,18);"/>
                                                        <rect x="365.599" y="620.338" width="1.443" height="1.443" style="fill:rgb(219,8,18);"/>
                                                        <path d="M487.305,564.055L488.267,564.055L488.748,562.611L487.786,562.13L487.305,564.055Z" style="fill:rgb(219,8,18);"/>
                                                        <rect x="640.28" y="513.544" width="1.443" height="1.443" style="fill:rgb(219,8,18);"/>
                                                        <path d="M79.854,85.409L79.854,86.371L81.297,86.852L81.297,85.409L79.854,85.409Z" style="fill:rgb(219,8,18);"/>
                                                        <path d="M371.853,617.451L370.41,616.97L369.929,617.932L371.372,618.413L371.853,617.451Z" style="fill:rgb(219,8,18);"/>
                                                        <path d="M546.475,66.167L546.956,64.723L545.513,64.723L545.513,66.167L546.475,66.167Z" style="fill:rgb(219,8,18);"/>
                                                        <path d="M113.528,146.021L114.009,144.578L112.566,144.578L112.566,145.54L113.528,146.021Z" style="fill:rgb(219,8,18);"/>
                                                        <path d="M447.859,583.778L447.859,585.221L448.821,585.221L449.302,584.259L447.859,583.778Z" style="fill:rgb(219,8,18);"/>
                                                        <path d="M461.81,102.726L461.81,101.283L460.847,101.283L460.366,102.245L461.81,102.726Z" style="fill:rgb(219,8,18);"/>
                                                        <path d="M501.737,101.283L502.218,100.321L500.775,99.84L500.775,101.283L501.737,101.283Z" style="fill:rgb(219,8,18);"/>
                                                        <path d="M561.868,103.688L561.868,104.65L562.83,105.131L563.311,103.688L561.868,103.688Z" style="fill:rgb(219,8,18);"/>
                                                        <path d="M624.405,159.009L624.405,157.566L623.443,157.566L622.962,158.528L624.405,159.009Z" style="fill:rgb(219,8,18);"/>
                                                        <rect x="15.393" y="368.748" width="1.443" height="0.962" style="fill:rgb(219,8,18);"/>
                                                        <path d="M346.838,660.746L347.319,662.189L348.281,661.227L346.838,660.746Z" style="fill:rgb(219,8,18);"/>
                                                        <path d="M476.722,549.142L477.203,548.18L475.279,548.661L476.722,549.142Z" style="fill:rgb(219,8,18);"/>
                                                        <rect x="502.218" y="78.674" width="0.962" height="1.443" style="fill:rgb(219,8,18);"/>
                                                        <rect x="630.659" y="357.683" width="0.962" height="1.444" style="fill:rgb(219,8,18);"/>
                                                        <path d="M642.204,480.352L641.723,481.795L642.685,481.795L643.166,480.833L642.204,480.352Z" style="fill:rgb(219,8,18);"/>
                                                        <path d="M32.23,275.905L31.268,275.905L31.749,277.348L32.23,275.905Z" style="fill:rgb(219,8,18);"/>
                                                        <path d="M444.011,582.335L442.568,582.816L444.011,583.297L444.011,582.335Z" style="fill:rgb(219,8,18);"/>
                                                        <path d="M461.329,584.259L459.885,584.74L461.329,585.221L461.329,584.259Z" style="fill:rgb(219,8,18);"/>
                                                        <path d="M622,527.495L622.481,528.938L622.962,527.495L622,527.495Z" style="fill:rgb(219,8,18);"/>
                                                        <path d="M657.598,461.591L656.154,461.11L656.154,462.072L657.598,461.591Z" style="fill:rgb(219,8,18);"/>
                                                        <rect x="524.827" y="65.685" width="0.962" height="0.963" style="fill:rgb(219,8,18);"/>
                                                        <path d="M104.869,48.849L105.35,49.811L105.831,48.849L104.869,48.849Z" style="fill:rgb(219,8,18);"/>
                                                        <path d="M156.823,48.368L157.304,49.33L157.785,48.368L156.823,48.368Z" style="fill:rgb(219,8,18);"/>
                                                        <path d="M601.796,524.608L600.833,524.608L600.833,525.57L601.796,524.608Z" style="fill:rgb(219,8,18);"/>
                                                    </g>
                                                </g>
                                            </g>
                                        </g>
                                    </g>
                                </g>
                            </g>
                        </g>
                    </g>
                </g>
            </g>
        </g>
        <g transform="matrix(4.166667,0,0,4.166667,11161.425,3946.359375)">
            <g transform="matrix(0,6.50495,-8.885433,0,1942.042998,-1528.655989)">
                <g transform="matrix(-0.637546,0.770412,-0.770412,-0.637546,306.890299,190.134709)">
                    <path d="M0,0.192L6.316,8.358L3.892,10.654L-2.999,2.552L-5.486,-0.318L-7.145,-2.296L-10.271,-6.315L-8.868,-10.462L-4.147,-5.167L-2.424,-2.934L0,0.192Z" style="fill:white;fill-rule:nonzero;"/>
                </g>
                <g transform="matrix(0.61591,-0.780987,0.787983,0.624435,309.213668,178.013381)">
                    <path d="M0,0.192L6.316,8.358L3.892,10.654L-2.999,2.552L-5.486,-0.318L-7.145,-2.296L-10.271,-6.315L-8.868,-10.462L-4.147,-5.167L-2.424,-2.934L0,0.192Z" style="fill:white;fill-rule:nonzero;"/>
                </g>
            </g>
        </g>
    </g>
</svg>
