<?xml version="1.0" encoding="UTF-8" standalone="no"?>
<!DOCTYPE svg PUBLIC "-//W3C//DTD SVG 1.1//EN" "http://www.w3.org/Graphics/SVG/1.1/DTD/svg11.dtd">
<svg width="100%" height="100%" viewBox="0 0 171 138" version="1.1" xmlns="http://www.w3.org/2000/svg" xmlns:xlink="http://www.w3.org/1999/xlink" xml:space="preserve" xmlns:serif="http://www.serif.com/" style="fill-rule:evenodd;clip-rule:evenodd;stroke-linejoin:round;stroke-miterlimit:2;">
    <g transform="matrix(1,0,0,1,-12267.311766,-4816.141659)">
        <g transform="matrix(4.166667,0,0,4.166667,11161.425,3946.359375)">
            <g transform="matrix(1,0,0,1,297.81992,226.521794)">
                <path d="M0,0.192L6.316,8.358L3.892,10.654L-2.999,2.552L-10.463,8.294L-12.696,5.87L-5.486,-0.318L-7.145,-2.296L-10.271,-6.315L-8.868,-10.462L-4.147,-5.167L-2.424,-2.934L0.255,-5.167L4.721,-10.271L8.421,-6.953L3.126,-2.168L0,0.192Z" style="fill:white;fill-rule:nonzero;"/>
            </g>
            <g transform="matrix(0.811864,0,0,1.108966,18.870921,23.648472)">
                <g transform="matrix(-1.065561,0.450384,-0.255756,-0.830372,314.252571,191.929702)">
                    <path d="M0,0.192L6.316,8.358L3.892,10.654L-2.999,2.552L-5.486,-0.318L-7.145,-2.296L-10.026,-6.182L-8.868,-10.462L-4.147,-5.167L-2.424,-2.934L0,0.192Z" style="fill:white;fill-rule:nonzero;"/>
                </g>
                <g transform="matrix(1.059993,0.448031,-0.860809,0.579562,309.270957,183.629694)">
                    <path d="M8.395,-6.298L14.711,1.868L3.892,10.654L-2.999,2.552L-5.486,-0.318L-7.145,-2.296L-10.271,-6.315L-0.473,-16.952L4.248,-11.657L5.971,-9.424L8.395,-6.298Z" style="fill:white;fill-rule:nonzero;"/>
                </g>
                <g transform="matrix(0.318819,0.871077,-1.160313,-0.03363,317.071283,177.805135)">
                    <path d="M0,0.192L6.316,8.358L3.892,10.654L-2.999,2.552L-5.486,-0.318L-7.145,-2.296L-10.75,-7.071L-8.868,-10.462L-4.147,-5.167L-2.424,-2.934L0,0.192Z" style="fill:white;fill-rule:nonzero;"/>
                </g>
                <g transform="matrix(1.066788,0.450903,-0.852947,0.576875,327.43016,183.438037)">
                    <path d="M0,0.192L10.639,14.542L7.12,14.691L-2.999,2.552L-5.486,-0.318L-7.145,-2.296L-15.809,-13.241L-14.406,-17.388L-4.147,-5.167L-2.424,-2.934L0,0.192Z" style="fill:white;fill-rule:nonzero;"/>
                </g>
            </g>
        </g>
    </g>
</svg>
