<?xml version="1.0" encoding="UTF-8" standalone="no"?>
<!DOCTYPE svg PUBLIC "-//W3C//DTD SVG 1.1//EN" "http://www.w3.org/Graphics/SVG/1.1/DTD/svg11.dtd">
<svg width="100%" height="100%" viewBox="0 0 738 118" version="1.1" xmlns="http://www.w3.org/2000/svg" xmlns:xlink="http://www.w3.org/1999/xlink" xml:space="preserve" xmlns:serif="http://www.serif.com/" style="fill-rule:evenodd;clip-rule:evenodd;stroke-linejoin:round;stroke-miterlimit:2;">
    <g transform="matrix(1,0,0,1,-130.250417,-4413.186875)">
        <g transform="matrix(4.166667,0,0,4.166667,0,3946.359375)">
            <g transform="matrix(1,0,0,1,36.3811,139.7549)">
                <path d="M0,-27.263L-2.22,-21.007L12.646,-21.015L-5.121,-6.035L-2.979,0L16.489,0L14.524,-5.539L3.381,-5.539L16.419,-12.805L21.548,-27.263L0,-27.263Z" style="fill:rgb(227,6,19);fill-rule:nonzero;"/>
            </g>
        </g>
        <g transform="matrix(4.166667,0,0,4.166667,0,3946.359375)">
            <g transform="matrix(1,0,0,1,60.6149,139.7549)">
                <path d="M0,-27.263L-7.367,-6.505L-5.058,0L6.999,0L8.189,-7.214L-0.045,-4.614L5.162,-24.838L0,-27.263Z" style="fill:rgb(227,6,19);fill-rule:nonzero;"/>
            </g>
        </g>
        <g transform="matrix(4.166667,0,0,4.166667,0,3946.359375)">
            <g transform="matrix(1,0,0,1,86.4612,139.756)">
                <path d="M0,-27.35L-7.416,-27.35L-11.95,0L6.516,0L7.507,-5.984L-3.543,-5.984L0,-27.35Z" style="fill:white;fill-rule:nonzero;"/>
            </g>
        </g>
        <g transform="matrix(4.166667,0,0,4.166667,0,3946.359375)">
            <g transform="matrix(-0.163545,0.986536,0.986536,0.163545,114.341346,126.895879)">
                <path d="M-11.814,-17.333L15.909,-17.333L14.696,-10.017L-13.027,-10.017L-11.814,-17.333Z" style="fill:white;fill-rule:nonzero;"/>
            </g>
        </g>
        <g transform="matrix(4.166667,0,0,4.166667,0,3946.359375)">
            <g transform="matrix(1,0,0,1,120.1095,127.6781)">
                <path d="M0,-3.194L-0.863,2.092L4.06,2.092C3.895,2.757 3.603,3.365 3.167,3.909C2.646,4.558 1.952,5.066 1.083,5.433C0.214,5.8 -0.814,5.984 -2.001,5.984C-3.518,5.984 -4.644,5.559 -5.378,4.708C-6.113,3.858 -6.479,2.643 -6.479,1.064C-6.479,-0.159 -6.317,-1.374 -5.993,-2.579C-5.669,-3.784 -5.183,-4.886 -4.534,-5.883C-3.885,-6.881 -3.074,-7.679 -2.102,-8.279C-1.129,-8.878 0.006,-9.178 1.303,-9.178C1.842,-9.178 2.319,-9.114 2.735,-8.985C3.151,-8.857 3.506,-8.667 3.8,-8.416C4.093,-8.165 4.326,-7.856 4.497,-7.489C4.668,-7.122 4.772,-6.706 4.809,-6.241L12.298,-6.241C12.396,-7.697 12.179,-9.004 11.647,-10.16C11.115,-11.316 10.346,-12.305 9.343,-13.124C8.34,-13.944 7.161,-14.568 5.81,-14.997C4.457,-15.425 3.01,-15.639 1.469,-15.639C-0.832,-15.639 -2.931,-15.202 -4.827,-14.327C-6.725,-13.452 -8.361,-12.243 -9.738,-10.701C-11.115,-9.16 -12.176,-7.376 -12.923,-5.351C-13.669,-3.325 -14.042,-1.168 -14.042,1.119C-14.042,3.469 -13.568,5.488 -12.62,7.177C-11.672,8.866 -10.325,10.166 -8.581,11.078C-6.838,11.989 -4.772,12.445 -2.386,12.445C-0.649,12.445 0.991,12.191 2.533,11.683C4.075,11.176 5.458,10.429 6.682,9.444C7.905,8.459 8.93,7.244 9.756,5.8C10.582,4.356 11.148,2.698 11.454,0.826L12.115,-3.194L0,-3.194Z" style="fill:white;fill-rule:nonzero;"/>
            </g>
        </g>
        <g transform="matrix(4.166667,0,0,4.166667,0,3946.359375)">
            <g transform="matrix(1,0,0,1,151.7647,129.3674)">
                <path d="M0,-6.572L-9.838,-6.572L-8.113,-16.961L-15.529,-16.961L-20.063,10.389L-12.647,10.389L-10.83,-0.588L-0.991,-0.588L-2.808,10.389L4.607,10.389L9.141,-16.961L1.726,-16.961L0,-6.572Z" style="fill:white;fill-rule:nonzero;"/>
            </g>
        </g>
        <g transform="matrix(4.166667,0,0,4.166667,0,3946.359375)">
            <g transform="matrix(1,0,0,1,186.3208,139.756)">
                <path d="M0,-27.35L-23.752,-27.35L-24.743,-21.366L-16.575,-21.366L-20.118,0L-12.702,0L-9.159,-21.366L-0.991,-21.366L0,-27.35Z" style="fill:white;fill-rule:nonzero;"/>
            </g>
        </g>
        <g transform="matrix(4.166667,0,0,4.166667,0,3946.359375)">
            <g transform="matrix(1,0,0,1,208.046,131.1656)">
                <path d="M0,-10.206C0.281,-11.992 0.058,-13.556 -0.67,-14.896C-1.398,-16.236 -2.542,-17.276 -4.102,-18.016C-5.662,-18.757 -7.55,-19.127 -9.765,-19.127C-11.931,-19.127 -13.868,-18.763 -15.575,-18.035C-17.282,-17.306 -18.677,-16.291 -19.76,-14.987C-20.842,-13.684 -21.525,-12.164 -21.806,-10.426C-22.162,-8.284 -21.748,-6.593 -20.568,-5.351C-19.386,-4.109 -17.634,-3.231 -15.308,-2.717L-12.647,-2.129C-11.668,-1.921 -10.9,-1.689 -10.343,-1.432C-9.787,-1.175 -9.401,-0.891 -9.187,-0.578C-8.973,-0.266 -8.903,0.098 -8.976,0.514C-9.049,0.967 -9.254,1.367 -9.591,1.716C-9.927,2.065 -10.38,2.337 -10.949,2.533C-11.518,2.729 -12.2,2.827 -12.996,2.827C-13.95,2.827 -14.742,2.68 -15.373,2.386C-16.003,2.093 -16.459,1.658 -16.74,1.083C-17.022,0.508 -17.113,-0.196 -17.015,-1.028L-24.064,-1.028C-24.431,1.26 -24.211,3.139 -23.403,4.607C-22.596,6.075 -21.329,7.162 -19.603,7.865C-17.878,8.569 -15.829,8.921 -13.455,8.921C-11.142,8.921 -9.141,8.596 -7.452,7.948C-5.763,7.299 -4.408,6.348 -3.386,5.094C-2.365,3.839 -1.707,2.313 -1.413,0.514C-1.242,-0.526 -1.248,-1.484 -1.431,-2.359C-1.615,-3.234 -1.991,-4.026 -2.56,-4.736C-3.129,-5.446 -3.913,-6.061 -4.91,-6.581C-5.907,-7.101 -7.134,-7.526 -8.59,-7.856L-10.738,-8.334C-11.57,-8.517 -12.237,-8.728 -12.739,-8.967C-13.24,-9.205 -13.592,-9.487 -13.794,-9.811C-13.996,-10.135 -14.06,-10.512 -13.987,-10.94C-13.913,-11.344 -13.736,-11.705 -13.455,-12.023C-13.173,-12.341 -12.772,-12.589 -12.252,-12.766C-11.733,-12.944 -11.093,-13.033 -10.334,-13.033C-9.135,-13.033 -8.278,-12.785 -7.765,-12.289C-7.25,-11.794 -7.036,-11.099 -7.121,-10.206L0,-10.206Z" style="fill:white;fill-rule:nonzero;"/>
            </g>
        </g>
    </g>
</svg>
