<?xml version="1.0" encoding="UTF-8" standalone="no"?>
<!DOCTYPE svg PUBLIC "-//W3C//DTD SVG 1.1//EN" "http://www.w3.org/Graphics/SVG/1.1/DTD/svg11.dtd">
<svg width="100%" height="100%" viewBox="0 0 822 118" version="1.1" xmlns="http://www.w3.org/2000/svg" xmlns:xlink="http://www.w3.org/1999/xlink" xml:space="preserve" xmlns:serif="http://www.serif.com/" style="fill-rule:evenodd;clip-rule:evenodd;stroke-linejoin:round;stroke-miterlimit:2;">
    <g transform="matrix(1,0,0,1,-130.250417,-5110.988125)">
        <g transform="matrix(4.166667,0,0,4.166667,0,3946.359375)">
            <g transform="matrix(1,0,0,1,36.3811,307.2276)">
                <path d="M0,-27.263L-2.22,-21.007L12.646,-21.015L-5.121,-6.035L-2.979,0L16.489,0L14.524,-5.539L3.381,-5.539L16.419,-12.805L21.548,-27.263L0,-27.263Z" style="fill:rgb(227,6,19);fill-rule:nonzero;"/>
            </g>
        </g>
        <g transform="matrix(4.166667,0,0,4.166667,0,3946.359375)">
            <g transform="matrix(1,0,0,1,60.6149,307.2276)">
                <path d="M0,-27.263L-7.367,-6.505L-5.058,0L6.999,0L8.189,-7.214L-0.045,-4.614L5.162,-24.838L0,-27.263Z" style="fill:rgb(227,6,19);fill-rule:nonzero;"/>
            </g>
        </g>
        <g transform="matrix(4.166667,0,0,4.166667,0,3946.359375)">
            <g transform="matrix(1,0,0,1,85.4699,301.2815)">
                <path d="M0,-15.456L2.607,-15.456C3.916,-15.456 4.898,-15.19 5.553,-14.658C6.207,-14.125 6.436,-13.278 6.241,-12.115C6.119,-11.332 5.849,-10.702 5.433,-10.225C5.017,-9.747 4.479,-9.398 3.818,-9.178C3.157,-8.958 2.386,-8.848 1.505,-8.848L-1.094,-8.848L0,-15.456ZM11.867,-7.159C12.962,-8.505 13.669,-10.157 13.987,-12.115C14.305,-14.048 14.155,-15.71 13.537,-17.099C12.919,-18.487 11.91,-19.552 10.509,-20.293C9.107,-21.033 7.391,-21.403 5.36,-21.403L-6.424,-21.403L-10.958,5.947L-3.543,5.947L-2.048,-3.084L0.523,-3.084L3.836,5.947L11.913,5.947L8.017,-4.263C9.553,-4.944 10.844,-5.901 11.867,-7.159" style="fill:white;fill-rule:nonzero;"/>
            </g>
        </g>
        <g transform="matrix(4.166667,0,0,4.166667,0,3946.359375)">
            <g transform="matrix(-0.163545,0.986536,0.986536,0.163545,118.195846,294.368279)">
                <path d="M-11.814,-17.333L15.909,-17.333L14.696,-10.017L-13.027,-10.017L-11.814,-17.333Z" style="fill:white;fill-rule:nonzero;"/>
            </g>
        </g>
        <g transform="matrix(4.166667,0,0,4.166667,0,3946.359375)">
            <g transform="matrix(1,0,0,1,133.3072,305.081)">
                <path d="M0,-23.055C-1.004,-23.875 -2.182,-24.499 -3.533,-24.927C-4.886,-25.356 -6.333,-25.57 -7.875,-25.57C-10.175,-25.57 -12.274,-25.132 -14.171,-24.257C-16.068,-23.382 -17.704,-22.174 -19.081,-20.632C-20.458,-19.09 -21.519,-17.307 -22.266,-15.281C-23.012,-13.256 -23.385,-11.099 -23.385,-8.811C-23.385,-6.461 -22.911,-4.442 -21.963,-2.753C-21.015,-1.064 -19.668,0.236 -17.925,1.147C-16.181,2.059 -14.116,2.515 -11.73,2.515C-9.992,2.515 -8.352,2.26 -6.81,1.753C-5.268,1.245 -3.886,0.499 -2.662,-0.486C-1.438,-1.472 -0.413,-2.686 0.413,-4.13C1.239,-5.574 1.805,-7.232 2.111,-9.104L2.772,-13.124L-9.343,-13.124L-10.206,-7.838L-5.283,-7.838C-5.448,-7.173 -5.74,-6.565 -6.177,-6.021C-6.697,-5.372 -7.391,-4.864 -8.26,-4.497C-9.129,-4.13 -10.157,-3.947 -11.344,-3.947C-12.862,-3.947 -13.987,-4.371 -14.721,-5.223C-15.456,-6.072 -15.823,-7.287 -15.823,-8.866C-15.823,-10.09 -15.661,-11.304 -15.336,-12.509C-15.012,-13.715 -14.526,-14.816 -13.877,-15.814C-13.228,-16.811 -12.418,-17.609 -11.445,-18.209C-10.472,-18.808 -9.337,-19.109 -8.04,-19.109C-7.501,-19.109 -7.024,-19.044 -6.608,-18.916C-6.192,-18.787 -5.837,-18.597 -5.544,-18.347C-5.25,-18.096 -5.018,-17.787 -4.846,-17.42C-4.675,-17.053 -4.571,-16.637 -4.534,-16.172L2.955,-16.172C3.053,-17.628 2.836,-18.934 2.304,-20.091C1.771,-21.247 1.003,-22.235 0,-23.055" style="fill:white;fill-rule:nonzero;"/>
            </g>
        </g>
        <g transform="matrix(4.166667,0,0,4.166667,0,3946.359375)">
            <g transform="matrix(1,0,0,1,151.2144,295.1499)">
                <path d="M0,-3.193L-0.863,2.093L4.06,2.093C3.895,2.758 3.603,3.366 3.166,3.91C2.646,4.559 1.952,5.067 1.083,5.434C0.214,5.801 -0.814,5.984 -2.001,5.984C-3.518,5.984 -4.644,5.56 -5.378,4.709C-6.113,3.859 -6.479,2.644 -6.479,1.065C-6.479,-0.159 -6.317,-1.373 -5.993,-2.578C-5.669,-3.784 -5.183,-4.885 -4.534,-5.883C-3.885,-6.88 -3.074,-7.678 -2.102,-8.278C-1.129,-8.877 0.006,-9.178 1.303,-9.178C1.842,-9.178 2.319,-9.113 2.735,-8.985C3.151,-8.856 3.506,-8.666 3.8,-8.416C4.093,-8.165 4.326,-7.856 4.497,-7.489C4.668,-7.122 4.773,-6.705 4.81,-6.241L12.299,-6.241C12.396,-7.697 12.179,-9.003 11.646,-10.159C11.114,-11.316 10.346,-12.304 9.343,-13.124C8.34,-13.944 7.162,-14.568 5.81,-14.996C4.458,-15.425 3.01,-15.639 1.468,-15.639C-0.832,-15.639 -2.931,-15.201 -4.827,-14.326C-6.725,-13.451 -8.361,-12.243 -9.738,-10.701C-11.115,-9.159 -12.176,-7.375 -12.923,-5.35C-13.669,-3.325 -14.042,-1.168 -14.042,1.12C-14.042,3.47 -13.568,5.489 -12.62,7.178C-11.672,8.867 -10.325,10.167 -8.581,11.078C-6.838,11.99 -4.772,12.446 -2.386,12.446C-0.649,12.446 0.991,12.192 2.533,11.684C4.075,11.176 5.458,10.43 6.681,9.445C7.905,8.459 8.93,7.245 9.756,5.801C10.582,4.357 11.148,2.699 11.454,0.827L12.115,-3.193L0,-3.193Z" style="fill:white;fill-rule:nonzero;"/>
            </g>
        </g>
        <g transform="matrix(4.166667,0,0,4.166667,0,3946.359375)">
            <g transform="matrix(-0.16351,0.986542,0.986542,0.16351,182.509157,294.367297)">
                <path d="M-11.814,-17.333L15.909,-17.333L14.697,-10.018L-13.026,-10.017L-11.814,-17.333Z" style="fill:white;fill-rule:nonzero;"/>
            </g>
        </g>
        <g transform="matrix(4.166667,0,0,4.166667,0,3946.359375)">
            <g transform="matrix(1,0,0,1,194.9216,307.2284)">
                <path d="M0,-27.35L-1.67,-17.328C-1.805,-16.459 -1.943,-15.391 -2.083,-14.125C-2.224,-12.858 -2.355,-11.573 -2.478,-10.27C-2.514,-9.89 -2.548,-9.528 -2.581,-9.175C-2.693,-9.732 -2.808,-10.261 -2.927,-10.747C-3.203,-11.867 -3.506,-12.892 -3.836,-13.821C-4.166,-14.751 -4.54,-15.682 -4.956,-16.612L-9.692,-27.35L-17.768,-27.35L-22.302,0L-14.666,0L-13.014,-9.985C-12.892,-10.732 -12.769,-11.649 -12.647,-12.739C-12.525,-13.827 -12.402,-15.009 -12.28,-16.282C-12.226,-16.84 -12.178,-17.405 -12.127,-17.966C-11.966,-17.374 -11.811,-16.816 -11.665,-16.3C-11.353,-15.198 -11.022,-14.155 -10.674,-13.17C-10.325,-12.185 -9.9,-11.123 -9.398,-9.985L-4.974,0L3.103,0L7.637,-27.35L0,-27.35Z" style="fill:white;fill-rule:nonzero;"/>
            </g>
        </g>
        <g transform="matrix(4.166667,0,0,4.166667,0,3946.359375)">
            <g transform="matrix(1,0,0,1,211.5438,297.8403)">
                <path d="M0,-8.573C0.648,-9.57 1.459,-10.369 2.432,-10.968C3.405,-11.568 4.54,-11.868 5.837,-11.868C6.376,-11.868 6.853,-11.804 7.269,-11.675C7.685,-11.546 8.04,-11.357 8.334,-11.106C8.627,-10.855 8.86,-10.546 9.031,-10.179C9.202,-9.812 9.307,-9.396 9.344,-8.931L16.833,-8.931C16.93,-10.387 16.713,-11.694 16.18,-12.85C15.648,-14.006 14.88,-14.994 13.877,-15.814C12.874,-16.634 11.696,-17.258 10.344,-17.687C8.992,-18.115 7.544,-18.329 6.002,-18.329C3.701,-18.329 1.603,-17.891 -0.293,-17.017C-2.191,-16.141 -3.827,-14.933 -5.204,-13.391C-6.58,-11.85 -7.643,-10.066 -8.388,-8.041C-9.135,-6.015 -9.508,-3.858 -9.508,-1.57C-9.508,0.78 -9.034,2.798 -8.086,4.487C-7.137,6.176 -5.791,7.477 -4.047,8.388C-2.304,9.3 -0.239,9.756 2.148,9.756C3.885,9.756 5.525,9.501 7.067,8.994C8.609,8.486 9.992,7.74 11.215,6.754C12.439,5.769 13.464,4.555 14.29,3.11C15.116,1.667 15.682,0.009 15.988,-1.864L16.649,-5.883L4.534,-5.883L3.672,-0.597L8.594,-0.597C8.429,0.068 8.137,0.676 7.7,1.22C7.18,1.868 6.486,2.377 5.617,2.744C4.748,3.11 3.72,3.294 2.534,3.294C1.016,3.294 -0.11,2.869 -0.844,2.018C-1.578,1.168 -1.946,-0.047 -1.946,-1.625C-1.946,-2.849 -1.783,-4.063 -1.459,-5.269C-1.135,-6.474 -0.648,-7.575 0,-8.573" style="fill:white;fill-rule:nonzero;"/>
            </g>
        </g>
    </g>
</svg>
