<?xml version="1.0" encoding="UTF-8" standalone="no"?>
<!DOCTYPE svg PUBLIC "-//W3C//DTD SVG 1.1//EN" "http://www.w3.org/Graphics/SVG/1.1/DTD/svg11.dtd">
<svg width="100%" height="100%" viewBox="0 0 694 118" version="1.1" xmlns="http://www.w3.org/2000/svg" xmlns:xlink="http://www.w3.org/1999/xlink" xml:space="preserve" xmlns:serif="http://www.serif.com/" style="fill-rule:evenodd;clip-rule:evenodd;stroke-linejoin:round;stroke-miterlimit:2;">
    <g transform="matrix(1,0,0,1,-130.250417,-4878.387292)">
        <g transform="matrix(4.166667,0,0,4.166667,0,3946.359375)">
            <g transform="matrix(1,0,0,1,36.3811,251.4034)">
                <path d="M0,-27.263L-2.22,-21.007L12.646,-21.015L-5.121,-6.035L-2.979,0L16.489,0L14.524,-5.539L3.381,-5.539L16.419,-12.805L21.548,-27.263L0,-27.263Z" style="fill:rgb(227,6,19);fill-rule:nonzero;"/>
            </g>
        </g>
        <g transform="matrix(4.166667,0,0,4.166667,0,3946.359375)">
            <g transform="matrix(1,0,0,1,60.6149,251.4034)">
                <path d="M0,-27.263L-7.367,-6.505L-5.058,0L6.999,0L8.189,-7.214L-0.045,-4.614L5.162,-24.838L0,-27.263Z" style="fill:rgb(227,6,19);fill-rule:nonzero;"/>
            </g>
        </g>
        <g transform="matrix(4.166667,0,0,4.166667,0,3946.359375)">
            <g transform="matrix(1,0,0,1,95.3727,250.6237)">
                <path d="M0,-25.826C-1.56,-26.566 -3.448,-26.937 -5.663,-26.937C-7.829,-26.937 -9.765,-26.572 -11.472,-25.844C-13.179,-25.116 -14.574,-24.101 -15.657,-22.797C-16.74,-21.494 -17.423,-19.974 -17.704,-18.236C-18.059,-16.094 -17.646,-14.403 -16.465,-13.161C-15.284,-11.919 -13.531,-11.041 -11.206,-10.527L-8.544,-9.939C-7.565,-9.731 -6.798,-9.499 -6.241,-9.242C-5.684,-8.985 -5.299,-8.7 -5.084,-8.388C-4.871,-8.076 -4.8,-7.712 -4.873,-7.296C-4.947,-6.843 -5.152,-6.442 -5.488,-6.094C-5.825,-5.745 -6.278,-5.472 -6.847,-5.277C-7.416,-5.081 -8.098,-4.983 -8.893,-4.983C-9.848,-4.983 -10.64,-5.13 -11.27,-5.424C-11.901,-5.717 -12.357,-6.151 -12.638,-6.727C-12.92,-7.302 -13.011,-8.006 -12.913,-8.838L-19.962,-8.838C-20.329,-6.549 -20.108,-4.671 -19.301,-3.203C-18.493,-1.734 -17.227,-0.648 -15.501,0.055C-13.776,0.759 -11.726,1.111 -9.352,1.111C-7.039,1.111 -5.039,0.787 -3.35,0.138C-1.661,-0.511 -0.306,-1.462 0.716,-2.716C1.738,-3.971 2.395,-5.497 2.689,-7.296C2.86,-8.336 2.854,-9.294 2.671,-10.168C2.487,-11.043 2.111,-11.836 1.542,-12.546C0.973,-13.255 0.19,-13.87 -0.807,-14.39C-1.805,-14.911 -3.032,-15.336 -4.488,-15.666L-6.636,-16.143C-7.468,-16.327 -8.135,-16.538 -8.636,-16.777C-9.138,-17.015 -9.49,-17.297 -9.692,-17.621C-9.893,-17.945 -9.958,-18.322 -9.884,-18.75C-9.811,-19.154 -9.634,-19.515 -9.352,-19.833C-9.071,-20.151 -8.67,-20.399 -8.15,-20.576C-7.63,-20.754 -6.99,-20.842 -6.232,-20.842C-5.033,-20.842 -4.176,-20.595 -3.662,-20.099C-3.148,-19.603 -2.934,-18.909 -3.019,-18.016L4.103,-18.016C4.384,-19.802 4.16,-21.366 3.433,-22.706C2.705,-24.046 1.56,-25.086 0,-25.826" style="fill:white;fill-rule:nonzero;"/>
            </g>
        </g>
        <g transform="matrix(4.166667,0,0,4.166667,0,3946.359375)">
            <g transform="matrix(1,0,0,1,125.6059,251.4042)">
                <path d="M0,-27.35L-23.753,-27.35L-24.744,-21.366L-16.575,-21.366L-20.118,0L-12.702,0L-9.16,-21.366L-0.991,-21.366L0,-27.35Z" style="fill:white;fill-rule:nonzero;"/>
            </g>
        </g>
        <g transform="matrix(4.166667,0,0,4.166667,0,3946.359375)">
            <g transform="matrix(1,0,0,1,136.0366,245.4011)">
                <path d="M0,-15.344C0.079,-14.154 0.143,-12.972 0.235,-11.774C0.419,-9.361 0.661,-7.035 0.957,-4.79L-4.229,-4.79C-3.218,-7.035 -2.255,-9.361 -1.344,-11.774C-0.891,-12.972 -0.448,-14.154 0,-15.344M-4.29,-21.347L-17.69,6.003L-9.099,6.003L-6.728,0.753L1.692,0.753L2.392,6.003L10.505,6.003L5.843,-21.347L-4.29,-21.347Z" style="fill:white;fill-rule:nonzero;"/>
            </g>
        </g>
        <g transform="matrix(4.166667,0,0,4.166667,0,3946.359375)">
            <g transform="matrix(1,0,0,1,161.842,239.3264)">
                <path d="M0,-3.194L-0.862,2.092L4.061,2.092C3.896,2.757 3.603,3.365 3.167,3.909C2.646,4.558 1.953,5.066 1.084,5.433C0.214,5.8 -0.813,5.984 -2,5.984C-3.517,5.984 -4.643,5.559 -5.379,4.708C-6.112,3.858 -6.479,2.643 -6.479,1.064C-6.479,-0.159 -6.317,-1.374 -5.992,-2.579C-5.669,-3.784 -5.182,-4.886 -4.534,-5.883C-3.886,-6.881 -3.074,-7.679 -2.101,-8.279C-1.129,-8.878 0.006,-9.178 1.304,-9.178C1.842,-9.178 2.319,-9.114 2.736,-8.985C3.152,-8.857 3.507,-8.667 3.8,-8.416C4.094,-8.165 4.326,-7.856 4.498,-7.489C4.669,-7.122 4.774,-6.706 4.81,-6.241L12.299,-6.241C12.397,-7.697 12.18,-9.004 11.646,-10.16C11.115,-11.316 10.347,-12.305 9.344,-13.124C8.34,-13.944 7.162,-14.568 5.81,-14.997C4.458,-15.425 3.011,-15.639 1.469,-15.639C-0.833,-15.639 -2.93,-15.202 -4.827,-14.327C-6.725,-13.452 -8.361,-12.243 -9.737,-10.701C-11.114,-9.16 -12.176,-7.376 -12.922,-5.351C-13.669,-3.325 -14.042,-1.168 -14.042,1.119C-14.042,3.469 -13.568,5.488 -12.619,7.177C-11.671,8.866 -10.325,10.166 -8.581,11.078C-6.837,11.989 -4.772,12.445 -2.385,12.445C-0.648,12.445 0.991,12.191 2.534,11.683C4.076,11.176 5.458,10.429 6.681,9.444C7.906,8.459 8.93,7.244 9.757,5.8C10.582,4.356 11.148,2.698 11.455,0.826L12.115,-3.194L0,-3.194Z" style="fill:white;fill-rule:nonzero;"/>
            </g>
        </g>
        <g transform="matrix(4.166667,0,0,4.166667,0,3946.359375)">
            <g transform="matrix(1,0,0,1,196.6915,245.4201)">
                <path d="M0,-15.382L0.991,-21.366L-18.723,-21.366L-23.256,5.984L-3.616,5.984L-2.625,0L-14.849,0L-14.042,-4.919L-2.772,-4.919L-1.798,-10.756L-13.069,-10.756L-12.298,-15.382L0,-15.382Z" style="fill:white;fill-rule:nonzero;"/>
            </g>
        </g>
    </g>
</svg>
