<?xml version="1.0" encoding="UTF-8" standalone="no"?>
<!DOCTYPE svg PUBLIC "-//W3C//DTD SVG 1.1//EN" "http://www.w3.org/Graphics/SVG/1.1/DTD/svg11.dtd">
<svg width="100%" height="100%" viewBox="0 0 732 119" version="1.1" xmlns="http://www.w3.org/2000/svg" xmlns:xlink="http://www.w3.org/1999/xlink" xml:space="preserve" xmlns:serif="http://www.serif.com/" style="fill-rule:evenodd;clip-rule:evenodd;stroke-linejoin:round;stroke-miterlimit:2;">
    <g transform="matrix(1,0,0,1,-130.250417,-4180.555625)">
        <g transform="matrix(4.166667,0,0,4.166667,0,3946.359375)">
            <g transform="matrix(1,0,0,1,36.3811,83.9307)">
                <path d="M0,-27.263L-2.22,-21.007L12.646,-21.015L-5.121,-6.035L-2.979,0L16.489,0L14.524,-5.539L3.381,-5.539L16.419,-12.805L21.548,-27.263L0,-27.263Z" style="fill:rgb(227,6,19);fill-rule:nonzero;"/>
            </g>
        </g>
        <g transform="matrix(4.166667,0,0,4.166667,0,3946.359375)">
            <g transform="matrix(1,0,0,1,60.6149,83.9307)">
                <path d="M0,-27.263L-7.367,-6.505L-5.058,0L6.999,0L8.189,-7.214L-0.045,-4.614L5.162,-24.838L0,-27.263Z" style="fill:rgb(227,6,19);fill-rule:nonzero;"/>
            </g>
        </g>
        <g transform="matrix(4.166667,0,0,4.166667,0,3946.359375)">
            <g transform="matrix(1,0,0,1,95.3727,83.1509)">
                <path d="M0,-25.826C-1.56,-26.566 -3.448,-26.937 -5.663,-26.937C-7.829,-26.937 -9.765,-26.572 -11.472,-25.844C-13.179,-25.116 -14.574,-24.101 -15.657,-22.797C-16.74,-21.494 -17.423,-19.974 -17.704,-18.236C-18.059,-16.094 -17.646,-14.403 -16.465,-13.161C-15.284,-11.919 -13.531,-11.041 -11.206,-10.527L-8.544,-9.939C-7.565,-9.731 -6.798,-9.499 -6.241,-9.242C-5.684,-8.985 -5.299,-8.7 -5.084,-8.388C-4.871,-8.076 -4.8,-7.712 -4.873,-7.296C-4.947,-6.843 -5.152,-6.442 -5.488,-6.094C-5.825,-5.745 -6.278,-5.472 -6.847,-5.277C-7.416,-5.081 -8.098,-4.983 -8.893,-4.983C-9.848,-4.983 -10.64,-5.13 -11.27,-5.424C-11.901,-5.717 -12.357,-6.151 -12.638,-6.727C-12.92,-7.302 -13.011,-8.006 -12.913,-8.838L-19.962,-8.838C-20.329,-6.549 -20.108,-4.671 -19.301,-3.203C-18.493,-1.734 -17.227,-0.648 -15.501,0.055C-13.776,0.759 -11.726,1.111 -9.352,1.111C-7.039,1.111 -5.039,0.787 -3.35,0.138C-1.661,-0.511 -0.306,-1.462 0.716,-2.716C1.738,-3.971 2.395,-5.497 2.689,-7.296C2.86,-8.336 2.854,-9.294 2.671,-10.168C2.487,-11.043 2.111,-11.836 1.542,-12.546C0.973,-13.255 0.19,-13.87 -0.807,-14.39C-1.805,-14.911 -3.032,-15.336 -4.488,-15.666L-6.636,-16.143C-7.468,-16.327 -8.135,-16.538 -8.636,-16.777C-9.138,-17.015 -9.49,-17.297 -9.692,-17.621C-9.893,-17.945 -9.958,-18.322 -9.884,-18.75C-9.811,-19.154 -9.634,-19.515 -9.352,-19.833C-9.071,-20.151 -8.67,-20.399 -8.15,-20.576C-7.63,-20.754 -6.99,-20.842 -6.232,-20.842C-5.033,-20.842 -4.176,-20.595 -3.662,-20.099C-3.148,-19.603 -2.934,-18.909 -3.019,-18.016L4.103,-18.016C4.384,-19.802 4.16,-21.366 3.433,-22.706C2.705,-24.046 1.56,-25.086 0,-25.826" style="fill:white;fill-rule:nonzero;"/>
            </g>
        </g>
        <g transform="matrix(4.166667,0,0,4.166667,0,3946.359375)">
            <g transform="matrix(1,0,0,1,147.2027,84.2625)">
                <path d="M0,-27.681L-2.754,-11.032C-2.888,-10.188 -3.222,-9.417 -3.754,-8.72C-4.286,-8.022 -4.947,-7.465 -5.736,-7.049C-6.525,-6.633 -7.379,-6.425 -8.297,-6.425C-9.08,-6.425 -9.744,-6.593 -10.288,-6.93C-10.833,-7.266 -11.222,-7.744 -11.454,-8.362C-11.687,-8.979 -11.736,-9.711 -11.601,-10.555L-8.774,-27.681L-16.19,-27.681L-19.054,-10.408C-19.396,-8.328 -19.188,-6.505 -18.429,-4.938C-17.671,-3.372 -16.447,-2.157 -14.758,-1.295C-13.069,-0.432 -11.02,0 -8.609,0C-6.321,0 -4.252,-0.392 -2.405,-1.176C-0.557,-1.958 0.967,-3.094 2.166,-4.581C3.365,-6.067 4.136,-7.851 4.479,-9.931L7.416,-27.681L0,-27.681Z" style="fill:white;fill-rule:nonzero;"/>
            </g>
        </g>
        <g transform="matrix(4.166667,0,0,4.166667,0,3946.359375)">
            <g transform="matrix(1,0,0,1,174.7829,83.9315)">
                <path d="M0,-27.35L-1.67,-17.328C-1.805,-16.459 -1.943,-15.391 -2.083,-14.125C-2.224,-12.858 -2.355,-11.573 -2.478,-10.27C-2.514,-9.891 -2.548,-9.529 -2.581,-9.176C-2.693,-9.733 -2.808,-10.261 -2.927,-10.747C-3.203,-11.867 -3.506,-12.892 -3.836,-13.822C-4.166,-14.752 -4.54,-15.682 -4.956,-16.612L-9.692,-27.35L-17.768,-27.35L-22.302,0L-14.666,0L-13.014,-9.985C-12.892,-10.732 -12.769,-11.649 -12.647,-12.739C-12.525,-13.828 -12.402,-15.009 -12.28,-16.282C-12.226,-16.84 -12.178,-17.405 -12.127,-17.966C-11.966,-17.374 -11.811,-16.816 -11.665,-16.3C-11.353,-15.199 -11.022,-14.155 -10.674,-13.17C-10.325,-12.185 -9.9,-11.123 -9.398,-9.985L-4.974,0L3.103,0L7.637,-27.35L0,-27.35Z" style="fill:white;fill-rule:nonzero;"/>
            </g>
        </g>
        <g transform="matrix(4.166667,0,0,4.166667,0,3946.359375)">
            <g transform="matrix(1,0,0,1,199.2063,70.2388)">
                <path d="M0,0.036C-0.306,1.933 -0.802,3.417 -1.487,4.487C-2.172,5.558 -3.028,6.308 -4.056,6.736C-5.084,7.164 -6.278,7.378 -7.636,7.378L-10.462,7.378L-8.022,-7.343L-5.268,-7.343C-3.836,-7.343 -2.674,-7.125 -1.78,-6.691C-0.887,-6.257 -0.287,-5.504 0.019,-4.434C0.324,-3.363 0.318,-1.873 0,0.036M6.929,-7.306C6.103,-9.35 4.736,-10.919 2.827,-12.015C0.918,-13.11 -1.444,-13.657 -4.258,-13.657L-14.391,-13.657L-18.924,13.693L-7.508,13.693C-4.729,13.693 -2.31,13.148 -0.248,12.059C1.814,10.97 3.497,9.404 4.8,7.36C6.103,5.316 6.987,2.875 7.452,0.036C7.93,-2.815 7.756,-5.262 6.929,-7.306" style="fill:white;fill-rule:nonzero;"/>
            </g>
        </g>
        <g transform="matrix(4.166667,0,0,4.166667,0,3946.359375)">
            <g transform="matrix(1,0,0,1,109.3696,72.3521)">
                <path d="M0,-3.954L-2.763,-7.522L-1.562,-11.242L2.681,-6.519L4.214,-4.535L6.555,-6.537L10.564,-11.04L13.843,-8.099L9.121,-3.857L6.371,-1.735L11.978,5.535L9.831,7.54L3.676,0.343L-2.933,5.441L-4.939,3.294L1.494,-2.208L0,-3.954ZM-8.251,-0.931L-9.027,12.191L14.103,11.433L17.444,-3.676L17.667,-16.13L-5.83,-16.145L-8.251,-0.931Z" style="fill:white;fill-rule:nonzero;"/>
            </g>
        </g>
    </g>
</svg>
