<?xml version="1.0" encoding="UTF-8" standalone="no"?>
<!DOCTYPE svg PUBLIC "-//W3C//DTD SVG 1.1//EN" "http://www.w3.org/Graphics/SVG/1.1/DTD/svg11.dtd">
<svg width="100%" height="100%" viewBox="0 0 660 119" version="1.1" xmlns="http://www.w3.org/2000/svg" xmlns:xlink="http://www.w3.org/1999/xlink" xml:space="preserve" xmlns:serif="http://www.serif.com/" style="fill-rule:evenodd;clip-rule:evenodd;stroke-linejoin:round;stroke-miterlimit:2;">
    <g transform="matrix(1,0,0,1,-130.250417,-4646.354792)">
        <g transform="matrix(4.166667,0,0,4.166667,0,3946.359375)">
            <g transform="matrix(1,0,0,1,36.3811,195.5791)">
                <path d="M0,-27.263L-2.22,-21.007L12.646,-21.015L-5.121,-6.035L-2.979,0L16.489,0L14.524,-5.539L3.381,-5.539L16.419,-12.805L21.548,-27.263L0,-27.263Z" style="fill:rgb(227,6,19);fill-rule:nonzero;"/>
            </g>
        </g>
        <g transform="matrix(4.166667,0,0,4.166667,0,3946.359375)">
            <g transform="matrix(1,0,0,1,60.6149,195.5791)">
                <path d="M0,-27.263L-7.367,-6.505L-5.058,0L6.999,0L8.189,-7.214L-0.045,-4.614L5.162,-24.838L0,-27.263Z" style="fill:rgb(227,6,19);fill-rule:nonzero;"/>
            </g>
        </g>
        <g transform="matrix(4.166667,0,0,4.166667,0,3946.359375)">
            <g transform="matrix(1,0,0,1,98.0253,195.5801)">
                <path d="M0,-27.35L-4.791,-16.741C-5.831,-14.44 -6.816,-12.099 -7.746,-9.719C-8.196,-8.568 -8.646,-7.407 -9.096,-6.24C-9.169,-7.407 -9.248,-8.568 -9.334,-9.719C-9.512,-12.099 -9.759,-14.44 -10.077,-16.741L-11.491,-27.35L-19.898,-27.35L-15.254,0L-5.121,0L8.297,-27.35L0,-27.35Z" style="fill:white;fill-rule:nonzero;"/>
            </g>
        </g>
        <g transform="matrix(4.166667,0,0,4.166667,0,3946.359375)">
            <g transform="matrix(-0.163545,0.986536,0.986536,0.163545,122.968346,182.719979)">
                <path d="M-11.814,-17.333L15.909,-17.333L14.696,-10.017L-13.027,-10.017L-11.814,-17.333Z" style="fill:white;fill-rule:nonzero;"/>
            </g>
        </g>
        <g transform="matrix(4.166667,0,0,4.166667,0,3946.359375)">
            <g transform="matrix(1,0,0,1,132.0037,181.8874)">
                <path d="M0,0.036C-0.306,1.933 -0.801,3.417 -1.487,4.487C-2.172,5.558 -3.029,6.308 -4.057,6.736C-5.084,7.164 -6.278,7.378 -7.636,7.378L-10.462,7.378L-8.022,-7.343L-5.268,-7.343C-3.836,-7.343 -2.674,-7.125 -1.78,-6.691C-0.887,-6.257 -0.288,-5.504 0.018,-4.434C0.324,-3.363 0.318,-1.873 0,0.036M6.929,-7.306C6.103,-9.35 4.736,-10.919 2.827,-12.015C0.918,-13.11 -1.444,-13.657 -4.258,-13.657L-14.391,-13.657L-18.925,13.693L-7.507,13.693C-4.73,13.693 -2.31,13.148 -0.248,12.059C1.814,10.97 3.497,9.404 4.8,7.36C6.103,5.316 6.987,2.875 7.452,0.036C7.93,-2.815 7.756,-5.262 6.929,-7.306" style="fill:white;fill-rule:nonzero;"/>
            </g>
        </g>
        <g transform="matrix(4.166667,0,0,4.166667,0,3946.359375)">
            <g transform="matrix(1,0,0,1,162.3563,189.5959)">
                <path d="M0,-15.382L0.991,-21.366L-18.723,-21.366L-23.257,5.984L-3.616,5.984L-2.625,0L-14.85,0L-14.042,-4.919L-2.772,-4.919L-1.798,-10.756L-13.069,-10.756L-12.298,-15.382L0,-15.382Z" style="fill:white;fill-rule:nonzero;"/>
            </g>
        </g>
        <g transform="matrix(4.166667,0,0,4.166667,0,3946.359375)">
            <g transform="matrix(1,0,0,1,183.9063,174.6549)">
                <path d="M0,15.023L-2.147,17.029L-8.302,9.831L-14.911,14.929L-16.917,12.783L-10.484,7.281L-11.978,5.535L-14.741,1.966L-13.54,-1.753L-9.297,2.969L-7.764,4.954L-5.422,2.951L-1.414,-1.551L1.865,1.389L-2.857,5.632L-5.606,7.753L0,15.023ZM-17.808,-6.656L-20.229,8.558L-21.005,21.679L2.125,20.922L5.466,5.812L5.689,-6.642L-17.808,-6.656Z" style="fill:white;fill-rule:nonzero;"/>
            </g>
        </g>
    </g>
</svg>
