<?xml version="1.0" encoding="UTF-8" standalone="no"?>
<!DOCTYPE svg PUBLIC "-//W3C//DTD SVG 1.1//EN" "http://www.w3.org/Graphics/SVG/1.1/DTD/svg11.dtd">
<svg width="100%" height="100%" viewBox="0 0 1738 370" version="1.1" xmlns="http://www.w3.org/2000/svg" xmlns:xlink="http://www.w3.org/1999/xlink" xml:space="preserve" xmlns:serif="http://www.serif.com/" style="fill-rule:evenodd;clip-rule:evenodd;stroke-linejoin:round;stroke-miterlimit:2;">
    <g transform="matrix(1,0,0,1,-310.782083,-2400.70125)">
        <g transform="matrix(4.166667,0,0,4.166667,0,0)">
            <g transform="matrix(1,0,0,1,91.1297,664.2353)">
                <path d="M0,-88.067L-7.172,-67.858L40.851,-67.884L-16.542,-19.493L-9.624,0L56.267,0L49.917,-17.89L13.922,-17.89L53.45,-34.089L72.607,-88.067L0,-88.067Z" style="fill:rgb(235,31,38);fill-rule:nonzero;"/>
            </g>
        </g>
        <g transform="matrix(4.166667,0,0,4.166667,0,0)">
            <g transform="matrix(1,0,0,1,172.4127,664.2353)">
                <path d="M0,-88.067L-23.797,-21.013L-16.34,0L22.608,0L26.907,-25.988L-0.144,-14.903L16.676,-80.235L0,-88.067Z" style="fill:rgb(235,31,38);fill-rule:nonzero;"/>
            </g>
        </g>
        <g transform="matrix(4.166667,0,0,4.166667,0,0)">
            <g transform="matrix(1,0,0,1,229.0408,663.2484)">
                <path d="M0,-27.93C-1.687,-28.731 -3.729,-29.132 -6.124,-29.132C-8.466,-29.132 -10.561,-28.737 -12.407,-27.95C-14.253,-27.162 -15.762,-26.064 -16.933,-24.655C-18.105,-23.245 -18.842,-21.601 -19.147,-19.721C-19.53,-17.406 -19.084,-15.576 -17.807,-14.233C-16.53,-12.889 -14.634,-11.94 -12.119,-11.384L-9.241,-10.748C-8.182,-10.523 -7.352,-10.272 -6.75,-9.995C-6.147,-9.717 -5.731,-9.409 -5.499,-9.072C-5.267,-8.734 -5.191,-8.34 -5.27,-7.89C-5.35,-7.4 -5.571,-6.967 -5.935,-6.59C-6.3,-6.213 -6.789,-5.918 -7.405,-5.707C-8.02,-5.494 -8.758,-5.389 -9.618,-5.389C-10.65,-5.389 -11.507,-5.548 -12.189,-5.865C-12.87,-6.183 -13.363,-6.652 -13.667,-7.275C-13.972,-7.897 -14.072,-8.658 -13.965,-9.557L-21.588,-9.557C-21.985,-7.083 -21.747,-5.052 -20.874,-3.464C-20,-1.875 -18.63,-0.7 -16.765,0.06C-14.898,0.821 -12.682,1.202 -10.114,1.202C-7.613,1.202 -5.449,0.851 -3.623,0.15C-1.796,-0.552 -0.331,-1.58 0.774,-2.937C1.879,-4.294 2.591,-5.945 2.908,-7.89C3.093,-9.015 3.087,-10.051 2.889,-10.997C2.69,-11.943 2.283,-12.8 1.668,-13.568C1.052,-14.335 0.205,-15 -0.873,-15.563C-1.952,-16.126 -3.279,-16.586 -4.854,-16.943L-7.176,-17.458C-8.076,-17.658 -8.798,-17.886 -9.34,-18.143C-9.883,-18.402 -10.263,-18.706 -10.481,-19.057C-10.7,-19.407 -10.769,-19.815 -10.69,-20.278C-10.611,-20.714 -10.419,-21.104 -10.114,-21.448C-9.81,-21.793 -9.377,-22.061 -8.814,-22.252C-8.251,-22.444 -7.56,-22.541 -6.739,-22.541C-5.443,-22.541 -4.516,-22.273 -3.96,-21.737C-3.404,-21.201 -3.173,-20.449 -3.265,-19.483L4.437,-19.483C4.741,-21.415 4.499,-23.107 3.712,-24.555C2.925,-26.005 1.687,-27.129 0,-27.93" style="fill:rgb(246,246,246);fill-rule:nonzero;"/>
            </g>
        </g>
        <g transform="matrix(4.166667,0,0,4.166667,0,0)">
            <g transform="matrix(1,0,0,1,261.7375,664.0934)">
                <path d="M0,-29.579L-25.688,-29.579L-26.76,-23.108L-17.926,-23.108L-21.757,0L-13.738,0L-9.906,-23.108L-1.072,-23.108L0,-29.579Z" style="fill:rgb(246,246,246);fill-rule:nonzero;"/>
            </g>
        </g>
        <g transform="matrix(4.166667,0,0,4.166667,0,0)">
            <g transform="matrix(1,0,0,1,281.0444,664.4504)">
                <path d="M0,-29.936L-2.978,-11.931C-3.124,-11.018 -3.484,-10.184 -4.06,-9.43C-4.635,-8.675 -5.35,-8.073 -6.204,-7.624C-7.057,-7.173 -7.98,-6.948 -8.973,-6.948C-9.82,-6.948 -10.538,-7.13 -11.127,-7.494C-11.716,-7.858 -12.136,-8.374 -12.387,-9.043C-12.639,-9.711 -12.692,-10.502 -12.546,-11.415L-9.489,-29.936L-17.509,-29.936L-20.606,-11.256C-20.977,-9.006 -20.752,-7.034 -19.931,-5.34C-19.111,-3.646 -17.787,-2.333 -15.961,-1.399C-14.134,-0.467 -11.918,0 -9.311,0C-6.836,0 -4.599,-0.424 -2.601,-1.271C-0.602,-2.118 1.045,-3.345 2.342,-4.953C3.639,-6.561 4.473,-8.49 4.844,-10.74L8.02,-29.936L0,-29.936Z" style="fill:rgb(246,246,246);fill-rule:nonzero;"/>
            </g>
        </g>
        <g transform="matrix(4.166667,0,0,4.166667,0,0)">
            <g transform="matrix(1,0,0,1,307.2191,649.2835)">
                <path d="M0,0.04C-0.33,2.091 -0.866,3.696 -1.608,4.854C-2.348,6.012 -3.274,6.823 -4.387,7.286C-5.498,7.749 -6.788,7.981 -8.257,7.981L-11.314,7.981L-8.675,-7.94L-5.697,-7.94C-4.149,-7.94 -2.891,-7.705 -1.925,-7.236C-0.959,-6.766 -0.311,-5.952 0.021,-4.794C0.351,-3.636 0.345,-2.025 0,0.04M7.494,-7.901C6.601,-10.111 5.122,-11.808 3.057,-12.993C0.993,-14.177 -1.561,-14.769 -4.605,-14.769L-15.564,-14.769L-20.466,14.809L-8.12,14.809C-5.114,14.809 -2.497,14.221 -0.267,13.043C1.963,11.865 3.783,10.171 5.192,7.96C6.601,5.751 7.558,3.11 8.06,0.04C8.576,-3.044 8.388,-5.69 7.494,-7.901" style="fill:rgb(246,246,246);fill-rule:nonzero;"/>
            </g>
        </g>
        <g transform="matrix(4.166667,0,0,4.166667,0,0)">
            <g transform="matrix(-0.163528,0.986539,0.986539,0.163528,336.199672,650.184879)">
                <path d="M-12.777,-18.746L17.206,-18.746L15.894,-10.833L-14.089,-10.833L-12.777,-18.746Z" style="fill:rgb(246,246,246);fill-rule:nonzero;"/>
            </g>
        </g>
        <g transform="matrix(4.166667,0,0,4.166667,0,0)">
            <g transform="matrix(1,0,0,1,350.2744,641.3618)">
                <path d="M0,16.247L-2.322,18.416L-8.978,10.632L-16.126,16.146L-18.295,13.824L-11.339,7.874L-12.954,5.985L-15.943,2.127L-14.643,-1.896L-10.055,3.211L-8.397,5.357L-5.864,3.192L-1.529,-1.678L2.017,1.502L-3.09,6.091L-6.063,8.385L0,16.247ZM-19.259,-7.199L-21.877,9.255L-22.716,23.446L2.298,22.626L5.911,6.286L6.153,-7.183L-19.259,-7.199Z" style="fill:rgb(246,246,246);fill-rule:nonzero;"/>
            </g>
        </g>
        <g transform="matrix(4.166667,0,0,4.166667,0,0)">
            <g transform="matrix(1,0,0,1,223.3509,578.4753)">
                <path d="M0,30.651C-2.499,30.651 -4.657,30.267 -6.474,29.498C-8.29,28.729 -9.624,27.542 -10.474,25.937C-11.324,24.332 -11.556,22.28 -11.17,19.779L-3.749,19.779C-3.852,20.688 -3.755,21.457 -3.459,22.086C-3.163,22.714 -2.683,23.189 -2.019,23.51C-1.356,23.831 -0.522,23.991 0.483,23.991C1.321,23.991 2.039,23.884 2.638,23.67C3.237,23.456 3.714,23.159 4.068,22.778C4.422,22.397 4.638,21.959 4.715,21.464C4.793,21.009 4.719,20.611 4.493,20.27C4.268,19.929 3.862,19.618 3.276,19.338C2.689,19.057 1.881,18.803 0.85,18.575L-1.952,17.933C-4.4,17.372 -6.245,16.412 -7.488,15.055C-8.732,13.698 -9.166,11.849 -8.793,9.509C-8.497,7.61 -7.778,5.948 -6.638,4.524C-5.498,3.1 -4.029,1.99 -2.232,1.194C-0.435,0.398 1.604,0 3.884,0C6.216,0 8.203,0.405 9.846,1.214C11.489,2.023 12.693,3.16 13.46,4.624C14.226,6.088 14.461,7.797 14.165,9.749L6.667,9.749C6.757,8.773 6.532,8.014 5.991,7.473C5.45,6.931 4.548,6.66 3.285,6.66C2.486,6.66 1.813,6.757 1.266,6.951C0.718,7.145 0.296,7.416 0,7.763C-0.296,8.111 -0.483,8.506 -0.56,8.947C-0.638,9.415 -0.57,9.826 -0.358,10.18C-0.145,10.535 0.225,10.842 0.754,11.103C1.282,11.364 1.984,11.595 2.86,11.795L5.121,12.317C6.654,12.678 7.946,13.143 8.996,13.711C10.046,14.279 10.87,14.951 11.469,15.727C12.068,16.503 12.465,17.368 12.658,18.325C12.851,19.281 12.858,20.327 12.677,21.464C12.368,23.43 11.675,25.098 10.6,26.469C9.524,27.839 8.097,28.879 6.319,29.588C4.541,30.297 2.435,30.651 0,30.651" style="fill:rgb(246,246,246);fill-rule:nonzero;"/>
            </g>
        </g>
        <g transform="matrix(4.166667,0,0,4.166667,0,0)">
            <g transform="matrix(1,0,0,1,237.5933,578.8773)">
                <path d="M0,29.888L4.773,0L12.581,0L10.764,11.353L21.122,11.353L22.939,0L30.746,0L25.973,29.888L18.165,29.888L20.079,17.893L9.72,17.893L7.807,29.888L0,29.888Z" style="fill:rgb(246,246,246);fill-rule:nonzero;"/>
            </g>
        </g>
        <g transform="matrix(4.166667,0,0,4.166667,0,0)">
            <g transform="matrix(1,0,0,1,281.4609,585.5366)">
                <path d="M0,16.569C1.404,16.569 2.609,16.225 3.614,15.536C4.619,14.847 5.443,13.938 6.087,12.808C6.732,11.678 7.205,10.451 7.508,9.127C7.81,7.803 7.962,6.513 7.962,5.256C7.962,4.092 7.794,3.123 7.459,2.347C7.124,1.571 6.622,0.986 5.952,0.592C5.282,0.197 4.445,0 3.44,0C2.036,0 0.828,0.348 -0.184,1.043C-1.195,1.739 -2.023,2.651 -2.667,3.781C-3.311,4.911 -3.784,6.135 -4.087,7.452C-4.39,8.769 -4.541,10.056 -4.541,11.313C-4.541,12.464 -4.371,13.43 -4.029,14.212C-3.688,14.994 -3.182,15.583 -2.512,15.977C-1.842,16.372 -1.005,16.569 0,16.569M-0.329,23.63C-2.699,23.63 -4.799,23.152 -6.628,22.196C-8.458,21.239 -9.891,19.842 -10.928,18.003C-11.965,16.164 -12.484,13.914 -12.484,11.253C-12.484,8.753 -12.104,6.396 -11.344,4.182C-10.584,1.969 -9.492,0.02 -8.068,-1.665C-6.645,-3.35 -4.934,-4.67 -2.937,-5.627C-0.94,-6.583 1.295,-7.061 3.768,-7.061C6.126,-7.061 8.216,-6.586 10.039,-5.637C11.862,-4.687 13.296,-3.29 14.339,-1.444C15.383,0.401 15.904,2.661 15.904,5.336C15.904,7.837 15.521,10.19 14.755,12.397C13.988,14.603 12.893,16.549 11.469,18.234C10.046,19.919 8.339,21.239 6.348,22.196C4.358,23.152 2.132,23.63 -0.329,23.63" style="fill:rgb(246,246,246);fill-rule:nonzero;"/>
            </g>
        </g>
        <g transform="matrix(4.166667,0,0,4.166667,0,0)">
            <g transform="matrix(1,0,0,1,302.8729,578.8773)">
                <path d="M0,29.888L-2.86,0L5.875,0L6.319,11.594C6.384,13.052 6.393,14.646 6.348,16.378C6.303,18.11 6.255,19.838 6.203,21.563C6.152,23.288 6.126,24.887 6.126,26.358L4.58,26.358C5.082,24.887 5.595,23.288 6.116,21.563C6.638,19.838 7.17,18.11 7.711,16.378C8.252,14.646 8.799,13.052 9.353,11.594L13.759,0L21.567,0L22.262,11.594C22.352,13.052 22.391,14.646 22.378,16.378C22.365,18.11 22.343,19.838 22.311,21.563C22.278,23.288 22.282,24.887 22.32,26.358L20.755,26.358C21.232,24.887 21.715,23.288 22.204,21.563C22.694,19.838 23.196,18.11 23.712,16.378C24.227,14.646 24.749,13.052 25.277,11.594L29.451,0L38.186,0L25.779,29.888L16.948,29.888L16.02,17.712C15.866,15.612 15.84,13.346 15.943,10.912C16.046,8.478 16.072,6.138 16.02,3.891L18.069,3.891C17.206,6.138 16.465,8.471 15.846,10.892C15.228,13.312 14.494,15.586 13.643,17.712L8.831,29.888L0,29.888Z" style="fill:rgb(246,246,246);fill-rule:nonzero;"/>
            </g>
        </g>
        <g transform="matrix(4.166667,0,0,4.166667,0,0)">
            <g transform="matrix(1,0,0,1,351.05,578.8773)">
                <path d="M0,29.888L-8.812,29.888L-7.711,22.988L-0.135,22.988C1.295,22.988 2.551,22.754 3.633,22.286C4.715,21.817 5.617,20.998 6.339,19.828C7.06,18.658 7.582,17.037 7.904,14.964C8.239,12.878 8.245,11.25 7.923,10.079C7.601,8.909 6.97,8.087 6.029,7.612C5.089,7.137 3.865,6.9 2.358,6.9L-5.256,6.9L-4.155,0L3.421,0C6.384,0 8.87,0.598 10.88,1.795C12.89,2.992 14.329,4.707 15.199,6.94C16.069,9.173 16.252,11.848 15.75,14.964C15.26,18.066 14.329,20.734 12.957,22.968C11.585,25.201 9.814,26.913 7.643,28.103C5.472,29.293 2.924,29.888 0,29.888M0.56,0L-4.213,29.888L-12.02,29.888L-7.247,0L0.56,0Z" style="fill:rgb(246,246,246);fill-rule:nonzero;"/>
            </g>
        </g>
        <g transform="matrix(4.166667,0,0,4.166667,0,0)">
            <g transform="matrix(1,0,0,1,367.6114,578.8773)">
                <path d="M0,29.888L4.773,0L25.528,0L24.485,6.539L11.537,6.539L10.725,11.594L22.591,11.594L21.567,17.973L9.701,17.973L8.851,23.349L21.721,23.349L20.678,29.888L0,29.888Z" style="fill:rgb(246,246,246);fill-rule:nonzero;"/>
            </g>
        </g>
        <g transform="matrix(4.166667,0,0,4.166667,0,0)">
            <g transform="matrix(1,0,0,1,404.3481,578.4753)">
                <path d="M0,30.651C-2.499,30.651 -4.657,30.267 -6.474,29.498C-8.29,28.729 -9.624,27.542 -10.474,25.937C-11.324,24.332 -11.556,22.28 -11.17,19.779L-3.749,19.779C-3.852,20.688 -3.755,21.457 -3.459,22.086C-3.163,22.714 -2.683,23.189 -2.019,23.51C-1.356,23.831 -0.522,23.991 0.483,23.991C1.321,23.991 2.039,23.884 2.638,23.67C3.237,23.456 3.714,23.159 4.068,22.778C4.422,22.397 4.638,21.959 4.715,21.464C4.793,21.009 4.719,20.611 4.493,20.27C4.268,19.929 3.862,19.618 3.276,19.338C2.689,19.057 1.881,18.803 0.85,18.575L-1.952,17.933C-4.4,17.372 -6.245,16.412 -7.488,15.055C-8.732,13.698 -9.166,11.849 -8.793,9.509C-8.497,7.61 -7.778,5.948 -6.638,4.524C-5.498,3.1 -4.029,1.99 -2.232,1.194C-0.435,0.398 1.604,0 3.884,0C6.216,0 8.203,0.405 9.846,1.214C11.489,2.023 12.693,3.16 13.46,4.624C14.226,6.088 14.461,7.797 14.165,9.749L6.667,9.749C6.757,8.773 6.532,8.014 5.991,7.473C5.45,6.931 4.548,6.66 3.285,6.66C2.486,6.66 1.813,6.757 1.266,6.951C0.718,7.145 0.296,7.416 0,7.763C-0.296,8.111 -0.483,8.506 -0.56,8.947C-0.638,9.415 -0.57,9.826 -0.358,10.18C-0.145,10.535 0.225,10.842 0.754,11.103C1.282,11.364 1.984,11.595 2.86,11.795L5.121,12.317C6.654,12.678 7.946,13.143 8.996,13.711C10.046,14.279 10.87,14.951 11.469,15.727C12.068,16.503 12.465,17.368 12.658,18.325C12.851,19.281 12.858,20.327 12.677,21.464C12.368,23.43 11.675,25.098 10.6,26.469C9.524,27.839 8.097,28.879 6.319,29.588C4.541,30.297 2.435,30.651 0,30.651" style="fill:rgb(246,246,246);fill-rule:nonzero;"/>
            </g>
        </g>
        <g transform="matrix(4.166667,0,0,4.166667,0,0)">
            <g transform="matrix(-0.157698,0.987487,0.987487,0.157698,438.645612,602.389328)">
                <path d="M-22.04,-11.089L8.227,-11.089L9.459,-18.799L-20.808,-18.798L-22.04,-11.089Z" style="fill:rgb(246,246,246);fill-rule:nonzero;"/>
            </g>
        </g>
        <g transform="matrix(4.166667,0,0,4.166667,0,0)">
            <g transform="matrix(1,0,0,1,444.0801,578.4754)">
                <path d="M0,30.691C-2.512,30.691 -4.686,30.193 -6.522,29.197C-8.358,28.2 -9.775,26.779 -10.774,24.934C-11.772,23.089 -12.271,20.882 -12.271,18.314C-12.271,15.814 -11.878,13.457 -11.092,11.244C-10.307,9.03 -9.189,7.081 -7.74,5.396C-6.29,3.711 -4.567,2.391 -2.57,1.435C-0.573,0.478 1.636,0 4.058,0C5.682,0 7.205,0.234 8.629,0.702C10.052,1.17 11.292,1.852 12.349,2.748C13.405,3.644 14.214,4.724 14.774,5.988C15.334,7.252 15.563,8.679 15.46,10.271L7.575,10.271C7.537,9.762 7.427,9.308 7.247,8.907C7.066,8.505 6.822,8.168 6.513,7.894C6.203,7.619 5.83,7.412 5.392,7.272C4.954,7.131 4.451,7.061 3.884,7.061C2.519,7.061 1.324,7.389 0.3,8.044C-0.725,8.699 -1.578,9.572 -2.261,10.662C-2.944,11.752 -3.456,12.955 -3.797,14.272C-4.139,15.59 -4.309,16.917 -4.309,18.254C-4.309,19.979 -3.923,21.307 -3.15,22.236C-2.377,23.165 -1.192,23.63 0.406,23.63C1.656,23.63 2.738,23.43 3.652,23.028C4.567,22.627 5.298,22.072 5.846,21.363C6.393,20.655 6.738,19.852 6.88,18.956L8.155,19.378L1.604,19.378L2.512,13.601L15.267,13.601L14.571,17.993C14.249,20.04 13.653,21.852 12.783,23.43C11.914,25.008 10.835,26.335 9.547,27.411C8.258,28.488 6.802,29.304 5.179,29.859C3.556,30.414 1.829,30.691 0,30.691" style="fill:rgb(246,246,246);fill-rule:nonzero;"/>
            </g>
        </g>
        <g transform="matrix(4.166667,0,0,4.166667,0,0)">
            <g transform="matrix(1,0,0,1,459.9845,578.8773)">
                <path d="M0,29.888L4.773,0L13.276,0L18.262,11.734C18.7,12.751 19.093,13.767 19.441,14.783C19.789,15.8 20.108,16.92 20.397,18.143C20.687,19.367 20.955,20.794 21.199,22.426L20.523,22.426C20.626,21.343 20.742,20.089 20.871,18.665C21,17.241 21.138,15.836 21.286,14.452C21.435,13.068 21.579,11.902 21.721,10.952L23.48,0L31.519,0L26.746,29.888L18.243,29.888L13.585,18.976C13.057,17.732 12.61,16.572 12.242,15.495C11.875,14.419 11.527,13.279 11.199,12.075C10.87,10.872 10.506,9.481 10.107,7.903L10.919,7.903C10.803,9.307 10.68,10.705 10.551,12.095C10.423,13.486 10.294,14.777 10.165,15.967C10.036,17.157 9.907,18.16 9.778,18.976L8.039,29.888L0,29.888Z" style="fill:rgb(246,246,246);fill-rule:nonzero;"/>
            </g>
        </g>
    </g>
</svg>
