<?xml version="1.0" encoding="UTF-8" standalone="no"?>
<!DOCTYPE svg PUBLIC "-//W3C//DTD SVG 1.1//EN" "http://www.w3.org/Graphics/SVG/1.1/DTD/svg11.dtd">
<svg width="100%" height="100%" viewBox="0 0 792 385" version="1.1" xmlns="http://www.w3.org/2000/svg" xmlns:xlink="http://www.w3.org/1999/xlink" xml:space="preserve" xmlns:serif="http://www.serif.com/" style="fill-rule:evenodd;clip-rule:evenodd;stroke-linejoin:round;stroke-miterlimit:2;">
    <g transform="matrix(1,0,0,1,-371.56,-2976.6525)">
        <g transform="matrix(4.166667,0,0,4.166667,0,0)">
            <g transform="matrix(1,0,0,1,153.4346,775.6996)">
                <path d="M0,-61.303L-4.992,-47.236L28.436,-47.254L-11.515,-13.569L-6.699,0L37.078,0L32.658,-12.454L7.602,-12.454L36.92,-28.793L48.452,-61.303L0,-61.303Z" style="fill:rgb(227,6,19);fill-rule:nonzero;"/>
            </g>
        </g>
        <g transform="matrix(4.166667,0,0,4.166667,0,0)">
            <g transform="matrix(1,0,0,1,207.9264,775.6996)">
                <path d="M0,-61.303L-16.565,-14.627L-11.374,0L15.737,0L18.414,-16.22L-0.1,-10.374L11.608,-55.851L0,-61.303Z" style="fill:rgb(227,6,19);fill-rule:nonzero;"/>
            </g>
        </g>
        <g transform="matrix(4.166667,0,0,4.166667,0,0)">
            <g transform="matrix(1,0,0,1,134.6058,797.6312)">
                <path d="M0,-2.827L-1.975,-5.378L-1.117,-8.036L1.916,-4.661L3.012,-3.242L4.686,-4.674L7.551,-7.892L9.896,-5.79L6.52,-2.757L4.554,-1.241L8.562,3.956L7.028,5.39L2.628,0.245L-2.097,3.889L-3.531,2.354L1.068,-1.579L0,-2.827ZM-5.898,-0.666L-6.453,8.714L10.081,8.172L12.469,-2.628L12.629,-11.531L-4.168,-11.541L-5.898,-0.666Z" style="fill:rgb(29,29,27);fill-rule:nonzero;"/>
            </g>
        </g>
        <g transform="matrix(4.166667,0,0,4.166667,0,0)">
            <g transform="matrix(1,0,0,1,252.5672,790.5129)">
                <path d="M0,11.319L-1.542,12.779L-5.923,7.627L-10.67,11.278L-12.09,9.737L-7.505,5.802L-8.56,4.544L-10.548,1.988L-9.656,-0.649L-6.653,2.718L-5.558,4.138L-3.854,2.718L-1.014,-0.527L1.339,1.583L-2.028,4.625L-4.016,6.126L0,11.319ZM-12.86,-4.706L-14.605,6.167L-15.173,15.538L1.501,16.025L3.773,4.179L3.935,-4.706L-12.86,-4.706Z" style="fill:rgb(29,29,27);fill-rule:nonzero;"/>
            </g>
        </g>
        <g transform="matrix(4.166667,0,0,4.166667,0,0)">
            <g transform="matrix(1,0,0,1,101.8194,799.1369)">
                <path d="M0,-5.88C-0.09,-5.31 -0.294,-4.817 -0.611,-4.402C-0.928,-3.987 -1.333,-3.665 -1.831,-3.433C-2.326,-3.203 -2.901,-3.087 -3.551,-3.087L-5.475,-3.087L-4.554,-8.645L-2.63,-8.645C-1.981,-8.645 -1.442,-8.536 -1.019,-8.32C-0.593,-8.103 -0.291,-7.788 -0.116,-7.378C0.059,-6.966 0.098,-6.468 0,-5.88M5.406,-9.648C4.954,-10.723 4.217,-11.556 3.19,-12.147C2.166,-12.74 0.903,-13.037 -0.598,-13.037L-9.297,-13.037L-12.645,7.157L-7.169,7.157L-6.179,1.168L-3.146,1.168C-1.609,1.168 -0.217,0.879 1.037,0.307C2.288,-0.268 3.322,-1.081 4.139,-2.133C4.957,-3.185 5.483,-4.433 5.718,-5.88C5.963,-7.316 5.859,-8.572 5.406,-9.648" style="fill:rgb(29,29,27);fill-rule:nonzero;"/>
            </g>
        </g>
        <g transform="matrix(4.166667,0,0,4.166667,0,0)">
            <g transform="matrix(1,0,0,1,120.0734,799.4367)">
                <path d="M0,-6.479C-0.09,-5.899 -0.289,-5.435 -0.596,-5.081C-0.903,-4.73 -1.3,-4.473 -1.79,-4.31C-2.277,-4.148 -2.845,-4.065 -3.497,-4.065L-5.416,-4.065L-4.609,-8.944L-2.682,-8.944C-1.718,-8.944 -0.99,-8.748 -0.508,-8.354C-0.026,-7.962 0.144,-7.335 0,-6.479M3.151,-12.516C2.117,-13.063 0.848,-13.336 -0.65,-13.336L-9.351,-13.336L-12.699,6.857L-7.224,6.857L-6.12,0.19L-4.222,0.19L-1.774,6.857L4.188,6.857L1.315,-0.671C2.453,-1.174 3.396,-1.888 4.155,-2.819C4.962,-3.812 5.485,-5.032 5.72,-6.479C5.955,-7.905 5.844,-9.133 5.387,-10.157C4.931,-11.183 4.186,-11.97 3.151,-12.516" style="fill:rgb(29,29,27);fill-rule:nonzero;"/>
            </g>
        </g>
        <g transform="matrix(4.166667,0,0,4.166667,0,0)">
            <g transform="matrix(1,0,0,1,161.4348,796.1813)">
                <path d="M0,0.031C-0.224,1.431 -0.591,2.525 -1.096,3.317C-1.602,4.106 -2.236,4.66 -2.994,4.977C-3.752,5.292 -4.634,5.452 -5.638,5.452L-7.724,5.452L-5.921,-5.418L-3.889,-5.418C-2.832,-5.418 -1.973,-5.258 -1.313,-4.936C-0.655,-4.616 -0.211,-4.062 0.015,-3.27C0.24,-2.478 0.237,-1.38 0,0.031M2.089,-8.866C0.678,-9.676 -1.065,-10.081 -3.144,-10.081L-10.623,-10.081L-13.97,10.112L-5.542,10.112C-3.492,10.112 -1.705,9.71 -0.181,8.908C1.341,8.103 2.584,6.945 3.546,5.437C4.508,3.928 5.16,2.125 5.503,0.031C5.857,-2.076 5.728,-3.881 5.117,-5.39C4.508,-6.899 3.497,-8.059 2.089,-8.866" style="fill:rgb(29,29,27);fill-rule:nonzero;"/>
            </g>
        </g>
        <g transform="matrix(4.166667,0,0,4.166667,0,0)">
            <g transform="matrix(1,0,0,1,180.7753,794.2461)">
                <path d="M0,4.147C-0.099,4.77 -0.346,5.34 -0.739,5.855C-1.132,6.37 -1.62,6.781 -2.202,7.088C-2.785,7.395 -3.415,7.549 -4.093,7.549C-4.671,7.549 -5.161,7.425 -5.563,7.176C-5.965,6.928 -6.252,6.575 -6.424,6.119C-6.596,5.663 -6.632,5.123 -6.532,4.499L-4.445,-8.145L-9.92,-8.145L-12.035,4.608C-12.288,6.144 -12.134,7.49 -11.574,8.646C-11.014,9.803 -10.11,10.7 -8.863,11.337C-7.616,11.974 -6.103,12.292 -4.323,12.292C-2.634,12.292 -1.107,12.003 0.258,11.425C1.622,10.847 2.747,10.008 3.632,8.911C4.517,7.813 5.087,6.496 5.34,4.96L7.508,-8.145L2.033,-8.145L0,4.147Z" style="fill:rgb(29,29,27);fill-rule:nonzero;"/>
            </g>
        </g>
        <g transform="matrix(4.166667,0,0,4.166667,0,0)">
            <g transform="matrix(1,0,0,1,206.1456,804.5928)">
                <path d="M0,-16.791C-0.732,-17.437 -1.615,-17.927 -2.649,-18.261C-3.684,-18.596 -4.834,-18.763 -6.099,-18.763C-7.815,-18.763 -9.37,-18.438 -10.761,-17.787C-12.152,-17.137 -13.345,-16.237 -14.339,-15.09C-15.333,-13.943 -16.094,-12.621 -16.622,-11.126C-17.151,-9.631 -17.415,-8.038 -17.415,-6.349C-17.415,-4.56 -17.058,-3.046 -16.344,-1.809C-15.631,-0.571 -14.639,0.369 -13.37,1.01C-12.1,1.652 -10.634,1.972 -8.972,1.972C-7.526,1.972 -6.223,1.74 -5.062,1.274C-3.901,0.809 -2.891,0.197 -2.033,-0.562C-1.175,-1.321 -0.472,-2.148 0.075,-3.042C0.621,-3.936 0.998,-4.813 1.206,-5.671L-4.35,-5.671C-4.486,-5.237 -4.685,-4.844 -4.947,-4.492C-5.209,-4.14 -5.523,-3.837 -5.889,-3.584C-6.254,-3.331 -6.666,-3.137 -7.122,-3.001C-7.578,-2.866 -8.073,-2.798 -8.606,-2.798C-9.302,-2.798 -9.891,-2.929 -10.374,-3.191C-10.858,-3.453 -11.224,-3.848 -11.472,-4.377C-11.721,-4.905 -11.845,-5.567 -11.845,-6.362C-11.845,-7.23 -11.73,-8.111 -11.499,-9.005C-11.269,-9.9 -10.921,-10.724 -10.456,-11.478C-9.99,-12.233 -9.401,-12.84 -8.687,-13.301C-7.974,-13.762 -7.133,-13.992 -6.166,-13.992C-5.697,-13.992 -5.29,-13.925 -4.947,-13.789C-4.603,-13.654 -4.319,-13.459 -4.093,-13.206C-3.867,-12.953 -3.704,-12.651 -3.605,-12.298C-3.506,-11.946 -3.465,-11.553 -3.483,-11.119L2.074,-11.119C2.146,-12.357 2.001,-13.45 1.64,-14.399C1.278,-15.348 0.732,-16.145 0,-16.791" style="fill:rgb(29,29,27);fill-rule:nonzero;"/>
            </g>
        </g>
        <g transform="matrix(4.166667,0,0,4.166667,0,0)">
            <g transform="matrix(1,0,0,1,228.6427,806.294)">
                <path d="M0,-20.193L-17.537,-20.193L-18.269,-15.775L-12.238,-15.775L-14.853,0L-9.378,0L-6.763,-15.775L-0.732,-15.775L0,-20.193Z" style="fill:rgb(29,29,27);fill-rule:nonzero;"/>
            </g>
        </g>
        <g transform="matrix(4.166667,0,0,4.166667,0,0)">
            <g transform="matrix(1,0,0,1,227.3554,786.1012)">
                <path d="M0,20.193L5.475,20.193L8.823,0L3.347,0L0,20.193Z" style="fill:rgb(29,29,27);fill-rule:nonzero;"/>
            </g>
        </g>
        <g transform="matrix(4.166667,0,0,4.166667,0,0)">
            <g transform="matrix(1,0,0,1,273.4473,806.294)">
                <path d="M0,-20.193L-1.233,-12.793C-1.333,-12.152 -1.434,-11.364 -1.538,-10.428C-1.642,-9.493 -1.739,-8.545 -1.83,-7.582C-1.856,-7.304 -1.881,-7.036 -1.906,-6.777C-1.988,-7.188 -2.073,-7.575 -2.162,-7.935C-2.365,-8.762 -2.588,-9.518 -2.832,-10.205C-3.076,-10.891 -3.352,-11.578 -3.659,-12.265L-7.156,-20.193L-13.119,-20.193L-16.466,0L-10.828,0L-9.609,-7.372C-9.518,-7.923 -9.428,-8.601 -9.338,-9.405C-9.247,-10.209 -9.157,-11.081 -9.067,-12.021C-9.027,-12.431 -8.989,-12.843 -8.951,-13.255C-8.833,-12.821 -8.72,-12.413 -8.613,-12.034C-8.382,-11.221 -8.138,-10.451 -7.881,-9.724C-7.623,-8.996 -7.309,-8.213 -6.939,-7.372L-3.673,0L2.29,0L5.638,-20.193L0,-20.193Z" style="fill:rgb(29,29,27);fill-rule:nonzero;"/>
            </g>
        </g>
    </g>
</svg>
