<?xml version="1.0" encoding="UTF-8" standalone="no"?>
<!DOCTYPE svg PUBLIC "-//W3C//DTD SVG 1.1//EN" "http://www.w3.org/Graphics/SVG/1.1/DTD/svg11.dtd">
<svg width="100%" height="100%" viewBox="0 0 758 311" version="1.1" xmlns="http://www.w3.org/2000/svg" xmlns:xlink="http://www.w3.org/1999/xlink" xml:space="preserve" xmlns:serif="http://www.serif.com/" style="fill-rule:evenodd;clip-rule:evenodd;stroke-linejoin:round;stroke-miterlimit:2;">
    <g transform="matrix(1,0,0,1,-371.56375,-1250.102917)">
        <g transform="matrix(4.166667,0,0,4.166667,0,0)">
            <g transform="matrix(1,0,0,1,103.1603,374.4807)">
                <path d="M0,-74.456L-6.064,-57.37L34.537,-57.392L-13.985,-16.48L-8.137,0L47.571,0L42.203,-15.125L11.77,-15.125L45.189,-28.82L61.385,-74.456L0,-74.456Z" style="fill:rgb(226,11,23);fill-rule:nonzero;"/>
            </g>
        </g>
        <g transform="matrix(4.166667,0,0,4.166667,0,0)">
            <g transform="matrix(1,0,0,1,171.881,374.4807)">
                <path d="M0,-74.456L-20.12,-17.765L-13.815,0L19.114,0L22.748,-21.972L-0.122,-12.6L14.099,-67.834L0,-74.456Z" style="fill:rgb(226,11,23);fill-rule:nonzero;"/>
            </g>
        </g>
        <g transform="matrix(4.166667,0,0,4.166667,0,0)">
            <g transform="matrix(1,0,0,1,255.0991,363.6296)">
                <path d="M0,-3.532L-2.468,-6.719L-1.395,-10.041L2.394,-5.823L3.764,-4.051L5.855,-5.839L9.435,-9.861L12.364,-7.234L8.146,-3.445L5.691,-1.55L10.698,4.943L8.781,6.734L3.283,0.306L-2.62,4.859L-4.411,2.942L1.334,-1.972L0,-3.532ZM-7.369,-0.832L-8.062,10.888L12.596,10.211L15.58,-3.284L15.78,-14.407L-5.207,-14.42L-7.369,-0.832Z" style="fill:rgb(29,29,27);fill-rule:nonzero;"/>
            </g>
        </g>
        <g transform="matrix(4.166667,0,0,4.166667,0,0)">
            <g transform="matrix(1,0,0,1,214.1343,365.5113)">
                <path d="M0,-7.347C-0.113,-6.635 -0.367,-6.019 -0.764,-5.501C-1.16,-4.982 -1.666,-4.579 -2.288,-4.289C-2.907,-4.002 -3.625,-3.857 -4.437,-3.857L-6.841,-3.857L-5.69,-10.801L-3.287,-10.801C-2.475,-10.801 -1.801,-10.666 -1.273,-10.395C-0.741,-10.125 -0.364,-9.732 -0.145,-9.219C0.074,-8.704 0.122,-8.082 0,-7.347M6.754,-12.055C6.19,-13.398 5.268,-14.439 3.986,-15.177C2.707,-15.918 1.128,-16.289 -0.748,-16.289L-11.616,-16.289L-15.799,8.942L-8.958,8.942L-7.721,1.459L-3.931,1.459C-2.011,1.459 -0.271,1.099 1.295,0.383C2.858,-0.335 4.15,-1.35 5.172,-2.665C6.193,-3.98 6.851,-5.539 7.144,-7.347C7.45,-9.142 7.321,-10.711 6.754,-12.055" style="fill:rgb(29,29,27);fill-rule:nonzero;"/>
            </g>
        </g>
        <g transform="matrix(4.166667,0,0,4.166667,0,0)">
            <g transform="matrix(1,0,0,1,236.9417,365.8845)">
                <path d="M0,-8.094C-0.113,-7.369 -0.361,-6.789 -0.744,-6.348C-1.128,-5.909 -1.624,-5.587 -2.236,-5.384C-2.845,-5.181 -3.554,-5.078 -4.369,-5.078L-6.767,-5.078L-5.758,-11.174L-3.351,-11.174C-2.146,-11.174 -1.237,-10.93 -0.635,-10.437C-0.032,-9.947 0.18,-9.164 0,-8.094M3.938,-15.637C2.645,-16.32 1.06,-16.662 -0.812,-16.662L-11.684,-16.662L-15.867,8.568L-9.026,8.568L-7.646,0.239L-5.275,0.239L-2.217,8.568L5.233,8.568L1.643,-0.837C3.064,-1.466 4.244,-2.358 5.191,-3.522C6.2,-4.762 6.854,-6.286 7.147,-8.094C7.44,-9.876 7.302,-11.41 6.731,-12.689C6.161,-13.971 5.23,-14.954 3.938,-15.637" style="fill:rgb(29,29,27);fill-rule:nonzero;"/>
            </g>
        </g>
    </g>
</svg>
