<?xml version="1.0" encoding="UTF-8" standalone="no"?>
<!DOCTYPE svg PUBLIC "-//W3C//DTD SVG 1.1//EN" "http://www.w3.org/Graphics/SVG/1.1/DTD/svg11.dtd">
<svg width="100%" height="100%" viewBox="0 0 1708 369" version="1.1" xmlns="http://www.w3.org/2000/svg" xmlns:xlink="http://www.w3.org/1999/xlink" xml:space="preserve" xmlns:serif="http://www.serif.com/" style="fill-rule:evenodd;clip-rule:evenodd;stroke-linejoin:round;stroke-miterlimit:2;">
    <g transform="matrix(1,0,0,1,-11547.886667,-134.699583)">
        <g transform="matrix(4.166667,0,0,4.166667,11161.425,0)">
            <g transform="matrix(1,0,0,1,109.2928,120.3949)">
                <path d="M0,-88.067L-7.172,-67.858L40.851,-67.884L-16.542,-19.493L-9.624,0L56.267,0L49.917,-17.89L13.922,-17.89L53.45,-34.089L72.607,-88.067L0,-88.067Z" style="fill:rgb(226,11,23);fill-rule:nonzero;"/>
            </g>
        </g>
        <g transform="matrix(4.166667,0,0,4.166667,11161.425,0)">
            <g transform="matrix(1,0,0,1,190.5758,120.3949)">
                <path d="M0,-88.067L-23.797,-21.013L-16.34,0L22.608,0L26.907,-25.989L-0.144,-14.903L16.676,-80.235L0,-88.067Z" style="fill:rgb(226,11,23);fill-rule:nonzero;"/>
            </g>
        </g>
        <g transform="matrix(4.166667,0,0,4.166667,11161.425,0)">
            <g transform="matrix(1,0,0,1,289.0063,107.5602)">
                <path d="M0,-4.178L-2.919,-7.947L-1.65,-11.877L2.832,-6.888L4.452,-4.792L6.925,-6.907L11.16,-11.663L14.624,-8.557L9.635,-4.075L6.731,-1.834L12.654,5.846L10.386,7.965L3.884,0.361L-3.099,5.747L-5.218,3.479L1.578,-2.333L0,-4.178ZM-8.716,-0.984L-9.536,12.878L14.899,12.077L18.428,-3.885L18.664,-17.041L-6.159,-17.056L-8.716,-0.984Z" style="fill:white;fill-rule:nonzero;"/>
            </g>
        </g>
        <g transform="matrix(4.166667,0,0,4.166667,11161.425,0)">
            <g transform="matrix(1,0,0,1,450.6864,107.0222)">
                <path d="M0,-3.255L-2.916,-7.024L-1.65,-10.954L2.832,-5.965L4.452,-3.869L6.925,-5.984L11.163,-10.74L14.624,-7.634L9.635,-3.152L6.731,-0.911L12.653,6.769L10.39,8.888L3.884,1.284L-3.099,6.67L-5.218,4.402L1.578,-1.41L0,-3.255ZM-8.938,-0.877L-9.757,12.985L14.883,13.694L18.203,-3.777L18.443,-16.934L-6.38,-16.949L-8.938,-0.877Z" style="fill:white;fill-rule:nonzero;"/>
            </g>
        </g>
        <g transform="matrix(4.166667,0,0,4.166667,11161.425,0)">
            <g transform="matrix(1,0,0,1,240.553,109.7854)">
                <path d="M0,-8.69C-0.133,-7.848 -0.435,-7.12 -0.903,-6.506C-1.372,-5.893 -1.97,-5.416 -2.706,-5.073C-3.438,-4.734 -4.288,-4.562 -5.248,-4.562L-8.091,-4.562L-6.731,-12.776L-3.887,-12.776C-2.927,-12.776 -2.13,-12.616 -1.505,-12.295C-0.877,-11.975 -0.431,-11.51 -0.171,-10.904C0.088,-10.295 0.145,-9.559 0,-8.69M7.989,-14.258C7.322,-15.848 6.232,-17.079 4.715,-17.952C3.201,-18.828 1.334,-19.266 -0.884,-19.266L-13.74,-19.266L-18.687,10.576L-10.595,10.576L-9.132,1.726L-4.65,1.726C-2.378,1.726 -0.32,1.299 1.532,0.453C3.381,-0.397 4.909,-1.597 6.117,-3.152C7.325,-4.707 8.103,-6.552 8.45,-8.69C8.812,-10.813 8.659,-12.669 7.989,-14.258" style="fill:white;fill-rule:nonzero;"/>
            </g>
        </g>
        <g transform="matrix(4.166667,0,0,4.166667,11161.425,0)">
            <g transform="matrix(1,0,0,1,267.5297,110.2273)">
                <path d="M0,-9.574C-0.133,-8.716 -0.427,-8.03 -0.88,-7.508C-1.334,-6.99 -1.921,-6.609 -2.645,-6.369C-3.365,-6.129 -4.204,-6.007 -5.168,-6.007L-8.004,-6.007L-6.811,-13.218L-3.964,-13.218C-2.538,-13.218 -1.464,-12.928 -0.751,-12.345C-0.038,-11.765 0.213,-10.839 0,-9.574M4.657,-18.496C3.129,-19.304 1.254,-19.708 -0.96,-19.708L-13.82,-19.708L-18.767,10.134L-10.676,10.134L-9.044,0.282L-6.239,0.282L-2.622,10.134L6.189,10.134L1.944,-0.991C3.624,-1.734 5.019,-2.79 6.14,-4.166C7.333,-5.633 8.107,-7.436 8.453,-9.574C8.8,-11.682 8.636,-13.496 7.962,-15.009C7.287,-16.526 6.186,-17.688 4.657,-18.496" style="fill:white;fill-rule:nonzero;"/>
            </g>
        </g>
        <g transform="matrix(4.166667,0,0,4.166667,11161.425,0)">
            <g transform="matrix(1,0,0,1,328.6555,105.4172)">
                <path d="M0,0.046C-0.332,2.116 -0.873,3.732 -1.62,4.902C-2.367,6.068 -3.304,6.887 -4.425,7.356C-5.546,7.821 -6.849,8.057 -8.331,8.057L-11.415,8.057L-8.751,-8.007L-5.747,-8.007C-4.185,-8.007 -2.916,-7.771 -1.94,-7.295C-0.968,-6.822 -0.312,-6.003 0.023,-4.832C0.355,-3.662 0.351,-2.039 0,0.046M3.087,-13.103C1.002,-14.3 -1.574,-14.898 -4.646,-14.898L-15.699,-14.898L-20.646,14.944L-8.191,14.944C-5.161,14.944 -2.519,14.35 -0.267,13.165C1.982,11.975 3.819,10.264 5.241,8.035C6.662,5.805 7.626,3.141 8.133,0.046C8.655,-3.068 8.465,-5.736 7.562,-7.965C6.662,-10.195 5.168,-11.91 3.087,-13.103" style="fill:white;fill-rule:nonzero;"/>
            </g>
        </g>
        <g transform="matrix(4.166667,0,0,4.166667,11161.425,0)">
            <g transform="matrix(1,0,0,1,357.2378,102.5571)">
                <path d="M0,6.129C-0.147,7.05 -0.511,7.891 -1.091,8.653C-1.672,9.414 -2.393,10.021 -3.254,10.475C-4.116,10.929 -5.047,11.156 -6.049,11.156C-6.903,11.156 -7.628,10.973 -8.222,10.605C-8.816,10.238 -9.24,9.718 -9.493,9.043C-9.747,8.369 -9.801,7.571 -9.654,6.65L-6.569,-12.037L-14.661,-12.037L-17.785,6.81C-18.159,9.08 -17.932,11.069 -17.104,12.779C-16.277,14.488 -14.941,15.813 -13.099,16.754C-11.256,17.696 -9.02,18.166 -6.389,18.166C-3.892,18.166 -1.636,17.739 0.381,16.884C2.397,16.03 4.059,14.791 5.368,13.169C6.676,11.547 7.517,9.601 7.891,7.331L11.096,-12.037L3.004,-12.037L0,6.129Z" style="fill:white;fill-rule:nonzero;"/>
            </g>
        </g>
        <g transform="matrix(4.166667,0,0,4.166667,11161.425,0)">
            <g transform="matrix(1,0,0,1,394.7313,117.8497)">
                <path d="M0,-24.816C-1.082,-25.77 -2.387,-26.495 -3.916,-26.989C-5.445,-27.483 -7.144,-27.73 -9.013,-27.73C-11.55,-27.73 -13.847,-27.249 -15.903,-26.288C-17.959,-25.327 -19.721,-23.998 -21.19,-22.302C-22.659,-20.607 -23.784,-18.654 -24.565,-16.444C-25.346,-14.234 -25.737,-11.881 -25.737,-9.384C-25.737,-6.74 -25.209,-4.504 -24.154,-2.674C-23.1,-0.845 -21.634,0.544 -19.758,1.491C-17.882,2.44 -15.716,2.914 -13.259,2.914C-11.123,2.914 -9.196,2.57 -7.481,1.882C-5.765,1.194 -4.273,0.29 -3.004,-0.832C-1.736,-1.953 -0.698,-3.175 0.11,-4.497C0.918,-5.819 1.475,-7.114 1.783,-8.383L-6.429,-8.383C-6.629,-7.742 -6.923,-7.161 -7.31,-6.64C-7.698,-6.119 -8.162,-5.672 -8.702,-5.298C-9.243,-4.924 -9.851,-4.637 -10.525,-4.437C-11.199,-4.237 -11.93,-4.137 -12.718,-4.137C-13.746,-4.137 -14.618,-4.33 -15.332,-4.717C-16.046,-5.104 -16.587,-5.689 -16.954,-6.47C-17.322,-7.251 -17.505,-8.229 -17.505,-9.404C-17.505,-10.686 -17.335,-11.988 -16.994,-13.31C-16.654,-14.631 -16.14,-15.85 -15.452,-16.965C-14.764,-18.079 -13.893,-18.978 -12.838,-19.659C-11.784,-20.34 -10.542,-20.68 -9.113,-20.68C-8.419,-20.68 -7.818,-20.58 -7.31,-20.38C-6.803,-20.179 -6.383,-19.892 -6.049,-19.518C-5.715,-19.144 -5.475,-18.697 -5.328,-18.177C-5.181,-17.656 -5.121,-17.075 -5.147,-16.434L3.064,-16.434C3.171,-18.263 2.957,-19.879 2.423,-21.281C1.889,-22.683 1.081,-23.861 0,-24.816" style="fill:white;fill-rule:nonzero;"/>
            </g>
        </g>
        <g transform="matrix(4.166667,0,0,4.166667,11161.425,0)">
            <g transform="matrix(1,0,0,1,427.9785,120.3622)">
                <path d="M0,-29.842L-25.917,-29.842L-26.998,-23.313L-18.086,-23.313L-21.951,0L-13.86,0L-9.994,-23.313L-1.081,-23.313L0,-29.842Z" style="fill:white;fill-rule:nonzero;"/>
            </g>
        </g>
        <g transform="matrix(4.166667,0,0,4.166667,11161.425,0)">
            <g transform="matrix(1,0,0,1,426.076,90.5206)">
                <path d="M0,29.842L8.091,29.842L13.039,0L4.947,0L0,29.842Z" style="fill:white;fill-rule:nonzero;"/>
            </g>
        </g>
        <g transform="matrix(4.166667,0,0,4.166667,11161.425,0)">
            <g transform="matrix(1,0,0,1,494.1929,120.3621)">
                <path d="M0,-29.842L-1.823,-18.906C-1.97,-17.958 -2.12,-16.793 -2.273,-15.412C-2.427,-14.03 -2.571,-12.627 -2.704,-11.205C-2.743,-10.794 -2.78,-10.398 -2.816,-10.015C-2.938,-10.623 -3.064,-11.195 -3.195,-11.726C-3.495,-12.948 -3.825,-14.066 -4.186,-15.081C-4.546,-16.096 -4.954,-17.11 -5.408,-18.125L-10.575,-29.842L-19.388,-29.842L-24.335,0L-16.003,0L-14.2,-10.895C-14.067,-11.709 -13.933,-12.711 -13.8,-13.899C-13.666,-15.088 -13.533,-16.376 -13.399,-17.765C-13.341,-18.371 -13.284,-18.98 -13.229,-19.589C-13.054,-18.947 -12.887,-18.345 -12.728,-17.785C-12.388,-16.583 -12.027,-15.445 -11.647,-14.37C-11.266,-13.295 -10.802,-12.137 -10.254,-10.895L-5.428,0L3.385,0L8.332,-29.842L0,-29.842Z" style="fill:white;fill-rule:nonzero;"/>
            </g>
        </g>
    </g>
</svg>
