<?xml version="1.0" encoding="UTF-8" standalone="no"?>
<!DOCTYPE svg PUBLIC "-//W3C//DTD SVG 1.1//EN" "http://www.w3.org/Graphics/SVG/1.1/DTD/svg11.dtd">
<svg width="100%" height="100%" viewBox="0 0 658 227" version="1.1" xmlns="http://www.w3.org/2000/svg" xmlns:xlink="http://www.w3.org/1999/xlink" xml:space="preserve" xmlns:serif="http://www.serif.com/" style="fill-rule:evenodd;clip-rule:evenodd;stroke-linejoin:round;stroke-miterlimit:2;">
    <g transform="matrix(1,0,0,1,-12669.812917,-1851.665698)">
        <g transform="matrix(4.166667,0,0,4.166667,11161.425,0)">
            <g transform="matrix(1,0,0,1,381.3358,459.2765)">
                <path d="M0,-7.128C0,-7.222 0.022,-7.268 0.07,-7.268C0.116,-7.268 0.157,-7.25 0.192,-7.215C0.227,-7.18 0.232,-7.152 0.21,-7.128C0.186,-7.104 0.116,-7.104 0,-7.128M11.438,-4.181C11.274,-5.092 10.83,-5.912 10.104,-6.636C9.378,-7.362 8.525,-7.976 7.543,-8.479C6.559,-8.982 5.532,-9.367 4.456,-9.636C3.378,-9.905 2.407,-10.051 1.544,-10.075C1.38,-9.935 1.244,-9.806 1.139,-9.691C1.034,-9.572 0.929,-9.461 0.824,-9.356C0.717,-9.251 0.59,-9.15 0.437,-9.059C0.284,-8.965 0.092,-8.871 -0.142,-8.777C-0.306,-8.217 -0.363,-7.823 -0.317,-7.602C-0.271,-7.379 -0.153,-7.257 0.035,-7.233C0.221,-7.209 0.461,-7.233 0.754,-7.303C1.045,-7.373 1.349,-7.432 1.666,-7.48C1.981,-7.526 2.291,-7.519 2.595,-7.46C2.899,-7.404 3.168,-7.209 3.402,-6.883C3.144,-6.181 3,-5.431 2.965,-4.638C2.928,-3.842 2.982,-3.046 3.122,-2.25C3.262,-1.456 3.466,-0.678 3.737,0.083C4.003,0.844 4.327,1.539 4.701,2.171C5.309,1.889 6.028,1.55 6.859,1.152C7.688,0.754 8.46,0.293 9.174,-0.234C9.887,-0.759 10.478,-1.345 10.946,-1.988C11.413,-2.63 11.577,-3.361 11.438,-4.181M7.893,-11.514C7.987,-11.374 8.022,-11.175 7.998,-10.917C8.584,-10.589 9.273,-10.169 10.069,-9.653C10.865,-9.14 11.584,-8.549 12.227,-7.882C12.87,-7.215 13.355,-6.49 13.683,-5.707C14.011,-4.924 14.011,-4.098 13.683,-3.234C13.707,-2.648 13.589,-2.064 13.333,-1.478C13.075,-0.894 12.73,-0.356 12.297,0.136C11.864,0.625 11.378,1.043 10.841,1.382C10.303,1.721 9.754,1.948 9.192,2.064C8.678,2.462 8.134,2.79 7.561,3.048C6.986,3.306 6.409,3.551 5.823,3.785C5.239,4.019 4.67,4.275 4.122,4.557C3.573,4.836 3.063,5.188 2.595,5.608C2.337,5.468 2.103,5.322 1.893,5.171C1.684,5.018 1.437,4.885 1.157,4.766C0.549,2.499 -0.083,0.324 -0.737,-1.76C-1.393,-3.842 -2.13,-5.829 -2.947,-7.725C-2.762,-8.263 -2.646,-8.807 -2.598,-9.356C-2.552,-9.905 -2.434,-10.497 -2.248,-11.127C-1.592,-11.665 -0.861,-12.063 -0.055,-12.321C0.754,-12.579 1.607,-12.712 2.508,-12.725C3.409,-12.736 4.314,-12.631 5.228,-12.408C6.14,-12.185 7.027,-11.888 7.893,-11.514" style="fill:white;fill-rule:nonzero;"/>
            </g>
        </g>
        <g transform="matrix(4.166667,0,0,4.166667,11161.425,0)">
            <g transform="matrix(1,0,0,1,406.1065,458.3276)">
                <path d="M0,-6.459C-0.022,-6.507 -0.017,-6.507 0.017,-6.459C0.052,-6.413 0.048,-6.413 0,-6.459M0.105,-7.653L0.105,-7.758C0.035,-7.758 0.007,-7.74 0.017,-7.705C0.031,-7.67 0.059,-7.653 0.105,-7.653C0.199,-7.583 0.234,-7.53 0.212,-7.495C0.188,-7.46 0.146,-7.425 0.087,-7.39C0.031,-7.355 -0.011,-7.32 -0.035,-7.285C-0.059,-7.248 -0.011,-7.209 0.105,-7.161C-0.011,-7.067 -0.129,-6.975 -0.245,-6.881C-0.363,-6.787 -0.514,-6.728 -0.702,-6.706C-0.702,-6.588 -0.667,-6.525 -0.595,-6.511C-0.525,-6.501 -0.444,-6.49 -0.35,-6.476C-0.258,-6.466 -0.186,-6.437 -0.14,-6.389C-0.094,-6.343 -0.094,-6.249 -0.14,-6.109C-0.56,-6.225 -0.988,-6.389 -1.421,-6.601C-1.854,-6.811 -2.211,-7.126 -2.49,-7.548C-2.63,-7.548 -2.748,-7.524 -2.842,-7.478C-2.934,-7.43 -3.017,-7.377 -3.087,-7.32C-3.157,-7.261 -3.234,-7.226 -3.315,-7.213C-3.398,-7.202 -3.507,-7.231 -3.649,-7.303C-3.743,-7.045 -3.901,-6.829 -4.122,-6.654C-4.345,-6.476 -4.568,-6.295 -4.788,-6.109C-5.011,-5.921 -5.18,-5.718 -5.298,-5.495C-5.416,-5.272 -5.416,-4.974 -5.298,-4.6C-5.672,-4.531 -5.906,-4.367 -6,-4.109C-6.024,-4.015 -6.024,-3.938 -6,-3.881C-5.976,-3.822 -5.954,-3.77 -5.93,-3.724C-5.906,-3.676 -5.888,-3.619 -5.877,-3.547C-5.864,-3.477 -5.871,-3.396 -5.895,-3.302C-5.099,-3.396 -4.355,-3.49 -3.667,-3.584C-2.976,-3.676 -2.287,-3.759 -1.596,-3.829C-0.905,-3.899 -0.175,-3.945 0.597,-3.969C1.369,-3.993 2.235,-4.004 3.194,-4.004C3.286,-3.816 3.31,-3.689 3.264,-3.619C3.216,-3.547 3.229,-3.396 3.299,-3.162C2.619,-3.022 1.935,-2.893 1.246,-2.775C0.555,-2.659 -0.105,-2.512 -0.737,-2.337C-1.369,-2.163 -1.959,-1.929 -2.508,-1.636C-3.059,-1.343 -3.52,-0.951 -3.894,-0.459C-4.338,-0.577 -4.725,-0.512 -5.053,-0.267C-5.379,-0.022 -5.661,0.229 -5.895,0.487C-5.917,0.606 -5.906,0.693 -5.86,0.75C-5.812,0.809 -5.766,0.868 -5.718,0.927C-5.672,0.984 -5.648,1.038 -5.648,1.084C-5.648,1.13 -5.696,1.2 -5.79,1.294C-5.11,1.762 -4.334,2.066 -3.455,2.206C-2.578,2.348 -1.677,2.401 -0.754,2.366C0.171,2.331 1.076,2.254 1.966,2.136C2.853,2.02 3.649,1.937 4.351,1.891C4.469,1.867 4.55,1.885 4.598,1.944C4.644,2.003 4.679,2.066 4.703,2.136C4.725,2.206 4.756,2.276 4.791,2.348C4.826,2.418 4.878,2.464 4.948,2.488C4.854,2.862 4.673,3.103 4.404,3.207C4.135,3.312 3.844,3.382 3.527,3.417C3.212,3.452 2.901,3.505 2.598,3.575C2.294,3.645 2.06,3.833 1.896,4.137C1.756,4.161 1.69,4.108 1.703,3.979C1.714,3.85 1.662,3.785 1.544,3.785C1.452,3.809 1.404,3.839 1.404,3.874C1.404,3.909 1.415,3.949 1.439,3.997C1.463,4.043 1.48,4.091 1.491,4.137C1.504,4.185 1.474,4.22 1.404,4.242C0.07,4.546 -1.222,4.668 -2.473,4.611C-3.724,4.552 -4.871,4.307 -5.912,3.874C-6.953,3.441 -7.854,2.82 -8.613,2.014C-9.373,1.207 -9.918,0.184 -10.246,-1.056C-9.942,-1.734 -9.656,-2.464 -9.384,-3.249C-9.118,-4.032 -8.829,-4.804 -8.525,-5.565C-8.221,-6.326 -7.876,-7.056 -7.491,-7.758C-7.104,-8.46 -6.649,-9.067 -6.122,-9.583C-5.595,-10.097 -4.976,-10.489 -4.261,-10.758C-3.549,-11.027 -2.713,-11.127 -1.754,-11.057C-1.684,-10.845 -1.533,-10.6 -1.297,-10.32C-1.065,-10.038 -0.831,-9.745 -0.595,-9.441C-0.363,-9.137 -0.168,-8.834 -0.017,-8.53C0.136,-8.226 0.177,-7.933 0.105,-7.653" style="fill:white;fill-rule:nonzero;"/>
            </g>
        </g>
        <g transform="matrix(4.166667,0,0,4.166667,11161.425,0)">
            <g transform="matrix(1,0,0,1,412.8431,460.7349)">
                <path d="M0,-11.149C0.232,-11.195 0.385,-11.276 0.455,-11.394C0.361,-11.486 0.251,-11.516 0.122,-11.481C-0.007,-11.446 -0.048,-11.335 0,-11.149M7.051,-9.393C6.42,-9.557 5.807,-9.785 5.21,-10.078C4.613,-10.371 4.027,-10.622 3.455,-10.832C2.882,-11.042 2.309,-11.171 1.736,-11.219C1.163,-11.265 0.584,-11.125 0,-10.797C0.702,-9.955 1.513,-9.201 2.438,-8.534C3.361,-7.867 4.268,-7.371 5.158,-7.043C5.204,-6.855 5.169,-6.756 5.053,-6.745C4.935,-6.732 4.852,-6.669 4.806,-6.551C4.876,-6.435 5.005,-6.365 5.193,-6.341C5.379,-6.317 5.567,-6.317 5.753,-6.341C5.987,-5.919 6.304,-5.538 6.702,-5.2C7.1,-4.861 7.443,-4.511 7.736,-4.148C8.029,-3.785 8.228,-3.376 8.333,-2.919C8.438,-2.464 8.326,-1.907 8,-1.253C6.946,-0.645 5.877,-0.077 4.788,0.448C3.702,0.975 2.654,1.541 1.649,2.151C1.461,1.987 1.257,1.904 1.034,1.904C0.811,1.904 0.566,1.946 0.297,2.027C0.028,2.11 -0.251,2.204 -0.544,2.309C-0.837,2.414 -1.135,2.477 -1.439,2.501C-1.697,1.847 -1.756,1.321 -1.616,0.923C-1.474,0.525 -1.218,0.197 -0.842,-0.059C-0.468,-0.317 0,-0.523 0.56,-0.674C1.122,-0.827 1.695,-0.973 2.28,-1.113C2.864,-1.253 3.426,-1.424 3.964,-1.622C4.502,-1.819 4.946,-2.095 5.298,-2.447C4.97,-3.149 4.53,-3.739 3.982,-4.218C3.433,-4.697 2.836,-5.125 2.193,-5.499C1.548,-5.873 0.894,-6.24 0.227,-6.603C-0.439,-6.966 -1.047,-7.388 -1.598,-7.867C-2.147,-8.346 -2.604,-8.919 -2.965,-9.586C-3.328,-10.253 -3.52,-11.09 -3.544,-12.096C-3.17,-12.54 -2.622,-12.889 -1.896,-13.147C-1.17,-13.405 -0.376,-13.556 0.49,-13.604C1.356,-13.65 2.221,-13.598 3.087,-13.447C3.953,-13.294 4.718,-13.042 5.385,-12.693C6.052,-12.341 6.549,-11.89 6.876,-11.341C7.204,-10.79 7.263,-10.141 7.051,-9.393" style="fill:white;fill-rule:nonzero;"/>
            </g>
        </g>
        <g transform="matrix(4.166667,0,0,4.166667,11161.425,0)">
            <g transform="matrix(1,0,0,1,426.2812,448.8424)">
                <path d="M0,13.377C0,13.283 0.024,13.235 0.07,13.235C0.116,13.235 0.157,13.252 0.192,13.29C0.227,13.325 0.234,13.353 0.21,13.377C0.186,13.399 0.116,13.399 0,13.377M-0.597,8.077L-0.597,7.937C-0.667,7.961 -0.695,7.99 -0.684,8.024C-0.673,8.059 -0.643,8.077 -0.597,8.077C-0.503,8.569 -0.37,9.013 -0.192,9.411C-0.017,9.809 0.14,10.196 0.28,10.57C0.422,10.943 0.514,11.313 0.562,11.674C0.608,12.037 0.573,12.441 0.457,12.885C0.129,13.003 -0.21,13.102 -0.562,13.182C-0.912,13.265 -1.275,13.248 -1.649,13.13C-2.165,12.498 -2.539,11.663 -2.772,10.622C-3.006,9.581 -3.17,8.481 -3.262,7.323C-3.356,6.166 -3.409,5.003 -3.422,3.833C-3.433,2.663 -3.474,1.633 -3.544,0.743C-3.286,0.488 -2.947,0.282 -2.525,0.131C-2.106,-0.022 -1.627,-0.004 -1.087,0.184C-1.017,0.768 -0.942,1.393 -0.859,2.06C-0.778,2.727 -0.708,3.411 -0.649,4.113C-0.59,4.815 -0.551,5.506 -0.527,6.183C-0.503,6.861 -0.527,7.493 -0.597,8.077" style="fill:white;fill-rule:nonzero;"/>
            </g>
        </g>
        <g transform="matrix(4.166667,0,0,4.166667,11161.425,0)">
            <g transform="matrix(1,0,0,1,435.8252,463.0235)">
                <path d="M0,-15.436C-0.21,-15.202 -0.297,-14.992 -0.262,-14.804C-0.227,-14.618 -0.157,-14.437 -0.052,-14.262C0.052,-14.085 0.171,-13.903 0.3,-13.717C0.426,-13.529 0.492,-13.319 0.492,-13.086C0.516,-12.992 0.509,-12.928 0.474,-12.893C0.439,-12.858 0.391,-12.834 0.335,-12.823C0.276,-12.81 0.212,-12.806 0.142,-12.806C0.07,-12.806 0.024,-12.782 0,-12.736C0.094,-12.524 0.129,-12.355 0.107,-12.226C0.083,-12.097 0.042,-11.981 -0.017,-11.874C-0.074,-11.769 -0.116,-11.664 -0.14,-11.559C-0.164,-11.454 -0.116,-11.332 0,-11.19C-0.14,-11.214 -0.227,-11.172 -0.262,-11.067C-0.297,-10.962 -0.363,-10.886 -0.455,-10.84C-0.667,-10.886 -0.807,-10.987 -0.877,-11.137C-0.947,-11.29 -1.122,-11.343 -1.404,-11.297C-1.356,-11.459 -1.349,-11.605 -1.386,-11.734C-1.421,-11.863 -1.461,-11.975 -1.509,-12.069C-1.555,-12.161 -1.59,-12.248 -1.614,-12.331C-1.638,-12.412 -1.614,-12.5 -1.544,-12.594C-1.684,-12.642 -1.83,-12.67 -1.981,-12.681C-2.134,-12.694 -2.256,-12.747 -2.35,-12.841C-2.608,-12.465 -2.899,-12.132 -3.227,-11.839C-3.555,-11.546 -3.848,-11.214 -4.104,-10.84C-4.152,-10.512 -4.216,-10.145 -4.296,-9.734C-4.38,-9.325 -4.443,-8.892 -4.491,-8.437C-4.537,-7.98 -4.544,-7.512 -4.509,-7.033C-4.474,-6.552 -4.338,-6.091 -4.104,-5.647C-3.73,-5.367 -3.31,-5.179 -2.84,-5.085C-2.375,-4.991 -1.911,-4.945 -1.456,-4.945C-0.999,-4.945 -0.549,-4.987 -0.105,-5.068C0.339,-5.151 0.737,-5.225 1.089,-5.295C1.135,-5.437 1.152,-5.542 1.141,-5.612C1.128,-5.682 1.111,-5.741 1.089,-5.787C1.065,-5.833 1.047,-5.881 1.036,-5.927C1.023,-5.975 1.041,-6.045 1.089,-6.139C1.439,-6.091 1.732,-6.133 1.966,-6.262C2.2,-6.388 2.41,-6.583 2.598,-6.841C2.947,-6.817 3.264,-6.729 3.544,-6.576C3.826,-6.423 4.023,-6.15 4.141,-5.752C4.141,-5.588 4.076,-5.494 3.949,-5.472C3.82,-5.448 3.719,-5.389 3.649,-5.295C3.743,-5.155 3.826,-4.974 3.896,-4.753C3.966,-4.53 4.012,-4.302 4.036,-4.068C4.058,-3.834 4.054,-3.618 4.019,-3.419C3.984,-3.22 3.907,-3.063 3.791,-2.945C3.953,-2.711 4.065,-2.459 4.124,-2.19C4.183,-1.921 4.229,-1.648 4.264,-1.366C4.299,-1.086 4.347,-0.822 4.404,-0.577C4.463,-0.332 4.574,-0.102 4.738,0.108C4.76,0.296 4.708,0.412 4.581,0.458C4.452,0.506 4.316,0.545 4.176,0.582C4.036,0.617 3.918,0.67 3.826,0.74C3.732,0.81 3.719,0.963 3.791,1.194C3.111,1.194 2.619,1.072 2.318,0.827C2.012,0.582 1.791,0.272 1.651,-0.102C1.509,-0.476 1.41,-0.891 1.351,-1.348C1.292,-1.805 1.159,-2.256 0.949,-2.7C0.901,-2.77 0.597,-2.805 0.035,-2.805C-0.525,-2.805 -1.17,-2.798 -1.893,-2.787C-2.619,-2.776 -3.321,-2.781 -3.999,-2.805C-4.677,-2.829 -5.145,-2.91 -5.403,-3.05C-6.269,-3.517 -6.87,-4.178 -7.209,-5.033C-7.55,-5.888 -7.683,-6.81 -7.613,-7.805C-7.543,-8.798 -7.303,-9.817 -6.894,-10.857C-6.485,-11.898 -5.965,-12.845 -5.333,-13.7C-4.701,-14.553 -3.995,-15.248 -3.21,-15.788C-2.427,-16.326 -1.625,-16.606 -0.807,-16.63C-0.643,-16.442 -0.503,-16.243 -0.385,-16.033C-0.269,-15.823 -0.14,-15.624 0,-15.436" style="fill:white;fill-rule:nonzero;"/>
            </g>
        </g>
        <g transform="matrix(4.166667,0,0,4.166667,11161.425,0)">
            <g transform="matrix(1,0,0,1,452.2807,462.5628)">
                <path d="M0,-16.941C-0.234,-15.935 -0.367,-14.864 -0.402,-13.731C-0.437,-12.594 -0.367,-11.455 -0.192,-10.309C-0.017,-9.164 0.265,-8.051 0.649,-6.975C1.036,-5.899 1.533,-4.928 2.141,-4.063C2.095,-3.643 2.053,-3.251 2.018,-2.888C1.983,-2.526 1.918,-2.187 1.826,-1.87C1.732,-1.555 1.581,-1.275 1.369,-1.028C1.159,-0.783 0.866,-0.577 0.492,-0.413C-0.444,-0.811 -1.297,-1.31 -2.068,-1.905C-2.84,-2.501 -3.542,-3.151 -4.174,-3.853C-4.806,-4.555 -5.392,-5.28 -5.93,-6.028C-6.468,-6.776 -6.971,-7.502 -7.438,-8.204C-7.696,-6.964 -7.882,-5.818 -7.998,-4.764C-8.116,-3.713 -8.116,-2.543 -7.998,-1.257C-8.186,-1.233 -8.315,-1.181 -8.385,-1.098C-8.455,-1.017 -8.503,-0.923 -8.525,-0.818C-8.549,-0.713 -8.556,-0.595 -8.543,-0.468C-8.532,-0.339 -8.549,-0.203 -8.595,-0.064C-8.783,-0.088 -8.934,-0.081 -9.052,-0.046C-9.17,-0.011 -9.279,0.03 -9.384,0.076C-9.492,0.125 -9.607,0.164 -9.736,0.199C-9.865,0.234 -10.034,0.229 -10.246,0.181C-10.456,-0.824 -10.589,-1.911 -10.648,-3.081C-10.707,-4.251 -10.707,-5.42 -10.648,-6.59C-10.589,-7.76 -10.484,-8.899 -10.333,-10.01C-10.18,-11.121 -9.999,-12.133 -9.789,-13.047C-8.665,-12.883 -7.76,-12.489 -7.069,-11.871C-6.38,-11.25 -5.766,-10.554 -5.228,-9.782C-4.69,-9.011 -4.157,-8.221 -3.632,-7.414C-3.105,-6.608 -2.444,-5.923 -1.649,-5.361C-1.579,-6.017 -1.572,-6.748 -1.631,-7.554C-1.69,-8.361 -1.754,-9.186 -1.824,-10.03C-1.893,-10.871 -1.946,-11.696 -1.981,-12.502C-2.016,-13.309 -1.988,-14.04 -1.893,-14.695C-1.848,-14.859 -1.743,-14.951 -1.579,-14.975C-1.415,-14.999 -1.321,-15.104 -1.297,-15.292C-1.415,-15.432 -1.456,-15.636 -1.421,-15.905C-1.386,-16.174 -1.303,-16.414 -1.174,-16.624C-1.047,-16.836 -0.883,-16.987 -0.684,-17.081C-0.485,-17.175 -0.256,-17.127 0,-16.941" style="fill:white;fill-rule:nonzero;"/>
            </g>
        </g>
        <g transform="matrix(4.166667,0,0,4.166667,11161.425,0)">
            <g transform="matrix(1,0,0,1,469.6152,448.1642)">
                <path d="M0,14.51C1.122,14.51 2.267,14.458 3.439,14.353C4.607,14.248 5.93,14.101 7.403,13.913C7.1,13.447 6.671,13.06 6.122,12.756C5.573,12.453 4.976,12.212 4.334,12.037C3.689,11.862 3.035,11.757 2.368,11.72C1.701,11.685 1.111,11.716 0.597,11.81C0.549,11.598 0.398,11.418 0.14,11.265C-0.118,11.112 -0.328,11.095 -0.492,11.213C-0.492,11.775 -0.433,12.313 -0.317,12.826C-0.199,13.34 -0.094,13.902 0,14.51M2.455,-0.929C2.197,-0.671 1.876,-0.43 1.491,-0.209C1.104,0.014 0.702,0.248 0.28,0.492C-0.14,0.74 -0.555,0.991 -0.964,1.247C-1.375,1.505 -1.719,1.798 -2.001,2.124C-1.557,2.242 -1.257,2.441 -1.106,2.72C-0.953,3.003 -0.859,3.324 -0.824,3.687C-0.789,4.05 -0.772,4.424 -0.772,4.809C-0.772,5.196 -0.715,5.563 -0.597,5.915C2.539,4.533 5.018,2.535 6.842,-0.087C6.702,-0.367 6.618,-0.566 6.597,-0.682C6.573,-0.8 6.573,-0.964 6.597,-1.174C6.151,-1.244 5.755,-1.261 5.403,-1.226C5.053,-1.191 4.718,-1.15 4.404,-1.104C4.087,-1.056 3.772,-1.003 3.457,-0.946C3.14,-0.887 2.807,-0.881 2.455,-0.929M-4.246,6.02L-4.141,6.02C-4.141,5.95 -4.159,5.919 -4.194,5.932C-4.229,5.943 -4.246,5.972 -4.246,6.02C-5.042,5.506 -5.538,4.979 -5.737,4.441C-5.936,3.903 -5.947,3.365 -5.772,2.825C-5.597,2.288 -5.276,1.763 -4.808,1.247C-4.34,0.733 -3.824,0.241 -3.264,-0.227C-2.702,-0.695 -2.147,-1.126 -1.596,-1.526C-1.047,-1.921 -0.597,-2.273 -0.245,-2.577C0.455,-2.647 1.181,-2.798 1.928,-3.034C2.678,-3.266 3.439,-3.454 4.211,-3.594C4.983,-3.736 5.759,-3.789 6.544,-3.754C7.327,-3.717 8.092,-3.478 8.842,-3.034C9.17,-2.144 9.279,-1.32 9.174,-0.559C9.07,0.202 8.818,0.914 8.42,1.581C8.022,2.248 7.515,2.874 6.894,3.457C6.275,4.043 5.619,4.592 4.931,5.106C4.24,5.622 3.544,6.107 2.842,6.562C2.141,7.019 1.509,7.47 0.947,7.913C1.229,8.381 1.625,8.755 2.141,9.037C2.654,9.317 3.227,9.558 3.859,9.757C4.491,9.956 5.151,10.137 5.842,10.301C6.531,10.465 7.204,10.657 7.86,10.878C8.514,11.101 9.111,11.388 9.649,11.738C10.187,12.09 10.62,12.547 10.948,13.106C10.736,13.878 10.316,14.528 9.684,15.054C9.052,15.581 8.315,16.008 7.473,16.336C6.632,16.664 5.748,16.902 4.823,17.055C3.901,17.206 3.039,17.307 2.246,17.352C2.057,17.471 2.018,17.615 2.123,17.792C2.228,17.967 2.267,18.135 2.246,18.299C1.192,18.207 0.28,18.002 -0.492,17.687C-1.264,17.37 -1.883,16.825 -2.35,16.054C-2.305,15.892 -2.189,15.809 -2.001,15.809C-2.35,15.131 -2.573,14.307 -2.668,13.336C-2.762,12.365 -2.807,11.353 -2.807,10.301C-2.807,9.247 -2.814,8.195 -2.825,7.142C-2.836,6.09 -2.926,5.13 -3.087,4.264C-3.229,4.428 -3.321,4.605 -3.369,4.791C-3.415,4.979 -3.463,5.161 -3.509,5.336C-3.555,5.51 -3.632,5.674 -3.737,5.825C-3.842,5.978 -4.012,6.09 -4.246,6.16L-4.246,6.02Z" style="fill:white;fill-rule:nonzero;"/>
            </g>
        </g>
        <g transform="matrix(4.166667,0,0,4.166667,11161.425,0)">
            <g transform="matrix(1,0,0,1,489.7899,460.0021)">
                <path d="M0,8.497C0.07,8.403 0.14,8.357 0.21,8.357C0.28,8.357 0.332,8.375 0.367,8.41C0.402,8.445 0.398,8.479 0.35,8.514C0.304,8.549 0.186,8.543 0,8.497M0,8.497C-0.188,8.591 -0.405,8.65 -0.649,8.672C-0.894,8.696 -1.146,8.707 -1.404,8.707L-1.404,8.602C-1.146,8.602 -0.925,8.574 -0.737,8.514C-0.551,8.455 -0.304,8.451 0,8.497M-1.404,8.602C-1.568,8.602 -1.638,8.626 -1.614,8.672C-1.592,8.72 -1.522,8.731 -1.404,8.707C-3.555,9.269 -5.674,9.853 -7.755,10.463C-9.837,11.07 -11.866,11.748 -13.843,12.498C-15.819,13.246 -17.737,14.094 -19.597,15.041C-21.456,15.988 -23.251,17.07 -24.983,18.286L-24.983,19.095C-24.773,19.211 -24.574,19.322 -24.386,19.427C-24.198,19.532 -24.029,19.65 -23.876,19.777C-23.726,19.906 -23.603,20.059 -23.509,20.234C-23.415,20.409 -23.356,20.625 -23.334,20.883C-23.59,20.977 -23.872,21.012 -24.176,20.988C-24.48,20.964 -24.784,20.918 -25.088,20.848C-25.392,20.778 -25.696,20.695 -26,20.604C-26.303,20.51 -26.596,20.44 -26.878,20.391C-27.088,20.042 -27.217,19.69 -27.263,19.34C-27.309,18.988 -27.298,18.631 -27.228,18.268C-27.158,17.905 -27.058,17.556 -26.931,17.217C-26.802,16.878 -26.666,16.556 -26.526,16.252C-24.141,14.825 -21.662,13.578 -19.088,12.516C-16.515,11.451 -13.878,10.463 -11.175,9.551C-8.475,8.637 -5.726,7.767 -2.93,6.936C-0.136,6.105 2.654,5.211 5.438,4.251C4.62,3.247 3.888,2.169 3.245,1.024C2.602,-0.122 1.988,-1.327 1.404,-2.591C1.006,-1.983 0.573,-1.379 0.105,-0.782C-0.363,-0.188 -0.918,0.311 -1.561,0.709C-2.206,1.107 -2.961,1.369 -3.824,1.498C-4.69,1.627 -5.696,1.516 -6.842,1.164C-6.842,1.094 -6.82,1.048 -6.772,1.024C-6.726,1 -6.673,0.982 -6.614,0.971C-6.555,0.96 -6.498,0.947 -6.439,0.936C-6.38,0.925 -6.352,0.884 -6.352,0.814C-7.054,0.838 -7.591,0.637 -7.965,0.217C-8.339,-0.205 -8.621,-0.702 -8.807,-1.274C-8.995,-1.847 -9.129,-2.438 -9.212,-3.048C-9.293,-3.655 -9.404,-4.134 -9.544,-4.484C-9.404,-4.812 -9.293,-5.112 -9.212,-5.381C-9.129,-5.65 -9.041,-5.919 -8.947,-6.187C-8.855,-6.456 -8.744,-6.754 -8.615,-7.082C-8.486,-7.41 -8.328,-7.795 -8.14,-8.241C-7.86,-8.381 -7.556,-8.42 -7.229,-8.363C-6.901,-8.304 -6.575,-8.262 -6.247,-8.241C-6.175,-8.123 -6.129,-7.983 -6.105,-7.819C-6.083,-7.655 -6.013,-7.526 -5.895,-7.432C-6.083,-7.082 -6.234,-6.579 -6.352,-5.923C-6.468,-5.269 -6.498,-4.613 -6.439,-3.959C-6.38,-3.303 -6.212,-2.737 -5.93,-2.256C-5.65,-1.777 -5.206,-1.537 -4.596,-1.537C-3.872,-1.537 -3.247,-1.742 -2.72,-2.151C-2.193,-2.56 -1.736,-3.083 -1.351,-3.712C-0.964,-4.344 -0.656,-5.022 -0.422,-5.748C-0.188,-6.474 -0.013,-7.152 0.105,-7.784C0.011,-8.042 -0.052,-8.321 -0.087,-8.625C-0.122,-8.929 -0.153,-9.24 -0.175,-9.555C-0.199,-9.872 -0.234,-10.18 -0.28,-10.486C-0.328,-10.79 -0.398,-11.07 -0.492,-11.328C-0.398,-11.514 -0.251,-11.702 -0.052,-11.89C0.147,-12.076 0.367,-12.222 0.614,-12.327C0.859,-12.432 1.122,-12.491 1.404,-12.502C1.684,-12.515 1.966,-12.439 2.246,-12.275C2.127,-11.807 2.158,-11.409 2.333,-11.081C2.508,-10.753 2.707,-10.445 2.93,-10.152C3.151,-9.859 3.315,-9.568 3.422,-9.275C3.527,-8.982 3.45,-8.636 3.192,-8.241C3.286,-6.837 3.573,-5.538 4.052,-4.344C4.533,-3.153 5.105,-2.011 5.772,-0.925C6.439,0.164 7.141,1.233 7.878,2.287C8.615,3.339 9.286,4.428 9.894,5.55C9.544,5.644 9.192,5.825 8.842,6.094C8.49,6.363 8.134,6.614 7.771,6.848C7.408,7.082 7.023,7.233 6.614,7.305C6.205,7.375 5.766,7.257 5.298,6.953C4.76,7.233 4.198,7.445 3.614,7.585C3.028,7.725 2.449,7.837 1.876,7.918C1.303,8.001 0.737,8.088 0.175,8.182C-0.387,8.274 -0.912,8.416 -1.404,8.602" style="fill:white;fill-rule:nonzero;"/>
            </g>
        </g>
        <g transform="matrix(4.166667,0,0,4.166667,11161.425,0)">
            <g transform="matrix(1,0,0,1,377.0551,487.4059)">
                <path d="M0,-10.586C-0.27,-10.039 -0.664,-9.551 -1.182,-9.128C-1.699,-8.705 -2.257,-8.341 -2.863,-8.041C-3.468,-7.735 -4.097,-7.477 -4.749,-7.265C-5.402,-7.053 -5.996,-6.871 -6.542,-6.724C-6.601,-7.147 -6.513,-7.524 -6.272,-7.859C-6.09,-8.1 -5.996,-8.358 -5.996,-8.629C-5.937,-8.84 -5.901,-9.064 -5.884,-9.287C-5.866,-9.516 -5.831,-9.769 -5.772,-10.039C-5.831,-10.163 -5.86,-10.374 -5.86,-10.674C-5.831,-10.798 -5.808,-10.909 -5.79,-11.015C-5.778,-11.121 -5.772,-11.25 -5.772,-11.403C-5.802,-11.615 -5.802,-11.856 -5.772,-12.132C-5.772,-12.249 -5.76,-12.373 -5.749,-12.49C-5.731,-12.614 -5.725,-12.749 -5.725,-12.902C-5.666,-12.902 -5.614,-12.908 -5.566,-12.925C-5.519,-12.937 -5.467,-12.949 -5.408,-12.949C-4.738,-12.978 -4.079,-12.949 -3.427,-12.855C-2.781,-12.767 -2.134,-12.643 -1.499,-12.49C-1.346,-12.432 -1.193,-12.379 -1.046,-12.332C-0.893,-12.291 -0.741,-12.22 -0.588,-12.132C-0.259,-11.979 -0.047,-11.767 0.047,-11.491C0.164,-11.162 0.153,-10.856 0,-10.586M6.859,2.187C6.771,2.122 6.607,2.016 6.36,1.863C6.119,1.716 5.86,1.558 5.59,1.387C5.319,1.222 5.066,1.064 4.837,0.911C4.614,0.758 4.467,0.652 4.408,0.594C3.985,0.288 3.573,-0.012 3.18,-0.317C2.786,-0.617 2.392,-0.923 1.998,-1.223C1.94,-1.287 1.887,-1.328 1.84,-1.358C1.793,-1.393 1.787,-1.452 1.816,-1.54C1.91,-1.569 2.045,-1.646 2.228,-1.769C2.41,-1.893 2.592,-2.01 2.774,-2.134C2.956,-2.251 3.139,-2.392 3.315,-2.539C3.591,-2.751 3.856,-2.957 4.114,-3.156C4.367,-3.35 4.637,-3.574 4.908,-3.815C5.331,-4.179 5.725,-4.608 6.089,-5.108C6.454,-5.607 6.777,-6.137 7.065,-6.701C7.353,-7.259 7.588,-7.829 7.77,-8.405C7.953,-8.981 8.076,-9.54 8.135,-10.086C8.223,-11.086 8.164,-12.038 7.953,-12.949C7.682,-14.401 7.142,-15.623 6.342,-16.605C5.537,-17.587 4.585,-18.392 3.48,-19.015C2.369,-19.632 1.152,-20.09 -0.182,-20.379C-1.517,-20.666 -2.845,-20.837 -4.179,-20.902C-5.026,-20.931 -5.86,-20.931 -6.677,-20.902C-7.494,-20.866 -8.317,-20.808 -9.134,-20.719C-9.252,-20.719 -9.434,-20.684 -9.675,-20.625C-10.069,-20.537 -10.468,-20.437 -10.857,-20.332C-11.25,-20.226 -11.662,-20.108 -12.085,-19.991C-12.208,-19.961 -12.391,-19.885 -12.632,-19.761C-12.967,-19.52 -13.343,-19.326 -13.766,-19.173C-13.978,-18.78 -14.113,-18.368 -14.177,-17.945C-14.236,-17.522 -14.342,-17.099 -14.495,-16.675L-15.042,-16.358C-14.977,-16.052 -14.912,-15.764 -14.836,-15.494C-14.759,-15.218 -14.677,-14.947 -14.583,-14.671C-14.736,-14.066 -14.736,-13.431 -14.583,-12.767L-14.583,-12.584C-14.554,-12.067 -14.542,-11.574 -14.542,-11.109L-14.542,-9.675C-14.542,-9.522 -14.548,-9.387 -14.559,-9.269C-14.577,-9.146 -14.601,-9.011 -14.63,-8.858C-14.724,-8.341 -14.724,-7.829 -14.63,-7.312C-14.571,-7.1 -14.542,-6.889 -14.542,-6.677L-14.542,-6.042C-14.571,-5.737 -14.595,-5.443 -14.607,-5.155C-14.624,-4.867 -14.63,-4.573 -14.63,-4.267C-14.724,-3.362 -14.765,-2.469 -14.765,-1.587C-14.795,-0.799 -14.818,-0.018 -14.836,0.752C-14.848,1.522 -14.871,2.304 -14.9,3.092L-14.9,6.207C-14.9,7.218 -14.871,8.258 -14.812,9.316L-14.812,9.593C-14.812,9.681 -14.795,9.804 -14.765,9.951L-14.724,10.092L-14.724,10.18L-14.266,10.316C-14.113,10.286 -13.978,10.275 -13.86,10.275L-12.314,10.275C-11.95,10.275 -11.585,10.286 -11.221,10.316C-10.645,10.345 -10.01,10.316 -9.316,10.228C-9.07,10.198 -8.835,10.174 -8.611,10.157C-8.382,10.145 -8.147,10.151 -7.906,10.18C-7.782,10.18 -7.665,10.174 -7.541,10.157C-7.424,10.145 -7.301,10.104 -7.177,10.045C-7.148,9.951 -7.1,9.787 -7.042,9.546C-7.012,9.24 -6.989,8.94 -6.971,8.635C-6.96,8.335 -6.954,8.029 -6.954,7.729L-6.954,3.004C-7.012,2.757 -6.983,2.533 -6.86,2.322C-6.83,2.322 -6.754,2.351 -6.636,2.41C-6.454,2.533 -6.272,2.639 -6.09,2.727C-5.907,2.821 -5.725,2.939 -5.543,3.092C-4.697,3.609 -3.885,4.173 -3.109,4.796C-2.34,5.419 -1.558,6.031 -0.77,6.636C0.017,7.242 0.835,7.806 1.681,8.317C1.987,8.47 2.263,8.635 2.522,8.817C2.78,8.999 3.027,9.211 3.274,9.451C3.391,9.546 3.497,9.634 3.591,9.728C3.679,9.816 3.803,9.892 3.956,9.951C4.073,10.016 4.197,10.075 4.32,10.133C4.438,10.198 4.573,10.239 4.726,10.275C4.967,10.122 5.137,9.922 5.225,9.681C5.378,9.346 5.572,9.075 5.819,8.864L6.225,8.317C6.254,8.288 6.277,8.258 6.295,8.229C6.307,8.2 6.348,8.164 6.407,8.135L6.683,7.729C6.742,7.7 6.777,7.665 6.795,7.635C6.806,7.606 6.83,7.576 6.859,7.547C7.071,7.306 7.277,7.054 7.476,6.795C7.67,6.536 7.847,6.26 8,5.954C8.182,5.59 8.405,5.225 8.681,4.867C8.922,4.62 9.075,4.397 9.134,4.185C8.434,3.456 7.682,2.792 6.859,2.187" style="fill:rgb(227,6,19);fill-rule:nonzero;"/>
            </g>
        </g>
        <g transform="matrix(4.166667,0,0,4.166667,11161.425,0)">
            <g transform="matrix(1,0,0,1,405.2744,478.7305)">
                <path d="M0,6.771C-0.035,6.771 -0.065,6.783 -0.094,6.812L-5.408,7.359C-5.437,7.359 -5.484,7.33 -5.543,7.271L-5.272,6.812C-4.878,6.06 -4.503,5.302 -4.138,4.543C-3.774,3.785 -3.409,3.015 -3.045,2.227L-2.093,0.229C-2.063,0.199 -2.045,0.164 -2.045,0.135L-1.91,-0C-1.91,-0.03 -1.892,-0.059 -1.863,-0.094C-1.593,1.087 -1.275,2.233 -0.911,3.338C-0.547,4.443 -0.2,5.572 0.135,6.724C0.076,6.753 0.029,6.771 0,6.771M11.156,15.2C11.08,15 10.992,14.8 10.903,14.583C10.78,14.342 10.668,14.095 10.563,13.836C10.457,13.578 10.357,13.331 10.269,13.084C9.992,12.179 9.722,11.274 9.452,10.38C9.175,9.487 8.905,8.605 8.629,7.723C8.541,7.482 8.494,7.282 8.494,7.136C8.464,6.889 8.435,6.653 8.405,6.43C8.376,6.201 8.329,5.966 8.27,5.725C8.205,5.513 8.153,5.307 8.111,5.114C8.065,4.914 8.011,4.696 7.953,4.455C7.953,4.42 7.918,4.314 7.859,4.132C7.465,3.256 7.106,2.286 6.789,1.228C6.471,0.164 6.225,-0.835 6.043,-1.775C5.89,-2.528 5.696,-3.227 5.449,-3.862C5.208,-4.62 4.973,-5.361 4.749,-6.09C4.52,-6.819 4.285,-7.559 4.044,-8.317C3.979,-8.617 3.92,-8.905 3.862,-9.182C3.797,-9.452 3.768,-9.752 3.768,-10.087L3.726,-10.134L3.726,-10.181L3.45,-10.404L3.18,-10.863C3.027,-10.921 2.892,-10.915 2.768,-10.839C2.651,-10.763 2.51,-10.721 2.363,-10.721L2.363,-11.221C2.269,-11.286 2.181,-11.339 2.087,-11.386C1.998,-11.427 1.922,-11.48 1.863,-11.544C1.587,-11.691 1.27,-11.797 0.905,-11.862C0.664,-11.891 0.429,-11.938 0.2,-11.997C-0.024,-12.056 -0.259,-12.114 -0.5,-12.179C-0.682,-12.267 -0.87,-12.332 -1.07,-12.361C-1.27,-12.391 -1.469,-12.42 -1.681,-12.45L-2.093,-12.044C-2.392,-12.103 -2.68,-12.138 -2.956,-12.156C-3.227,-12.167 -3.503,-12.209 -3.774,-12.267C-4.044,-12.332 -4.326,-12.391 -4.614,-12.45C-4.902,-12.508 -5.196,-12.573 -5.502,-12.632C-5.56,-12.508 -5.607,-12.438 -5.637,-12.403C-5.878,-11.832 -6.042,-11.268 -6.136,-10.721C-6.195,-10.481 -6.242,-10.263 -6.272,-10.063C-6.301,-9.869 -6.348,-9.663 -6.407,-9.452L-6.954,-8.223C-7.048,-8.012 -7.136,-7.806 -7.224,-7.612C-7.318,-7.412 -7.424,-7.212 -7.547,-7.001C-8.059,-5.849 -8.587,-4.708 -9.134,-3.592C-9.681,-2.469 -10.239,-1.346 -10.815,-0.23L-12.59,3.362C-12.649,3.515 -12.725,3.668 -12.814,3.815C-12.908,3.967 -12.984,4.12 -13.043,4.273L-13.954,6.136C-14.013,6.283 -14.089,6.436 -14.177,6.589C-14.271,6.742 -14.348,6.889 -14.406,7.041C-14.465,7.165 -14.518,7.276 -14.565,7.382C-14.612,7.488 -14.665,7.606 -14.724,7.723L-15.359,9.134C-15.512,9.434 -15.664,9.733 -15.817,10.022C-15.964,10.309 -16.117,10.603 -16.27,10.903L-17.498,13.043C-17.586,13.219 -17.686,13.401 -17.792,13.583C-17.898,13.766 -17.998,13.948 -18.086,14.13C-18.174,14.283 -18.262,14.441 -18.339,14.606C-18.409,14.777 -18.48,14.935 -18.539,15.082C-18.392,15.329 -18.133,15.523 -17.769,15.676C-17.675,15.705 -17.581,15.746 -17.475,15.788C-17.369,15.835 -17.269,15.887 -17.175,15.946C-17.087,16.011 -17.005,16.064 -16.928,16.105C-16.852,16.152 -16.781,16.205 -16.723,16.264L-15.77,16.905C-15.494,17.116 -15.206,17.31 -14.906,17.492C-14.6,17.674 -14.283,17.827 -13.954,17.945C-13.742,18.039 -13.525,18.139 -13.313,18.245C-13.102,18.35 -12.908,18.48 -12.725,18.627C-12.602,18.691 -12.496,18.75 -12.408,18.809C-12.314,18.873 -12.208,18.95 -12.091,19.038C-11.967,18.979 -11.856,18.909 -11.75,18.832C-11.644,18.756 -11.562,18.662 -11.497,18.538C-10.95,17.839 -10.439,17.051 -9.951,16.176C-9.469,15.3 -9.017,14.465 -8.587,13.677C-8.499,13.436 -8.347,13.237 -8.135,13.084C-7.982,13.084 -7.841,13.078 -7.706,13.06C-7.565,13.049 -7.424,13.025 -7.271,12.996C-6.848,12.937 -6.442,12.884 -6.042,12.837C-5.655,12.79 -5.255,12.737 -4.861,12.678C-4.35,12.584 -3.826,12.502 -3.297,12.426C-2.768,12.349 -2.245,12.284 -1.728,12.22C-1.246,12.161 -0.782,12.085 -0.341,11.996C0.094,11.902 0.559,11.814 1.04,11.72L1.405,11.72C1.558,12.114 1.711,12.555 1.863,13.043C2.104,13.766 2.322,14.5 2.522,15.241C2.716,15.988 2.968,16.705 3.268,17.404C3.333,17.522 3.374,17.628 3.403,17.721L3.726,18.309C3.756,18.374 3.78,18.427 3.791,18.468C3.809,18.515 3.832,18.568 3.862,18.627C3.95,18.809 4.079,18.95 4.25,19.038C4.414,19.126 4.544,19.25 4.632,19.403C4.873,19.403 5.12,19.326 5.361,19.173C5.449,19.085 5.555,19.003 5.678,18.926C5.802,18.85 5.919,18.78 6.043,18.721C6.371,18.568 6.695,18.427 6.995,18.286C7.3,18.15 7.618,18.009 7.953,17.857C8.223,17.733 8.494,17.604 8.77,17.469C9.04,17.334 9.299,17.175 9.54,16.993C9.875,16.752 10.251,16.552 10.674,16.405C10.739,16.405 10.827,16.375 10.95,16.311C11.162,16.281 11.297,16.117 11.356,15.811C11.297,15.6 11.227,15.394 11.156,15.2" style="fill:rgb(227,6,19);fill-rule:nonzero;"/>
            </g>
        </g>
        <g transform="matrix(4.166667,0,0,4.166667,11161.425,0)">
            <g transform="matrix(1,0,0,1,436.4448,491.9965)">
                <path d="M0,-17.945C0.029,-18.221 0.053,-18.492 0.065,-18.762C0.082,-19.038 0.088,-19.326 0.088,-19.626C0.147,-20.02 0.147,-20.402 0.088,-20.766C0,-21.278 -0.047,-21.795 -0.047,-22.306C-0.047,-22.553 -0.065,-22.735 -0.094,-22.853C-0.153,-22.882 -0.229,-22.9 -0.317,-22.9L-0.864,-22.988C-0.894,-22.988 -0.929,-23 -0.958,-23.012C-0.988,-23.029 -1.035,-23.035 -1.094,-23.035C-1.276,-23.094 -1.458,-23.141 -1.64,-23.17C-1.816,-23.2 -1.999,-23.218 -2.181,-23.218L-2.275,-23.764C-2.639,-23.917 -2.969,-23.987 -3.274,-23.987C-3.727,-24.023 -4.173,-24.052 -4.614,-24.081C-5.055,-24.111 -5.484,-24.129 -5.907,-24.129C-7.541,-24.158 -9.164,-24.17 -10.768,-24.17L-15.635,-24.17C-16.117,-24.17 -16.587,-24.158 -17.04,-24.129C-17.493,-24.093 -17.963,-24.052 -18.451,-23.987C-18.751,-23.929 -19.056,-23.899 -19.356,-23.899L-20.267,-23.899C-20.326,-23.899 -20.367,-23.905 -20.379,-23.923C-20.396,-23.935 -20.42,-23.946 -20.449,-23.946L-20.814,-23.67C-20.996,-23.37 -21.072,-23.082 -21.037,-22.806L-21.037,-22.718L-21.084,-22.489L-21.084,-22.4L-21.219,-21.854L-21.448,-20.766L-21.584,-20.22C-21.678,-19.914 -21.742,-19.602 -21.789,-19.285C-21.836,-18.968 -21.872,-18.644 -21.901,-18.31C-21.901,-18.251 -21.913,-18.198 -21.925,-18.151C-21.942,-18.104 -21.948,-18.051 -21.948,-17.992L-22.036,-17.445C-22.036,-17.386 -22.048,-17.334 -22.06,-17.287C-22.077,-17.24 -22.083,-17.187 -22.083,-17.128C-22.177,-16.858 -22.218,-16.599 -22.218,-16.358C-22.071,-16.264 -21.901,-16.182 -21.719,-16.105C-21.536,-16.029 -21.296,-15.964 -20.996,-15.9C-20.69,-15.841 -20.296,-15.77 -19.814,-15.7C-19.327,-15.623 -18.692,-15.523 -17.904,-15.4L-17.675,-15.947C-17.616,-15.976 -17.54,-15.994 -17.452,-15.994C-17.146,-15.964 -16.817,-16.023 -16.452,-16.176C-16.27,-16.234 -16.117,-16.264 -15.994,-16.264C-15.847,-16.329 -15.723,-16.282 -15.635,-16.129L-15.635,-15.858C-15.665,-15.706 -15.688,-15.57 -15.7,-15.447C-15.717,-15.324 -15.723,-15.188 -15.723,-15.041C-15.782,-13.977 -15.829,-12.943 -15.859,-11.926C-15.888,-10.909 -15.935,-9.875 -15.994,-8.811C-16.058,-7.3 -16.1,-5.79 -16.135,-4.291C-16.164,-2.792 -16.176,-1.269 -16.176,0.276C-16.205,0.606 -16.229,0.94 -16.246,1.276C-16.264,1.605 -16.27,1.94 -16.27,2.275C-16.27,2.939 -16.311,3.591 -16.405,4.226C-16.493,4.649 -16.493,5.073 -16.405,5.502C-16.223,5.649 -16.029,5.713 -15.812,5.684C-15.424,5.684 -15.036,5.696 -14.654,5.725C-14.277,5.754 -13.907,5.819 -13.543,5.907C-13.09,5.972 -12.626,6.025 -12.155,6.066C-11.685,6.113 -11.227,6.119 -10.768,6.09L-10.41,6.09C-10.286,6.09 -10.163,6.107 -10.045,6.137C-9.892,6.166 -9.734,6.189 -9.564,6.201C-9.399,6.219 -9.24,6.225 -9.087,6.225C-8.905,6.078 -8.782,5.86 -8.705,5.59C-8.629,5.32 -8.588,5.061 -8.588,4.82C-8.529,4.332 -8.476,3.856 -8.429,3.386C-8.388,2.915 -8.347,2.457 -8.317,1.999L-8.182,-3.727C-8.182,-6.389 -8.088,-9.04 -7.906,-11.673C-7.877,-12.373 -7.853,-13.055 -7.841,-13.719C-7.823,-14.389 -7.788,-15.071 -7.724,-15.764L-7.724,-15.858L-7.683,-16.129L-7.683,-16.223C-7.618,-16.223 -7.565,-16.229 -7.524,-16.241C-7.477,-16.258 -7.424,-16.264 -7.365,-16.264L-7.089,-16.264L-6.542,-16.223L-6.272,-16.223C-5.725,-16.223 -5.184,-16.211 -4.638,-16.199C-4.091,-16.182 -3.533,-16.176 -2.957,-16.176C-2.774,-16.176 -2.651,-16.188 -2.592,-16.223C-2.228,-16.37 -1.928,-16.446 -1.681,-16.446L-0.182,-16.581C-0.124,-16.581 -0.065,-16.611 0,-16.675C0.117,-16.858 0.147,-17.099 0.088,-17.404C0.029,-17.645 0,-17.827 0,-17.945" style="fill:rgb(227,6,19);fill-rule:nonzero;"/>
            </g>
        </g>
        <g transform="matrix(4.166667,0,0,4.166667,11161.425,0)">
            <g transform="matrix(1,0,0,1,451.5271,478.7305)">
                <path d="M0,6.771C-0.029,6.771 -0.059,6.783 -0.088,6.812L-5.407,7.359C-5.437,7.359 -5.484,7.33 -5.543,7.271L-5.272,6.812C-4.878,6.06 -4.496,5.302 -4.132,4.543C-3.767,3.785 -3.409,3.015 -3.045,2.227L-2.087,0.229C-2.057,0.199 -2.045,0.164 -2.045,0.135L-1.904,-0C-1.904,-0.03 -1.893,-0.059 -1.863,-0.094C-1.587,1.087 -1.269,2.233 -0.905,3.338C-0.547,4.443 -0.194,5.572 0.135,6.724C0.076,6.754 0.03,6.771 0,6.771M11.156,15.2C11.08,15 10.997,14.8 10.909,14.583C10.786,14.342 10.674,14.095 10.568,13.836C10.457,13.578 10.363,13.331 10.269,13.084C9.998,12.179 9.728,11.274 9.452,10.38C9.181,9.487 8.905,8.605 8.635,7.723C8.546,7.482 8.499,7.282 8.499,7.136C8.47,6.889 8.435,6.653 8.405,6.43C8.376,6.201 8.329,5.966 8.27,5.725C8.211,5.513 8.158,5.307 8.112,5.114C8.065,4.914 8.011,4.696 7.953,4.455C7.953,4.42 7.923,4.314 7.864,4.132C7.471,3.256 7.112,2.286 6.795,1.228C6.477,0.164 6.225,-0.835 6.043,-1.775C5.89,-2.528 5.696,-3.227 5.455,-3.862C5.214,-4.62 4.979,-5.361 4.749,-6.09C4.52,-6.819 4.285,-7.559 4.044,-8.317C3.985,-8.617 3.927,-8.905 3.862,-9.182C3.803,-9.452 3.774,-9.752 3.774,-10.087L3.727,-10.134L3.727,-10.181L3.456,-10.404L3.18,-10.863C3.027,-10.921 2.892,-10.915 2.774,-10.839C2.651,-10.763 2.516,-10.721 2.363,-10.721L2.363,-11.221C2.275,-11.286 2.181,-11.339 2.093,-11.386C1.998,-11.427 1.922,-11.48 1.863,-11.544C1.593,-11.691 1.275,-11.797 0.911,-11.862C0.67,-11.891 0.435,-11.938 0.206,-11.997C-0.024,-12.056 -0.259,-12.114 -0.5,-12.179C-0.682,-12.267 -0.87,-12.332 -1.064,-12.361C-1.264,-12.391 -1.469,-12.42 -1.681,-12.45L-2.087,-12.044C-2.392,-12.103 -2.68,-12.138 -2.951,-12.156C-3.227,-12.167 -3.497,-12.209 -3.767,-12.267C-4.044,-12.332 -4.326,-12.391 -4.608,-12.45C-4.896,-12.508 -5.196,-12.573 -5.496,-12.632C-5.56,-12.508 -5.601,-12.438 -5.631,-12.403C-5.878,-11.832 -6.042,-11.268 -6.131,-10.721C-6.195,-10.481 -6.242,-10.263 -6.272,-10.063C-6.301,-9.869 -6.348,-9.663 -6.407,-9.452L-6.954,-8.223C-7.042,-8.012 -7.13,-7.806 -7.224,-7.612C-7.312,-7.412 -7.424,-7.212 -7.541,-7.001C-8.059,-5.849 -8.587,-4.708 -9.134,-3.592C-9.675,-2.469 -10.239,-1.346 -10.815,-0.23L-12.584,3.362C-12.649,3.515 -12.72,3.668 -12.814,3.815C-12.902,3.967 -12.978,4.12 -13.037,4.273L-13.948,6.136C-14.007,6.283 -14.083,6.436 -14.177,6.589C-14.266,6.742 -14.342,6.889 -14.401,7.041C-14.465,7.165 -14.518,7.276 -14.559,7.382C-14.607,7.488 -14.659,7.606 -14.718,7.723L-15.359,9.134C-15.512,9.434 -15.659,9.733 -15.811,10.022C-15.964,10.309 -16.117,10.603 -16.264,10.903L-17.492,13.043C-17.58,13.219 -17.681,13.401 -17.786,13.583C-17.892,13.766 -17.992,13.948 -18.086,14.13C-18.174,14.283 -18.257,14.441 -18.333,14.606C-18.409,14.777 -18.474,14.935 -18.539,15.082C-18.386,15.329 -18.127,15.523 -17.763,15.676C-17.675,15.705 -17.575,15.746 -17.469,15.788C-17.363,15.835 -17.263,15.887 -17.175,15.946C-17.081,16.011 -16.999,16.064 -16.922,16.105C-16.852,16.152 -16.781,16.205 -16.722,16.264L-15.764,16.905C-15.494,17.116 -15.206,17.31 -14.9,17.492C-14.6,17.674 -14.283,17.827 -13.948,17.945C-13.737,18.039 -13.525,18.139 -13.313,18.245C-13.102,18.35 -12.902,18.48 -12.72,18.627C-12.602,18.691 -12.496,18.75 -12.402,18.809C-12.314,18.873 -12.208,18.95 -12.085,19.038C-11.967,18.979 -11.85,18.909 -11.744,18.832C-11.638,18.756 -11.556,18.662 -11.497,18.538C-10.95,17.839 -10.433,17.051 -9.951,16.176C-9.463,15.3 -9.011,14.465 -8.587,13.677C-8.493,13.436 -8.346,13.237 -8.135,13.084C-7.982,13.084 -7.835,13.078 -7.7,13.06C-7.565,13.049 -7.424,13.025 -7.271,12.996C-6.848,12.937 -6.436,12.884 -6.042,12.837C-5.649,12.79 -5.255,12.737 -4.861,12.678C-4.344,12.584 -3.821,12.502 -3.292,12.426C-2.762,12.349 -2.24,12.284 -1.728,12.22C-1.24,12.161 -0.782,12.085 -0.341,11.996C0.1,11.902 0.559,11.814 1.046,11.72L1.411,11.72C1.564,12.114 1.711,12.555 1.863,13.043C2.104,13.766 2.328,14.5 2.522,15.241C2.721,15.988 2.968,16.705 3.274,17.404C3.333,17.522 3.38,17.628 3.409,17.721L3.727,18.309C3.756,18.374 3.78,18.427 3.797,18.468C3.809,18.515 3.832,18.568 3.862,18.627C3.956,18.809 4.085,18.95 4.25,19.038C4.414,19.126 4.544,19.25 4.638,19.403C4.879,19.403 5.12,19.326 5.361,19.173C5.455,19.085 5.56,19.003 5.684,18.926C5.801,18.85 5.925,18.78 6.043,18.721C6.378,18.568 6.695,18.427 7.001,18.286C7.3,18.15 7.618,18.01 7.953,17.857C8.223,17.733 8.499,17.604 8.77,17.469C9.046,17.334 9.299,17.175 9.546,16.993C9.875,16.752 10.257,16.552 10.68,16.405C10.739,16.405 10.833,16.375 10.95,16.311C11.162,16.281 11.297,16.117 11.362,15.811C11.297,15.6 11.232,15.394 11.156,15.2" style="fill:rgb(227,6,19);fill-rule:nonzero;"/>
            </g>
        </g>
        <g transform="matrix(4.166667,0,0,4.166667,11161.425,0)">
            <g transform="matrix(1,0,0,1,485.5598,490.6155)">
                <path d="M0,-16.564C-0.029,-16.717 -0.047,-16.852 -0.047,-16.976L-0.047,-17.381C-0.047,-17.593 -0.059,-17.763 -0.088,-17.88L-0.088,-18.839C-0.117,-18.956 -0.135,-19.127 -0.135,-19.338C-0.194,-20.032 -0.059,-20.685 0.276,-21.29L0,-21.654L-0.088,-22.471L-0.77,-22.653C-0.799,-23.229 -0.94,-23.788 -1.181,-24.335C-1.481,-24.428 -1.757,-24.411 -1.998,-24.288C-2.333,-24.141 -2.663,-24.046 -2.997,-24.017C-3.392,-23.958 -3.785,-23.888 -4.179,-23.811C-4.573,-23.735 -4.967,-23.67 -5.36,-23.611C-5.725,-23.547 -6.013,-23.576 -6.225,-23.7C-6.377,-23.852 -6.559,-23.882 -6.771,-23.788C-6.83,-23.7 -6.889,-23.6 -6.954,-23.494C-7.012,-23.388 -7.118,-23.306 -7.271,-23.247C-8.964,-23.124 -10.645,-23.053 -12.314,-23.041C-13.977,-23.024 -15.658,-23.018 -17.357,-23.018L-17.722,-23.018L-18.445,-22.971C-18.691,-22.971 -18.891,-22.965 -19.062,-22.947C-19.226,-22.935 -19.432,-22.865 -19.673,-22.748C-19.673,-21.989 -19.779,-21.29 -19.99,-20.655L-20.49,-20.426C-20.308,-20.067 -20.337,-19.703 -20.584,-19.338L-21.266,-19.203C-21.325,-19.05 -21.384,-18.851 -21.448,-18.609L-21.448,-17.863C-21.448,-17.604 -21.413,-17.352 -21.354,-17.111C-21.201,-16.958 -21.054,-16.929 -20.901,-17.022C-20.749,-17.111 -20.596,-17.093 -20.443,-16.976L-20.267,-16.611C-19.99,-16.458 -19.644,-16.382 -19.22,-16.382L-12.355,-16.382L-10.997,-16.429L-10.357,-16.429C-10.027,-16.458 -9.698,-16.482 -9.381,-16.499C-9.064,-16.511 -8.74,-16.523 -8.405,-16.523C-8.223,-16.523 -8.088,-16.505 -7.994,-16.476C-7.964,-16.323 -7.941,-16.188 -7.929,-16.064C-7.912,-15.947 -7.906,-15.806 -7.906,-15.659L-7.906,-14.43L-7.858,-11.932L-7.858,-10.41C-7.858,-9.91 -7.888,-9.399 -7.953,-8.888C-8.011,-8.646 -8.047,-8.411 -8.064,-8.182C-8.082,-7.953 -8.1,-7.718 -8.135,-7.477C-8.194,-6.965 -8.246,-6.448 -8.294,-5.931C-8.335,-5.42 -8.388,-4.902 -8.452,-4.391C-8.482,-3.962 -8.558,-3.509 -8.676,-3.027C-8.799,-2.54 -8.987,-2.087 -9.246,-1.664C-9.504,-1.235 -9.816,-0.882 -10.174,-0.594C-10.539,-0.306 -10.98,-0.165 -11.497,-0.165C-11.856,-0.165 -12.208,-0.282 -12.537,-0.523C-12.749,-1.041 -12.861,-1.599 -12.861,-2.204L-12.861,-7.342C-12.861,-7.465 -12.825,-7.641 -12.767,-7.888C-12.708,-8.311 -12.708,-8.717 -12.767,-9.117C-13.008,-9.264 -13.166,-9.34 -13.243,-9.34L-14.401,-9.34L-16.311,-9.616C-16.946,-9.763 -17.58,-9.811 -18.221,-9.752L-18.856,-9.752C-19.068,-9.752 -19.279,-9.781 -19.491,-9.84C-19.732,-9.934 -19.979,-9.934 -20.22,-9.84C-20.431,-9.446 -20.566,-8.993 -20.625,-8.476C-20.69,-7.783 -20.737,-7.095 -20.766,-6.413C-20.796,-5.731 -20.825,-5.038 -20.855,-4.344C-20.884,-3.797 -20.884,-3.251 -20.855,-2.71C-20.825,-2.163 -20.796,-1.599 -20.766,-1.023C-20.702,0.188 -20.443,1.375 -19.99,2.539C-19.538,3.709 -18.838,4.684 -17.904,5.472C-17.387,5.836 -16.916,6.16 -16.493,6.448C-16.07,6.736 -15.635,6.971 -15.2,7.153C-14.759,7.335 -14.289,7.488 -13.789,7.606C-13.29,7.729 -12.719,7.806 -12.085,7.835C-11.603,7.864 -11.133,7.864 -10.674,7.835C-10.163,7.776 -9.675,7.682 -9.222,7.564C-8.77,7.441 -8.299,7.306 -7.812,7.153C-6.571,6.636 -5.507,5.978 -4.608,5.178C-3.715,4.373 -2.974,3.468 -2.386,2.451C-1.793,1.434 -1.34,0.323 -1.023,-0.888C-0.705,-2.099 -0.499,-3.345 -0.406,-4.614C-0.347,-5.161 -0.294,-5.714 -0.247,-6.272C-0.206,-6.836 -0.153,-7.401 -0.088,-7.977C-0.029,-8.435 0.018,-8.888 0.047,-9.34C0.077,-9.793 0.094,-10.263 0.094,-10.751C0.094,-11.721 0.082,-12.691 0.071,-13.66C0.053,-14.624 0.03,-15.594 0,-16.564" style="fill:rgb(227,6,19);fill-rule:nonzero;"/>
            </g>
        </g>
        <g transform="matrix(4.166667,0,0,4.166667,11161.425,0)">
            <g transform="matrix(1,0,0,1,508.9595,491.0618)">
                <path d="M0,-17.933C-0.382,-18.239 -0.794,-18.433 -1.234,-18.509C-1.675,-18.586 -2.122,-18.586 -2.58,-18.509C-4.643,-18.203 -6.43,-17.351 -7.935,-15.958C-9.446,-14.565 -10.392,-12.837 -10.774,-10.774C-11.344,-8.517 -11.138,-6.283 -10.145,-4.067C-9.687,-2.998 -8.864,-2.104 -7.682,-1.375C-6.918,-0.917 -6.125,-0.658 -5.302,-0.605C-4.479,-0.546 -3.632,-0.552 -2.751,-0.635C-1.757,-0.782 -1.146,-1.393 -0.917,-2.463C-1.264,-2.692 -1.546,-2.933 -1.775,-3.18C-2.004,-3.427 -2.257,-3.709 -2.522,-4.014C-2.598,-4.014 -2.674,-4.02 -2.751,-4.038C-2.827,-4.062 -2.921,-4.067 -3.039,-4.067C-3.15,-4.067 -3.233,-4.05 -3.268,-4.014C-3.574,-3.785 -3.897,-3.679 -4.244,-3.697C-4.585,-3.715 -4.908,-3.762 -5.213,-3.838C-6.207,-4.067 -6.895,-4.602 -7.277,-5.443C-7.659,-6.36 -7.871,-7.241 -7.912,-8.082C-7.912,-8.846 -7.812,-9.61 -7.623,-10.374C-7.43,-11.138 -7.136,-11.832 -6.736,-12.461C-6.33,-13.096 -5.837,-13.637 -5.243,-14.095C-4.655,-14.553 -3.956,-14.9 -3.15,-15.129C-2.845,-15.206 -2.568,-15.253 -2.322,-15.27C-2.075,-15.288 -1.816,-15.206 -1.546,-15.012L-1.316,-15.012C-0.899,-15.394 -0.406,-15.664 0.171,-15.817C0.206,-15.852 0.235,-15.876 0.259,-15.876C0.276,-15.876 0.306,-15.894 0.341,-15.929L0.629,-16.105C0.705,-16.176 0.764,-16.217 0.799,-16.217C0.799,-16.981 0.535,-17.551 0,-17.933M0,-17.933C-0.382,-18.239 -0.794,-18.433 -1.234,-18.509C-1.675,-18.586 -2.122,-18.586 -2.58,-18.509C-4.643,-18.203 -6.43,-17.351 -7.935,-15.958C-9.446,-14.565 -10.392,-12.837 -10.774,-10.774C-11.344,-8.517 -11.138,-6.283 -10.145,-4.067C-9.687,-2.998 -8.864,-2.104 -7.682,-1.375C-6.918,-0.917 -6.125,-0.658 -5.302,-0.605C-4.479,-0.546 -3.632,-0.552 -2.751,-0.635C-1.757,-0.782 -1.146,-1.393 -0.917,-2.463C-1.264,-2.692 -1.546,-2.933 -1.775,-3.18C-2.004,-3.427 -2.257,-3.709 -2.522,-4.014C-2.598,-4.014 -2.674,-4.02 -2.751,-4.038C-2.827,-4.062 -2.921,-4.067 -3.039,-4.067C-3.15,-4.067 -3.233,-4.05 -3.268,-4.014C-3.574,-3.785 -3.897,-3.679 -4.244,-3.697C-4.585,-3.715 -4.908,-3.762 -5.213,-3.838C-6.207,-4.067 -6.895,-4.602 -7.277,-5.443C-7.659,-6.36 -7.871,-7.241 -7.912,-8.082C-7.912,-8.846 -7.812,-9.61 -7.623,-10.374C-7.43,-11.138 -7.136,-11.832 -6.736,-12.461C-6.33,-13.096 -5.837,-13.637 -5.243,-14.095C-4.655,-14.553 -3.956,-14.9 -3.15,-15.129C-2.845,-15.206 -2.568,-15.253 -2.322,-15.27C-2.075,-15.288 -1.816,-15.206 -1.546,-15.012L-1.316,-15.012C-0.899,-15.394 -0.406,-15.664 0.171,-15.817C0.206,-15.852 0.235,-15.876 0.259,-15.876C0.276,-15.876 0.306,-15.894 0.341,-15.929L0.629,-16.105C0.705,-16.176 0.764,-16.217 0.799,-16.217C0.799,-16.981 0.535,-17.551 0,-17.933M0,-17.933C-0.382,-18.239 -0.794,-18.433 -1.234,-18.509C-1.675,-18.586 -2.122,-18.586 -2.58,-18.509C-4.643,-18.203 -6.43,-17.351 -7.935,-15.958C-9.446,-14.565 -10.392,-12.837 -10.774,-10.774C-11.344,-8.517 -11.138,-6.283 -10.145,-4.067C-9.687,-2.998 -8.864,-2.104 -7.682,-1.375C-6.918,-0.917 -6.125,-0.658 -5.302,-0.605C-4.479,-0.546 -3.632,-0.552 -2.751,-0.635C-1.757,-0.782 -1.146,-1.393 -0.917,-2.463C-1.264,-2.692 -1.546,-2.933 -1.775,-3.18C-2.004,-3.427 -2.257,-3.709 -2.522,-4.014C-2.598,-4.014 -2.674,-4.02 -2.751,-4.038C-2.827,-4.062 -2.921,-4.067 -3.039,-4.067C-3.15,-4.067 -3.233,-4.05 -3.268,-4.014C-3.574,-3.785 -3.897,-3.679 -4.244,-3.697C-4.585,-3.715 -4.908,-3.762 -5.213,-3.838C-6.207,-4.067 -6.895,-4.602 -7.277,-5.443C-7.659,-6.36 -7.871,-7.241 -7.912,-8.082C-7.912,-8.846 -7.812,-9.61 -7.623,-10.374C-7.43,-11.138 -7.136,-11.832 -6.736,-12.461C-6.33,-13.096 -5.837,-13.637 -5.243,-14.095C-4.655,-14.553 -3.956,-14.9 -3.15,-15.129C-2.845,-15.206 -2.568,-15.253 -2.322,-15.27C-2.075,-15.288 -1.816,-15.206 -1.546,-15.012L-1.316,-15.012C-0.899,-15.394 -0.406,-15.664 0.171,-15.817C0.206,-15.852 0.235,-15.876 0.259,-15.876C0.276,-15.876 0.306,-15.894 0.341,-15.929L0.629,-16.105C0.705,-16.176 0.764,-16.217 0.799,-16.217C0.799,-16.981 0.535,-17.551 0,-17.933M0,-17.933C-0.382,-18.239 -0.794,-18.433 -1.234,-18.509C-1.675,-18.586 -2.122,-18.586 -2.58,-18.509C-4.643,-18.203 -6.43,-17.351 -7.935,-15.958C-9.446,-14.565 -10.392,-12.837 -10.774,-10.774C-11.344,-8.517 -11.138,-6.283 -10.145,-4.067C-9.687,-2.998 -8.864,-2.104 -7.682,-1.375C-6.918,-0.917 -6.125,-0.658 -5.302,-0.605C-4.479,-0.546 -3.632,-0.552 -2.751,-0.635C-1.757,-0.782 -1.146,-1.393 -0.917,-2.463C-1.264,-2.692 -1.546,-2.933 -1.775,-3.18C-2.004,-3.427 -2.257,-3.709 -2.522,-4.014C-2.598,-4.014 -2.674,-4.02 -2.751,-4.038C-2.827,-4.062 -2.921,-4.067 -3.039,-4.067C-3.15,-4.067 -3.233,-4.05 -3.268,-4.014C-3.574,-3.785 -3.897,-3.679 -4.244,-3.697C-4.585,-3.715 -4.908,-3.762 -5.213,-3.838C-6.207,-4.067 -6.895,-4.602 -7.277,-5.443C-7.659,-6.36 -7.871,-7.241 -7.912,-8.082C-7.912,-8.846 -7.812,-9.61 -7.623,-10.374C-7.43,-11.138 -7.136,-11.832 -6.736,-12.461C-6.33,-13.096 -5.837,-13.637 -5.243,-14.095C-4.655,-14.553 -3.956,-14.9 -3.15,-15.129C-2.845,-15.206 -2.568,-15.253 -2.322,-15.27C-2.075,-15.288 -1.816,-15.206 -1.546,-15.012L-1.316,-15.012C-0.899,-15.394 -0.406,-15.664 0.171,-15.817C0.206,-15.852 0.235,-15.876 0.259,-15.876C0.276,-15.876 0.306,-15.894 0.341,-15.929L0.629,-16.105C0.705,-16.176 0.764,-16.217 0.799,-16.217C0.799,-16.981 0.535,-17.551 0,-17.933M0,-17.933C-0.382,-18.239 -0.794,-18.433 -1.234,-18.509C-1.675,-18.586 -2.122,-18.586 -2.58,-18.509C-4.643,-18.203 -6.43,-17.351 -7.935,-15.958C-9.446,-14.565 -10.392,-12.837 -10.774,-10.774C-11.344,-8.517 -11.138,-6.283 -10.145,-4.067C-9.687,-2.998 -8.864,-2.104 -7.682,-1.375C-6.918,-0.917 -6.125,-0.658 -5.302,-0.605C-4.479,-0.546 -3.632,-0.552 -2.751,-0.635C-1.757,-0.782 -1.146,-1.393 -0.917,-2.463C-1.264,-2.692 -1.546,-2.933 -1.775,-3.18C-2.004,-3.427 -2.257,-3.709 -2.522,-4.014C-2.598,-4.014 -2.674,-4.02 -2.751,-4.038C-2.827,-4.062 -2.921,-4.067 -3.039,-4.067C-3.15,-4.067 -3.233,-4.05 -3.268,-4.014C-3.574,-3.785 -3.897,-3.679 -4.244,-3.697C-4.585,-3.715 -4.908,-3.762 -5.213,-3.838C-6.207,-4.067 -6.895,-4.602 -7.277,-5.443C-7.659,-6.36 -7.871,-7.241 -7.912,-8.082C-7.912,-8.846 -7.812,-9.61 -7.623,-10.374C-7.43,-11.138 -7.136,-11.832 -6.736,-12.461C-6.33,-13.096 -5.837,-13.637 -5.243,-14.095C-4.655,-14.553 -3.956,-14.9 -3.15,-15.129C-2.845,-15.206 -2.568,-15.253 -2.322,-15.27C-2.075,-15.288 -1.816,-15.206 -1.546,-15.012L-1.316,-15.012C-0.899,-15.394 -0.406,-15.664 0.171,-15.817C0.206,-15.852 0.235,-15.876 0.259,-15.876C0.276,-15.876 0.306,-15.894 0.341,-15.929L0.629,-16.105C0.705,-16.176 0.764,-16.217 0.799,-16.217C0.799,-16.981 0.535,-17.551 0,-17.933M7.676,-10.545C7.635,-9.933 7.582,-9.322 7.506,-8.711C7.2,-6.571 6.666,-4.602 5.901,-2.809C5.137,-1.011 3.815,0.512 1.946,1.775C0.688,2.657 -0.594,3.321 -1.892,3.78C-3.191,4.238 -4.602,4.467 -6.13,4.467C-8.194,4.467 -10.051,3.95 -11.691,2.922C-13.331,1.887 -14.477,0.365 -15.129,-1.663C-15.47,-2.692 -15.67,-3.726 -15.729,-4.755C-15.788,-5.79 -15.741,-6.842 -15.588,-7.911C-15.206,-10.392 -14.401,-12.743 -13.178,-14.953C-11.955,-17.169 -10.374,-19.079 -8.423,-20.684C-8.158,-20.878 -7.912,-21.048 -7.682,-21.201C-7.453,-21.354 -7.241,-21.489 -7.047,-21.601C-6.742,-21.642 -6.507,-21.66 -6.33,-21.66C-6.16,-21.66 -6.001,-21.677 -5.848,-21.719C-5.39,-21.871 -4.831,-21.948 -4.185,-21.948C-3.268,-21.983 -2.351,-21.965 -1.434,-21.889C-0.517,-21.812 0.4,-21.642 1.317,-21.372C2.269,-21.107 3.109,-20.655 3.838,-20.026C4.561,-19.397 5.184,-18.662 5.702,-17.821C6.213,-16.981 6.636,-16.082 6.96,-15.129C7.283,-14.171 7.506,-13.254 7.618,-12.379C7.694,-11.767 7.712,-11.156 7.676,-10.545M10.827,-12.12C10.827,-12.484 10.792,-12.855 10.715,-13.237C10.639,-14.23 10.38,-15.288 9.94,-16.416C9.499,-17.545 8.946,-18.621 8.276,-19.655C7.612,-20.684 6.824,-21.601 5.931,-22.406C5.031,-23.206 4.085,-23.782 3.092,-24.123C2.328,-24.393 1.552,-24.599 0.77,-24.751C-0.012,-24.904 -0.823,-25.022 -1.663,-25.098C-2.275,-25.098 -2.774,-25.192 -3.15,-25.386C-3.838,-25.616 -4.549,-25.668 -5.272,-25.557C-6.724,-25.327 -8.052,-24.81 -9.258,-24.011C-10.457,-23.206 -11.556,-22.271 -12.549,-21.201C-14.612,-18.95 -16.188,-16.511 -17.275,-13.895C-18.368,-11.279 -18.909,-8.423 -18.909,-5.331C-18.909,-3.421 -18.598,-1.663 -17.963,-0.059C-17.334,1.546 -16.458,2.922 -15.329,4.068C-14.201,5.214 -12.855,6.113 -11.291,6.76C-9.722,7.412 -8.005,7.735 -6.13,7.735C-4.679,7.735 -3.203,7.512 -1.693,7.077C-0.182,6.636 1.24,6.013 2.575,5.214C3.915,4.409 5.126,3.444 6.213,2.322C7.306,1.194 8.153,-0.059 8.764,-1.434C9.452,-2.962 9.957,-4.52 10.28,-6.101C10.61,-7.688 10.809,-9.357 10.886,-11.115C10.845,-11.42 10.827,-11.756 10.827,-12.12M0,-17.933C-0.382,-18.239 -0.794,-18.433 -1.234,-18.509C-1.675,-18.586 -2.122,-18.586 -2.58,-18.509C-4.643,-18.203 -6.43,-17.351 -7.935,-15.958C-9.446,-14.565 -10.392,-12.837 -10.774,-10.774C-11.344,-8.517 -11.138,-6.283 -10.145,-4.067C-9.687,-2.998 -8.864,-2.104 -7.682,-1.375C-6.918,-0.917 -6.125,-0.658 -5.302,-0.605C-4.479,-0.546 -3.632,-0.552 -2.751,-0.635C-1.757,-0.782 -1.146,-1.393 -0.917,-2.463C-1.264,-2.692 -1.546,-2.933 -1.775,-3.18C-2.004,-3.427 -2.257,-3.709 -2.522,-4.014C-2.598,-4.014 -2.674,-4.02 -2.751,-4.038C-2.827,-4.062 -2.921,-4.067 -3.039,-4.067C-3.15,-4.067 -3.233,-4.05 -3.268,-4.014C-3.574,-3.785 -3.897,-3.679 -4.244,-3.697C-4.585,-3.715 -4.908,-3.762 -5.213,-3.838C-6.207,-4.067 -6.895,-4.602 -7.277,-5.443C-7.659,-6.36 -7.871,-7.241 -7.912,-8.082C-7.912,-8.846 -7.812,-9.61 -7.623,-10.374C-7.43,-11.138 -7.136,-11.832 -6.736,-12.461C-6.33,-13.096 -5.837,-13.637 -5.243,-14.095C-4.655,-14.553 -3.956,-14.9 -3.15,-15.129C-2.845,-15.206 -2.568,-15.253 -2.322,-15.27C-2.075,-15.288 -1.816,-15.206 -1.546,-15.012L-1.316,-15.012C-0.899,-15.394 -0.406,-15.664 0.171,-15.817C0.206,-15.852 0.235,-15.876 0.259,-15.876C0.276,-15.876 0.306,-15.894 0.341,-15.929L0.629,-16.105C0.705,-16.176 0.764,-16.217 0.799,-16.217C0.799,-16.981 0.535,-17.551 0,-17.933M0,-17.933C-0.382,-18.239 -0.794,-18.433 -1.234,-18.509C-1.675,-18.586 -2.122,-18.586 -2.58,-18.509C-4.643,-18.203 -6.43,-17.351 -7.935,-15.958C-9.446,-14.565 -10.392,-12.837 -10.774,-10.774C-11.344,-8.517 -11.138,-6.283 -10.145,-4.067C-9.687,-2.998 -8.864,-2.104 -7.682,-1.375C-6.918,-0.917 -6.125,-0.658 -5.302,-0.605C-4.479,-0.546 -3.632,-0.552 -2.751,-0.635C-1.757,-0.782 -1.146,-1.393 -0.917,-2.463C-1.264,-2.692 -1.546,-2.933 -1.775,-3.18C-2.004,-3.427 -2.257,-3.709 -2.522,-4.014C-2.598,-4.014 -2.674,-4.02 -2.751,-4.038C-2.827,-4.062 -2.921,-4.067 -3.039,-4.067C-3.15,-4.067 -3.233,-4.05 -3.268,-4.014C-3.574,-3.785 -3.897,-3.679 -4.244,-3.697C-4.585,-3.715 -4.908,-3.762 -5.213,-3.838C-6.207,-4.067 -6.895,-4.602 -7.277,-5.443C-7.659,-6.36 -7.871,-7.241 -7.912,-8.082C-7.912,-8.846 -7.812,-9.61 -7.623,-10.374C-7.43,-11.138 -7.136,-11.832 -6.736,-12.461C-6.33,-13.096 -5.837,-13.637 -5.243,-14.095C-4.655,-14.553 -3.956,-14.9 -3.15,-15.129C-2.845,-15.206 -2.568,-15.253 -2.322,-15.27C-2.075,-15.288 -1.816,-15.206 -1.546,-15.012L-1.316,-15.012C-0.899,-15.394 -0.406,-15.664 0.171,-15.817C0.206,-15.852 0.235,-15.876 0.259,-15.876C0.276,-15.876 0.306,-15.894 0.341,-15.929L0.629,-16.105C0.705,-16.176 0.764,-16.217 0.799,-16.217C0.799,-16.981 0.535,-17.551 0,-17.933M0,-17.933C-0.382,-18.239 -0.794,-18.433 -1.234,-18.509C-1.675,-18.586 -2.122,-18.586 -2.58,-18.509C-4.643,-18.203 -6.43,-17.351 -7.935,-15.958C-9.446,-14.565 -10.392,-12.837 -10.774,-10.774C-11.344,-8.517 -11.138,-6.283 -10.145,-4.067C-9.687,-2.998 -8.864,-2.104 -7.682,-1.375C-6.918,-0.917 -6.125,-0.658 -5.302,-0.605C-4.479,-0.546 -3.632,-0.552 -2.751,-0.635C-1.757,-0.782 -1.146,-1.393 -0.917,-2.463C-1.264,-2.692 -1.546,-2.933 -1.775,-3.18C-2.004,-3.427 -2.257,-3.709 -2.522,-4.014C-2.598,-4.014 -2.674,-4.02 -2.751,-4.038C-2.827,-4.062 -2.921,-4.067 -3.039,-4.067C-3.15,-4.067 -3.233,-4.05 -3.268,-4.014C-3.574,-3.785 -3.897,-3.679 -4.244,-3.697C-4.585,-3.715 -4.908,-3.762 -5.213,-3.838C-6.207,-4.067 -6.895,-4.602 -7.277,-5.443C-7.659,-6.36 -7.871,-7.241 -7.912,-8.082C-7.912,-8.846 -7.812,-9.61 -7.623,-10.374C-7.43,-11.138 -7.136,-11.832 -6.736,-12.461C-6.33,-13.096 -5.837,-13.637 -5.243,-14.095C-4.655,-14.553 -3.956,-14.9 -3.15,-15.129C-2.845,-15.206 -2.568,-15.253 -2.322,-15.27C-2.075,-15.288 -1.816,-15.206 -1.546,-15.012L-1.316,-15.012C-0.899,-15.394 -0.406,-15.664 0.171,-15.817C0.206,-15.852 0.235,-15.876 0.259,-15.876C0.276,-15.876 0.306,-15.894 0.341,-15.929L0.629,-16.105C0.705,-16.176 0.764,-16.217 0.799,-16.217C0.799,-16.981 0.535,-17.551 0,-17.933M0,-17.933C-0.382,-18.239 -0.794,-18.433 -1.234,-18.509C-1.675,-18.586 -2.122,-18.586 -2.58,-18.509C-4.643,-18.203 -6.43,-17.351 -7.935,-15.958C-9.446,-14.565 -10.392,-12.837 -10.774,-10.774C-11.344,-8.517 -11.138,-6.283 -10.145,-4.067C-9.687,-2.998 -8.864,-2.104 -7.682,-1.375C-6.918,-0.917 -6.125,-0.658 -5.302,-0.605C-4.479,-0.546 -3.632,-0.552 -2.751,-0.635C-1.757,-0.782 -1.146,-1.393 -0.917,-2.463C-1.264,-2.692 -1.546,-2.933 -1.775,-3.18C-2.004,-3.427 -2.257,-3.709 -2.522,-4.014C-2.598,-4.014 -2.674,-4.02 -2.751,-4.038C-2.827,-4.062 -2.921,-4.067 -3.039,-4.067C-3.15,-4.067 -3.233,-4.05 -3.268,-4.014C-3.574,-3.785 -3.897,-3.679 -4.244,-3.697C-4.585,-3.715 -4.908,-3.762 -5.213,-3.838C-6.207,-4.067 -6.895,-4.602 -7.277,-5.443C-7.659,-6.36 -7.871,-7.241 -7.912,-8.082C-7.912,-8.846 -7.812,-9.61 -7.623,-10.374C-7.43,-11.138 -7.136,-11.832 -6.736,-12.461C-6.33,-13.096 -5.837,-13.637 -5.243,-14.095C-4.655,-14.553 -3.956,-14.9 -3.15,-15.129C-2.845,-15.206 -2.568,-15.253 -2.322,-15.27C-2.075,-15.288 -1.816,-15.206 -1.546,-15.012L-1.316,-15.012C-0.899,-15.394 -0.406,-15.664 0.171,-15.817C0.206,-15.852 0.235,-15.876 0.259,-15.876C0.276,-15.876 0.306,-15.894 0.341,-15.929L0.629,-16.105C0.705,-16.176 0.764,-16.217 0.799,-16.217C0.799,-16.981 0.535,-17.551 0,-17.933" style="fill:rgb(227,6,19);fill-rule:nonzero;"/>
            </g>
        </g>
    </g>
</svg>
