<?xml version="1.0" encoding="UTF-8" standalone="no"?>
<!DOCTYPE svg PUBLIC "-//W3C//DTD SVG 1.1//EN" "http://www.w3.org/Graphics/SVG/1.1/DTD/svg11.dtd">
<svg width="100%" height="100%" viewBox="0 0 1729 166" version="1.1" xmlns="http://www.w3.org/2000/svg" xmlns:xlink="http://www.w3.org/1999/xlink" xml:space="preserve" xmlns:serif="http://www.serif.com/" style="fill-rule:evenodd;clip-rule:evenodd;stroke-linejoin:round;stroke-miterlimit:2;">
    <g transform="matrix(1,0,0,1,-337.570359,-7085.128816)">
        <g transform="matrix(4.166667,0,0,4.166667,0,3946.359375)">
            <g transform="matrix(0.24,0,0,0.24,148.9027,592.029911)">
                <g transform="matrix(220.84625,0,0,220.84625,121.0825,834.809122)">
                    <path d="M0.02,-0L0.141,-0.728L0.426,-0.728C0.479,-0.728 0.522,-0.719 0.556,-0.702C0.589,-0.685 0.613,-0.662 0.626,-0.633C0.64,-0.603 0.644,-0.57 0.638,-0.532C0.633,-0.505 0.624,-0.481 0.608,-0.461C0.593,-0.441 0.574,-0.424 0.552,-0.411C0.53,-0.398 0.505,-0.389 0.479,-0.383L0.479,-0.377C0.506,-0.376 0.531,-0.368 0.553,-0.352C0.575,-0.337 0.592,-0.316 0.602,-0.289C0.613,-0.261 0.616,-0.229 0.61,-0.192C0.604,-0.154 0.589,-0.121 0.566,-0.093C0.543,-0.064 0.512,-0.041 0.473,-0.025C0.434,-0.008 0.387,-0 0.332,-0L0.02,-0ZM0.19,-0.122L0.315,-0.122C0.359,-0.122 0.393,-0.132 0.418,-0.151C0.442,-0.171 0.457,-0.195 0.462,-0.225C0.465,-0.244 0.463,-0.261 0.456,-0.275C0.448,-0.289 0.437,-0.3 0.42,-0.308C0.404,-0.316 0.384,-0.32 0.359,-0.32L0.223,-0.32L0.19,-0.122ZM0.24,-0.422L0.353,-0.422C0.374,-0.422 0.394,-0.426 0.413,-0.435C0.432,-0.443 0.448,-0.455 0.461,-0.471C0.474,-0.486 0.482,-0.505 0.486,-0.526C0.49,-0.55 0.484,-0.57 0.469,-0.584C0.455,-0.599 0.43,-0.606 0.394,-0.606L0.27,-0.606L0.24,-0.422Z" style="fill:white;fill-rule:nonzero;"/>
                </g>
                <g transform="matrix(220.84625,0,0,220.84625,270.238195,834.809122)">
                    <path d="M-0.022,-0L0.348,-0.728L0.543,-0.728L0.677,-0L0.518,-0L0.459,-0.351C0.453,-0.395 0.447,-0.444 0.441,-0.499C0.436,-0.553 0.43,-0.613 0.425,-0.676L0.457,-0.676C0.432,-0.614 0.408,-0.555 0.385,-0.501C0.363,-0.446 0.341,-0.396 0.32,-0.351L0.149,-0L-0.022,-0ZM0.162,-0.169L0.181,-0.286L0.569,-0.286L0.55,-0.169L0.162,-0.169Z" style="fill:white;fill-rule:nonzero;"/>
                </g>
                <g transform="matrix(220.84625,0,0,220.84625,448.715186,834.809122)">
                    <path d="M0.295,0.011C0.237,0.011 0.187,0.002 0.145,-0.016C0.104,-0.034 0.073,-0.06 0.053,-0.096C0.033,-0.131 0.026,-0.174 0.033,-0.226L0.178,-0.226C0.176,-0.201 0.18,-0.181 0.19,-0.164C0.2,-0.148 0.215,-0.136 0.235,-0.127C0.254,-0.119 0.278,-0.115 0.305,-0.115C0.331,-0.115 0.355,-0.119 0.376,-0.127C0.397,-0.135 0.414,-0.145 0.428,-0.159C0.441,-0.173 0.449,-0.189 0.452,-0.208C0.455,-0.225 0.452,-0.239 0.445,-0.25C0.437,-0.261 0.424,-0.27 0.407,-0.279C0.389,-0.287 0.368,-0.294 0.342,-0.3L0.265,-0.32C0.208,-0.335 0.164,-0.358 0.133,-0.389C0.103,-0.421 0.092,-0.464 0.101,-0.518C0.108,-0.562 0.125,-0.6 0.153,-0.633C0.18,-0.666 0.215,-0.692 0.258,-0.71C0.3,-0.728 0.348,-0.737 0.401,-0.737C0.455,-0.737 0.501,-0.728 0.539,-0.71C0.578,-0.691 0.607,-0.666 0.625,-0.633C0.644,-0.601 0.65,-0.563 0.644,-0.52L0.5,-0.52C0.502,-0.549 0.494,-0.572 0.474,-0.588C0.455,-0.604 0.426,-0.612 0.389,-0.612C0.363,-0.612 0.341,-0.608 0.322,-0.601C0.303,-0.594 0.288,-0.584 0.277,-0.571C0.265,-0.559 0.258,-0.544 0.255,-0.528C0.252,-0.51 0.255,-0.495 0.264,-0.484C0.273,-0.472 0.285,-0.462 0.302,-0.455C0.319,-0.447 0.337,-0.441 0.357,-0.436L0.419,-0.42C0.449,-0.413 0.476,-0.403 0.5,-0.392C0.525,-0.38 0.545,-0.366 0.562,-0.349C0.579,-0.332 0.591,-0.312 0.599,-0.288C0.606,-0.265 0.607,-0.238 0.602,-0.207C0.595,-0.163 0.578,-0.125 0.552,-0.092C0.526,-0.059 0.492,-0.034 0.449,-0.016C0.406,0.002 0.354,0.011 0.295,0.011Z" style="fill:white;fill-rule:nonzero;"/>
                </g>
                <g transform="matrix(220.84625,0,0,220.84625,598.281461,834.809122)">
                    <path d="M0.02,-0L0.141,-0.728L0.628,-0.728L0.608,-0.604L0.27,-0.604L0.241,-0.428L0.553,-0.428L0.532,-0.307L0.22,-0.307L0.19,-0.123L0.529,-0.123L0.508,-0L0.02,-0Z" style="fill:white;fill-rule:nonzero;"/>
                </g>
                <g transform="matrix(220.84625,0,0,220.84625,738.638643,834.809122)">
                    <path d="M0.345,0.01C0.287,0.01 0.237,-0.002 0.193,-0.025C0.15,-0.048 0.116,-0.082 0.092,-0.126C0.067,-0.171 0.055,-0.224 0.055,-0.287C0.055,-0.346 0.064,-0.403 0.083,-0.457C0.102,-0.511 0.128,-0.559 0.163,-0.601C0.198,-0.643 0.24,-0.676 0.288,-0.701C0.337,-0.725 0.392,-0.737 0.453,-0.737C0.495,-0.737 0.533,-0.732 0.567,-0.72C0.602,-0.709 0.632,-0.692 0.657,-0.67C0.682,-0.648 0.701,-0.621 0.714,-0.589C0.726,-0.557 0.732,-0.52 0.731,-0.479L0.58,-0.479C0.58,-0.499 0.577,-0.516 0.571,-0.532C0.565,-0.547 0.556,-0.561 0.545,-0.571C0.533,-0.582 0.52,-0.591 0.504,-0.596C0.488,-0.602 0.47,-0.605 0.45,-0.605C0.41,-0.605 0.375,-0.596 0.345,-0.577C0.314,-0.559 0.288,-0.534 0.268,-0.503C0.247,-0.472 0.231,-0.438 0.221,-0.401C0.21,-0.363 0.205,-0.326 0.205,-0.288C0.205,-0.252 0.211,-0.221 0.223,-0.197C0.235,-0.172 0.253,-0.153 0.275,-0.141C0.297,-0.129 0.323,-0.123 0.354,-0.123C0.375,-0.123 0.396,-0.125 0.416,-0.131C0.436,-0.137 0.454,-0.145 0.47,-0.156C0.487,-0.167 0.502,-0.18 0.514,-0.196C0.527,-0.211 0.536,-0.229 0.543,-0.249L0.694,-0.249C0.684,-0.215 0.669,-0.183 0.648,-0.152C0.627,-0.121 0.602,-0.093 0.572,-0.069C0.542,-0.045 0.508,-0.025 0.47,-0.011C0.431,0.003 0.39,0.01 0.345,0.01Z" style="fill:white;fill-rule:nonzero;"/>
                </g>
                <g transform="matrix(220.84625,0,0,220.84625,896.729876,834.809122)">
                    <path d="M-0.022,-0L0.348,-0.728L0.543,-0.728L0.677,-0L0.518,-0L0.459,-0.351C0.453,-0.395 0.447,-0.444 0.441,-0.499C0.436,-0.553 0.43,-0.613 0.425,-0.676L0.457,-0.676C0.432,-0.614 0.408,-0.555 0.385,-0.501C0.363,-0.446 0.341,-0.396 0.32,-0.351L0.149,-0L-0.022,-0ZM0.162,-0.169L0.181,-0.286L0.569,-0.286L0.55,-0.169L0.162,-0.169Z" style="fill:white;fill-rule:nonzero;"/>
                </g>
                <g transform="matrix(220.84625,0,0,220.84625,1084.821789,834.809122)">
                    <path d="M0.02,-0L0.141,-0.728L0.37,-0.728L0.432,-0.394C0.435,-0.378 0.437,-0.358 0.439,-0.333C0.441,-0.308 0.443,-0.281 0.445,-0.252C0.447,-0.224 0.449,-0.196 0.45,-0.169C0.451,-0.142 0.452,-0.119 0.452,-0.099L0.423,-0.099C0.43,-0.119 0.439,-0.143 0.449,-0.17C0.459,-0.197 0.47,-0.225 0.481,-0.253C0.492,-0.282 0.503,-0.308 0.514,-0.333C0.524,-0.358 0.533,-0.378 0.54,-0.394L0.712,-0.728L0.941,-0.728L0.821,-0L0.671,-0L0.728,-0.343C0.73,-0.359 0.734,-0.38 0.739,-0.404C0.743,-0.428 0.748,-0.454 0.753,-0.482C0.759,-0.509 0.764,-0.537 0.769,-0.564C0.775,-0.592 0.779,-0.618 0.783,-0.641L0.793,-0.641C0.782,-0.614 0.77,-0.586 0.758,-0.557C0.746,-0.528 0.733,-0.5 0.721,-0.473C0.709,-0.446 0.698,-0.422 0.687,-0.399C0.677,-0.377 0.668,-0.358 0.661,-0.343L0.483,-0L0.358,-0L0.292,-0.343C0.289,-0.363 0.285,-0.389 0.281,-0.421C0.277,-0.454 0.272,-0.489 0.268,-0.528C0.264,-0.566 0.26,-0.604 0.256,-0.641L0.268,-0.641C0.265,-0.617 0.261,-0.591 0.257,-0.563C0.253,-0.535 0.249,-0.508 0.245,-0.48C0.241,-0.453 0.238,-0.427 0.234,-0.403C0.231,-0.379 0.228,-0.359 0.225,-0.343L0.169,-0L0.02,-0Z" style="fill:white;fill-rule:nonzero;"/>
                </g>
                <g transform="matrix(220.84625,0,0,220.84625,1302.23949,834.809122)">
                    <path d="M0.02,-0L0.141,-0.728L0.425,-0.728C0.48,-0.728 0.525,-0.717 0.56,-0.696C0.595,-0.675 0.62,-0.646 0.635,-0.61C0.649,-0.573 0.652,-0.53 0.644,-0.482C0.637,-0.434 0.619,-0.392 0.592,-0.355C0.566,-0.318 0.531,-0.29 0.488,-0.269C0.445,-0.248 0.396,-0.238 0.34,-0.238L0.158,-0.238L0.178,-0.358L0.336,-0.358C0.367,-0.358 0.393,-0.363 0.415,-0.374C0.436,-0.385 0.453,-0.399 0.466,-0.418C0.478,-0.437 0.487,-0.458 0.491,-0.482C0.495,-0.507 0.493,-0.528 0.487,-0.546C0.48,-0.565 0.468,-0.579 0.45,-0.589C0.432,-0.599 0.407,-0.605 0.377,-0.605L0.27,-0.605L0.17,-0L0.02,-0Z" style="fill:white;fill-rule:nonzero;"/>
                </g>
                <g transform="matrix(220.84625,0,0,220.84625,1445.325779,834.809122)">
                </g>
            </g>
        </g>
        <g transform="matrix(4.166667,0,0,4.166667,0,3946.359375)">
            <g transform="matrix(0.24,0,0,0.24,60.668976,572.904928)">
                <g transform="matrix(220.84625,0,0,220.84625,79.8276,914.496548)">
                    <path d="M0.346,-0L0.478,-0.728L0.588,-0.728L0.457,-0L0.346,-0ZM0.022,-0.182L0.043,-0.293L0.61,-0.293L0.589,-0.182L0.022,-0.182ZM0.09,-0L0.222,-0.728L0.333,-0.728L0.201,-0L0.09,-0ZM0.069,-0.434L0.09,-0.546L0.656,-0.546L0.635,-0.434L0.069,-0.434Z" style="fill:white;fill-rule:nonzero;"/>
                </g>
                <g transform="matrix(220.84625,0,0,220.84625,223.125189,914.496548)">
                </g>
            </g>
        </g>
        <g transform="matrix(4.166667,0,0,4.166667,0,3946.359375)">
            <g transform="matrix(1,0,0,1,126.7376,792.3832)">
                <path d="M0,-38.519L-3.137,-29.68L17.867,-29.691L-7.235,-8.526L-4.209,0L23.298,0L20.521,-7.825L4.777,-7.825L23.199,-18.092L30.445,-38.519L0,-38.519Z" style="fill:rgb(227,6,19);fill-rule:nonzero;"/>
            </g>
        </g>
        <g transform="matrix(4.166667,0,0,4.166667,0,3946.359375)">
            <g transform="matrix(1,0,0,1,160.977,792.3832)">
                <path d="M0,-38.519L-10.409,-9.191L-7.147,0L9.888,0L11.57,-10.191L-0.063,-6.518L7.294,-35.093L0,-38.519Z" style="fill:rgb(227,6,19);fill-rule:nonzero;"/>
            </g>
        </g>
    </g>
</svg>
