<?xml version="1.0" encoding="UTF-8" standalone="no"?>
<!DOCTYPE svg PUBLIC "-//W3C//DTD SVG 1.1//EN" "http://www.w3.org/Graphics/SVG/1.1/DTD/svg11.dtd">
<svg width="100%" height="100%" viewBox="0 0 1345 369" version="1.1" xmlns="http://www.w3.org/2000/svg" xmlns:xlink="http://www.w3.org/1999/xlink" xml:space="preserve" xmlns:serif="http://www.serif.com/" style="fill-rule:evenodd;clip-rule:evenodd;stroke-linejoin:round;stroke-miterlimit:2;">
    <g transform="matrix(4.166667,0,0,4.166667,0,0)">
        <path d="M129.06,88.03L134.02,58.1L146.79,58.1C149.07,58.1 150.94,58.44 152.41,59.11C153.88,59.79 154.93,60.73 155.55,61.93C156.17,63.14 156.36,64.52 156.1,66.09C155.93,67.13 155.51,68.08 154.85,68.92C154.19,69.76 153.37,70.47 152.38,71.04C151.39,71.61 150.3,72.01 149.13,72.23L149.13,72.35C150.4,72.42 151.52,72.78 152.47,73.44C153.43,74.1 154.13,75 154.57,76.12C155.01,77.24 155.11,78.56 154.85,80.06C154.6,81.6 153.97,82.97 152.98,84.17C151.99,85.37 150.68,86.31 149.05,86.99C147.42,87.67 145.53,88.01 143.36,88.01L129.04,88.01L129.06,88.03ZM138.23,81.69L142.29,81.69C143.45,81.69 144.42,81.4 145.19,80.82C145.96,80.24 146.43,79.45 146.59,78.46C146.7,77.84 146.64,77.33 146.43,76.9C146.22,76.48 145.86,76.15 145.38,75.93C144.89,75.7 144.28,75.59 143.54,75.59L139.24,75.59L138.24,81.7L138.23,81.69ZM140.16,70.06L143.71,70.06C144.37,70.06 144.97,69.94 145.53,69.7C146.09,69.46 146.54,69.11 146.91,68.65C147.28,68.19 147.51,67.64 147.61,67.01C147.74,66.19 147.56,65.56 147.07,65.11C146.57,64.66 145.85,64.44 144.9,64.44L141.08,64.44L140.16,70.06ZM218.65,88.03L223.61,58.1L231.97,58.1L230.91,64.53L229.42,73.15L228.82,77.11L227.01,88.04L218.65,88.04L218.65,88.03ZM225.6,83.33L226.64,74.63C227.44,73.59 228.22,72.6 228.98,71.67C229.74,70.74 230.53,69.8 231.37,68.86C232.21,67.92 233.14,66.9 234.17,65.8L241.4,58.11L251.42,58.11L236.36,73.51L235.62,73.37L225.6,83.33ZM237.95,88.03L232.73,76L238.33,69.87L247.03,88.03L237.95,88.03ZM262.41,58.11L257.45,88.04L249.2,88.04L254.16,58.11L262.41,58.11ZM260.95,88.03L265.91,58.1L274.59,58.1L279.85,69.85C280.18,70.59 280.53,71.42 280.87,72.36C281.22,73.3 281.57,74.32 281.91,75.42C282.26,76.52 282.57,77.69 282.85,78.9L281.77,80.19C281.89,79.11 282.03,77.86 282.19,76.46C282.35,75.06 282.52,73.69 282.7,72.35C282.88,71.01 283.04,69.91 283.17,69.06L285,58.09L293.36,58.09L288.4,88.02L279.74,88.02L274.82,77.09C274.4,76.17 273.99,75.18 273.59,74.14C273.18,73.1 272.77,71.95 272.35,70.72C271.93,69.49 271.51,68.15 271.08,66.73L272.41,66.45C272.29,67.86 272.15,69.25 271.99,70.62C271.83,71.99 271.67,73.24 271.52,74.37C271.37,75.49 271.23,76.41 271.11,77.1L269.3,88.03L260.94,88.03L260.95,88.03ZM306.28,88.48C303.63,88.48 301.35,87.98 299.45,86.98C297.55,85.98 296.08,84.55 295.05,82.69C294.02,80.83 293.5,78.61 293.5,76.04C293.5,73.47 293.9,71.15 294.71,68.93C295.52,66.71 296.67,64.75 298.16,63.07C299.65,61.39 301.44,60.06 303.51,59.1C305.59,58.14 307.89,57.66 310.42,57.66C312.17,57.66 313.81,57.9 315.33,58.37C316.85,58.85 318.17,59.55 319.3,60.47C320.43,61.39 321.28,62.51 321.88,63.8C322.48,65.1 322.71,66.57 322.57,68.22L314.19,68.22C314.16,67.68 314.07,67.21 313.9,66.78C313.73,66.36 313.49,66 313.17,65.71C312.85,65.42 312.45,65.19 311.99,65.04C311.52,64.89 310.97,64.81 310.32,64.81C308.86,64.81 307.6,65.14 306.52,65.81C305.44,66.48 304.56,67.36 303.87,68.45C303.18,69.54 302.66,70.74 302.31,72.05C301.97,73.36 301.8,74.66 301.8,75.95C301.8,77.7 302.22,79.04 303.05,79.95C303.88,80.86 305.14,81.32 306.83,81.32C308.09,81.32 309.18,81.12 310.11,80.73C311.04,80.34 311.79,79.79 312.36,79.1C312.93,78.41 313.29,77.64 313.44,76.78L314.95,77.2L307.94,77.2L308.9,71.32L322.34,71.32L321.62,75.82C321.29,77.82 320.67,79.6 319.77,81.16C318.87,82.73 317.75,84.05 316.41,85.14C315.07,86.23 313.53,87.05 311.81,87.62C310.09,88.19 308.24,88.47 306.28,88.47L306.28,88.48Z" style="fill:white;fill-rule:nonzero;"/>
    </g>
    <g transform="matrix(4.166667,0,0,4.166667,0,0)">
        <g>
            <path d="M16.54,0L9.37,20.21L57.39,20.18L0,68.57L6.92,88.07L72.81,88.07L66.46,70.18L30.46,70.18L69.99,53.98L89.15,0L16.54,0Z" style="fill:rgb(226,14,23);fill-rule:nonzero;"/>
            <path d="M97.82,0L74.03,67.05L81.48,88.07L120.43,88.07L124.73,62.08L97.68,73.16L114.5,7.83L97.82,0Z" style="fill:rgb(226,14,23);fill-rule:nonzero;"/>
        </g>
        <path d="M188.86,74.25L188.04,88.11L212.47,87.31L216,71.35L216.24,58.19L191.42,58.17L188.86,74.24L188.86,74.25ZM197.58,71.05L194.66,67.28L195.93,63.35L200.41,68.34L202.03,70.44L204.5,68.32L208.73,63.56L212.19,66.67L207.2,71.15L204.3,73.39L210.22,81.07L207.95,83.19L201.45,75.59L194.47,80.98L192.35,78.71L199.15,72.9L197.57,71.06L197.58,71.05Z" style="fill:white;fill-rule:nonzero;"/>
        <path d="M158.4,73.82L157.58,87.68L182.22,88.39L185.54,70.92L185.78,57.76L160.96,57.74L158.4,73.81L158.4,73.82ZM167.33,71.44L164.41,67.67L165.68,63.74L170.16,68.73L171.78,70.83L174.25,68.71L178.49,63.95L181.95,67.06L176.96,71.54L174.06,73.78L179.98,81.46L177.72,83.58L171.21,75.98L164.23,81.37L162.11,79.1L168.91,73.29L167.33,71.45L167.33,71.44Z" style="fill:white;fill-rule:nonzero;"/>
    </g>
</svg>
