<?xml version="1.0" encoding="UTF-8" standalone="no"?>
<!DOCTYPE svg PUBLIC "-//W3C//DTD SVG 1.1//EN" "http://www.w3.org/Graphics/SVG/1.1/DTD/svg11.dtd">
<svg width="100%" height="100%" viewBox="0 0 1375 182" version="1.1" xmlns="http://www.w3.org/2000/svg" xmlns:xlink="http://www.w3.org/1999/xlink" xml:space="preserve" xmlns:serif="http://www.serif.com/" style="fill-rule:evenodd;clip-rule:evenodd;stroke-linejoin:round;stroke-miterlimit:2;">
    <g transform="matrix(1,0,0,1,-510.109804,-6755.254578)">
        <g transform="matrix(4.166667,0,0,4.166667,0,3946.359375)">
            <g transform="matrix(0.24,0,0,0.24,176.234272,512.342485)">
                <g transform="matrix(249.54875,0,0,249.54875,231.8872,855.691312)">
                    <path d="M0.02,-0L0.141,-0.728L0.62,-0.728L0.599,-0.604L0.27,-0.604L0.236,-0.4L0.533,-0.4L0.513,-0.279L0.216,-0.279L0.17,-0L0.02,-0Z" style="fill:white;fill-rule:nonzero;"/>
                </g>
                <g transform="matrix(249.54875,0,0,249.54875,354.109291,855.691312)">
                    <path d="M-0.022,-0L0.348,-0.728L0.543,-0.728L0.677,-0L0.518,-0L0.459,-0.351C0.453,-0.395 0.447,-0.444 0.441,-0.499C0.436,-0.553 0.43,-0.613 0.425,-0.676L0.457,-0.676C0.432,-0.614 0.408,-0.555 0.385,-0.501C0.363,-0.446 0.341,-0.396 0.32,-0.351L0.149,-0L-0.022,-0ZM0.162,-0.169L0.181,-0.286L0.569,-0.286L0.55,-0.169L0.162,-0.169Z" style="fill:white;fill-rule:nonzero;"/>
                </g>
                <g transform="matrix(249.54875,0,0,249.54875,538.854432,855.691312)">
                    <path d="M0.02,-0L0.141,-0.728L0.37,-0.728L0.432,-0.394C0.435,-0.378 0.437,-0.358 0.439,-0.333C0.441,-0.308 0.443,-0.281 0.445,-0.252C0.447,-0.224 0.449,-0.196 0.45,-0.169C0.451,-0.142 0.452,-0.119 0.452,-0.099L0.423,-0.099C0.43,-0.119 0.439,-0.143 0.449,-0.17C0.459,-0.197 0.47,-0.225 0.481,-0.253C0.492,-0.282 0.503,-0.308 0.514,-0.333C0.524,-0.358 0.533,-0.378 0.54,-0.394L0.712,-0.728L0.941,-0.728L0.821,-0L0.671,-0L0.728,-0.343C0.73,-0.359 0.734,-0.38 0.739,-0.404C0.743,-0.428 0.748,-0.454 0.753,-0.482C0.759,-0.509 0.764,-0.537 0.769,-0.564C0.775,-0.592 0.779,-0.618 0.783,-0.641L0.793,-0.641C0.782,-0.614 0.77,-0.586 0.758,-0.557C0.746,-0.528 0.733,-0.5 0.721,-0.473C0.709,-0.446 0.698,-0.422 0.687,-0.399C0.677,-0.377 0.668,-0.358 0.661,-0.343L0.483,-0L0.358,-0L0.292,-0.343C0.289,-0.363 0.285,-0.389 0.281,-0.421C0.277,-0.454 0.272,-0.489 0.268,-0.528C0.264,-0.566 0.26,-0.604 0.256,-0.641L0.268,-0.641C0.265,-0.617 0.261,-0.591 0.257,-0.563C0.253,-0.535 0.249,-0.508 0.245,-0.48C0.241,-0.453 0.238,-0.427 0.234,-0.403C0.231,-0.379 0.228,-0.359 0.225,-0.343L0.169,-0L0.02,-0Z" style="fill:white;fill-rule:nonzero;"/>
                </g>
                <g transform="matrix(249.54875,0,0,249.54875,784.529038,855.691312)">
                    <path d="M0.29,-0.728L0.17,-0L0.02,-0L0.141,-0.728L0.29,-0.728Z" style="fill:white;fill-rule:nonzero;"/>
                </g>
                <g transform="matrix(249.54875,0,0,249.54875,860.174355,855.691312)">
                    <path d="M0.02,-0L0.141,-0.728L0.29,-0.728L0.19,-0.124L0.504,-0.124L0.483,-0L0.02,-0Z" style="fill:white;fill-rule:nonzero;"/>
                </g>
                <g transform="matrix(249.54875,0,0,249.54875,955.072091,855.691312)">
                    <path d="M0.248,-0L0.293,-0.274L0.099,-0.728L0.266,-0.728L0.352,-0.501C0.36,-0.478 0.368,-0.455 0.374,-0.433C0.38,-0.411 0.386,-0.384 0.391,-0.353L0.358,-0.353C0.373,-0.384 0.388,-0.411 0.401,-0.434C0.414,-0.456 0.429,-0.479 0.444,-0.501L0.601,-0.728L0.782,-0.728L0.442,-0.274L0.396,-0L0.248,-0Z" style="fill:white;fill-rule:nonzero;"/>
                </g>
                <g transform="matrix(249.54875,0,0,249.54875,1137.471226,855.691312)">
                </g>
            </g>
        </g>
        <g transform="matrix(4.166667,0,0,4.166667,0,3946.359375)">
            <g transform="matrix(0.24,0,0,0.24,92.0227,512.342485)">
                <g transform="matrix(249.54875,0,0,249.54875,121.0825,855.691312)">
                    <path d="M0.346,-0L0.478,-0.728L0.588,-0.728L0.457,-0L0.346,-0ZM0.022,-0.182L0.043,-0.293L0.61,-0.293L0.589,-0.182L0.022,-0.182ZM0.09,-0L0.222,-0.728L0.333,-0.728L0.201,-0L0.09,-0ZM0.069,-0.434L0.09,-0.546L0.656,-0.546L0.635,-0.434L0.069,-0.434Z" style="fill:white;fill-rule:nonzero;"/>
                </g>
                <g transform="matrix(249.54875,0,0,249.54875,283.003901,855.691312)">
                </g>
            </g>
        </g>
        <g transform="matrix(4.166667,0,0,4.166667,0,3946.359375)">
            <g transform="matrix(1,0,0,1,174.0897,717.7067)">
                <path d="M0,-43.525L-3.545,-33.537L20.19,-33.55L-8.176,-9.634L-4.756,0L26.326,0L23.188,-8.842L5.398,-8.842L26.214,-20.443L34.401,-43.525L0,-43.525Z" style="fill:rgb(227,6,19);fill-rule:nonzero;"/>
            </g>
        </g>
        <g transform="matrix(4.166667,0,0,4.166667,0,3946.359375)">
            <g transform="matrix(1,0,0,1,212.779,717.7067)">
                <path d="M0,-43.525L-11.761,-10.385L-8.076,0L11.173,0L13.074,-11.516L-0.071,-7.365L8.242,-39.654L0,-43.525Z" style="fill:rgb(227,6,19);fill-rule:nonzero;"/>
            </g>
        </g>
    </g>
</svg>
