<?xml version="1.0" encoding="UTF-8" standalone="no"?>
<!DOCTYPE svg PUBLIC "-//W3C//DTD SVG 1.1//EN" "http://www.w3.org/Graphics/SVG/1.1/DTD/svg11.dtd">
<svg width="100%" height="100%" viewBox="0 0 758 119" version="1.1" xmlns="http://www.w3.org/2000/svg" xmlns:xlink="http://www.w3.org/1999/xlink" xml:space="preserve" xmlns:serif="http://www.serif.com/" style="fill-rule:evenodd;clip-rule:evenodd;stroke-linejoin:round;stroke-miterlimit:2;">
    <g transform="matrix(1,0,0,1,-130.250417,-5343.590208)">
        <g transform="matrix(4.166667,0,0,4.166667,0,3946.359375)">
            <g transform="matrix(1,0,0,1,36.3811,363.0518)">
                <path d="M0,-27.263L-2.22,-21.007L12.646,-21.015L-5.121,-6.035L-2.979,0L16.489,0L14.524,-5.539L3.381,-5.539L16.419,-12.805L21.548,-27.263L0,-27.263Z" style="fill:rgb(227,6,19);fill-rule:nonzero;"/>
            </g>
        </g>
        <g transform="matrix(4.166667,0,0,4.166667,0,3946.359375)">
            <g transform="matrix(1,0,0,1,60.6149,363.0518)">
                <path d="M0,-27.263L-7.367,-6.505L-5.058,0L6.999,0L8.189,-7.213L-0.045,-4.614L5.162,-24.838L0,-27.263Z" style="fill:rgb(227,6,19);fill-rule:nonzero;"/>
            </g>
        </g>
        <g transform="matrix(4.166667,0,0,4.166667,0,3946.359375)">
            <g transform="matrix(1,0,0,1,95.3727,362.2724)">
                <path d="M0,-25.826C-1.56,-26.566 -3.448,-26.937 -5.663,-26.937C-7.829,-26.937 -9.765,-26.572 -11.472,-25.845C-13.179,-25.116 -14.574,-24.101 -15.657,-22.798C-16.74,-21.494 -17.423,-19.974 -17.704,-18.236C-18.059,-16.095 -17.646,-14.403 -16.465,-13.161C-15.284,-11.919 -13.531,-11.041 -11.206,-10.527L-8.544,-9.939C-7.565,-9.731 -6.798,-9.499 -6.241,-9.242C-5.684,-8.985 -5.299,-8.701 -5.084,-8.389C-4.871,-8.076 -4.8,-7.712 -4.873,-7.296C-4.947,-6.843 -5.152,-6.443 -5.488,-6.094C-5.825,-5.745 -6.278,-5.472 -6.847,-5.277C-7.416,-5.081 -8.098,-4.984 -8.893,-4.984C-9.848,-4.984 -10.64,-5.13 -11.27,-5.424C-11.901,-5.717 -12.357,-6.151 -12.638,-6.727C-12.92,-7.302 -13.011,-8.006 -12.913,-8.838L-19.962,-8.838C-20.329,-6.55 -20.108,-4.671 -19.301,-3.203C-18.493,-1.734 -17.227,-0.648 -15.501,0.055C-13.776,0.759 -11.726,1.111 -9.352,1.111C-7.039,1.111 -5.039,0.787 -3.35,0.138C-1.661,-0.511 -0.306,-1.462 0.716,-2.717C1.738,-3.971 2.395,-5.497 2.689,-7.296C2.86,-8.336 2.854,-9.294 2.671,-10.169C2.487,-11.043 2.111,-11.836 1.542,-12.546C0.973,-13.256 0.19,-13.87 -0.807,-14.391C-1.805,-14.911 -3.032,-15.336 -4.488,-15.666L-6.636,-16.143C-7.468,-16.328 -8.135,-16.539 -8.636,-16.777C-9.138,-17.016 -9.49,-17.297 -9.692,-17.621C-9.893,-17.945 -9.958,-18.322 -9.884,-18.75C-9.811,-19.154 -9.634,-19.515 -9.352,-19.833C-9.071,-20.151 -8.67,-20.399 -8.15,-20.576C-7.63,-20.754 -6.99,-20.843 -6.232,-20.843C-5.033,-20.843 -4.176,-20.595 -3.662,-20.099C-3.148,-19.604 -2.934,-18.909 -3.019,-18.016L4.103,-18.016C4.384,-19.802 4.16,-21.366 3.433,-22.706C2.705,-24.046 1.56,-25.086 0,-25.826" style="fill:white;fill-rule:nonzero;"/>
            </g>
        </g>
        <g transform="matrix(4.166667,0,0,4.166667,0,3946.359375)">
            <g transform="matrix(1,0,0,1,125.6059,363.053)">
                <path d="M0,-27.35L-23.753,-27.35L-24.744,-21.367L-16.575,-21.367L-20.118,0L-12.702,0L-9.16,-21.367L-0.991,-21.367L0,-27.35Z" style="fill:white;fill-rule:nonzero;"/>
            </g>
        </g>
        <g transform="matrix(4.166667,0,0,4.166667,0,3946.359375)">
            <g transform="matrix(1,0,0,1,143.4581,363.383)">
                <path d="M0,-27.68L-2.754,-11.032C-2.888,-10.187 -3.222,-9.416 -3.754,-8.719C-4.286,-8.021 -4.947,-7.464 -5.736,-7.049C-6.525,-6.632 -7.379,-6.424 -8.297,-6.424C-9.08,-6.424 -9.744,-6.593 -10.288,-6.929C-10.833,-7.266 -11.222,-7.743 -11.454,-8.361C-11.687,-8.979 -11.736,-9.71 -11.601,-10.555L-8.774,-27.68L-16.19,-27.68L-19.053,-10.407C-19.396,-8.327 -19.188,-6.504 -18.429,-4.937C-17.671,-3.371 -16.447,-2.157 -14.758,-1.294C-13.069,-0.431 -11.02,0 -8.609,0C-6.321,0 -4.252,-0.391 -2.405,-1.175C-0.557,-1.958 0.967,-3.093 2.166,-4.58C3.365,-6.066 4.136,-7.85 4.479,-9.93L7.416,-27.68L0,-27.68Z" style="fill:white;fill-rule:nonzero;"/>
            </g>
        </g>
        <g transform="matrix(4.166667,0,0,4.166667,0,3946.359375)">
            <g transform="matrix(1,0,0,1,167.6607,349.3603)">
                <path d="M0,0.036C-0.305,1.932 -0.801,3.416 -1.487,4.487C-2.171,5.558 -3.028,6.308 -4.056,6.736C-5.084,7.164 -6.277,7.378 -7.635,7.378L-10.462,7.378L-8.021,-7.343L-5.268,-7.343C-3.836,-7.343 -2.673,-7.126 -1.78,-6.692C-0.886,-6.257 -0.287,-5.504 0.019,-4.434C0.325,-3.363 0.319,-1.873 0,0.036M6.93,-7.306C6.103,-9.35 4.736,-10.919 2.827,-12.015C0.918,-13.11 -1.443,-13.657 -4.258,-13.657L-14.391,-13.657L-18.924,13.693L-7.508,13.693C-4.729,13.693 -2.309,13.148 -0.247,12.059C1.815,10.97 3.498,9.403 4.801,7.36C6.103,5.316 6.988,2.875 7.452,0.036C7.93,-2.816 7.756,-5.262 6.93,-7.306" style="fill:white;fill-rule:nonzero;"/>
            </g>
        </g>
        <g transform="matrix(4.166667,0,0,4.166667,0,3946.359375)">
            <g transform="matrix(-0.16351,0.986542,0.986542,0.16351,194.458057,350.191897)">
                <path d="M-11.814,-17.333L15.909,-17.333L14.697,-10.018L-13.026,-10.017L-11.814,-17.333Z" style="fill:white;fill-rule:nonzero;"/>
            </g>
        </g>
        <g transform="matrix(4.166667,0,0,4.166667,0,3946.359375)">
            <g transform="matrix(1,0,0,1,207.472,342.0343)">
                <path d="M0,15.023L-2.147,17.029L-8.302,9.831L-14.911,14.929L-16.917,12.783L-10.484,7.281L-11.978,5.535L-14.741,1.966L-13.54,-1.753L-9.297,2.969L-7.764,4.954L-5.422,2.951L-1.414,-1.551L1.865,1.389L-2.857,5.632L-5.606,7.753L0,15.023ZM-17.808,-6.656L-20.229,8.558L-21.005,21.679L2.125,20.922L5.466,5.812L5.689,-6.642L-17.808,-6.656Z" style="fill:white;fill-rule:nonzero;"/>
            </g>
        </g>
    </g>
</svg>
