<?xml version="1.0" encoding="UTF-8" standalone="no"?>
<svg
   width="181.297"
   height="24.997601"
   viewBox="0 0 181.297 24.997601"
   fill="none"
   version="1.1"
   id="svg19"
   sodipodi:docname="logo-with-text.svg"
   inkscape:version="1.4.2 (f4327f4, 2025-05-13)"
   xmlns:inkscape="http://www.inkscape.org/namespaces/inkscape"
   xmlns:sodipodi="http://sodipodi.sourceforge.net/DTD/sodipodi-0.dtd"
   xmlns="http://www.w3.org/2000/svg"
   xmlns:svg="http://www.w3.org/2000/svg">
  <defs
     id="defs19" />
  <sodipodi:namedview
     id="namedview19"
     pagecolor="#505050"
     bordercolor="#eeeeee"
     borderopacity="1"
     inkscape:showpageshadow="0"
     inkscape:pageopacity="0"
     inkscape:pagecheckerboard="0"
     inkscape:deskcolor="#505050"
     inkscape:zoom="9.978022"
     inkscape:cx="50.962004"
     inkscape:cy="12.477423"
     inkscape:window-width="1920"
     inkscape:window-height="1129"
     inkscape:window-x="-8"
     inkscape:window-y="-8"
     inkscape:window-maximized="1"
     inkscape:current-layer="svg19" />
  <g
     id="g19">
    <path
       d="M 97.3904,24.4882 V 4.17216 l 8.9906,20.31604 h 1.658 L 117.008,4.17216 V 24.4882 h 2.355 V 0.649414 h -3.406 L 107.198,20.4988 98.3733,0.649414 H 94.9609 V 24.4882 Z"
       fill="#8b6f4c"
       id="path1" />
    <path
       d="m 165.418,0.649414 h -3.176 V 24.4882 h 2.334 V 3.73296 l 13.917,20.75524 h 2.804 V 0.649414 h -2.359 V 20.9624 Z"
       fill="#8b6f4c"
       id="path2" />
    <path
       d="m 147.483,0.140137 c -6.868,0 -12.538,5.608953 -12.538,12.428763 0,6.8198 5.673,12.4287 12.538,12.4287 6.865,0 12.565,-5.6089 12.565,-12.4287 0,-6.81981 -5.676,-12.428763 -12.565,-12.428763 z m 0,22.466263 c -5.581,0 -10.203,-4.4957 -10.203,-10.0406 0,-5.54486 4.622,-10.04056 10.203,-10.04056 5.581,0 10.206,4.49875 10.206,10.04056 0,5.5419 -4.601,10.0406 -10.206,10.0406 z"
       fill="#8b6f4c"
       id="path3" />
    <path
       d="m 125.414,12.4041 c -2.663,-0.7411 -4.459,-3.22076 -4.459,-5.91391 0,-3.43125 2.801,-6.212846 6.281,-6.212846 3.48,0 6.256,2.781596 6.256,6.212846 v 0.1647 h -2.334 v -0.1647 c 0,-2.1777 -1.751,-3.89485 -3.922,-3.89485 -2.172,0 -3.947,1.71715 -3.947,3.89485 0,1.71715 1.145,3.22385 2.801,3.75761 l 2.942,0.8784 c 2.967,0.8387 5.071,3.5258 5.071,6.6093 0,3.7363 -3.108,6.8168 -6.96,6.8168 -3.851,0 -6.959,-3.0836 -6.959,-6.8168 0,0 0,-0.0671 0.095,-0.0671 h 2.334 c -0.067,0 -0.067,0.0671 -0.067,0.0671 0,2.4614 2.03,4.4988 4.597,4.4988 2.568,0 4.626,-2.0374 4.626,-4.4988 0,-2.016 -1.354,-3.7545 -3.339,-4.3584 l -3.013,-0.976 z"
       fill="#8b6f4c"
       id="path4" />
    <path
       d="M 64.3502,0.902563 C 63.5332,0.740913 62.6916,0.649414 61.8531,0.649414 H 54.7305 V 24.4882 h 7.1226 c 0.8385,0 1.6801,-0.0945 2.4971,-0.2562 5.4426,-1.1346 9.5276,-5.9139 9.5276,-11.6632 0,-5.74924 -4.085,-10.52859 -9.5276,-11.666237 z m 0,20.846737 c -0.7955,0.2105 -1.634,0.3264 -2.4971,0.3264 H 57.16 V 3.06196 h 4.6931 c 0.8631,0 1.7016,0.09455 2.4971,0.2989 4.1341,1.0919 7.1718,4.8007 7.1718,9.20794 0,4.4073 -3.0346,8.1161 -7.1718,9.1836 z"
       fill="#8b6f4c"
       id="path5" />
    <path
       d="M 83.7074,0.649414 H 81.3485 L 71.6797,24.4882 h 2.4971 l 3.2465,-7.9544 h 10.2063 l 3.1759,7.9544 h 2.5677 L 83.7043,0.649414 Z M 82.4942,14.2128 H 78.3355 L 82.4942,4.03186 86.6498,14.2128 Z"
       fill="#8b6f4c"
       id="path6" />
    <path
       d="M 48.0036,0.649414 47.0699,2.25066 33.875,24.4882 h 3.784 l 4.7607,-7.9544 h 7.9397 v 7.9544 h 2.3342 V 0.649414 H 48.0005 Z M 50.3624,14.2128 H 43.7773 L 50.3624,3.12906 Z"
       fill="#8b6f4c"
       id="path7" />
    <path
       fill-rule="evenodd"
       clip-rule="evenodd"
       d="m 25.9389,24.324 h -1.935 l 2.1623,-3.721 0.9675,1.6531 z"
       fill="#8b6f4c"
       id="path8" />
    <path
       fill-rule="evenodd"
       clip-rule="evenodd"
       d="m 16.3256,24.3237 h -1.935 l 6.9691,-11.956 0.9736,1.6561 z"
       fill="#8b6f4c"
       id="path9" />
    <path
       fill-rule="evenodd"
       clip-rule="evenodd"
       d="m 26.4141,24.3391 0.9521,-1.6409 0.9337,1.6409 z"
       fill="#8b6f4c"
       id="path10" />
    <path
       fill-rule="evenodd"
       clip-rule="evenodd"
       d="M 0.817,24.3238 H 0 L 14.1624,0 15.1299,1.6592 7.98264,13.911 7.44514,12.9655 Z"
       fill="#8b6f4c"
       id="path11" />
    <path
       fill-rule="evenodd"
       clip-rule="evenodd"
       d="M 3.22912,24.324 H 2.39062 L 15.3582,2.06201 16.3257,3.72121 9.19998,15.9609 8.64098,15.0154 Z"
       fill="#8b6f4c"
       id="path12" />
    <path
       fill-rule="evenodd"
       clip-rule="evenodd"
       d="M 5.62476,24.3239 H 4.80469 L 16.559,4.12988 17.5265,5.77078 10.3947,18.0226 9.83876,17.0802 Z"
       fill="#8b6f4c"
       id="path13" />
    <path
       fill-rule="evenodd"
       clip-rule="evenodd"
       d="M 8.03381,24.3238 H 7.19531 L 17.7672,6.17627 18.7193,7.83242 11.5936,20.0782 11.05,19.1388 Z"
       fill="#8b6f4c"
       id="path14" />
    <path
       fill-rule="evenodd"
       clip-rule="evenodd"
       d="M 10.4325,24.324 H 9.60938 L 18.9711,8.23828 19.9386,9.89748 12.7914,22.1463 12.2508,21.2008 Z"
       fill="#8b6f4c"
       id="path15" />
    <path
       fill-rule="evenodd"
       clip-rule="evenodd"
       d="m 12.8424,24.3237 h -0.8385 l 8.1608,-14.0239 0.9675,1.6592 -7.1319,12.2488 -0.5528,-0.9394 z"
       fill="#8b6f4c"
       id="path16" />
    <path
       fill-rule="evenodd"
       clip-rule="evenodd"
       d="m 18.7204,24.3239 4.8068,-8.2533 -0.9521,-1.6409 -5.7743,9.8942 z"
       fill="#8b6f4c"
       id="path17" />
    <path
       fill-rule="evenodd"
       clip-rule="evenodd"
       d="m 21.1303,24.3236 h -1.935 l 4.5734,-7.8324 0.9675,1.647 z"
       fill="#8b6f4c"
       id="path18" />
    <path
       fill-rule="evenodd"
       clip-rule="evenodd"
       d="m 23.529,24.3237 h -1.9196 l 3.3632,-5.7798 0.9675,1.6501 z"
       fill="#8b6f4c"
       id="path19" />
  </g>
</svg>
