<?xml version="1.0" encoding="UTF-8" standalone="no"?>
<!DOCTYPE svg PUBLIC "-//W3C//DTD SVG 1.1//EN" "http://www.w3.org/Graphics/SVG/1.1/DTD/svg11.dtd">
<svg width="100%" height="100%" viewBox="0 0 1016 141" version="1.1" xmlns="http://www.w3.org/2000/svg" xmlns:xlink="http://www.w3.org/1999/xlink" xml:space="preserve" xmlns:serif="http://www.serif.com/" style="fill-rule:evenodd;clip-rule:evenodd;stroke-linejoin:round;stroke-miterlimit:2;">
    <g transform="matrix(1,0,0,1,-1242.987442,-1991.350047)">
        <g transform="matrix(4.166667,0,0,4.166667,0,0)">
            <path d="M377.887,503.229L369.438,503.229L369.438,486.5L377.08,486.5C382.473,486.5 385.232,489.175 385.232,494.822C385.232,498.983 383.661,503.229 377.887,503.229ZM381.241,479.706L359.332,479.706L359.332,510.022L379.925,510.022C388.629,510.022 395.677,506.795 395.677,494.864C395.677,484.759 390.625,479.706 381.241,479.706Z" style="fill:white;"/>
        </g>
        <g transform="matrix(4.166667,0,0,4.166667,0,0)">
            <path d="M434.515,499.11L440.714,499.11C439.738,502.549 437.147,504.417 432.18,504.417C425.981,504.417 423.178,500.172 423.178,494.907C423.178,489.557 425.981,485.311 432.18,485.311C436.936,485.311 438.761,487.349 439.398,489.684L450.82,489.684C449.546,480.937 440.12,478.772 431.755,478.772C418.635,478.772 412.733,485.948 412.733,494.864C412.733,505.309 418.55,510.956 431.798,510.956C439.653,510.956 443.559,508.366 444.875,506.88L446.107,510.022L450.82,510.022L450.82,492.826L434.515,492.826L434.515,499.11Z" style="fill:white;"/>
        </g>
        <g transform="matrix(4.166667,0,0,4.166667,0,0)">
            <path d="M496.329,498.346C495.649,501.87 492.932,504.163 488.389,504.163C481.85,504.163 479.982,499.874 479.982,494.864C479.982,489.854 482.063,485.566 488.389,485.566C494.121,485.566 495.607,489.217 496.201,491.383L507.453,491.383C505.245,480.895 497.603,478.772 488.346,478.772C475.184,478.772 469.282,484.717 469.282,494.864C469.282,505.309 475.524,510.956 488.346,510.956C502.697,510.956 506.307,504.885 507.538,498.346L496.329,498.346Z" style="fill:white;"/>
        </g>
        <g transform="matrix(4.166667,0,0,4.166667,0,0)">
            <path d="M525.963,504.218C521.887,504.218 519.34,501.763 519.34,496.854C519.34,491.945 521.887,489.491 525.963,489.491C530.039,489.491 532.586,491.945 532.586,496.854C532.586,501.763 530.039,504.218 525.963,504.218ZM525.963,482.753C515.56,482.753 509.83,487.614 509.83,496.854C509.83,506.095 515.56,510.956 525.963,510.956C536.365,510.956 542.096,506.095 542.096,496.854C542.096,487.614 536.365,482.753 525.963,482.753Z" style="fill:white;"/>
        </g>
        <g transform="matrix(4.166667,0,0,4.166667,0,0)">
            <rect x="399.71" y="489.17" width="9.001" height="21.199" style="fill:white;"/>
        </g>
        <g transform="matrix(4.166667,0,0,4.166667,0,0)">
            <rect x="399.71" y="482.753" width="9.001" height="5.084" style="fill:white;"/>
        </g>
        <g transform="matrix(4.166667,0,0,4.166667,0,0)">
            <rect x="455.991" y="489.17" width="9.002" height="21.199" style="fill:white;"/>
        </g>
        <g transform="matrix(4.166667,0,0,4.166667,0,0)">
            <rect x="455.991" y="482.753" width="9.002" height="5.084" style="fill:white;"/>
        </g>
        <g transform="matrix(4.166667,0,0,4.166667,0,0)">
            <path d="M304.02,489.331C307.17,489.331 309.723,486.777 309.723,483.628C309.723,480.478 307.17,477.924 304.02,477.924C300.87,477.924 298.317,480.478 298.317,483.628C298.317,486.777 300.87,489.331 304.02,489.331Z" style="fill:white;"/>
        </g>
        <g transform="matrix(4.166667,0,0,4.166667,0,0)">
            <path d="M327.438,489.437C330.588,489.437 333.142,486.884 333.142,483.735C333.142,480.584 330.588,478.031 327.438,478.031C324.289,478.031 321.735,480.584 321.735,483.735C321.735,486.884 324.289,489.437 327.438,489.437Z" style="fill:white;"/>
        </g>
        <g transform="matrix(4.166667,0,0,4.166667,0,0)">
            <path d="M349.848,494.585C352.998,494.585 355.551,492.032 355.551,488.882C355.551,485.732 352.998,483.178 349.848,483.178C346.698,483.178 344.145,485.732 344.145,488.882C344.145,492.032 346.698,494.585 349.848,494.585Z" style="fill:white;"/>
        </g>
        <g transform="matrix(4.166667,0,0,4.166667,0,0)">
            <path d="M324.688,511.69C327.838,511.69 330.391,509.136 330.391,505.987C330.391,502.837 327.838,500.283 324.688,500.283C321.538,500.283 318.985,502.837 318.985,505.987C318.985,509.136 321.538,511.69 324.688,511.69Z" style="fill:white;"/>
        </g>
        <g transform="matrix(4.166667,0,0,4.166667,0,0)">
            <path d="M319.342,497.556L324.567,490.051L322.869,488.868L318.834,494.663L309.781,488.262L308.585,489.952L319.342,497.556Z" style="fill:white;"/>
        </g>
        <g transform="matrix(4.166667,0,0,4.166667,0,0)">
            <path d="M330.181,500.644L340.63,485.408L341.372,485.888L344.165,481.654L341.672,479.975L328.4,499.388L330.181,500.644Z" style="fill:white;"/>
        </g>
    </g>
</svg>
