<?xml version="1.0" encoding="UTF-8" standalone="no"?>
<!DOCTYPE svg PUBLIC "-//W3C//DTD SVG 1.1//EN" "http://www.w3.org/Graphics/SVG/1.1/DTD/svg11.dtd">
<svg width="100%" height="100%" viewBox="0 0 239 71" version="1.1" xmlns="http://www.w3.org/2000/svg" xmlns:xlink="http://www.w3.org/1999/xlink" xml:space="preserve" xmlns:serif="http://www.serif.com/" style="fill-rule:evenodd;clip-rule:evenodd;stroke-linejoin:round;stroke-miterlimit:2;">
    <g transform="matrix(0.343301,0,0,0.343301,119.05,35.35)">
        <g transform="matrix(1,0,0,1,-185.416667,-83.333333)">
            <clipPath id="_clip1">
                <rect x="0" y="0" width="370.833" height="166.667"/>
            </clipPath>
            <g clip-path="url(#_clip1)">
                <g id="MA_Logo_2-farbig_rgb" transform="matrix(4.166667,0,0,4.166667,-82497.0875,-36817.083333)">
                    <path id="Rechteck_28" d="M19839.3,8836.1L19839.3,8876.1L19799.3,8876.1L19799.3,8836.1L19839.3,8836.1ZM19827,8871L19832.1,8871L19832.1,8841.3L19825,8841.3L19819.4,8863L19819.2,8863L19813.5,8841.3L19806.7,8841.3L19806.7,8871L19811.3,8871L19811.2,8848.2L19811.3,8848.2L19817.1,8871L19821,8871L19827,8848.2L19827.1,8848.2L19827,8871Z" style="fill:white;"/>
                    <path id="Rechteck_29" d="M19881.3,8836.1L19881.3,8876.1L19841.3,8876.1L19841.3,8836.1L19881.3,8836.1ZM19868.4,8871.2L19873.9,8871.2L19864.3,8841L19858.5,8841L19848.6,8871.2L19853.8,8871.2L19856.3,8863.3L19866,8863.3L19868.4,8871.2ZM19861.3,8846.2C19861.5,8847.4 19864.6,8858.4 19864.9,8859L19857.5,8859C19858.2,8857 19861.3,8846.2 19861.3,8846.2Z" style="fill:white;"/>
                    <path id="Pfad_3" d="M19885,8838.5L19885.6,8838.5C19885.8,8838.5 19886,8838.4 19886,8838.1C19886,8837.8 19885.8,8837.7 19885.5,8837.7L19884.9,8837.7L19885,8838.5ZM19884.5,8837.3L19885.4,8837.3C19885.9,8837.3 19886.5,8837.4 19886.5,8838.2C19886.5,8838.5 19886.3,8838.8 19886,8838.9L19886.5,8840.1L19885.9,8840.1L19885.5,8839L19884.9,8839L19884.9,8840.1L19884.4,8840.1L19884.5,8837.3ZM19885.5,8841C19886.7,8841 19887.7,8840 19887.7,8838.8C19887.7,8837.6 19886.7,8836.6 19885.5,8836.6C19884.3,8836.6 19883.3,8837.6 19883.3,8838.8C19883.2,8840 19884.2,8841 19885.5,8841ZM19882.8,8838.7C19882.8,8837.2 19884,8836.1 19885.4,8836.1C19886.9,8836.1 19888,8837.3 19888,8838.7C19888,8840.1 19886.8,8841.3 19885.4,8841.3C19884,8841.3 19882.8,8840.2 19882.8,8838.7Z" style="fill:white;fill-rule:nonzero;"/>
                </g>
            </g>
        </g>
    </g>
</svg>
