<?xml version="1.0" encoding="utf-8"?>
<!-- Generator: Adobe Illustrator 19.2.1, SVG Export Plug-In . SVG Version: 6.00 Build 0)  -->
<svg version="1.1" id="layer" xmlns="http://www.w3.org/2000/svg" xmlns:xlink="http://www.w3.org/1999/xlink" x="0px" y="0px"
	 viewBox="0 0 652 652" style="enable-background:new 0 0 652 652;" xml:space="preserve">
<style type="text/css">
	.st0{fill-rule:evenodd;clip-rule:evenodd;fill:#5C5B59;}
	.st1{fill-rule:evenodd;clip-rule:evenodd;fill:#2095CD;}
	.st2{fill-rule:evenodd;clip-rule:evenodd;fill:#1A63A2;}
	.st3{fill-rule:evenodd;clip-rule:evenodd;fill:#9FC54C;}
</style>
<polygon class="st0" points="427.3,291.9 488.8,291.9 485.9,299.9 468.2,299.9 453.8,340.9 428.2,340.9 442.6,299.9 424.5,299.9 "/>
<path class="st0" d="M586.7,319.5h-6.5l-7.6,21.3H547l17.3-49h52c4.7,0,10.8,3.7,8.6,10.8c-0.9,2.9-2.6,7.7-3.9,11.5
	c-1.1,3.3-3.9,5.4-7.4,5.4l-6.2,0l4.5,21.3h-21.1L586.7,319.5z M583.1,311.2h14.5c1.6-0.1,3.4-1,4.1-3l1.7-4.9
	c0.6-2.7-2-3.5-2.5-3.5h-13.8L583.1,311.2z"/>
<path class="st0" d="M534.2,291.9l9.1,49c0.1,0.3-21.9,0-24.5,0l-2.4-13.7h-31l-11,13.7h-11.7l38.8-49H534.2z M514.9,319.6
	l-3.5-18.5l-5.5,0.1l-14.6,18.4H514.9z"/>
<path class="st0" d="M423.8,291.9l-2.8,8l-35.2,0c-2.3,0-3.8,1.3-4.3,2.8c0,0-0.2,0.6-0.2,0.6c-0.2,0.5-1.4,4-1.5,4.3
	c-0.5,1.3,1,3.8,3.1,3.8h22.3c4.8,0,9.8,4.8,7.6,10.9l-4.7,13.3c-0.7,2.1-3.3,5.2-7.4,5.2h-66.2c1.7-2,3.8-6.4,4.6-8.8
	c4.1,0.2,15.8,0.2,18.9,0.2h21.7l2.9,0c1.2,0,2.4-1,2.8-2l1.9-5.3c0.7-2.1-0.7-4.4-3-4.3h-18.8l-5.3-0.1c-4.5-0.1-8.5-5.7-7-10
	c0.1-0.4,1.1-3,1.2-3.4l1.9-5.4c1.8-5.1,5.3-9.8,12.8-9.9L423.8,291.9z"/>
<path class="st1" d="M312.3,291.9l9.4,49c-8.5-0.4-16.6,0-25.1-0.1l-2.4-13.3h-31.4L252,340.9h-11.8l39-49H312.3z M70.5,291.9
	l17.9,37.7l13.3-37.7h11.3l-17.5,49H67l-17.4-37l-13.1,37H25.3l17.4-49H70.5z M126.2,291.9h46.5c8.2,0,14.7,7.9,11.5,17l-7.9,22.4
	c-2.3,6.4-7.2,9.6-11.9,9.6h-47c-8.3,0-14.1-8.6-11.5-16.4l8.5-24.2C116.4,295.1,121.2,291.9,126.2,291.9 M139.1,303.9l-8.4,24
	c-0.8,2.4,1.1,4.9,3.3,4.9l11.3,0c2.2,0,5.2-1.6,6.1-4.1l7.9-22.6c1-2.8-0.9-6.1-4.3-6.1h-10.2C142.9,300,140,301.1,139.1,303.9
	 M221.8,331.5l31.7-39.5h12.1l-39.3,49h-28.4l-9.1-49h25.6L221.8,331.5z M292.8,320l-3.5-18.7l-5.6,0.1L268.9,320H292.8z"/>
<path class="st2" d="M319.5,329.4l2.2,11.5c-8.5-0.4-16.6,0-25.1-0.1l-2.5-13.3h-31.4L252,340.9h-11.8l17.6-22.1
	C275.4,321.3,295.9,324.7,319.5,329.4 M28.6,331.6c4.1-1.1,8.1-2.1,12.2-3l-4.3,12.3H25.3L28.6,331.6z M59.3,324.6
	c8.2-1.6,16.4-3,24.6-4.3l4.4,9.3l3.7-10.5c3.9-0.5,7.8-1,11.7-1.5l-8.3,23.3H67L59.3,324.6z M108.7,317.1c8.9-1,17.8-1.8,26.6-2.4
	l-4.7,13.3c-0.8,2.4,1.1,4.9,3.3,4.9l11.3,0c2.2,0,5.2-1.6,6.1-4.1l5.3-15.2c8.7-0.3,17.4-0.5,26-0.5l-6.4,18.3
	c-2.3,6.4-7.2,9.6-11.9,9.6h-46.9c-8.3,0-14.1-8.6-11.5-16.4L108.7,317.1z M192.8,313.1c7,0.1,15.6,0.5,25.9,1.4l3.1,17l12.5-15.5
	c3.5,0.4,7.2,0.8,11.1,1.3l-19,23.7h-28.4L192.8,313.1z"/>
<path class="st3" d="M321,271.2c-12.9-4.4-34.5,2.9-43.6,15.6c10.9-10.8,28.5-14.7,39.2-11.1c17.6,6,17.8,32.6,4.5,59.4
	C307.9,362,282.7,379,265.1,373c-10.1-3.4-15.5-13.6-15.9-26.8c-0.6,16.6,5.6,29.8,17.9,34C286.9,387,315.2,368,330,338
	C344.9,308,340.8,278,321,271.2"/>
</svg>
