<?xml version="1.0" encoding="utf-8"?>
<!-- Generator: Adobe Illustrator 19.2.1, SVG Export Plug-In . SVG Version: 6.00 Build 0)  -->
<svg version="1.1" id="layer" xmlns="http://www.w3.org/2000/svg" xmlns:xlink="http://www.w3.org/1999/xlink" x="0px" y="0px"
	 viewBox="0 0 652 652" style="enable-background:new 0 0 652 652;" xml:space="preserve">
<style type="text/css">
	.st0{fill:#FF0000;}
</style>
<g id="g20" transform="matrix(1.25,0,0,-1.25,140.86154,42.229256)">
	<path id="path22" d="M57.8-210.5c-3.7-4.5-7-11.3-6-19.8c0.9-7.3,4.3-13,9.1-17.1c4.7-4,12.3-6.7,19.8-6c7.4,0.7,13.1,4.3,17.1,8.9
		c4.1,4.8,7.1,11.2,6.3,19.5c-0.4,4-1.5,7.1-3.1,10c-4.4,8.2-12.9,14.5-25.8,13.4C67.8-202.2,61.3-206.2,57.8-210.5 M73.4-170.5h8.9
		c16.5-1.7,28.1-8.2,37.2-17.8c4.3-4.6,7.9-10.1,10.8-16.8c2.8-6.5,4.9-14.5,4.6-22.9c-0.6-17.4-7-29.7-16-39
		c-9.1-9.4-20.7-16.1-37.2-17.7h-7.8c-12.4,1-22.3,5.7-29.8,11.4C31.6-264,21.1-249,20.9-227.8c-0.2,16.8,6.8,30.1,15.5,39.4
		C45.4-179,56.8-172.2,73.4-170.5"/>
</g>
<g id="g24" transform="matrix(1.25,0,0,-1.25,333.01479,34.702381)">
	<path id="path26" d="M135.6-207.4c-9.3-0.7-16.2-6.3-20-12.8c-0.3-0.4-1.2-1.2-0.6-1.5h46.7C157.2-213.2,149-206.4,135.6-207.4
		 M133.6-176.5h8.9c18.1-1.8,30.9-9.9,40-21.2c8.4-10.5,15.6-27.4,11.4-47.2c-26.3-0.1-53,0.2-79-0.2c3.3-7.2,10.8-12.3,20.4-14
		c10.3-1.8,21,1.4,27.5,5.5c1.1-8.2,2-17,3.1-25.8c0.1-1.3,0.7-2.9,0.5-3.5c-0.3-1-3.8-2.3-5.2-2.9c-5.6-2.5-12.1-4.3-19.4-4.9h-7.7
		c-16.5,1.3-28.3,8.9-37.1,17.8c-9.1,9.3-15.4,22-15.8,39c-0.2,8.3,1.8,16.2,4.6,22.8c2.8,6.6,6.6,12.1,10.9,16.6
		C105.8-185.1,117-178.2,133.6-176.5"/>
</g>
<g id="g28" transform="matrix(1.25,0,0,-1.25,234.51441,66.472506)">
	<path id="path30" d="M95.7-220.3c-0.7-5-1.6-9.7-2.3-14.6c5.9,0.6,15.7-1.2,20,1.1c1.8,1,3.2,3.2,3.8,5.8c0.5,2.1,0.9,5.2-0.6,6.8
		c-1.7,1.7-6,1.4-9.5,1.4H96.1C95.8-219.9,95.9-220.2,95.7-220.3 M102.2-180.5c-0.8-4.7-1.5-9.5-2.3-14.1c7.1,0.7,18.1-1.9,21.5,2.8
		c1.6,2.2,2.9,7.1,0.8,9.7c-3.3,4-13,1.4-19.8,2.2C102.2-180,102.2-180.3,102.2-180.5 M71.5-155.7h62.3c3.6,0,6.8,0.1,9.8-0.5
		c8.4-1.5,15.3-5.7,18-13.1c1.9-5.1,1.6-12.4-0.3-18c-3.5-10.1-11.1-16.8-22-19.4c10.6-1.7,16.9-7.5,16.9-19.5
		c0-5.3-1.4-10.1-2.9-14.1c-4.7-12.6-15.4-18.6-31.1-20.1c-5.4-0.5-11-0.3-16.8-0.3H54.2C60.1-225.8,65.4-190.4,71.5-155.7"/>
</g>
<g id="g32" transform="matrix(1.25,0,0,-1.25,53.844284,45.420256)">
	<path id="path34" d="M22.6-211.8h14.3c5.1,0,10.2-0.3,12.9,1.4c2,1.2,4.3,6,3.2,9.5c-1.3,4.2-6.9,3.8-12.6,3.8H25
		C24-201.7,23.3-206.7,22.6-211.8 M-22.8-277.9v1.1c5.9,34.5,11.1,69.6,17.1,104.1h46c7.9,0,15.8,0.3,22.9-0.2
		c14.2-1,24.9-6.1,28.4-17.5c1.9-6.2,0.8-13.5-1.5-19.4c-4.3-10.8-12.7-18.5-23.5-22.6c3.1-15.1,6.1-30.4,9.1-45.7H35.3
		c-1.4,13.8-2.9,27.5-4.5,41.2H18.4c-2.4-13.6-4.4-27.5-6.8-41C11.7-277.9-22.8-277.9-22.8-277.9z"/>
</g>
<g id="g36" transform="matrix(1.25,0,0,-1.25,374.35579,68.259006)">
	<path id="path38" class="st0" d="M152.4-221c10.1,1,16.8-4.5,20.1-10.9c1.9-3.6,2.5-6.1,2.2-11.2c-0.8-10.1-9.9-18.2-20.3-18.1
		c-6.4,0-10.2,2.1-13.7,5.5c-3.8,3.7-7.1,8.6-6.5,16.6c0.2,2.6,1.2,5.4,2,7.1c1.8,3.7,5,7.1,8.9,9.1
		C147.1-222,149.6-221.3,152.4-221"/>
</g>
<g id="text4146-0" transform="matrix(1.3327053,0,0,1.3327053,-116.13492,-4.2831463)">
	<path id="path4151-3" d="M540,193.5c2.8,0,5.5,0.7,8.1,2.1c2.6,1.4,4.7,3.4,6.2,6.1c1.5,2.6,2.2,5.4,2.2,8.2c0,2.8-0.7,5.6-2.2,8.2
		c-1.4,2.6-3.5,4.7-6.1,6.1c-2.6,1.4-5.3,2.2-8.2,2.2s-5.6-0.7-8.2-2.2c-2.6-1.5-4.6-3.5-6.1-6.1c-1.5-2.6-2.2-5.3-2.2-8.2
		c0-2.9,0.7-5.6,2.2-8.2c1.5-2.6,3.5-4.7,6.2-6.1C534.5,194.2,537.2,193.5,540,193.5L540,193.5z M540,196.3c-2.3,0-4.6,0.6-6.8,1.8
		c-2.2,1.2-3.9,2.9-5.1,5.1c-1.2,2.2-1.9,4.5-1.9,6.9c0,2.4,0.6,4.6,1.8,6.8c1.2,2.2,2.9,3.9,5.1,5.1c2.2,1.2,4.5,1.8,6.8,1.8
		s4.6-0.6,6.8-1.8c2.2-1.2,3.9-2.9,5.1-5.1c1.2-2.2,1.8-4.5,1.8-6.8c0-2.4-0.6-4.7-1.9-6.9c-1.2-2.2-2.9-3.9-5.1-5.1
		C544.5,196.9,542.3,196.3,540,196.3z M532.7,219.1v-17.7h6.1c2.1,0,3.6,0.2,4.5,0.5c0.9,0.3,1.7,0.9,2.2,1.7
		c0.6,0.8,0.8,1.7,0.8,2.6c0,1.3-0.5,2.4-1.4,3.4c-0.9,1-2.1,1.5-3.7,1.6c0.6,0.3,1.1,0.6,1.5,0.9c0.7,0.7,1.6,1.9,2.6,3.5l2.2,3.5
		h-3.5l-1.6-2.8c-1.2-2.2-2.2-3.6-3-4.1c-0.5-0.4-1.3-0.6-2.3-0.6h-1.7v7.5H532.7z M535.6,209.1h3.5c1.7,0,2.8-0.2,3.4-0.7
		c0.6-0.5,0.9-1.1,0.9-2c0-0.5-0.1-1-0.4-1.4c-0.3-0.4-0.7-0.7-1.2-0.9c-0.5-0.2-1.5-0.3-2.9-0.3h-3.3
		C535.6,203.8,535.6,209.1,535.6,209.1z"/>
</g>
</svg>
