<?xml version="1.0" encoding="UTF-8" standalone="no"?>
<!DOCTYPE svg PUBLIC "-//W3C//DTD SVG 1.1//EN" "http://www.w3.org/Graphics/SVG/1.1/DTD/svg11.dtd">
<svg width="100%" height="100%" viewBox="0 0 239 71" version="1.1" xmlns="http://www.w3.org/2000/svg" xmlns:xlink="http://www.w3.org/1999/xlink" xml:space="preserve" xmlns:serif="http://www.serif.com/" style="fill-rule:evenodd;clip-rule:evenodd;stroke-linejoin:round;stroke-miterlimit:2;">
    <g transform="matrix(0.025821,0,0,0.025821,119.05,37.326408)">
        <g transform="matrix(1,0,0,1,-3874.6875,-712.187521)">
            <clipPath id="_clip1">
                <rect x="0" y="0" width="7749.375" height="1424.375"/>
            </clipPath>
            <g clip-path="url(#_clip1)">
                <g id="SHURE_Logo_w_x2F_Tagline__x28_RGB_x29_" transform="matrix(62.5,0,0,62.5,0,0)">
                    <path id="SHURE_Wordmark_2_" d="M100.15,19.89L99.79,22.79L83.92,13.3L83.11,19.89L74.66,19.89L76.26,6.93L90.17,6.93L90.47,4.49L76.56,4.49L77.11,0.01L94.81,0.01C97.44,0.01 99.39,2.58 99.32,4.8C99.25,6.84 98.2,8.61 96.55,9.76C95.44,10.53 93.41,11.11 93.41,11.11L100.76,14.84L102.59,0.01L123.99,0.01L123.44,4.49L111.91,4.49L111.61,6.93L123.14,6.93L122.53,11.87L111,11.87L110.67,14.51L122.2,14.51L121.54,19.89L100.15,19.89ZM64.51,0.01L62.82,13.74L60.21,13.74L61.9,0.01L52.05,0.01L50.77,10.38C50.06,16.85 53.98,20.75 60.35,20.75L61.05,20.75C68.27,20.42 72.41,15.22 73.18,10.38L74.46,0.01L64.51,0.01ZM35.85,6.92L36.7,0L27.03,0L24.58,19.88L34.25,19.88L35.11,12.91L38.14,12.91L37.28,19.88L46.96,19.88L49.41,0L39.73,0L38.88,6.92L35.85,6.92ZM16.86,19.89C21.27,19.9 23.71,16.51 23.73,13.3C23.74,11.57 23.09,10.4 21.13,9.46C19.3,8.6 12.61,5.77 9.58,4.49L24.02,4.49L24.57,0.01L7.43,0.01C4.2,0.01 1.65,2.83 1.65,5.93C1.65,7.72 2.53,9.48 4.61,10.51L14.4,14.51L0.66,14.51L0,19.89L16.86,19.89Z" style="fill:rgb(178,255,51);fill-rule:nonzero;"/>
                </g>
            </g>
        </g>
    </g>
</svg>
