<?xml version="1.0" encoding="UTF-8" standalone="no"?>
<!DOCTYPE svg PUBLIC "-//W3C//DTD SVG 1.1//EN" "http://www.w3.org/Graphics/SVG/1.1/DTD/svg11.dtd">
<svg width="100%" height="100%" viewBox="0 0 707 160" version="1.1" xmlns="http://www.w3.org/2000/svg" xmlns:xlink="http://www.w3.org/1999/xlink" xml:space="preserve" xmlns:serif="http://www.serif.com/" style="fill-rule:evenodd;clip-rule:evenodd;stroke-linejoin:round;stroke-miterlimit:2;">
    <g transform="matrix(1,0,0,1,-1571.07125,-4487.716042)">
        <g transform="matrix(4.166667,0,0,4.166667,0,3946.359375)">
            <g transform="matrix(1,0,0,1,456.1744,166.9155)">
                <path d="M0,-35.469L-3.594,-15.239L-9.05,0.2L1.863,1.398L5.324,-14.307L15.439,-13.775L17.815,0.108L27.95,-0.465L26.353,-17.501L28.441,-35.895L17.745,-36.867L13.975,-24.422L6.255,-23.357L8.849,-36.615L0,-35.469Z" style="fill:rgb(227,6,19);fill-rule:nonzero;"/>
            </g>
        </g>
        <g transform="matrix(4.166667,0,0,4.166667,0,3946.359375)">
            <g transform="matrix(1,0,0,1,382.3661,166.7021)">
                <path d="M0,-35.59L-2.753,-10.225L-5.309,0L18.876,-0.394L15.73,-7.865L4.129,-8.455L10.421,-35.197L0,-35.59Z" style="fill:rgb(227,6,19);fill-rule:nonzero;"/>
            </g>
        </g>
        <g transform="matrix(4.166667,0,0,4.166667,0,3946.359375)">
            <g transform="matrix(1,0,0,1,408.7878,166.0774)">
                <path d="M0,-34.922L-5.197,-7.691L-4.781,0.001L2.494,0.624L10.602,-35.546L0,-34.922Z" style="fill:rgb(227,6,19);fill-rule:nonzero;"/>
            </g>
        </g>
        <g transform="matrix(4.166667,0,0,4.166667,0,3946.359375)">
            <g transform="matrix(1,0,0,1,441.793,144.3156)">
                <path d="M0,7.525L-5.041,12.684L-10.913,13.07L-12.503,-1.33L-9.275,-7.064L6.838,-4.985L6.936,-12.018L-7.877,-14.39L-17.2,-12.655L-21.846,-2.061L-20.97,9.576L-18.056,21.817L-3.101,21.915L4.561,16.472L8.875,2.272L-6.094,1.03L0,7.525Z" style="fill:rgb(227,6,19);fill-rule:nonzero;"/>
            </g>
        </g>
        <g transform="matrix(4.166667,0,0,4.166667,0,3946.359375)">
            <g transform="matrix(1,0,0,1,516.6307,166.9112)">
                <path d="M0,-35.766L-25.274,-36.379L-29.682,-27.074L-23.08,-26.798L-26.497,-0.264C-26.497,-0.264 -17.78,0.613 -17.783,0.192C-17.787,-0.229 -12.342,-26.22 -12.342,-26.22L-1.464,-26.909L0,-35.766Z" style="fill:rgb(227,6,19);fill-rule:nonzero;"/>
            </g>
        </g>
        <g transform="matrix(4.166667,0,0,4.166667,0,3946.359375)">
            <g transform="matrix(1,0,0,1,537.4758,154.6459)">
                <path d="M0,-10.833L6.393,-9.473L8.636,-9.729L9.196,-13.043L8.776,-20.365L1.656,-23.727L-11.338,-23.255L-17.817,-21.069L-19.869,-12.78L-15.546,-5.138L-5.13,-3.224L-2.581,4.315L-9.304,5.675L-11.834,0.263L-21.76,0.117L-17.776,9.533L-10.538,12.894L5.908,11.922L8.915,2.432L9.167,-3.235L-2.123,-10.459L-7.579,-12.655L-1.449,-14.246L0,-10.833Z" style="fill:rgb(227,6,19);fill-rule:nonzero;"/>
            </g>
        </g>
    </g>
</svg>
