<?xml version="1.0" encoding="UTF-8" standalone="no"?>
<!DOCTYPE svg PUBLIC "-//W3C//DTD SVG 1.1//EN" "http://www.w3.org/Graphics/SVG/1.1/DTD/svg11.dtd">
<svg width="100%" height="100%" viewBox="0 0 838 154" version="1.1" xmlns="http://www.w3.org/2000/svg" xmlns:xlink="http://www.w3.org/1999/xlink" xml:space="preserve" xmlns:serif="http://www.serif.com/" style="fill-rule:evenodd;clip-rule:evenodd;stroke-linejoin:round;stroke-miterlimit:2;">
    <g transform="matrix(1,0,0,1,-1505.737917,-5380.601042)">
        <g transform="matrix(4.166667,0,0,4.166667,0,3946.359375)">
            <g transform="matrix(1,0,0,1,496.5617,380.7082)">
                <path d="M0,-35.789L10.82,-35.997L21.004,-10.723L24.761,-35.581L32.876,-35.997L31.003,-16.23L26.807,-1.245L13.733,0L10.404,-15.398L7.075,-22.888L5.826,0L-1.248,-0.416L-5.826,0.208L0,-35.789Z" style="fill:rgb(227,6,19);fill-rule:nonzero;"/>
            </g>
        </g>
        <g transform="matrix(4.166667,0,0,4.166667,0,3946.359375)">
            <g transform="matrix(1,0,0,1,485.5362,344.9806)">
                <path d="M0,34.954L5.061,7.698L4.656,0L-2.429,-0.624L-10.323,35.578L0,34.954Z" style="fill:rgb(227,6,19);fill-rule:nonzero;"/>
            </g>
        </g>
        <g transform="matrix(4.166667,0,0,4.166667,0,3946.359375)">
            <g transform="matrix(1,0,0,1,405.5882,344.9806)">
                <path d="M0,34.954L5.061,7.698L4.656,0L-2.429,-0.624L-10.323,35.578L0,34.954Z" style="fill:rgb(227,6,19);fill-rule:nonzero;"/>
            </g>
        </g>
        <g transform="matrix(4.166667,0,0,4.166667,0,3946.359375)">
            <g transform="matrix(1,0,0,1,466.7807,358.6353)">
                <path d="M0,7.399L-4.957,12.472L-10.731,12.851L-12.294,-1.308L-9.12,-6.947L6.724,-4.902L6.82,-11.818L-7.746,-14.15L-16.913,-12.445L-21.481,-2.027L-20.62,9.416L-17.754,21.452L-3.049,21.549L4.485,16.196L8.727,2.233L-5.992,1.012L0,7.399Z" style="fill:rgb(227,6,19);fill-rule:nonzero;"/>
            </g>
        </g>
        <g transform="matrix(4.166667,0,0,4.166667,0,3946.359375)">
            <g transform="matrix(1,0,0,1,434.0508,358.5572)">
                <path d="M0,7.426L-4.975,12.517L-10.769,12.898L-12.339,-1.313L-9.153,-6.972L6.748,-4.92L6.845,-11.86L-7.774,-14.201L-16.974,-12.489L-21.559,-2.034L-20.695,9.45L-17.819,21.53L-3.06,21.627L4.501,16.255L8.758,2.242L-6.014,1.016L0,7.426Z" style="fill:rgb(227,6,19);fill-rule:nonzero;"/>
            </g>
        </g>
        <g transform="matrix(4.166667,0,0,4.166667,0,3946.359375)">
            <g transform="matrix(1,0,0,1,553.4778,359.0429)">
                <path d="M0,7.525L-5.041,12.684L-10.913,13.07L-12.503,-1.33L-9.275,-7.064L6.838,-4.985L6.936,-12.018L-7.877,-14.39L-17.2,-12.655L-21.846,-2.061L-20.97,9.576L-18.056,21.817L-3.101,21.915L4.561,16.472L8.875,2.272L-6.094,1.03L0,7.525Z" style="fill:rgb(227,6,19);fill-rule:nonzero;"/>
            </g>
        </g>
        <g transform="matrix(4.166667,0,0,4.166667,0,3946.359375)">
            <g transform="matrix(1,0,0,1,387.0181,369.721)">
                <path d="M0,-14.117L-5.485,-8.362L-15.356,-8.77L-12.648,-19.089L0,-19.602L0,-14.117ZM7.408,-23.172L0.823,-25.503L-20.156,-25.087L-24.956,3.162L-25.641,10.016L-16.587,10.424L-15.63,-2.361L-8.224,-1.777L-6.308,11.386L5.077,10.016L-1.093,-2.6L6.032,-9.732L7.408,-23.172Z" style="fill:rgb(227,6,19);fill-rule:nonzero;"/>
            </g>
        </g>
    </g>
</svg>
