<?xml version="1.0" encoding="UTF-8" standalone="no"?>
<!DOCTYPE svg PUBLIC "-//W3C//DTD SVG 1.1//EN" "http://www.w3.org/Graphics/SVG/1.1/DTD/svg11.dtd">
<svg width="100%" height="100%" viewBox="0 0 650 156" version="1.1" xmlns="http://www.w3.org/2000/svg" xmlns:xlink="http://www.w3.org/1999/xlink" xml:space="preserve" xmlns:serif="http://www.serif.com/" style="fill-rule:evenodd;clip-rule:evenodd;stroke-linejoin:round;stroke-miterlimit:2;">
    <g transform="matrix(1,0,0,1,-1599.710833,-5083.687708)">
        <g transform="matrix(4.166667,0,0,4.166667,0,3946.359375)">
            <g transform="matrix(1,0,0,1,406.0336,297.168)">
                <path d="M0,-10.872L6.452,-9.438L8.722,-9.677L9.319,-13.023L8.961,-20.43L1.792,-23.895L-11.35,-23.536L-17.921,-21.386L-20.072,-13.023L-15.771,-5.257L-5.257,-3.226L-2.748,4.421L-9.558,5.735L-12.067,0.239L-22.103,0L-18.16,9.558L-10.872,13.023L0.597,12.664L6.452,2.39L9.2,-3.106L-2.151,-10.514L-7.646,-12.784L-1.434,-14.337L0,-10.872Z" style="fill:rgb(227,6,19);fill-rule:nonzero;"/>
            </g>
        </g>
        <g transform="matrix(4.166667,0,0,4.166667,0,3946.359375)">
            <g transform="matrix(1,0,0,1,501.0791,287.3488)">
                <path d="M0,7.525L-5.041,12.684L-10.913,13.07L-12.503,-1.33L-9.275,-7.064L6.838,-4.985L6.936,-12.018L-7.877,-14.39L-17.2,-12.655L-21.846,-2.061L-20.97,9.576L-18.056,21.817L-3.101,21.915L4.561,16.472L8.875,2.272L-6.094,1.03L0,7.525Z" style="fill:rgb(227,6,19);fill-rule:nonzero;"/>
            </g>
        </g>
        <g transform="matrix(4.166667,0,0,4.166667,0,3946.359375)">
            <g transform="matrix(1,0,0,1,448.4768,309.6226)">
                <path d="M0,-35.608L-25.163,-36.219L-29.551,-26.955L-22.978,-26.679L-26.381,-0.262C-26.381,-0.262 -17.701,0.611 -17.705,0.192C-17.709,-0.227 -12.288,-26.104 -12.288,-26.104L-1.458,-26.79L0,-35.608Z" style="fill:rgb(227,6,19);fill-rule:nonzero;"/>
            </g>
        </g>
        <g transform="matrix(4.166667,0,0,4.166667,0,3946.359375)">
            <g transform="matrix(1,0,0,1,526.7201,303.5924)">
                <path d="M0,-23.82L13.078,-22.589L12.504,-30.285L-9.448,-28.445L-13.69,-8.963L-16.455,6.465L5.883,5.379L5.173,-3.326L-6.312,-2.844L-4.6,-8.919L7.014,-9.151L7.591,-15.09L-3.414,-17.389L0,-23.82Z" style="fill:rgb(227,6,19);fill-rule:nonzero;"/>
            </g>
        </g>
        <g transform="matrix(4.166667,0,0,4.166667,0,3946.359375)">
            <g transform="matrix(1,0,0,1,457.1889,291.4233)">
                <path d="M0,0.607L3.11,-12.249L6.937,1.189L0,0.607ZM-1.644,-17.557L-5.499,-7.588L-9.1,0.472L-14.793,17.941L-5.145,18.125L-3.072,6.677L9.746,8.058L11.884,18.816L21.678,18.505L10.325,-18.209L-1.644,-17.557Z" style="fill:rgb(227,6,19);fill-rule:nonzero;"/>
            </g>
        </g>
    </g>
</svg>
