<?xml version="1.0" encoding="UTF-8" standalone="no"?>
<!DOCTYPE svg PUBLIC "-//W3C//DTD SVG 1.1//EN" "http://www.w3.org/Graphics/SVG/1.1/DTD/svg11.dtd">
<svg width="100%" height="100%" viewBox="0 0 704 159" version="1.1" xmlns="http://www.w3.org/2000/svg" xmlns:xlink="http://www.w3.org/1999/xlink" xml:space="preserve" xmlns:serif="http://www.serif.com/" style="fill-rule:evenodd;clip-rule:evenodd;stroke-linejoin:round;stroke-miterlimit:2;">
    <g transform="matrix(1,0,0,1,-1572.80875,-4187.861042)">
        <g transform="matrix(4.166667,0,0,4.166667,0,3946.359375)">
            <g transform="matrix(1,0,0,1,399.5771,81.8935)">
                <path d="M0,-10.872L6.452,-9.438L8.722,-9.677L9.319,-13.023L8.961,-20.43L1.792,-23.895L-11.35,-23.536L-17.921,-21.386L-20.072,-13.023L-15.771,-5.257L-5.257,-3.226L-2.748,4.421L-9.558,5.735L-12.067,0.239L-22.103,0L-18.16,9.558L-10.872,13.023L0.597,12.664L6.452,2.39L9.2,-3.106L-2.151,-10.514L-7.646,-12.784L-1.434,-14.337L0,-10.872Z" style="fill:rgb(227,6,19);fill-rule:nonzero;"/>
            </g>
        </g>
        <g transform="matrix(4.166667,0,0,4.166667,0,3946.359375)">
            <g transform="matrix(1,0,0,1,417.6135,69.4234)">
                <path d="M0,14.669L2.154,16.608L8.093,9.388L14.707,14.293L16.646,12.136L10.196,6.832L11.637,5.079L14.293,1.507L13.039,-2.138L8.942,2.6L7.467,4.59L5.117,2.657L1.077,-1.709L-2.1,1.254L2.641,5.348L5.395,7.388L0,14.669ZM-6.283,9.334L-4.488,-4.7L-3.095,-11.463L16.577,-10.496L23.27,-10.875L20.241,17.038L18.598,26.132L1.927,25.374L-6.914,23.987L-6.283,9.334Z" style="fill:rgb(227,6,19);fill-rule:nonzero;"/>
            </g>
        </g>
        <g transform="matrix(4.166667,0,0,4.166667,0,3946.359375)">
            <g transform="matrix(1,0,0,1,444.7273,95.6962)">
                <path d="M0,-37.094L11.714,-36.508L6.443,-10.152L15.358,-11.974L18.933,-36.956L30.842,-36.761L24.014,0L-4.295,-0.195L0,-37.094Z" style="fill:rgb(227,6,19);fill-rule:nonzero;"/>
            </g>
        </g>
        <g transform="matrix(4.166667,0,0,4.166667,0,3946.359375)">
            <g transform="matrix(1,0,0,1,479.2933,95.7331)">
                <path d="M0,-36.585L11.061,-36.798L21.471,-10.961L25.312,-36.372L33.608,-36.798L31.693,-16.59L27.403,-1.272L14.039,0.001L10.635,-15.74L7.232,-23.397L5.956,0.001L-1.276,-0.425L-5.956,0.213L0,-36.585Z" style="fill:rgb(227,6,19);fill-rule:nonzero;"/>
            </g>
        </g>
        <g transform="matrix(4.166667,0,0,4.166667,0,3946.359375)">
            <g transform="matrix(1,0,0,1,533.6462,72.9404)">
                <path d="M0,7.612L-11.205,12.013L-9.207,-4.798L2.998,-1.793L0,7.612ZM8.604,-11.198L-15.011,-14.005L-19.016,-0.794L-21.213,21.617L-2.403,21.419L9.405,14.012L12.609,-0.992L8.604,-11.198Z" style="fill:rgb(227,6,19);fill-rule:nonzero;"/>
            </g>
        </g>
    </g>
</svg>
