<?xml version="1.0" encoding="UTF-8" standalone="no"?>
<!DOCTYPE svg PUBLIC "-//W3C//DTD SVG 1.1//EN" "http://www.w3.org/Graphics/SVG/1.1/DTD/svg11.dtd">
<svg width="100%" height="100%" viewBox="0 0 566 153" version="1.1" xmlns="http://www.w3.org/2000/svg" xmlns:xlink="http://www.w3.org/1999/xlink" xml:space="preserve" xmlns:serif="http://www.serif.com/" style="fill-rule:evenodd;clip-rule:evenodd;stroke-linejoin:round;stroke-miterlimit:2;">
    <g transform="matrix(1,0,0,1,-1641.46625,-4789.248542)">
        <g transform="matrix(4.166667,0,0,4.166667,0,3946.359375)">
            <g transform="matrix(1,0,0,1,507.3806,213.3264)">
                <path d="M0,14.118L2.073,15.985L7.789,9.035L14.155,13.756L16.022,11.68L9.814,6.575L11.2,4.888L13.757,1.45L12.55,-2.059L8.607,2.502L7.187,4.417L4.925,2.556L1.037,-1.645L-2.022,1.206L2.542,5.147L5.193,7.11L0,14.118ZM-6.047,8.983L-4.32,-4.524L-2.979,-11.033L15.955,-10.103L22.397,-10.468L19.481,16.398L17.9,25.151L1.855,24.421L-6.655,23.087L-6.047,8.983Z" style="fill:rgb(227,6,19);fill-rule:nonzero;"/>
            </g>
        </g>
        <g transform="matrix(4.166667,0,0,4.166667,0,3946.359375)">
            <g transform="matrix(1,0,0,1,461.2163,216.7967)">
                <path d="M0,7.709L-11.349,12.167L-9.324,-4.86L3.036,-1.816L0,7.709ZM8.714,-11.342L-15.203,-14.184L-19.259,-0.804L-21.484,21.893L-2.433,21.692L9.525,14.191L12.77,-1.005L8.714,-11.342Z" style="fill:rgb(227,6,19);fill-rule:nonzero;"/>
            </g>
        </g>
        <g transform="matrix(4.166667,0,0,4.166667,0,3946.359375)">
            <g transform="matrix(1,0,0,1,433.9508,203.4016)">
                <path d="M0,34.954L5.06,7.698L4.656,0L-2.429,-0.624L-10.323,35.578L0,34.954Z" style="fill:rgb(227,6,19);fill-rule:nonzero;"/>
            </g>
        </g>
        <g transform="matrix(4.166667,0,0,4.166667,0,3946.359375)">
            <g transform="matrix(1,0,0,1,488.9299,232.355)">
                <path d="M0,-23.342L10.738,-22.098L12.253,-29.677L-9.258,-27.874L-13.415,-8.784L-16.124,6.335L5.765,5.27L5.069,-3.26L-6.185,-2.787L-4.507,-8.741L6.873,-8.968L7.439,-14.787L-3.345,-17.04L0,-23.342Z" style="fill:rgb(227,6,19);fill-rule:nonzero;"/>
            </g>
        </g>
        <g transform="matrix(4.166667,0,0,4.166667,0,3946.359375)">
            <g transform="matrix(1,0,0,1,393.9519,238.5873)">
                <path d="M0,-35.932L11.465,-36.034L15.014,-13.957L16.345,-13.649L24.466,-35.625L34.192,-35.523L22.419,-1.024L9.009,0.102L0,-35.932Z" style="fill:rgb(227,6,19);fill-rule:nonzero;"/>
            </g>
        </g>
    </g>
</svg>
