<?xml version="1.0" encoding="UTF-8" standalone="no"?>
<!DOCTYPE svg PUBLIC "-//W3C//DTD SVG 1.1//EN" "http://www.w3.org/Graphics/SVG/1.1/DTD/svg11.dtd">
<svg width="100%" height="100%" viewBox="0 0 758 724" version="1.1" xmlns="http://www.w3.org/2000/svg" xmlns:xlink="http://www.w3.org/1999/xlink" xml:space="preserve" xmlns:serif="http://www.serif.com/" style="fill-rule:evenodd;clip-rule:evenodd;stroke-linejoin:round;stroke-miterlimit:2;">
    <g>
        <path d="M103.75,443.799L100.342,441.906L94.283,441.906L91.254,443.421L88.603,446.45L87.089,449.858L87.089,453.265L88.603,457.052L92.011,460.081L95.419,461.217L98.07,461.217L99.963,460.838L103.371,459.324L106.022,456.295L107.158,452.887L107.158,450.236L106.022,446.828L103.75,443.799Z" />
        <path d="M219.995,495.674L218.985,495.422L218.859,495.295L218.859,494.159L219.566,491.686L220.374,491.888L224.539,492.645L224.539,494.159L222.646,494.159L222.646,494.538L219.995,495.674ZM171.528,518.772L169.256,518.772L168.878,518.393L169.635,517.258L171.528,517.258L172.285,518.014L171.528,518.772ZM125.333,524.073L125.333,522.937L126.847,522.937L126.847,523.695L125.333,524.073ZM151.46,494.538L153.353,494.538L153.732,494.917L154.11,496.81L153.353,496.81L153.269,496.978L152.217,497.189L151.081,496.053L151.46,494.538ZM129.498,515.364L129.877,516.878L126.847,516.878L126.09,516.5L126.09,515.364L129.498,515.364ZM170.013,477.12L170.013,475.984L172.664,476.363L172.285,477.499L172.361,477.575L172.285,477.878L170.013,477.12ZM164.712,479.771L164.334,478.256L165.091,477.878L165.848,477.878L166.606,479.392L164.712,479.771ZM170.013,466.139L169.635,464.246L172.285,464.246L173.043,465.004L172.664,466.897L171.149,466.897L170.013,466.139ZM203.713,495.295L204.471,495.295L204.471,496.053L203.713,496.053L203.713,495.295ZM201.865,491.264L204.092,488.48L204.218,488.143L204.815,488.342L204.849,488.48L204.849,490.752L204.092,491.888L202.199,491.888L202.009,491.698L201.865,491.264ZM200.305,494.159L199.169,494.538L199.927,493.024L200.684,493.024L200.305,494.159ZM469.904,145.045L468.768,145.045L468.01,147.317L466.874,147.696L466.117,144.666L465.738,142.773L468.01,143.152L468.768,143.909L469.525,143.909L469.904,145.045ZM479.748,137.851L483.535,137.093L485.428,137.093L486.186,137.851L491.487,138.608L491.865,138.987L492.244,140.501L490.729,141.637L489.972,141.258L489.215,140.501L486.186,140.501L483.535,140.123L479.37,140.123L478.234,138.987L479.748,137.851ZM509.283,138.229L510.04,138.229L510.04,138.987L508.904,138.987L509.283,138.229ZM504.361,151.482L502.846,151.103L502.846,149.967L503.603,149.589L504.361,149.967L504.361,151.482ZM504.361,167.385L508.904,168.143L508.904,168.9L506.254,171.172L504.361,173.065L502.846,172.308L502.467,168.521L502.089,165.871L502.846,165.871L503.225,167.007L504.361,167.385ZM475.583,385.866L476.719,385.866L479.37,387.759L479.37,388.895L475.962,387.38L475.583,385.866ZM509.283,148.831L507.769,148.831L508.147,147.317L508.904,147.317L509.283,148.831ZM505.875,180.259L510.04,179.881L510.798,177.23L511.555,177.23L513.448,178.745L512.312,182.153L510.419,184.424L508.526,184.803L507.769,184.046L508.526,182.153L505.497,182.531L505.118,180.638L505.875,180.259ZM524.808,173.065L526.322,173.065L526.322,175.968L526.133,176.284L525.565,176.852L523.672,176.852L523.293,176.473L522.914,174.958L524.808,173.065ZM398.339,244.63L396.446,245.008L396.446,243.494L397.203,242.736L399.096,243.115L398.339,244.63ZM438.854,137.472L438.476,137.093L438.097,135.579L439.99,134.443L441.505,134.821L441.884,136.715L441.126,137.472L438.854,137.472ZM445.67,188.211L444.534,189.726L442.262,190.483L442.262,191.997L441.126,193.133L439.233,193.512L438.854,191.997L439.99,188.59L441.884,188.211L441.884,186.696L442.641,185.939L444.913,185.939L445.291,186.318L445.67,188.211ZM498.605,146.408L498.681,146.56L497.545,147.317L497.924,146.181L498.605,146.408ZM446.427,184.424L446.049,183.289L447.563,183.289L446.427,184.424ZM553.585,234.028L552.828,236.299L551.313,236.299L550.177,234.406L549.799,231.756L550.177,231.377L550.745,231.377L550.556,231.756L553.585,231.756L553.661,231.377L554.721,231.377L555.1,232.513L553.585,234.028ZM493.001,139.744L493.758,140.123L494.137,141.637L493.001,142.016L492.623,141.258L493.001,139.744ZM138.964,488.48L138.207,488.48L138.207,487.722L138.964,487.722L138.964,488.48ZM607.353,316.573L605.081,317.33L601.295,317.33L600.538,316.952L595.615,315.816L593.343,313.165L589.178,310.893L583.498,308.621L577.061,307.107L566.838,307.107L561.915,308.621L558.129,310.893L556.614,312.787L555.478,315.437L555.1,318.466L552.07,318.466L550.935,319.224L549.041,322.253L546.769,323.389L543.362,323.389L539.196,322.631L536.924,321.117L535.41,319.224L534.653,319.224L534.653,318.466L533.895,318.466L533.895,317.709L531.245,315.816L529.73,313.544L530.109,310.515L533.517,304.456L533.517,301.048L532.759,299.534L529.352,296.883L528.216,294.233L531.623,294.611L532.759,293.475L536.167,290.825L537.682,288.553L538.06,282.873L536.924,280.98L533.517,277.951L533.138,276.436L535.41,275.679L538.06,275.679L539.954,276.058L544.876,277.951L551.692,279.844L556.236,280.601L559.643,280.601L562.294,279.465L564.945,276.815L564.945,273.786L564.566,273.407L563.43,272.65L559.905,270.182L559.454,269.431L558.994,268.052L559.454,266.213L560.022,264.698L566.459,262.048L567.595,260.912L567.216,257.504L565.323,255.611L561.915,255.611L558.886,256.746L557.372,256.368L557.372,254.096L557.75,253.717L561.537,251.824L565.702,250.309L567.595,248.416L567.216,246.144L566.081,243.494L561.158,241.979L557.75,240.086L556.236,238.193L556.236,235.542L556.993,234.406L559.643,234.028L560.779,234.785L562.294,234.785L564.566,233.27L569.11,231.756L570.624,229.862L573.653,224.561L574.032,221.532L580.469,221.911L583.12,223.047L595.236,223.047L600.538,220.775L603.188,221.532L605.839,221.532L607.353,220.775L610.761,217.746L612.654,213.202L613.033,209.037L613.79,207.143L616.062,204.493L619.47,201.842L630.072,201.842L630.451,202.221L630.829,205.629L631.208,206.386L632.723,207.901L636.509,207.901L637.645,209.415L639.538,210.93L641.81,210.93L643.704,209.794L644.84,207.522L644.461,204.493L641.053,199.57L641.81,192.755L642.568,187.832L649.005,181.395L654.684,179.123L656.578,177.23L657.335,174.58L656.578,171.929L654.684,170.036L650.519,170.036L647.49,170.793L645.597,173.065L643.325,172.308L642.211,171.974L642.189,171.929L639.538,171.172L636.131,169.657L633.48,167.007L630.829,163.22L628.558,161.327L623.257,161.327L622.121,160.948L618.334,160.948L616.441,161.706L614.926,163.22L613.79,165.113L613.79,167.764L614.169,169.279L614.926,173.065L611.897,172.686L609.247,170.793L606.596,167.764L605.081,167.007L600.159,167.007L595.994,168.9L595.994,166.628L594.479,163.977L594.273,163.874L594.101,163.599L592.864,162.892L592.965,162.841L591.45,162.084L589.557,162.463L587.285,165.492L586.528,169.279L586.149,169.657L584.256,169.657L582.741,166.628L578.197,159.434L576.304,159.055L574.789,159.812L572.896,159.434L570.246,154.133L568.731,148.074L568.731,145.045L567.595,141.258L565.702,138.987L563.43,138.608L561.537,139.744L560.401,142.394L559.265,146.938L558.886,150.346L558.508,156.783L555.478,157.919L554.721,159.434L555.1,165.113L555.857,167.007L558.129,170.793L561.158,174.58L561.537,176.473L558.508,177.609L556.614,180.259L554.721,182.153L552.828,182.531L551.313,179.123L549.799,178.366L545.803,175.461L544.484,173.848L544.497,173.822L542.604,171.55L538.06,169.279L538.06,167.385L536.546,165.492L536.167,163.977L537.682,164.735L539.575,164.735L541.09,163.22L541.468,160.57L540.332,159.055L538.06,158.298L536.167,159.434L535.41,160.948L533.517,160.57L531.245,160.191L528.216,161.327L525.944,161.327L524.808,162.084L523.293,163.977L520.643,166.249L518.749,168.143L519.128,169.279L522.536,169.657L522.156,171.55L521.4,172.308L520.643,175.337L519.885,176.094L520.263,177.987L517.992,181.017L516.856,184.803L515.341,184.803L514.584,183.667L514.206,182.153L514.963,181.395L516.099,179.502L515.719,173.444L513.827,170.414L513.448,168.9L515.719,168.9L517.235,168.143L517.992,166.628L516.099,165.871L514.963,163.977L513.07,163.977L510.419,165.113L508.904,164.735L507.39,165.113L507.39,164.356L508.147,162.841L510.798,162.463L510.798,160.948L510.04,160.191L507.011,160.57L505.875,162.841L504.361,162.463L503.603,161.327L503.982,159.055L503.603,156.404L504.361,155.647L506.633,155.269L507.39,152.997L509.662,152.997L514.584,149.21L514.963,147.317L510.419,147.696L510.419,146.56L512.312,145.424L512.69,143.909L510.419,143.909L510.419,142.773L511.934,140.88L513.827,138.987L516.099,138.229L517.612,137.093L517.992,135.2L516.099,134.821L512.312,136.715L510.04,136.336L509.662,134.443L509.283,131.792L509.662,131.414L510.04,129.52L508.147,129.142L506.633,128.006L504.739,127.627L502.467,129.52L500.574,130.656L500.953,129.52L502.089,128.384L503.225,125.734L505.875,123.083L507.011,120.811L509.283,118.918L511.176,117.025L511.934,113.996L512.312,110.209L512.69,107.18L512.69,104.53L511.934,103.772L510.04,103.394L508.904,106.044L506.633,107.559L505.497,110.209L503.982,110.967L502.089,112.481L501.71,117.404L501.331,118.161L499.06,120.054L497.924,124.598L496.409,127.248L496.03,129.899L494.516,130.278L491.487,130.278L491.865,126.87L490.729,125.355L488.079,124.219L488.079,123.462L490.729,118.918L491.865,113.996L492.244,110.967L491.487,110.209L489.972,110.967L488.836,114.374L486.943,118.54L483.914,120.054L483.156,122.705L482.399,124.598L483.535,128.384L482.02,129.142L482.02,131.414L481.263,131.414L480.127,132.55L479.37,135.957L478.613,135.957L477.098,135.2L474.447,135.579L474.826,137.851L474.069,139.744L470.282,141.637L468.01,140.501L467.632,138.608L468.768,137.093L469.525,135.579L467.632,133.307L465.738,132.55L462.331,132.171L461.952,132.55L458.923,135.2L456.651,134.821L454.758,133.307L454.758,129.52L455.136,128.763L457.03,127.248L460.816,124.598L460.816,122.705L461.195,120.054L461.952,119.675L464.981,119.675L468.389,117.025L469.904,114.753L469.904,112.102L468.768,109.452L468.389,107.559L469.904,107.559L470.282,109.452L471.797,113.617L474.069,115.51L476.341,115.51L477.098,113.996L476.719,112.102L474.826,107.559L473.311,106.044L473.311,104.908L475.583,102.258L475.583,100.365L474.447,98.472L473.311,98.093L473.311,95.442L472.554,95.442L472.176,95.821L471.418,97.714L469.525,101.5L465.738,101.879L464.981,102.258L462.331,104.53L460.816,107.559L459.301,109.831L458.544,111.345L457.787,111.345L457.03,112.481L456.272,115.889L453.622,120.054L452.107,121.569L451.35,123.083L450.592,126.113L448.321,130.656L446.427,131.035L444.534,129.142L443.398,123.083L443.02,118.918L443.398,118.54L443.777,116.646L442.641,115.132L443.02,113.238L443.02,109.452L442.262,107.559L439.612,103.394L436.961,99.986L433.175,97.336L432.309,96.903L431.66,95.821L430.751,95.367L430.524,94.685L429.009,91.277L428.631,87.491L429.388,86.733L434.689,85.976L435.068,85.598L435.447,81.432L435.825,81.054L436.204,79.539L435.447,77.646L435.068,73.481L434.689,69.694L435.447,67.422L435.447,64.393L432.754,63.047L432.417,61.364L434.311,60.985L435.825,61.743L437.718,62.121L438.097,61.364L437.718,59.471L436.961,56.442L437.34,54.548L437.34,51.898L439.233,48.111L442.262,45.839L442.262,44.325L441.505,43.567L442.262,37.509L443.398,34.859L443.398,31.451L442.641,29.936L441.884,26.528L439.99,23.878L435.447,23.878L435.068,24.256L433.175,26.15L433.175,29.557L436.204,33.723L437.718,34.48L437.718,35.994L436.204,37.509L435.825,40.917L435.447,41.296L435.068,43.189L437.718,43.567L438.097,44.703L434.815,51.595L433.175,54.548L430.903,58.335L429.767,60.607L426.738,62.5L425.602,65.908L423.33,68.937L422.194,71.587L423.33,73.859L423.33,77.267L421.815,77.646L420.679,79.539L420.301,85.598L420.679,88.248L419.922,89.384L419.543,90.899L420.301,92.035L422.194,93.17L424.844,93.549L424.844,97.336L426.738,99.986L429.009,104.53L429.388,110.209L426.359,109.831L425.98,110.967L428.252,112.102L429.009,114.753L431.66,116.268L431.281,117.404L430.903,119.297L432.039,120.054L433.175,119.675L433.175,117.404L433.932,117.782L433.932,121.19L435.825,120.811L436.961,123.083L437.718,123.083L437.718,123.841L439.233,126.113L436.582,124.598L433.553,124.977L432.417,126.491L430.903,126.87L430.524,123.083L426.738,120.054L426.359,117.404L423.708,116.646L421.058,114.753L419.165,115.132L417.271,117.404L417.271,119.675L419.165,121.19L422.572,120.811L424.466,120.433L425.602,122.326L427.116,124.219L429.767,127.248L429.767,133.686L428.631,134.821L427.874,136.715L429.009,138.229L432.039,137.851L431.66,139.744L430.524,140.123L430.903,142.394L433.553,142.394L433.932,143.909L435.825,146.938L436.204,151.103L436.582,151.861L436.204,153.375L436.204,156.404L437.34,157.919L437.718,161.327L436.582,161.327L436.582,160.57L435.447,159.055L433.932,156.404L432.039,154.511L429.388,150.346L428.631,144.288L427.874,142.773L425.602,142.016L425.602,140.88L423.33,136.715L421.815,135.2L419.543,134.821L418.029,135.957L418.029,143.909L419.165,146.181L418.786,148.074L416.893,149.21L415.378,150.725L416.135,153.375L416.135,155.647L413.864,157.919L413.106,160.191L413.223,161.123L413.106,161.706L413.373,162.329L413.485,163.22L413.958,163.693L414.242,164.356L416.893,166.628L419.101,169.152L419.606,170.162L419.787,171.604L419.165,175.337L417.65,179.881L416.893,182.91L420.301,187.454L422.572,191.997L423.708,193.512L425.98,195.027L425.98,196.92L424.087,199.57L421.437,203.736L421.437,208.279L418.786,210.173L416.893,210.551L414.999,208.279L411.592,205.629L409.698,205.629L408.184,206.765L406.669,209.037L406.669,212.823L407.426,214.446L407.426,214.716L409.32,218.503L409.698,222.668L408.562,224.94L404.397,229.484L402.504,231.377L400.232,232.134L394.552,233.649L391.902,235.921L391.145,237.435L390.387,237.435L388.494,239.707L388.494,241.979L389.63,243.494L392.281,245.008L392.281,246.144L388.115,247.659L387.737,248.795L386.979,248.795L385.086,248.038L379.028,246.523L371.833,246.523L366.911,248.038L363.503,251.067L361.61,251.445L361.61,249.931L363.503,246.144L363.882,243.494L363.125,240.086L360.474,237.814L357.823,237.435L356.309,238.193L354.416,240.465L354.416,245.766L354.794,246.902L354.416,252.203L354.794,255.611L354.794,260.154L353.28,261.29L349.115,263.562L344.571,264.698L329.425,264.319L320.337,262.426L314.279,262.048L311.628,261.29L308.599,259.397L308.978,255.989L308.22,254.096L305.949,252.581L303.677,252.581L302.541,253.339L301.026,255.611L300.269,257.882L297.618,258.64L291.56,260.154L288.531,259.776L286.259,257.882L284.744,257.125L284.744,256.368L282.472,254.096L277.55,249.552L274.521,246.902L272.627,244.63L272.141,244.224L271.491,243.494L268.841,239.707L266.569,238.193L264.297,238.193L263.54,238.571L262.025,240.465L262.404,243.115L264.297,245.387L268.462,248.038L270.355,249.552L271.87,250.309L271.87,251.067L273.385,252.96L275.657,254.853L278.686,259.776L279.064,262.426L277.928,263.184L274.899,265.834L272.627,270.378L270.923,272.082L269.598,273.028L265.433,276.058L261.268,277.194L255.967,276.436L254.074,275.3L246.879,273.028L243.85,273.028L243.093,273.407L240.064,276.058L238.928,278.708L238.17,282.116L237.034,284.767L235.52,285.524L230.219,285.524L227.947,284.388L223.024,283.252L218.481,279.844L213.179,276.815L208.352,274.259L208.257,274.164L208.063,274.106L206.742,273.407L202.956,270.756L200.684,266.97L197.655,265.077L195.004,264.698L193.49,265.455L191.975,267.349L191.596,269.242L192.354,271.135L194.626,273.028L200.684,274.543L204.693,276.214L208.257,278.708L209.544,279.617L212.422,281.737L213.704,282.553L214.694,283.252L218.859,285.902L219.162,286.054L223.024,288.553L227.189,292.34L231.355,295.369L232.869,298.398L233.248,302.942L233.627,303.32L235.52,307.107L236.277,309.757L236.277,313.165L233.248,313.923L228.704,316.194L227.947,317.709L227.189,317.709L225.675,318.845L219.617,317.33L216.587,316.952L213.937,318.088L211.286,318.088L209.014,318.845L205.228,319.224L202.199,320.738L201.441,322.253L200.684,322.253L199.169,324.146L195.762,325.282L192.354,326.797L190.082,329.447L189.325,331.34L185.917,332.098L185.48,332.389L185.159,332.476L184.781,332.855L182.509,334.37L179.858,335.127L172.664,334.748L169.256,333.612L164.712,333.612L160.547,335.505L160.169,336.641L162.819,337.399L163.955,338.156L167.742,339.292L174.936,339.292L180.616,340.049L186.295,342.7L188.567,343.457L188.189,345.35L185.159,345.35L184.781,344.972L184.528,345.035L182.888,344.214L178.722,344.214L177.965,344.593L176.829,345.729L176.451,346.108L176.451,348.38L177.586,349.894L180.237,351.03L184.402,350.651L190.082,350.651L192.841,351.571L195.004,352.923L199.169,355.953L199.548,357.089L197.655,358.603L193.868,359.36L191.596,360.118L190.082,361.632L189.564,362.669L188.675,363.147L188.567,363.147L185.159,365.04L183.266,366.555L180.616,366.933L177.586,367.691L175.693,369.205L175.315,371.099L176.451,372.613L179.48,374.506L183.266,376.778L187.053,377.914L191.218,377.914L193.868,378.293L195.383,379.807L198.791,383.594L201.063,385.109L205.606,385.109L207.5,385.866L209.014,386.623L209.014,388.895L208.257,392.303L206.742,394.953L206.137,396.771L205.228,397.225L202.577,398.74L201.063,400.255L200.305,402.526L200.684,405.556L205.606,410.099L205.985,411.993L204.471,415.4L201.82,418.43L201.063,421.838L199.548,424.867L196.519,424.867L195.762,424.488L193.49,424.109L192.354,425.245L192.354,427.517L193.49,428.275L193.49,430.168L190.839,433.197L190.839,435.848L192.354,440.013L192.732,441.906L189.325,443.421L187.431,446.071L186.295,446.071L182.888,444.178L179.858,441.906L177.965,441.906L177.586,442.285L177.208,443.799L177.965,444.556L181.752,446.828L184.402,449.1L186.674,450.615L186.295,456.673L185.917,457.052L180.237,457.809L179.101,458.566L177.586,459.324L176.829,458.188L170.771,456.673L168.878,454.023L166.606,452.129L164.334,452.129L163.576,452.887L163.576,454.78L163.955,455.213L163.955,455.537L166.227,457.809L167.363,459.702L166.984,461.974L165.47,461.974L162.819,461.217L160.169,461.596L159.411,463.11L159.79,464.625L160.547,465.004L163.955,465.382L165.848,466.139L169.256,468.411L171.149,470.305L170.771,472.577L168.499,472.577L166.984,471.062L163.955,468.79L161.305,468.79L159.79,469.926L159.033,472.198L158.275,472.198L158.275,472.955L152.974,472.955L152.217,473.712L152.217,476.363L152.974,477.12L156.382,477.499L158.654,476.742L158.275,480.149L161.305,483.179L163.955,483.557L169.256,480.907L171.907,480.528L174.179,481.285L173.8,485.829L172.285,488.858L170.013,489.994L166.606,489.994L164.712,490.373L161.683,492.645L159.79,493.024L159.79,492.266L157.897,490.373L155.246,490.752L152.974,490.752L151.46,489.237L142.372,487.344L139.343,486.208L135.556,482.8L133.285,482.8L132.527,483.557L132.149,486.208L132.906,486.965L138.207,490.752L140.857,490.752L142.751,491.13L145.78,491.888L145.78,493.024L141.993,492.645L141.615,494.538L142.751,495.674L146.159,496.431L148.43,498.325L148.809,500.218L147.673,501.354L145.78,501.354L143.508,499.461L141.615,498.325L137.071,498.325L136.314,497.946L134.42,496.431L132.906,496.81L129.119,496.81L128.362,495.674L128.246,495.645L127.983,495.295L127.415,495.437L126.847,495.295L126.469,495.674L125.144,495.674L124.197,495.295L123.508,495.433L122.682,495.295L122.304,495.674L121.925,497.567L124.576,500.597L125.333,502.49L122.304,502.49L120.032,501.732L116.624,501.354L116.245,502.111L116.624,506.276L110.187,506.276L109.43,506.655L108.672,507.034L108.597,507.488L108.294,507.791L108.294,510.063L109.43,511.199L109.808,513.092L109.051,514.607L104.507,515.364L101.478,517.258L99.206,519.909L97.691,524.451L97.312,529.753L93.147,529.753L92.769,530.131L92.39,530.131L91.254,531.646L88.225,531.646L87.089,532.403L86.71,534.675L86.332,537.325L84.438,538.84L82.545,540.733L80.273,545.277L76.487,546.034L74.972,547.549L75.351,550.2L77.623,551.336L79.895,551.336L80.273,550.957L82.166,550.578L82.924,550.578L83.789,549.929L84.06,549.821L84.163,549.649L84.438,549.442L85.574,547.17L88.603,545.656L89.739,542.627L90.497,541.869L94.283,541.112L95.798,538.461L98.07,537.704L97.691,536.568L96.934,536.568L97.312,534.675L100.342,530.888L100.342,527.859L110.187,527.859L112.08,526.723L115.867,524.83L120.41,523.695L120.032,524.83L117.381,528.238L113.973,530.51L104.886,534.296L104.129,536.19L105.643,538.083L105.643,540.355L105.264,540.733L102.235,543.005L99.206,545.656L98.827,548.306L100.342,549.442L104.886,549.442L109.43,547.928L110.944,546.413L111.323,546.034L111.215,545.602L112.08,543.005L114.731,541.869L118.139,539.597L119.653,537.704L120.41,533.539L121.925,531.267L121.925,527.481L122.682,526.345L129.498,524.451L132.149,522.18L132.906,520.665L134.799,519.909L138.964,519.909L142.372,519.151L148.052,519.151L149.566,519.909L151.838,519.909L152.596,519.151L154.11,519.529L156.003,519.909L156.761,519.151L158.654,518.772L160.547,522.18L162.819,525.209L163.576,525.209L163.576,525.966L164.712,528.238L164.712,532.024L163.955,534.296L162.819,535.811L157.518,538.84L154.489,542.248L154.489,544.52L155.246,546.413L155.246,549.442L154.868,551.714L153.732,552.093L150.702,549.442L149.188,549.821L148.43,551.336L148.43,554.365L147.295,554.743L146.159,555.879L146.159,557.773L146.537,558.151L146.916,560.802L146.159,562.316L145.401,562.316L145.401,564.588L148.052,565.724L147.673,569.132L150.324,569.889L150.324,571.783L147.295,575.948L143.887,578.598L140.857,582.763L138.586,586.171L138.586,592.608L139.343,594.502L139.722,596.773L137.828,601.317L137.071,603.21L136.314,603.21L135.935,605.104L137.071,606.618L140.1,606.618L141.236,605.482L142.751,603.21L145.401,601.696L146.916,599.424L147.295,595.637L147.673,594.88L147.957,593.744L148.052,593.744L148.809,590.336L149.566,589.579L149.566,589.39L150.324,588.443L149.945,586.55L150.324,582.385L148.43,581.627L148.052,580.113L151.46,575.19L158.275,574.054L160.169,572.161L161.683,568.375L162.062,563.831L161.305,561.938L158.275,559.287L157.897,557.773L160.169,554.743L161.683,550.2L164.712,544.141L165.848,540.355L170.013,541.491L173.043,540.733L174.936,538.461L174.936,534.296L173.8,531.646L174.936,532.024L177.586,532.024L179.101,531.267L179.858,528.995L178.722,526.345L176.829,524.83L174.179,522.18L173.8,520.286L174.557,519.909L177.208,517.636L177.965,512.713L179.48,511.956L182.888,511.199L186.674,511.199L186.674,514.985L187.431,516.5L189.703,517.258L191.596,515.742L191.596,512.713L191.218,511.577L191.596,509.305L193.111,507.412L200.305,504.004L201.063,501.354L203.713,498.703L204.471,497.946L205.606,497.946L207.121,498.451L207.905,498.974L208.257,502.49L209.393,504.762L210.529,508.548L211.665,510.063L213.179,510.441L213.937,509.684L213.937,505.519L215.073,503.626L217.345,503.247L217.345,504.004L218.102,504.383L219.617,504.004L220.374,497.567L221.131,496.81L224.16,496.431L224.918,499.082L225.675,500.218L228.325,501.354L231.355,502.868L231.733,506.276L232.491,507.034L234.005,507.412L237.413,506.276L238.549,503.626L237.413,499.461L237.413,497.189L237.792,496.431L239.685,493.024L240.442,489.237L240.821,488.858L244.229,488.101L258.239,483.936L260.131,484.315L261.647,486.208L264.297,490.752L265.812,494.538L266.569,502.111L266.948,502.868L267.326,506.655L265.433,509.305L262.404,513.092L260.889,518.014L259.752,519.151L259.752,523.315L262.025,524.451L262.783,526.345L264.297,528.617L267.326,530.888L269.22,532.403L269.598,535.811L268.841,539.597L268.841,545.277L269.22,548.685L269.22,552.471L266.569,553.986L266.569,554.743L265.812,554.743L264.676,556.637L263.918,559.287L261.268,559.287L260.889,560.802L261.647,561.559L261.647,564.588L263.161,565.346L263.54,570.647L265.054,574.812L267.326,578.598L270.355,581.249L273.763,582.385L276.414,582.006L278.686,580.492L280.958,577.841L282.472,574.812L283.608,569.511L283.608,563.074L282.851,559.666L280.958,556.258L278.686,554.365L275.278,552.093L274.899,547.549L273.763,543.005L274.521,536.947L275.657,533.16L279.443,529.374L282.472,525.209L283.23,523.695L283.987,523.695L284.744,522.558L284.744,519.909L283.23,518.393L282.472,514.607L282.094,514.229L277.928,508.927L277.171,505.898L277.55,502.111L279.443,495.674L279.418,495.573L279.822,494.159L280.958,492.645L290.803,492.266L291.939,491.888L294.589,491.888L296.104,493.024L300.269,495.674L304.055,497.189L309.735,497.189L314.279,494.917L316.551,494.159L319.201,496.431L321.473,499.839L323.745,505.519L324.881,514.607L326.017,519.529L326.017,523.695L324.502,526.345L324.124,528.238L325.26,530.131L327.532,531.267L329.803,530.888L331.697,528.617L332.075,525.966L330.561,522.558L330.561,518.772L331.507,516.5L333.969,511.577L333.893,511.35L334.347,510.441L335.483,508.17L337.376,506.276L340.027,506.276L344.571,508.927L347.221,511.577L348.357,514.985L348.357,529.374L350.25,533.539L351.765,536.947L352.901,543.005L354.037,547.549L354.416,555.879L354.794,558.151L355.173,564.588L354.037,567.617L352.144,571.783L352.144,577.084L352.522,578.598L352.144,582.006L350.629,585.793L349.115,592.23L349.115,602.075L350.629,609.648L352.522,616.463L354.037,624.415L354.416,629.716L353.28,635.774L351.386,641.075L349.872,647.891L349.872,651.299L350.629,655.843L352.522,661.522L352.901,672.125L352.144,674.396L351.765,677.804L350.629,681.969L350.629,689.921L351.008,690.678L352.144,696.358L353.658,701.659L357.066,716.427L358.202,723.621L359.717,724L361.231,723.242L364.639,722.864L365.396,722.485L369.183,722.106L372.969,720.592L375.999,719.456L375.999,717.562L375.241,713.776L374.863,706.582L373.348,694.844L373.348,691.057L373.727,685.756L373.348,680.455L371.455,672.503L371.455,669.095L371.833,667.959L374.863,663.037L376.756,659.251L377.892,653.949L377.892,648.27L376.377,642.211L374.105,636.532L370.698,630.095L370.698,627.065L372.591,621.007L377.513,607.754L379.406,600.56L379.406,590.715L378.271,586.171L373.727,575.948L371.455,569.132L371.076,561.18L370.698,559.666L370.698,557.015L371.833,551.336L372.969,540.733L372.969,535.054L371.833,526.345L371.455,514.229L371.455,505.519L372.591,505.14L376.377,502.49L381.678,498.703L387.737,498.325L388.494,497.946L390.766,497.567L392.659,499.461L396.446,501.354L399.096,501.354L400.232,500.975L402.125,499.461L403.64,496.81L403.64,494.159L403.261,493.024L401.368,489.237L399.096,485.829L397.203,482.421L397.582,481.285L399.475,480.528L400.611,479.392L400.611,476.363L400.232,475.984L399.854,474.091L402.125,471.819L403.261,468.033L405.155,466.139L406.669,464.246L407.426,460.081L406.669,455.916L410.834,455.916L413.864,456.295L417.65,459.324L422.194,460.838L428.252,461.974L432.417,461.974L436.961,460.838L437.718,463.489L439.612,465.382L444.534,468.033L446.049,471.441L448.321,474.47L449.457,475.984L453.243,480.907L454.758,483.936L455.515,488.48L455.894,494.917L457.03,497.567L460.816,501.354L462.709,504.762L464.603,506.276L467.253,506.276L468.768,504.762L468.768,501.732L466.496,497.946L464.981,493.024L462.709,488.48L460.536,484.924L460.437,484.693L460.366,484.646L458.544,481.664L457.408,477.878L457.03,472.198L456.272,468.79L456.272,463.868L457.408,463.11L463.845,463.11L465.36,463.489L466.496,468.033L467.632,470.305L469.525,472.577L472.933,474.848L477.477,476.742L480.506,478.256L481.642,482.8L483.914,487.344L486.943,489.994L489.972,491.13L493.38,490.373L496.03,488.101L497.545,485.072L498.586,480.907L498.681,480.907L499.06,479.014L499.06,474.47L497.545,468.79L494.516,463.868L491.487,460.838L486.564,457.052L482.02,454.78L478.613,454.023L472.554,454.023L469.904,453.265L463.845,452.508L462.331,451.751L457.787,451.751L455.136,451.372L452.107,449.858L451.728,448.722L451.728,444.556L451.35,441.906L449.835,436.983L449.835,432.818L450.592,431.304L452.107,429.789L454.379,429.789L455.136,430.168L457.408,430.168L458.923,429.41L463.467,427.517L467.253,427.517L468.768,427.896L476.719,430.546L481.431,432.608L483.085,433.386L486.358,435.4L488.079,436.605L492.244,439.634L497.545,443.799L501.331,446.828L505.497,451.751L509.662,455.159L510.419,457.809L511.555,460.46L516.856,463.868L521.021,466.897L523.293,469.926L524.808,473.712L519.885,471.062L517.235,468.033L513.07,463.868L508.147,460.838L501.71,458.188L497.166,455.916L491.865,452.887L486.564,449.1L481.642,445.314L476.341,442.285L472.176,439.255L470.282,434.333L468.389,432.818L465.36,432.44L463.845,433.197L462.331,435.469L462.709,438.877L463.845,440.013L466.117,441.149L470.661,441.527L472.344,442.579L475.583,444.935L475.854,445.043L478.234,446.828L483.914,450.615L489.972,454.78L490.144,454.849L493.758,457.431L501.71,465.382L507.39,470.683L511.555,473.334L517.992,475.227L521.021,478.256L523.293,478.635L524.808,477.499L525.186,474.848L527.08,476.363L529.73,476.742L531.245,475.227L531.245,472.577L530.109,471.062L526.322,468.79L523.672,466.139L520.263,460.081L517.612,457.431L514.584,455.159L511.176,452.508L508.147,449.858L504.361,446.071L502.846,444.556L501.056,443.042L499.817,441.906L499.564,441.78L497.924,440.391L492.623,436.226L489.593,433.954L488.079,432.44L489.593,430.168L490.729,427.139L490.729,422.973L488.836,419.944L486.943,418.051L483.914,416.915L480.884,417.294L478.234,418.808L475.962,421.838L475.583,423.352L472.933,421.838L468.389,416.915L464.603,411.993L463.088,408.206L463.088,403.284L463.467,402.148L464.981,401.39L466.496,400.255L466.496,397.983L464.981,395.332L465.738,393.817L466.496,391.924L468.01,391.546L477.098,390.788L478.613,392.303L481.263,395.332L485.428,396.847L488.079,396.847L489.215,396.089L489.389,395.798L489.972,395.332L490.041,394.712L490.351,394.196L490.224,393.06L490.351,391.924L490.098,391.924L489.972,390.788L488.079,388.895L482.399,385.866L478.991,383.973L476.719,381.322L474.447,375.642L472.176,369.205L472.176,364.661L472.933,361.632L475.205,357.846L478.613,354.438L484.671,349.894L485.428,349.516L489.215,347.622L492.623,346.865L494.516,346.108L496.788,345.729L499.06,346.486L510.04,346.486L510.798,346.108L513.827,342.321L515.719,341.943L522.914,343.836L526.701,343.836L527.837,343.457L536.546,343.836L545.255,344.972L550.556,345.35L554.721,346.108L559.265,346.108L562.294,346.865L566.081,346.486L571.382,344.214L575.925,343.836L576.304,343.457L576.683,341.185L575.925,340.428L567.216,340.049L566.081,339.671L563.051,339.671L558.886,340.428L555.1,340.428L552.828,341.185L541.847,341.185L530.109,340.807L527.458,339.292L527.321,339.258L526.701,338.913L525.565,338.819L524.429,338.535L522.959,338.602L522.156,338.535L520.859,338.697L516.099,338.913L514.584,338.535L512.312,337.02L511.555,335.127L514.206,336.231L514.206,336.263L516.099,337.02L518.749,336.641L521.4,335.127L525.186,333.234L532.381,332.855L533.895,332.476L536.546,330.962L538.818,328.311L554.342,328.311L555.857,329.826L558.886,331.34L560.401,332.855L562.294,333.991L566.081,334.748L575.547,335.127L577.44,335.505L581.605,337.02L588.042,337.399L591.829,338.913L594.858,339.292L600.159,337.02L604.324,336.641L607.732,335.884L610.004,333.991L610.382,331.34L608.868,329.447L606.217,327.933L604.324,326.418L603.945,324.146L604.703,323.01L611.518,322.631L613.033,321.495L613.412,318.845L611.14,316.952L607.353,316.573Z" />
        <path d="M341.92,128.384L344.949,129.899L349.493,129.899L352.144,128.763L354.037,127.248L356.688,123.462L356.688,117.025L356.309,116.268L353.658,112.481L350.629,111.724L345.328,111.724L342.677,112.86L341.163,114.753L338.891,118.918L338.891,123.462L339.648,125.734L341.92,128.384Z" />
        <path d="M578.576,467.275L582.362,468.79L585.013,468.79L588.042,467.654L590.693,465.382L592.207,461.596L592.207,458.945L591.829,457.431L589.935,454.023L588.042,452.508L585.013,450.993L580.469,450.993L576.683,453.265L574.789,456.673L574.789,461.596L576.683,465.382L578.576,467.275Z" />
        <path d="M558.508,633.124L560.779,633.124L561.537,635.396L562.673,638.425L563.051,641.075L561.915,641.454L559.265,639.561L557.372,636.153L556.993,634.26L558.508,633.124ZM575.547,630.852L575.168,629.337L575.925,629.337L576.304,630.473L575.547,630.852ZM580.469,634.26L581.226,633.881L582.362,632.745L581.984,631.609L579.333,629.337L577.819,625.929L576.304,625.551L575.547,626.308L573.275,626.308L572.139,625.172L569.867,624.036L565.323,624.036L564.566,623.658L564.187,622.143L567.595,621.007L568.352,619.114L568.731,616.842L567.974,616.085L564.945,614.57L562.294,615.327L561.537,613.055L560.401,611.541L558.886,612.298L557.372,612.677L556.614,611.919L551.692,610.783L548.663,610.405L545.633,611.919L545.633,610.783L546.391,610.783L547.527,608.133L547.527,601.696L546.769,598.667L544.497,594.88L541.468,590.715L538.439,589.579L533.895,589.579L534.274,588.822L536.167,587.686L537.303,585.793L537.303,583.142L536.546,580.87L535.41,576.705L534.274,575.19L531.245,574.812L530.109,575.19L528.973,576.326L528.216,578.598L525.565,581.627L525.565,585.035L526.701,587.307L529.73,589.958L528.973,591.472L525.565,595.259L523.293,599.803L523.293,607.376L524.429,611.162L528.216,615.327L529.352,615.939L529.352,616.085L533.138,617.978L539.575,618.356L538.818,620.628L539.575,622.143L539.954,624.036L538.06,624.036L538.439,625.551L538.818,627.823L541.09,628.58L541.468,631.23L541.09,637.668L539.954,639.939L539.575,641.833L540.332,642.969L541.847,642.59L543.74,640.318L544.497,637.668L546.769,635.774L548.663,636.153L549.799,638.046L551.313,639.561L553.206,639.182L555.478,639.561L555.478,641.833L554.721,643.347L554.721,645.619L555.857,648.27L558.508,649.784L561.915,649.784L563.809,648.27L564.945,645.998L564.566,641.833L566.081,642.211L568.731,644.483L569.867,644.105L570.624,642.59L572.139,643.347L573.653,643.726L574.411,641.833L577.819,640.697L578.955,638.803L580.091,638.046L582.362,638.046L582.741,636.532L583.877,636.532L583.877,635.774L580.469,635.396L580.469,634.26Z" />
        <path d="M612.654,149.967L613.412,151.103L614.169,154.511L614.926,155.269L616.819,155.269L618.713,153.754L620.985,154.133L623.257,154.133L624.392,152.239L626.286,149.967L627.422,148.074L627.422,145.045L626.664,143.152L624.771,141.258L624.771,140.123L624.392,138.229L622.499,138.608L618.713,138.229L618.334,138.608L614.926,138.987L614.548,140.501L613.79,142.394L611.897,144.288L613.033,145.424L612.654,149.967Z" />
        <path d="M499.817,572.919L499.438,571.783L497.166,568.753L494.137,567.239L491.487,567.239L489.593,567.996L487.321,569.889L485.428,572.919L485.428,576.326L486.564,579.356L488.079,581.249L491.108,582.763L494.516,582.763L496.409,582.006L498.302,580.492L499.817,577.084L499.817,572.919Z" />
        <path d="M701.637,413.507L693.685,413.886L686.87,412.75L679.297,410.478L673.238,409.342L657.714,407.449L650.898,405.177L647.49,404.42L641.81,404.42L638.402,403.662L634.237,401.012L631.587,400.633L630.451,401.012L628.558,402.905L628.179,405.556L628.936,407.07L631.208,408.585L633.48,408.585L636.131,407.827L639.538,407.827L643.704,408.963L650.141,410.478L656.956,410.857L667.558,413.507L677.403,415.779L688.384,416.915L694.821,418.43L698.608,420.323L702.016,420.702L703.53,419.944L704.666,418.051L704.287,415.4L701.637,413.507Z" />
        <path d="M689.141,160.948L691.792,162.084L695.2,162.084L697.472,161.327L699.744,159.434L700.88,156.404L700.88,153.375L699.365,150.346L696.336,148.074L692.549,147.696L689.899,148.453L687.627,150.346L686.112,152.618L686.112,156.783L687.248,159.055L689.141,160.948Z" />
        <path d="M356.309,78.782L358.581,79.918L362.367,79.918L364.26,79.16L366.532,77.267L367.668,74.995L367.668,70.83L367.29,69.316L364.639,66.665L362.367,65.529L359.338,65.529L356.688,66.286L355.173,67.801L353.658,70.073L353.658,75.374L354.037,76.131L356.309,78.782Z" />
        <path d="M65.506,444.935L66.263,443.421L65.506,441.527L62.855,441.149L61.341,443.042L62.477,445.314L59.069,445.692L57.554,446.45L55.282,449.479L55.282,453.644L57.933,456.673L60.205,457.809L62.855,457.809L64.749,457.052L67.399,454.023L67.399,448.722L65.885,446.828L65.506,444.935Z" />
        <path d="M598.266,440.391L594.101,440.391L592.207,438.877L587.664,436.226L583.12,434.333L577.44,433.954L569.488,433.197L563.809,431.304L560.022,429.789L551.313,425.624L543.74,424.109L541.468,422.973L539.196,420.323L536.546,418.051L532.002,413.886L528.216,411.614L524.05,411.614L521.779,412.75L520.263,414.643L519.128,418.051L519.507,421.459L520.263,422.973L522.914,426.003L525.944,427.517L529.73,427.896L535.031,426.003L540.332,426.003L543.74,427.139L549.42,430.546L555.478,432.061L562.673,434.333L568.352,436.605L573.275,439.634L579.333,443.421L584.256,445.314L589.935,445.314L593.722,444.935L595.615,446.071L598.266,447.586L601.295,447.586L602.809,446.45L603.188,443.799L601.295,441.527L598.266,440.391Z" />
        <path d="M99.963,338.156L104.129,337.02L110.187,337.02L110.944,337.399L115.109,338.913L121.168,338.535L124.954,337.02L127.605,337.02L137.071,338.156L140.479,338.156L145.78,337.399L154.868,337.399L157.518,337.02L157.518,335.884L152.974,335.127L148.052,335.127L145.78,334.37L139.343,333.234L135.556,333.234L131.77,333.991L123.818,333.991L123.44,333.612L118.896,332.098L113.595,332.098L110.944,332.855L108.294,333.612L104.507,333.612L101.099,332.476L98.448,331.719L96.934,332.098L95.419,333.612L95.419,336.641L96.555,337.777L99.963,338.156Z" />
        <path d="M46.952,376.778L51.496,376.4L56.04,377.914L60.205,377.536L67.02,375.264L83.681,375.264L88.225,376.021L92.39,376.021L95.04,375.642L101.857,375.642L106.022,376.4L110.187,376.021L114.731,375.642L116.624,376.4L119.274,376.4L121.168,374.885L121.168,372.234L120.032,370.72L117.381,370.341L114.731,371.099L111.701,371.099L110.566,370.72L96.176,370.72L89.739,370.341L84.817,371.099L76.865,371.477L72.322,371.856L68.914,371.856L65.127,371.099L61.719,369.963L56.418,369.205L53.389,369.963L49.981,371.856L46.195,372.234L44.68,373.749L45.059,375.642L46.952,376.778Z" />
        <path d="M130.255,617.599L129.877,616.463L128.362,615.706L126.469,616.842L123.44,621.007L121.168,622.522L119.274,624.793L117.381,629.716L117.381,633.881L118.139,634.26L120.41,632.366L123.818,627.823L126.469,624.415L129.119,624.036L132.149,621.764L132.527,619.871L130.255,619.114L130.255,617.599Z" />
        <path d="M730.036,293.854L726.628,293.854L724.356,293.475L720.948,295.747L714.89,297.262L709.589,298.777L709.589,299.534L710.346,299.912L712.618,299.534L721.327,298.398L724.356,299.155L726.628,298.777L728.9,296.883L733.822,297.262L735.337,296.126L739.88,293.854L739.88,292.34L733.065,292.34L730.036,293.854Z" />
        <path d="M308.978,79.16L310.871,80.296L312.007,82.19L313.9,84.462L316.172,85.976L318.823,85.976L319.959,85.219L321.473,83.326L321.852,81.054L320.337,78.403L318.065,76.889L315.793,76.889L315.036,77.267L312.764,77.267L310.492,75.374L308.599,74.617L308.22,76.131L309.735,76.889L308.978,79.16Z" />
        <path d="M121.168,575.948L119.653,578.22L119.653,580.87L120.41,582.385L123.061,584.657L126.469,584.657L127.605,584.278L129.119,582.763L130.255,579.734L129.498,577.084L127.605,575.19L124.576,574.433L122.682,574.812L121.168,575.948Z" />
        <path d="M291.56,507.791L289.667,506.655L287.016,506.655L285.501,507.412L283.23,510.441L282.851,514.229L283.608,514.985L287.016,516.121L288.909,518.014L290.424,518.393L291.181,515.742L293.074,511.577L292.696,509.684L291.56,507.791Z" />
        <path d="M307.084,117.782L310.114,117.782L312.386,116.268L313.522,114.374L313.522,111.345L313.143,110.588L311.931,109.528L310.871,108.316L310.546,108.316L310.114,107.937L307.084,107.937L305.191,109.073L303.677,111.345L303.677,114.753L305.191,116.646L307.084,117.782Z" />
        <path d="M579.333,106.801L582.362,106.801L583.498,106.423L585.77,103.772L585.77,101.122L584.634,98.85L582.362,97.336L579.333,97.336L577.819,98.093L576.304,99.986L576.304,104.151L577.44,105.665L579.333,106.801Z" />
        <path d="M304.434,514.985L303.677,513.849L301.405,512.335L297.997,512.335L296.861,513.092L295.346,514.985L295.346,518.014L297.618,520.286L299.89,523.315L301.783,523.315L302.541,520.665L304.434,518.393L304.434,514.985Z" />
        <path d="M51.496,439.634L49.224,438.119L46.952,438.119L45.059,439.255L43.544,441.527L43.166,443.421L45.059,446.45L46.952,447.586L49.603,447.586L51.874,445.692L53.01,443.421L52.632,441.527L51.496,439.634Z" />
        <path d="M506.633,436.226L505.497,436.605L504.361,437.741L503.225,439.634L503.603,442.663L506.633,445.314L509.283,445.692L510.419,444.935L512.312,442.663L511.934,439.255L509.662,436.605L506.633,436.226Z" />
        <path d="M592.018,526.155L591.829,525.587L591.261,525.398L591.071,525.209L590.882,525.272L590.693,525.209L588.799,525.966L586.149,527.481L586.528,524.451L588.042,522.558L587.664,521.802L585.77,521.044L585.77,519.529L588.799,516.5L589.178,514.985L588.042,514.607L587.485,515.052L587.285,514.985L585.013,517.031L584.256,517.636L582.741,518.014L579.333,516.878L579.712,515.364L580.091,513.092L578.576,512.713L576.304,516.878L572.139,518.393L570.246,520.665L569.867,521.422L568.731,523.695L568.731,528.617L569.11,529.753L570.624,532.403L574.411,535.811L576.304,535.811L577.819,535.054L581.226,535.054L584.256,532.024L587.664,531.267L588.799,528.995L590.693,528.617L590.968,528.272L591.071,528.238L591.299,527.859L592.207,526.723L592.126,526.48L592.207,526.345L592.018,526.155Z" />
        <path d="M456.272,96.2L457.787,96.849L457.787,96.957L458.923,97.336L461.573,96.578L463.467,94.306L463.467,92.035L463.088,91.277L462.709,90.52L462.078,90.015L461.573,89.384L461.195,89.308L460.816,89.005L456.651,89.005L454.379,91.656L454.758,94.306L456.272,96.2Z" />
        <path d="M607.732,355.574L605.081,355.574L602.809,357.467L602.431,360.118L603.188,361.632L605.46,363.147L608.111,363.147L608.868,362.768L610.382,361.254L610.761,358.982L609.625,356.71L607.732,355.574Z" />
        <path d="M119.653,464.625L118.896,468.033L118.139,469.926L118.139,474.848L118.896,475.606L120.41,478.635L122.304,480.149L126.469,481.664L129.498,481.664L132.906,479.392L135.556,479.014L135.556,476.363L136.314,474.848L136.314,463.11L135.935,462.732L132.527,463.11L132.527,462.353L131.391,460.46L129.119,459.324L129.498,456.295L128.362,456.295L127.605,457.052L126.847,459.324L123.818,459.324L123.061,460.838L121.168,462.353L119.653,464.625Z" />
        <path d="M329.803,85.219L332.833,85.219L333.969,84.462L335.483,82.19L335.104,79.539L332.833,77.646L330.182,77.646L328.667,78.403L327.532,80.675L327.91,83.326L329.803,85.219Z" />
        <path d="M618.713,595.637L616.441,595.637L614.926,596.395L613.79,598.667L614.169,601.317L615.684,602.832L618.334,603.21L620.227,602.075L621.363,600.181L620.985,597.531L618.713,595.637Z" />
        <path d="M170.392,19.713L170.013,22.363L171.528,22.363L174.179,22.742L174.936,24.256L176.072,24.256L176.451,23.12L177.586,23.499L178.722,25.014L180.237,25.392L180.994,22.742L183.645,23.12L185.159,22.742L187.431,21.606L187.81,20.091L187.053,20.091L187.431,17.819L187.431,15.547L188.189,14.79L188.567,13.276L187.053,12.14L186.295,8.732L183.645,7.217L183.374,7.109L182.888,6.839L182.13,6.611L179.858,5.703L175.693,5.703L172.285,7.217L169.635,11.004L169.256,14.79L169.635,18.577L170.392,19.713Z" />
        <path d="M483.914,110.967L484.671,110.209L484.671,107.937L483.914,105.287L482.02,103.772L479.37,103.772L478.234,104.151L477.098,105.665L477.855,108.316L480.127,110.967L483.914,110.967Z" />
        <path d="M192.732,28.043L193.111,28.8L193.679,28.989L194.626,29.936L195.131,30.252L195.004,30.315L197.655,31.829L200.684,32.587L201.441,34.101L202.577,34.859L202.577,32.965L205.606,32.587L207.121,31.829L210.15,29.936L213.558,25.771L214.315,24.256L212.801,22.742L212.801,18.577L212.044,17.819L211.665,15.926L212.801,14.79L212.422,14.033L208.636,13.654L204.471,11.761L199.548,11.761L198.791,12.14L195.004,12.518L194.626,12.897L195.004,14.033L194.626,15.547L193.868,15.547L190.839,20.47L190.839,22.742L191.596,25.771L192.732,28.043Z" />
        <path d="M197.655,263.562L199.927,262.426L200.684,260.912L200.684,258.261L199.169,256.368L196.519,255.989L195.383,256.368L193.868,258.261L193.868,261.669L195.383,263.184L197.655,263.562Z" />
        <path d="M183.645,36.752L182.888,37.13L180.994,39.402L180.994,41.674L181.752,42.81L183.645,43.946L185.917,43.567L187.81,41.674L187.81,38.645L185.917,36.752L183.645,36.752Z" />
        <path d="M103.75,317.709L105.643,318.088L107.915,318.088L109.808,317.33L112.837,317.33L115.488,317.709L119.274,319.224L121.925,319.224L123.44,317.709L123.44,315.058L121.925,313.544L119.653,313.165L116.245,314.301L107.536,314.301L103.75,312.408L101.099,312.408L99.206,313.923L99.206,316.194L100.721,317.709L103.75,317.709Z" />
        <path d="M399.096,163.599L399.854,164.735L401.747,165.871L404.019,165.871L406.291,163.22L405.912,160.948L404.019,159.055L401.747,159.055L400.989,159.434L399.475,160.948L399.096,163.599Z" />
        <path d="M139.722,347.622L137.071,347.244L134.799,349.137L134.799,352.166L136.692,354.059L139.343,354.059L141.236,352.166L141.615,349.894L139.722,347.622Z" />
        <path d="M342.299,567.239L341.163,567.617L339.27,569.511L339.648,572.161L341.92,574.054L344.192,574.054L346.085,572.161L346.085,569.132L344.949,567.996L342.299,567.239Z" />
        <path d="M619.47,258.261L616.441,256.746L613.412,256.368L610.004,257.504L607.353,259.776L605.839,262.805L605.839,266.213L606.596,268.485L608.111,270.756L611.897,273.028L615.684,273.407L618.713,272.271L620.985,270.378L622.499,267.349L622.499,262.805L621.742,260.912L619.47,258.261Z" />
        <path d="M631.587,143.53L634.995,143.53L636.131,142.394L636.509,139.365L634.995,137.472L632.344,137.093L630.829,137.851L629.694,139.744L630.072,142.394L631.587,143.53Z" />
        <path d="M386.222,200.328L384.708,202.221L380.164,201.842L378.649,202.221L378.649,203.736L381.3,204.493L382.057,205.25L381.678,207.143L380.542,207.143L380.164,209.037L380.921,209.415L382.436,210.93L381.3,210.93L377.135,211.687L376.756,213.58L377.513,213.959L380.921,213.202L383.572,213.202L384.708,214.338L384.708,219.26L383.95,219.26L383.95,220.396L385.086,220.396L385.465,220.018L387.358,218.882L388.115,218.503L388.115,218.124L388.494,217.746L394.552,216.988L396.067,216.231L396.067,215.474L396.824,215.474L397.96,213.58L398.718,211.309L400.232,210.93L400.611,209.794L398.718,208.279L398.718,204.114L397.203,202.978L395.688,200.706L391.902,199.949L390.009,200.706L386.222,200.328Z" />
        <path d="M105.264,307.485L112.08,307.485L112.837,307.107L113.216,305.592L112.459,305.214L107.915,303.32L105.264,302.563L104.129,302.942L102.993,304.078L103.371,306.35L105.264,307.485Z" />
        <path d="M373.348,113.238L376.756,114.374L377.135,117.025L378.271,118.918L380.542,120.433L385.086,120.433L386.222,120.054L388.873,117.782L390.009,114.753L390.009,110.209L389.251,109.073L385.843,107.18L386.222,105.665L385.086,105.665L384.708,107.18L382.436,106.801L380.542,107.18L379.785,109.073L378.649,110.209L374.484,110.967L373.727,111.724L373.348,113.238Z" />
        <path d="M688.384,519.151L688.763,517.258L687.627,515.742L678.918,512.713L676.267,512.335L676.267,513.092L678.539,514.607L686.112,519.529L688.384,519.151Z" />
        <path d="M489.215,404.798L489.215,407.827L491.487,409.721L493.758,409.721L495.652,407.827L495.273,405.177L493.758,403.662L491.108,403.284L489.215,404.798Z" />
        <path d="M191.975,154.133L191.596,156.404L193.111,158.676L195.383,160.191L197.655,160.191L198.034,159.812L198.412,157.919L197.655,155.647L195.004,153.375L192.732,153.375L191.975,154.133Z" />
        <path d="M316.929,95.821L317.308,93.17L315.415,91.277L312.764,91.277L311.25,92.792L311.25,96.2L312.386,97.336L315.793,97.336L316.929,95.821Z" />
        <path d="M287.016,602.075L283.987,600.181L280.579,600.181L279.443,600.56L277.928,601.696L275.657,604.725L274.899,608.133L276.035,612.677L278.686,615.706L281.715,616.842L285.123,616.463L288.152,614.191L289.667,611.162L290.045,607.376L288.909,604.346L287.016,602.075Z" />
        <path d="M136.314,606.997L134.42,608.512L131.77,611.919L131.391,614.949L132.527,615.327L135.935,612.677L137.828,610.783L137.828,607.754L137.45,606.997L136.314,606.997Z" />
        <path d="M479.748,99.986L482.399,96.2L486.564,95.064L488.457,92.792L489.972,91.277L491.487,89.384L491.487,85.976L489.593,84.462L486.186,84.462L485.05,84.84L482.399,85.598L482.02,88.248L481.642,88.627L480.884,90.52L480.127,90.52L480.127,91.277L479.37,91.277L478.613,95.064L477.855,95.064L477.855,95.821L477.098,95.821L475.205,97.336L474.826,98.85L477.098,99.608L479.748,99.986Z" />
        <path d="M433.932,89.763L432.796,91.277L433.175,93.549L434.689,95.064L437.34,95.442L439.233,93.549L438.854,91.656L437.34,89.763L433.932,89.763Z" />
        <path d="M146.159,248.416L147.673,246.902L147.295,245.008L145.023,243.115L143.129,242.736L141.615,243.872L141.615,246.902L143.887,248.416L146.159,248.416Z" />
        <path d="M217.723,248.795L216.587,250.309L216.966,252.203L218.859,257.125L219.995,259.018L223.403,262.426L225.675,263.941L227.947,264.319L229.461,262.805L229.083,260.533L227.568,257.504L223.782,253.717L222.646,250.688L221.131,249.173L218.859,248.416L217.723,248.795Z" />
        <path d="M84.817,311.272L88.225,311.272L88.225,309.757L86.71,309L74.972,308.621L74.593,309L74.972,310.136L84.817,311.272Z" />
        <path d="M145.78,206.007L151.081,209.794L153.353,210.551L153.732,208.658L150.702,206.765L143.887,202.978L141.615,202.221L141.993,203.357L145.78,206.007Z" />
        <path d="M337.376,537.704L339.648,540.355L341.542,540.733L342.677,538.461L345.328,535.054L344.949,532.024L343.813,529.374L341.542,528.238L337.755,528.238L336.24,528.995L334.347,531.267L333.969,533.918L335.104,536.19L337.376,537.704Z" />
        <path d="M698.229,283.252L695.578,284.388L692.171,285.524L691.035,285.902L691.413,287.417L694.443,287.038L698.608,287.038L700.122,285.902L699.744,283.631L698.229,283.252Z" />
        <path d="M212.99,192.439L212.03,191.266L212.044,191.24L210.15,188.968L204.849,184.046L202.577,181.449L200.684,178.745L199.169,176.852L196.519,176.473L195.004,177.609L194.626,179.881L195.762,181.395L200.305,184.046L204.092,187.075L204.471,187.548L204.471,187.832L205.606,188.968L208.257,191.997L209.014,191.997L209.014,192.755L210.529,193.512L210.529,194.269L211.286,194.269L211.286,195.027L212.801,196.541L214.315,199.57L216.209,201.085L218.859,201.085L219.995,199.57L220.374,197.677L218.859,195.784L215.83,194.648L212.99,192.439Z" />
        <path d="M310.114,229.105L309.735,231.756L310.492,232.892L313.143,233.27L314.279,232.134L314.657,229.862L313.9,228.726L312.007,227.969L310.114,229.105Z" />
        <path d="M242.335,558.53L241.2,555.501L239.306,553.607L236.277,552.85L232.869,553.986L230.976,556.258L230.976,561.18L231.733,562.316L234.005,564.21L238.17,564.21L241.2,561.938L242.335,558.53Z" />
        <path d="M585.013,136.715L586.149,137.472L588.042,139.365L589.935,141.637L592.207,142.773L595.615,142.394L597.887,140.88L599.402,138.608L599.023,135.2L597.13,130.656L595.615,130.278L595.615,131.414L594.479,131.414L595.236,129.899L593.722,128.006L591.071,128.006L589.935,129.142L590.693,130.278L592.207,130.656L591.829,131.792L587.285,134.064L585.392,135.2L585.013,136.715Z" />
        <path d="M134.799,385.866L127.605,385.487L126.09,386.244L125.712,388.138L126.469,388.516L129.119,388.516L134.42,387.38L134.799,385.866Z" />
        <path d="M594.479,282.873L593.722,283.252L591.829,285.524L592.207,288.553L593.343,290.068L595.615,291.204L597.887,290.825L599.78,288.932L600.159,286.66L599.402,284.767L597.508,282.873L594.479,282.873Z" />
        <path d="M381.3,504.004L377.135,504.004L375.62,505.14L374.863,507.412L376.377,510.441L376.756,513.849L377.135,514.229L379.028,514.607L380.164,513.092L383.95,509.305L383.95,507.034L383.193,505.519L381.3,504.004Z" />
        <path d="M259.45,180.259L259.752,181.017L259.97,181.125L260.131,181.395L262.025,182.153L263.918,180.638L263.918,178.745L262.783,177.23L260.889,176.852L259.752,177.609L259.247,178.871L258.996,179.123L259.071,179.313L258.996,179.502L259.45,180.259Z" />
        <path d="M577.44,282.873L577.819,282.116L577.44,281.359L570.246,280.98L567.595,280.601L566.838,281.359L567.595,282.873L571.382,283.252L577.44,282.873Z" />
        <path d="M404.776,188.211L404.776,190.483L405.912,196.541L407.048,198.056L410.456,200.328L414.242,200.328L415.378,199.57L418.029,197.299L419.165,193.891L418.786,190.483L417.574,189.12L417.65,188.968L415.757,187.075L413.485,185.939L410.456,185.939L409.698,186.318L407.426,186.318L405.912,185.56L404.776,188.211Z" />
        <path d="M563.809,602.075L563.051,602.832L562.294,604.725L563.43,606.24L565.323,606.24L566.081,608.133L567.974,607.754L567.974,606.24L567.216,605.482L565.702,602.453L563.809,602.075Z" />
        <path d="M409.698,177.23L410.834,178.366L414.621,178.366L417.271,176.094L417.271,173.822L414.242,170.793L412.349,170.793L410.834,172.686L408.941,172.308L407.426,172.686L407.426,174.201L409.32,175.716L409.698,177.23Z" />
        <path d="M137.828,573.297L137.828,571.404L137.45,571.025L134.799,570.647L132.906,572.161L132.906,574.433L133.285,574.812L135.556,574.812L137.828,573.297Z" />
        <path d="M205.606,225.319L207.121,223.425L207.5,221.153L206.742,219.26L204.849,217.746L201.82,217.746L201.063,218.124L199.548,220.018L199.169,222.289L200.305,224.561L202.199,225.697L204.849,225.697L205.606,225.319Z" />
        <path d="M677.782,274.164L680.054,272.271L683.84,270.756L683.462,269.621L678.539,269.621L676.646,269.242L675.51,269.621L671.345,272.271L671.345,273.028L674.753,274.164L677.782,274.164Z" />
        <path d="M296.104,214.338L296.482,214.716L299.133,214.716L300.647,213.202L300.647,210.93L299.89,210.551L298.376,210.173L297.618,210.551L296.104,212.445L296.104,214.338Z" />
        <path d="M538.439,494.159L537.682,494.917L536.924,496.81L538.439,498.703L540.711,498.703L541.468,497.567L541.468,495.674L540.711,494.538L538.439,494.159Z" />
        <path d="M706.181,269.999L704.287,271.514L703.909,273.028L704.666,273.786L707.695,273.786L708.831,273.028L709.21,270.756L708.453,269.999L706.181,269.999Z" />
        <path d="M114.352,635.396L113.595,635.774L111.323,637.668L109.808,641.075L110.566,643.347L112.459,644.483L115.109,644.105L117.003,642.59L118.517,640.318L118.896,638.046L117.381,635.396L114.352,635.396Z" />
        <path d="M579.333,287.417L580.848,285.902L580.469,284.009L578.576,282.873L577.44,283.252L576.304,284.388L576.304,286.281L577.061,287.038L579.333,287.417Z" />
        <path d="M229.84,190.862L230.976,189.347L230.597,187.832L229.461,186.696L227.568,186.696L226.432,187.832L226.432,189.726L227.568,190.862L229.84,190.862Z" />
        <path d="M399.475,215.852L397.203,217.367L397.582,221.532L398.339,222.289L400.611,223.804L402.883,223.804L404.019,222.668L404.776,220.775L404.397,217.367L403.261,216.231L400.611,215.474L399.475,215.852Z" />
        <path d="M596.372,354.059L596.372,352.166L595.236,351.03L593.343,351.03L592.586,351.787L592.207,353.681L592.965,354.817L594.858,355.195L596.372,354.059Z" />
        <path d="M686.491,254.096L687.248,252.96L686.87,251.067L684.219,251.067L682.326,252.581L682.326,254.475L685.355,254.475L686.491,254.096Z" />
        <path d="M549.799,292.718L551.313,291.582L551.692,289.31L550.935,287.417L548.663,285.902L546.012,285.902L543.74,287.417L543.74,290.446L546.391,292.718L549.799,292.718Z" />
        <path d="M580.469,152.997L578.955,154.133L578.576,156.026L579.333,156.783L581.226,157.162L582.741,155.647L582.362,153.375L580.469,152.997Z" />
        <path d="M593.722,639.939L593.343,641.075L595.615,642.211L598.266,644.483L600.159,644.105L601.674,642.969L597.13,641.075L593.722,639.939Z" />
        <path d="M204.471,506.655L203.335,507.412L202.956,509.305L204.092,510.441L206.742,510.063L207.121,507.412L206.364,506.655L204.471,506.655Z" />
        <path d="M541.468,585.793L540.711,586.55L540.711,588.822L541.09,589.579L542.983,589.958L544.119,588.822L544.497,586.929L543.362,585.793L541.468,585.793Z" />
        <path d="M46.952,432.818L47.331,430.546L46.195,429.41L44.302,429.41L43.544,430.168L43.166,432.061L44.302,433.197L46.952,432.818Z" />
        <path d="M526.701,568.753L527.08,566.103L526.322,565.346L524.808,564.967L523.293,566.103L523.672,567.996L525.186,569.511L526.701,568.753Z" />
        <path d="M94.283,548.685L93.147,549.821L93.526,551.336L95.798,552.093L97.691,550.957L97.691,549.064L97.312,548.685L94.283,548.685Z" />
        <path d="M342.299,84.84L343.435,83.704L343.056,81.432L341.163,81.054L340.027,81.432L339.27,82.568L340.027,84.462L342.299,84.84Z" />
        <path d="M541.468,562.316L541.847,564.21L543.74,564.967L544.876,563.831L545.255,561.938L544.497,561.18L542.983,560.802L541.468,562.316Z" />
        <path d="M232.112,204.493L234.005,204.114L234.384,202.978L234.005,200.328L232.112,200.328L231.355,201.464L230.976,203.357L232.112,204.493Z" />
        <path d="M534.274,155.647L535.031,154.133L533.517,152.239L531.245,152.239L530.866,152.618L530.866,154.511L531.623,155.647L534.274,155.647Z" />
        <path d="M555.857,518.772L557.372,520.286L560.022,520.286L561.537,518.393L561.537,516.121L560.022,514.607L557.372,514.607L555.857,516.121L555.857,518.772Z" />
        <path d="M471.04,130.278L472.933,130.656L473.69,128.763L474.069,126.491L472.554,126.113L470.661,128.384L471.04,130.278Z" />
        <path d="M334.726,571.783L333.969,572.161L332.833,574.054L333.211,576.326L334.347,577.462L336.619,577.841L338.512,575.948L338.512,573.297L337.376,572.161L334.726,571.783Z" />
        <path d="M201.82,240.843L203.335,240.465L203.713,238.193L202.956,237.435L201.063,237.057L199.927,238.193L200.684,240.465L201.82,240.843Z" />
        <path d="M499.817,70.83L500.574,70.073L500.574,68.18L499.817,67.422L497.924,67.422L497.166,68.18L496.788,69.694L497.924,70.83L499.817,70.83Z" />
        <path d="M127.226,569.511L128.741,568.753L129.498,567.239L129.119,565.346L127.983,564.21L126.09,563.831L124.197,565.346L124.197,568.375L124.954,569.132L127.226,569.511Z" />
        <path d="M471.418,21.606L472.176,20.849L472.176,18.955L470.282,18.198L469.146,18.577L468.389,20.091L468.768,21.606L471.418,21.606Z" />
        <path d="M505.875,564.588L504.361,566.103L504.361,569.132L505.875,570.268L508.147,570.268L509.662,569.132L509.662,565.724L508.526,564.588L505.875,564.588Z" />
        <path d="M480.506,34.859L481.263,32.965L480.884,29.557L480.127,28.421L478.234,28.043L477.855,28.421L477.477,34.48L478.613,35.616L480.506,34.859Z" />
        <path d="M536.546,146.938L537.682,146.181L538.06,143.53L536.924,142.016L533.895,142.016L533.138,143.152L533.138,145.802L533.895,146.56L536.546,146.938Z" />
        <path d="M160.926,123.462L161.153,123.765L162.062,125.355L164.712,128.006L168.499,130.656L173.043,134.821L174.936,135.579L174.936,134.443L171.907,131.414L168.104,126.524L168.12,126.491L166.606,124.598L165.091,123.841L165.091,123.083L163.198,121.569L161.305,121.19L160.547,121.569L160.547,122.705L160.897,123.316L160.926,123.462Z" />
        <path d="M387.358,606.618L385.843,607.754L385.465,609.648L386.979,610.783L389.251,611.162L391.145,610.026L391.523,608.133L390.009,606.618L387.358,606.618Z" />
        <path d="M494.516,382.079L492.244,381.701L491.487,382.079L491.487,384.351L493.38,385.109L494.894,383.973L494.516,382.079Z" />
        <path d="M413.485,591.472L410.456,592.608L410.077,594.502L410.834,595.259L413.106,595.259L416.514,594.123L417.271,592.608L416.135,591.472L413.485,591.472Z" />
        <path d="M577.819,148.831L578.576,148.074L578.955,145.802L577.819,144.288L576.304,143.53L575.168,145.045L573.653,145.802L573.275,146.938L574.789,148.831L577.819,148.831Z" />
        <path d="M566.459,611.162L566.081,613.055L566.838,613.434L568.352,613.055L569.867,611.541L569.488,610.405L567.974,610.026L566.459,611.162Z" />
        <path d="M685.734,538.461L685.734,539.597L687.627,541.112L689.899,541.491L690.277,539.976L688.384,538.84L685.734,538.461Z" />
        <path d="M31.427,477.12L30.67,477.878L30.291,479.392L31.049,480.149L32.942,480.528L33.699,479.392L33.321,477.499L31.427,477.12Z" />
        <path d="M649.762,385.866L649.762,387.759L650.141,388.138L652.034,388.516L653.17,387.38L652.791,385.866L650.898,385.109L649.762,385.866Z" />
        <path d="M411.213,474.848L411.213,472.955L410.456,472.198L408.562,471.819L408.184,472.198L408.184,474.091L408.941,475.227L410.834,475.227L411.213,474.848Z" />
        <path d="M124.197,441.527L123.818,439.634L122.304,438.877L121.168,439.634L121.168,441.906L121.546,442.285L123.44,442.285L124.197,441.527Z" />
        <path d="M654.684,208.279L654.684,206.386L654.306,206.007L652.791,205.629L651.655,206.386L651.277,207.901L652.034,208.658L654.306,208.658L654.684,208.279Z" />
        <path d="M600.159,431.304L599.78,428.653L598.266,428.275L597.508,428.653L597.13,430.546L598.266,431.682L600.159,431.304Z" />
        <path d="M579.333,141.637L579.712,139.744L578.197,138.987L576.683,139.744L576.304,141.258L577.44,142.394L579.333,141.637Z" />
        <path d="M257.48,235.163L257.48,232.892L255.21,232.513L254.831,232.892L254.452,234.785L255.21,235.542L257.48,235.163Z" />
        <path d="M336.998,229.105L338.891,229.105L339.27,228.726L339.27,226.833L338.891,226.455L336.998,226.076L336.619,226.455L336.24,228.348L336.998,229.105Z" />
        <path d="M285.88,112.481L287.016,110.967L286.637,109.831L284.744,109.452L283.608,110.967L283.987,112.481L285.88,112.481Z" />
        <path d="M582.741,130.656L582.741,132.55L583.877,133.686L585.77,133.686L586.149,132.55L584.634,131.035L582.741,130.656Z" />
        <path d="M293.074,85.219L293.453,84.84L293.832,83.326L291.939,82.568L290.045,83.704L290.803,85.219L293.074,85.219Z" />
        <path d="M7.572,525.587L7.194,525.966L6.815,527.859L8.33,528.617L9.844,527.859L9.844,525.966L9.466,525.587L7.572,525.587Z" />
        <path d="M594.479,518.772L592.965,518.772L591.45,519.909L590.693,521.422L592.207,521.802L594.101,520.665L594.479,518.772Z" />
        <path d="M208.636,74.995L209.393,75.753L211.286,75.753L212.044,74.238L210.908,73.102L209.014,73.102L208.636,74.995Z" />
        <path d="M426.738,5.324L427.116,3.431L426.359,2.673L424.087,2.673L424.087,4.188L425.602,5.703L426.738,5.324Z" />
        <path d="M505.497,654.707L504.739,656.979L505.875,656.979L507.769,655.464L508.147,653.571L507.39,653.192L505.497,654.707Z" />
        <path d="M241.2,564.967L240.064,565.724L240.064,568.375L240.442,568.753L243.093,569.132L244.229,567.239L243.85,565.346L241.2,564.967Z" />
        <path d="M407.048,115.51L406.669,113.617L404.776,113.238L404.019,113.996L404.019,115.51L406.669,115.889L407.048,115.51Z" />
        <path d="M558.508,496.431L558.129,496.053L556.236,496.053L555.857,496.431L555.857,498.325L556.614,499.082L558.508,498.325L558.508,496.431Z" />
        <path d="M186.674,530.888L186.295,531.267L186.295,533.16L187.431,533.918L188.946,533.16L188.946,531.267L188.567,530.888L186.674,530.888Z" />
        <path d="M457.408,128.763L458.923,129.52L460.816,129.142L460.816,127.627L458.165,127.248L457.408,127.627L457.408,128.763Z" />
        <path d="M433.932,148.453L433.932,146.56L432.039,146.181L430.903,147.696L431.281,148.831L433.553,148.831L433.932,148.453Z" />
        <path d="M463.845,670.61L462.709,671.367L463.088,673.261L464.981,673.261L465.738,672.503L465.36,670.989L463.845,670.61Z" />
        <path d="M76.487,354.059L76.487,352.166L74.215,351.787L73.457,353.302L74.593,354.438L76.487,354.059Z" />
        <path d="M7.572,504.004L5.301,503.626L3.407,504.383L3.407,505.519L6.058,505.519L7.194,505.14L7.572,504.004Z" />
        <path d="M373.348,205.25L373.727,206.765L375.62,207.143L376.377,206.386L375.999,204.872L374.105,204.493L373.348,205.25Z" />
        <path d="M475.583,125.355L475.583,126.491L476.341,127.248L478.234,127.627L478.613,125.734L476.341,124.977L475.583,125.355Z" />
        <path d="M522.536,555.879L522.536,553.986L521.021,553.607L519.885,554.743L520.263,556.258L522.156,556.258L522.536,555.879Z" />
        <path d="M318.065,522.18L318.444,524.073L320.337,523.695L320.716,522.18L319.201,521.422L318.065,522.18Z" />
        <path d="M600.538,245.387L600.159,247.28L601.295,247.659L602.809,246.902L602.431,245.387L600.916,245.008L600.538,245.387Z" />
        <path d="M360.853,89.005L361.61,89.384L364.26,89.005L363.503,87.491L361.231,87.491L360.853,89.005Z" />
        <path d="M516.477,653.571L516.856,655.464L518.749,654.707L518.749,652.813L517.612,652.435L516.477,653.571Z" />
        <path d="M536.546,628.201L536.924,630.473L538.439,630.852L538.818,630.095L538.818,627.823L538.439,627.823L536.546,628.201Z" />
        <path d="M515.719,132.928L516.099,132.55L515.719,131.035L513.827,130.656L513.07,131.414L513.448,132.928L515.719,132.928Z" />
        <path d="M590.693,112.481L589.557,112.102L588.421,115.51L590.314,115.132L590.693,112.481Z" />
        <path d="M128.741,452.129L128.741,454.78L129.498,455.159L131.013,454.78L131.391,453.644L129.877,452.887L129.498,452.129L128.741,452.129Z" />
        <path d="M404.397,179.502L403.64,177.987L401.747,177.987L401.368,179.881L404.019,179.881L404.397,179.502Z" />
        <path d="M578.197,641.454L578.576,644.483L580.091,644.862L580.091,642.59L579.712,641.833L578.197,641.454Z" />
        <path d="M486.943,509.684L486.943,507.412L485.807,507.034L485.05,507.791L485.05,509.684L485.428,510.063L486.943,509.684Z" />
        <path d="M584.634,146.938L585.013,148.453L586.528,148.831L587.285,148.074L586.906,146.56L585.013,146.56L584.634,146.938Z" />
        <path d="M416.135,101.122L416.135,99.608L414.242,99.229L413.485,100.365L414.621,101.5L416.135,101.122Z" />
        <path d="M211.286,312.787L211.286,314.68L213.179,314.68L213.558,312.787L211.665,312.408L211.286,312.787Z" />
        <path d="M526.322,83.326L524.429,82.947L524.05,84.84L525.944,85.219L526.322,83.326Z" />
        <path d="M545.255,539.219L544.119,539.219L542.983,540.355L543.74,541.869L545.255,541.491L545.255,539.219Z" />
        <path d="M480.127,381.322L481.263,382.458L482.778,382.079L482.399,380.565L480.506,380.186L480.127,381.322Z" />
        <path d="M680.433,211.309L680.811,209.794L678.918,209.415L678.539,209.794L678.918,211.687L680.433,211.309Z" />
        <path d="M258.239,187.454L258.239,185.56L256.724,185.182L255.967,186.318L256.345,187.454L258.239,187.454Z" />
        <path d="M397.582,173.822L397.582,172.308L395.31,171.929L394.931,172.308L395.688,173.822L397.582,173.822Z" />
        <path d="M545.255,283.252L544.876,281.359L543.362,281.359L542.983,281.737L543.74,283.631L545.255,283.252Z" />
        <path d="M677.403,390.788L677.403,392.303L678.918,392.682L679.297,390.788L677.782,390.41L677.403,390.788Z" />
        <path d="M158.275,579.356L157.897,581.249L159.79,580.87L159.79,578.977L159.033,578.598L158.275,579.356Z" />
        <path d="M470.282,531.646L471.797,532.024L472.176,530.131L470.661,529.753L470.282,531.646Z" />
        <path d="M665.024,178.017L665.287,178.366L667.558,178.745L669.452,177.23L669.452,174.58L668.694,173.822L666.422,173.065L665.665,173.444L664.151,174.958L664.151,176.852L664.908,177.987L665.024,178.017Z" />
        <path d="M571.003,601.317L571.382,602.832L573.275,602.453L573.275,601.317L571.382,600.939L571.003,601.317Z" />
        <path d="M449.078,23.878L447.563,23.499L447.185,23.878L447.185,25.392L449.078,25.392L449.078,23.878Z" />
        <path d="M505.118,489.237L504.739,488.101L503.603,487.722L503.225,488.101L502.846,489.616L504.361,489.994L505.118,489.237Z" />
        <path d="M485.807,700.902L487.7,701.281L487.7,699.387L486.186,699.387L485.807,700.902Z" />
        <path d="M482.399,669.853L483.156,670.231L483.914,669.853L484.292,668.338L482.778,667.959L482.399,669.853Z" />
        <path d="M498.681,615.706L500.574,616.085L500.953,614.57L499.438,614.191L498.681,615.706Z" />
        <path d="M569.11,286.66L571.003,286.66L571.003,285.145L569.867,284.767L568.731,285.902L569.11,286.66Z" />
        <path d="M573.275,615.706L575.547,615.327L575.925,614.191L574.032,614.191L573.275,614.57L573.275,615.706Z" />
        <path d="M399.854,129.142L399.854,128.384L397.96,127.248L397.582,128.763L398.718,129.52L399.854,129.142Z" />
        <path d="M624.014,290.446L625.528,290.825L625.907,289.31L624.392,288.932L624.014,290.446Z" />
        <path d="M573.275,252.203L574.789,252.581L575.168,251.067L573.653,250.688L573.275,252.203Z" />
        <path d="M302.919,46.975L301.026,46.597L300.647,48.111L302.541,48.111L302.919,46.975Z" />
        <path d="M574.032,646.376L575.168,646.755L575.547,644.862L574.032,644.483L574.032,646.376Z" />
        <path d="M450.592,538.84L452.486,539.219L452.864,538.083L450.971,537.704L450.592,538.84Z" />
        <path d="M756.162,288.932L755.784,290.446L757.677,290.446L757.677,288.932L756.162,288.932Z" />
        <path d="M522.156,677.426L523.672,677.804L524.05,676.668L522.536,675.911L522.156,677.426Z" />
        <path d="M549.041,525.587L549.041,524.451L547.527,524.073L547.148,524.451L547.905,525.966L549.041,525.587Z" />
        <path d="M298.376,229.862L298.376,230.998L299.89,231.377L300.269,230.241L299.133,229.484L298.376,229.862Z" />
        <path d="M372.591,174.58L371.076,174.58L370.698,175.716L372.591,176.094L372.591,174.58Z" />
        <path d="M578.576,608.89L577.061,608.512L576.304,610.026L577.819,610.026L578.576,608.89Z" />
        <path d="M595.994,583.521L594.858,583.521L594.479,585.035L595.615,585.414L595.994,583.521Z" />
        <path d="M171.149,126.491L172.664,126.87L173.043,125.734L171.149,125.355L171.149,126.491Z" />
        <path d="M372.591,94.685L371.076,94.306L370.698,95.821L372.591,95.821L372.591,94.685Z" />
        <path d="M519.507,63.257L517.992,63.257L517.612,64.393L519.507,64.772L519.507,63.257Z" />
        <path d="M506.254,594.502L504.739,594.502L504.361,596.016L505.497,596.016L506.254,594.502Z" />
        <path d="M245.743,519.529L246.879,519.909L247.258,518.393L246.122,518.014L245.743,519.529Z" />
        <path d="M549.799,473.712L549.799,475.227L550.935,475.227L551.313,473.712L549.799,473.712Z" />
        <path d="M141.615,448.343L140.1,447.964L139.722,449.1L141.236,449.479L141.615,448.343Z" />
        <path d="M385.843,189.726L384.708,188.59L383.95,188.968L383.95,189.726L385.465,190.483L385.843,189.726Z" />
        <path d="M173.043,375.642L173.043,376.778L174.179,377.157L174.557,375.642L173.043,375.642Z" />
        <path d="M372.591,90.899L372.212,89.763L371.076,89.763L370.698,90.52L371.076,91.277L372.591,90.899Z" />
        <path d="M212.801,10.246L211.665,10.246L211.286,11.382L212.801,11.761L212.801,10.246Z" />
        <path d="M522.914,661.522L521.779,661.144L521.779,663.037L522.536,663.037L522.914,661.522Z" />
        <path d="M589.935,648.27L591.071,648.648L591.45,647.512L589.935,647.134L589.935,648.27Z" />
        <path d="M544.497,643.726L546.012,644.105L546.012,642.59L544.876,642.59L544.497,643.726Z" />
        <path d="M537.682,636.532L538.818,636.532L539.196,635.017L538.06,635.017L537.682,636.532Z" />
        <path d="M567.595,600.56L566.459,600.181L566.081,601.696L567.216,601.696L567.595,600.56Z" />
        <path d="M379.406,190.483L378.271,190.104L377.892,191.24L379.406,191.619L379.406,190.483Z" />
        <path d="M428.252,116.268L428.252,117.404L429.388,118.161L429.767,117.025L428.252,116.268Z" />
        <path d="M60.205,525.209L59.826,526.723L61.341,526.345L60.962,525.209L60.205,525.209Z" />
        <path d="M141.236,459.324L141.236,458.188L140.1,457.809L139.722,458.945L141.236,459.324Z" />
        <path d="M611.518,229.862L613.033,229.862L613.412,229.105L611.897,228.726L611.518,229.862Z" />
        <path d="M518.749,131.035L519.507,131.414L520.263,129.899L518.749,129.899L518.749,131.035Z" />
        <path d="M511.176,181.774L510.04,181.017L509.283,181.774L511.176,182.531L511.176,181.774Z" />
        <path d="M353.658,162.084L354.794,162.463L355.173,161.327L354.416,160.948L353.658,161.327L353.658,162.084Z" />
        <path d="M335.104,96.2L336.24,96.2L336.24,94.685L335.483,94.685L335.104,96.2Z" />
        <path d="M588.042,636.532L589.178,636.91L589.557,635.774L588.042,635.774L588.042,636.532Z" />
        <path d="M413.864,143.909L413.106,143.53L412.349,144.666L413.485,145.045L413.864,143.909Z" />
        <path d="M491.487,80.296L490.729,79.918L490.351,81.432L491.487,81.432L491.487,80.296Z" />
        <rect x="684.976" y="543.384" width="1.136" height="1.136" />
        <path d="M500.196,538.083L499.06,537.704L498.681,538.461L500.196,538.84L500.196,538.083Z" />
        <path d="M668.694,274.164L669.83,273.786L669.83,273.028L668.316,273.028L668.694,274.164Z" />
        <path d="M514.584,162.084L515.341,162.084L515.719,160.948L514.963,160.57L514.584,162.084Z" />
        <path d="M515.719,151.861L514.963,151.482L514.963,153.375L515.719,153.375L515.719,151.861Z" />
        <path d="M394.552,128.006L393.416,127.627L393.416,128.763L394.552,129.142L394.552,128.006Z" />
        <path d="M497.545,117.782L498.302,117.782L498.302,116.268L497.545,115.889L497.545,117.782Z" />
        <path d="M446.427,11.382L445.67,11.004L445.291,12.518L446.049,12.518L446.427,11.382Z" />
        <path d="M397.96,622.143L399.096,622.522L399.096,621.386L397.96,621.386L397.96,622.143Z" />
        <path d="M582.741,618.356L583.877,618.735L583.877,617.599L582.741,617.599L582.741,618.356Z" />
        <path d="M507.769,600.181L506.633,599.803L506.633,600.939L507.769,600.939L507.769,600.181Z" />
        <path d="M293.832,238.95L295.346,238.571L294.589,237.814L293.832,238.193L293.832,238.95Z" />
        <path d="M574.789,141.637L574.032,141.637L573.653,142.773L574.789,142.773L574.789,141.637Z" />
        <path d="M386.222,83.704L385.465,83.326L385.086,84.462L385.843,84.84L386.222,83.704Z" />
        <path d="M195.762,60.228L194.626,60.228L194.626,61.364L195.383,61.364L195.762,60.228Z" />
        <path d="M377.135,565.346L377.892,565.346L378.271,564.588L377.135,564.21L377.135,565.346Z" />
        <path d="M214.315,286.66L213.179,286.281L213.179,287.417L213.937,287.417L214.315,286.66Z" />
        <path d="M574.032,239.329L573.653,240.086L574.789,240.465L574.789,239.329L574.032,239.329Z" />
        <path d="M514.963,156.404L515.341,157.919L515.719,156.404L514.963,156.404Z" />
        <path d="M567.216,136.336L567.974,136.336L568.352,135.579L567.216,135.2L567.216,136.336Z" />
        <path d="M380.542,127.248L380.164,128.384L381.3,128.384L381.3,127.627L380.542,127.248Z" />
        <path d="M501.71,107.18L501.71,106.044L500.953,106.044L500.574,106.801L501.71,107.18Z" />
        <path d="M310.871,64.772L310.114,64.393L309.735,65.529L310.871,65.529L310.871,64.772Z" />
        <rect x="26.126" y="498.325" width="1.136" height="0.757" />
        <rect x="576.304" y="247.659" width="0.757" height="1.136" />
        <path d="M290.424,243.115L290.045,244.251L291.181,243.872L290.424,243.115Z" />
        <path d="M432.417,121.569L432.039,122.705L433.175,122.326L432.417,121.569Z" />
        <path d="M374.105,109.073L373.348,108.695L372.969,109.452L374.105,109.831L374.105,109.073Z" />
        <path d="M567.595,69.694L566.838,69.694L566.459,70.073L567.216,70.83L567.595,69.694Z" />
        <path d="M480.884,9.489L480.127,9.11L479.748,9.868L480.884,10.246L480.884,9.489Z" />
        <path d="M199.169,6.081L198.791,7.217L199.927,6.839L199.169,6.081Z" />
        <path d="M464.224,566.103L464.224,566.86L465.36,566.482L464.224,566.103Z" />
        <path d="M140.1,560.802L139.722,561.559L140.857,561.559L140.1,560.802Z" />
        <path d="M183.645,404.42L184.781,404.041L183.645,403.662L183.645,404.42Z" />
        <path d="M161.683,13.276L160.547,13.276L160.547,13.654L161.683,14.033L161.683,13.276Z" />
        <path d="M164.334,9.868L163.576,9.868L163.955,11.004L164.334,9.868Z" />
        <rect x="304.434" y="615.706" width="0.757" height="0.757" />
        <path d="M502.846,596.773L503.982,596.773L503.225,596.395L502.846,596.773Z" />
        <path d="M480.127,586.929L481.263,586.929L480.506,586.55L480.127,586.929Z" />
        <rect x="519.507" y="564.588" width="0.756" height="0.758" />
        <rect x="686.112" y="559.287" width="0.758" height="0.757" />
        <rect x="163.576" y="552.85" width="0.758" height="0.757" />
        <rect x="706.181" y="299.534" width="0.757" height="0.757" />
        <rect x="577.819" y="239.329" width="0.757" height="0.757" />
        <path d="M190.461,59.092L190.461,60.228L191.218,59.849L190.461,59.092Z" />
        <rect x="295.725" y="54.17" width="0.757" height="0.757" />
        <rect x="209.014" y="49.626" width="0.758" height="0.757" />
        <path d="M502.846,692.193L503.225,691.436L502.467,691.436L502.846,692.193Z" />
        <path d="M594.479,635.017L595.236,634.638L594.479,634.26L594.479,635.017Z" />
        <path d="M258.239,506.276L258.996,506.655L258.617,505.898L258.239,506.276Z" />
        <path d="M0,506.276L0.757,505.898L0,505.519L0,506.276Z" />
        <path d="M613.033,349.516L613.412,348.758L612.654,348.758L613.033,349.516Z" />
        <path d="M242.335,196.92L241.578,196.92L241.957,197.677L242.335,196.92Z" />
        <path d="M382.814,158.298L383.193,159.055L383.572,158.298L382.814,158.298Z" />
        <path d="M324.124,90.52L324.124,91.277L324.881,91.277L324.124,90.52Z" />
        <path d="M143.129,0.401L142.372,0.401L142.751,1.159L143.129,0.401Z" />
    </g>
</svg>
