<?xml version="1.0" encoding="UTF-8" standalone="no"?>
<!DOCTYPE svg PUBLIC "-//W3C//DTD SVG 1.1//EN" "http://www.w3.org/Graphics/SVG/1.1/DTD/svg11.dtd">
<svg width="100%" height="100%" viewBox="0 0 7149 2654" version="1.1" xmlns="http://www.w3.org/2000/svg" xmlns:xlink="http://www.w3.org/1999/xlink" xml:space="preserve" xmlns:serif="http://www.serif.com/" style="fill-rule:evenodd;clip-rule:evenodd;stroke-linejoin:round;stroke-miterlimit:2;">
    <g transform="matrix(1,0,0,1,-26806.185157,-9562.019167)">
        <g transform="matrix(4.166667,0,0,4.166667,26461.265625,9402.5625)">
            <g transform="matrix(1,0,0,1,739.2917,497.4191)">
                <path d="M0,-44.736C-4.212,-50.375 -7.71,-55.535 -10.796,-60.087C-22.318,-77.081 -30.642,-89.359 -58.108,-101.799C-63.14,-104.078 -69.572,-106.677 -76.381,-109.429C-95.662,-117.221 -124.8,-128.998 -133.929,-139.521C-136.03,-141.944 -137.846,-144.402 -139.769,-147.005C-143.844,-152.519 -148.058,-158.222 -154.96,-163.448C-177.112,-180.221 -215.233,-183.763 -248.866,-186.889C-263.449,-188.244 -277.223,-189.524 -288.33,-191.723C-305.25,-195.075 -321.524,-200.055 -337.264,-204.872C-363.487,-212.897 -390.604,-221.196 -421.398,-222.221C-423.756,-222.3 -426.135,-222.34 -428.469,-222.34C-473.771,-222.34 -508.881,-207.798 -546.843,-190.23C-562.854,-182.82 -578.757,-174.693 -594.138,-166.833C-612.652,-157.372 -631.798,-147.588 -651.02,-139.127C-654.102,-137.77 -656.093,-134.723 -656.098,-131.356L-656.511,140.666C-656.516,143.603 -655.004,146.334 -652.514,147.891C-651.141,148.749 -649.576,149.183 -648.007,149.183C-646.731,149.183 -645.452,148.896 -644.269,148.317C-612.836,132.932 -582.249,107.307 -555.071,84.244C-554.808,87.152 -554.078,90.146 -552.578,93.146C-551.458,95.389 -549.404,97.023 -546.966,97.611C-546.307,97.77 -545.637,97.848 -544.972,97.848C-543.177,97.848 -541.41,97.28 -539.936,96.197C-530.171,89.022 -522.795,79.897 -515.661,71.073C-510.258,64.388 -505.155,58.075 -499.218,52.765C-489.619,44.179 -478.354,37.484 -467.122,33.636C-443.675,50.65 -418.595,61.934 -390.588,68.088C-384.798,69.361 -378.845,70.274 -373.089,71.158C-358.85,73.342 -345.401,75.406 -334.579,82.441C-323.467,89.663 -312.45,100.175 -300.786,111.305C-276.181,134.783 -248.292,161.392 -212.048,161.392C-209.672,161.392 -207.257,161.277 -204.869,161.047C-197.028,160.296 -190.735,157.566 -184.683,154.86C-182.407,158.424 -179.787,162.35 -175.972,165.71C-167.266,173.38 -155.721,177.604 -143.464,177.604C-129.651,177.604 -117.265,172.22 -108.988,162.899C-107.883,163.582 -106.766,164.333 -105.586,165.127C-101.533,167.854 -96.938,170.944 -90.534,172.784C-84.688,174.463 -79.07,175.315 -73.836,175.315C-61.406,175.315 -50.941,170.578 -43.573,161.618C-33.675,149.578 -30.293,131.029 -34.295,110.723C-37.681,93.536 -44.398,76.772 -50.895,60.56C-51.689,58.578 -52.478,56.611 -53.255,54.656C-39.533,67.616 -15.264,80.202 7.035,80.202L7.039,80.202C23.777,80.202 36.695,73.264 44.391,60.136C63.917,26.834 35.434,-4.654 14.638,-27.646C9.106,-33.761 3.882,-39.538 0,-44.736" style="fill:white;fill-rule:nonzero;"/>
            </g>
        </g>
        <g transform="matrix(4.166667,0,0,4.166667,26461.265625,9402.5625)">
            <g transform="matrix(1,0,0,1,1794.968,586.1606)">
                <path d="M0,-546.247C-1.477,-547.328 -3.24,-547.891 -5.026,-547.891C-5.886,-547.891 -6.751,-547.761 -7.59,-547.495C-26.777,-541.425 -45.147,-533.059 -62.913,-524.97C-81.45,-516.527 -100.619,-507.799 -120.263,-501.965C-140.634,-495.915 -160.726,-493.158 -181.997,-490.24C-197.353,-488.134 -213.229,-485.956 -229.065,-482.428C-270.416,-473.215 -306.727,-453.193 -341.843,-433.83C-365.137,-420.986 -389.224,-407.705 -414.256,-397.96C-432.577,-390.828 -450.41,-389.579 -469.29,-388.256C-486.143,-387.075 -503.569,-385.854 -522.093,-380.317C-545.902,-373.2 -577.108,-361.518 -617.494,-344.603C-642.641,-334.072 -684.729,-316.447 -683.227,-277.732C-682.267,-253.004 -665.594,-240.9 -651.776,-235.102C-642.217,-231.09 -632.513,-229.14 -622.109,-229.14C-600.404,-229.14 -580.095,-237.814 -560.458,-246.204C-549.084,-251.063 -538.34,-255.653 -527.562,-258.548C-512.144,-262.69 -493.828,-263.56 -481.179,-263.56C-477.866,-263.56 -474.541,-263.501 -471.228,-263.385C-471.332,-263.286 -471.436,-263.187 -471.54,-263.091C-474.98,-259.877 -479.119,-256.467 -483.502,-252.857C-499.713,-239.504 -519.888,-222.886 -522.398,-200.441C-524.679,-180.066 -516.458,-162.417 -499.255,-150.75C-498.272,-150.083 -497.204,-149.555 -496.078,-149.034C-498.979,-136.891 -498.979,-125.16 -498.979,-113.761C-498.979,-110.585 -498.979,-107.301 -499.042,-104.052C-499.095,-101.337 -499.168,-98.644 -499.24,-95.967C-499.788,-75.752 -500.354,-54.849 -491.346,-33.649C-482.308,-12.38 -465.333,0.833 -447.044,0.833C-440.323,0.833 -433.602,-0.934 -427.064,-4.417C-424.32,-5.88 -421.442,-8.48 -418.903,-10.774C-418.705,-10.953 -418.489,-11.148 -418.271,-11.345C-408.788,-2.932 -397.525,1.644 -386.06,1.644C-369.24,1.644 -354.175,-7.858 -344.727,-24.425C-341.678,-29.772 -339.867,-34.998 -338.726,-40.121C-329.03,-28.987 -317.458,-22.986 -305.296,-22.986C-280.152,-22.986 -259.53,-47.822 -257.329,-80.758C-257.059,-84.811 -257.334,-88.745 -257.601,-92.551C-257.983,-98.004 -258.344,-103.155 -256.854,-106.817C-255.825,-109.342 -253.507,-112.537 -251.266,-115.627C-249.184,-118.496 -247.03,-121.464 -245.292,-124.632C-241.987,-130.649 -239.517,-136.865 -237.189,-142.931C-221.805,-144.495 -209.691,-152.354 -197.937,-159.981C-190.853,-164.579 -184.16,-168.921 -176.931,-171.805C-174.102,-172.933 -171.494,-173.829 -168.972,-174.697C-163.462,-176.592 -157.764,-178.552 -150.828,-182.628C-121.031,-200.142 -94.28,-227.682 -77.434,-258.186C-76.368,-260.115 -75.187,-262.719 -73.819,-265.733C-72.193,-269.316 -68.884,-276.611 -67.143,-278.705C-64.771,-279.796 -57.398,-281.326 -54.541,-281.919C-53.241,-282.189 -52.083,-282.431 -51.166,-282.638C-39.828,-285.206 -27.958,-287.07 -16.479,-288.873C-12.188,-289.547 -7.902,-290.221 -3.633,-290.93C0.471,-291.61 3.479,-295.159 3.479,-299.318L3.479,-539.387C3.479,-542.098 2.187,-544.645 0,-546.247" style="fill:white;fill-rule:nonzero;"/>
            </g>
        </g>
        <g transform="matrix(4.166667,0,0,4.166667,26461.265625,9402.5625)">
            <g transform="matrix(1,0,0,1,526.1592,426.7224)">
                <path d="M0,101.537C-3.491,85.105 -15.976,73.939 -33.681,79.427C-30.194,84.532 -25.224,88.172 -20.099,91.541C-17.922,92.973 -1.153,102.776 0,101.537M85.962,59.987L59.955,61.941C59.213,84.816 67.463,107.892 82.884,124.838C89.237,131.819 97.144,138.145 107.002,138.959C107.035,141.423 103.909,141.946 102.172,144.495C90.072,162.244 108.732,203.919 125.995,213.196C132.699,216.798 144.726,220.067 149.894,212.362C160.818,196.071 140.937,155.28 134.953,138.15C128.255,118.973 122.791,98.915 114.34,80.657C103.733,75.522 92.021,70.72 85.962,59.987M1.157,50.977L0.196,49.654C-0.069,57.099 9.139,82.232 14.632,86.068C18.856,89.019 28.462,84.484 33.155,83.061C32.901,88.304 29.313,92.031 27.488,96.687C18.261,120.228 31.88,127.616 39.836,147.08C44.509,158.511 50.022,176.736 49.026,188.94C48.357,197.129 44.703,197.58 49.33,206.841C55.976,220.141 75.427,226.348 85.907,214.176C90.276,209.101 90.171,205.028 88.432,198.712C86.385,191.278 81.49,183.896 79.747,175.616C78.087,167.725 79.578,159.164 78.251,152.459C77.708,149.714 59.368,125.47 56.046,119.465C52.076,112.291 47.923,103.745 46.229,95.703C43.741,83.901 44.299,73.162 44.611,61.24C29.701,61.113 16.524,54.085 3.258,48.343L2.018,48.253L1.157,50.977ZM48.408,-54.423C51.087,-59.112 44.869,-64.087 41.421,-66.729C16.494,-85.829 -51.263,-84.19 -84.837,-90.766C-145.243,-102.599 -182.623,-129.049 -248.476,-110.665C-266.841,-105.538 -306.934,-85.21 -319.546,-71.206C-320.356,-70.308 -321.186,-69.908 -320.833,-68.459C-307.489,-72.259 -295.276,-66.418 -286.402,-56.72C-307.595,-43.285 -327.904,-25.649 -339.839,-3.228C-322.373,-6.402 -304.935,-8.057 -288.355,-0.272C-300.732,17.804 -318.465,32.647 -326.456,53.465C-309.475,49.99 -292.305,50.833 -275.046,50.982C-282.505,36.647 -279.672,21.412 -272.458,7.637C-268.67,16.047 -266.561,24.932 -262.796,33.386C-245.741,71.676 -203.788,105.005 -160.921,107.142C-147.907,107.79 -154.227,105.925 -155.307,99.557C-155.463,98.637 -156.118,92.785 -154.003,93.639C-135.693,112.277 -110.567,119.611 -90.276,136.145C-66.938,155.162 -39.646,191.296 -9.596,197.824C18.337,203.893 30.034,180.464 20.758,156.604C0.736,105.104 -71.068,101.468 -87.965,50.546C-94.685,30.292 -83.546,9.038 -70.446,-5.842C-67.039,9.669 -83.584,42.09 -60.297,47.749C-44.507,51.587 -17.13,34.943 -7.372,22.637L7.242,0.363C15.931,15.956 5.114,24.555 25.3,33.047C37.752,38.286 66.852,41.285 79.725,37.989C86.745,36.191 91.038,29.658 96.477,25.363C97.397,41.989 107.324,49.993 120.457,57.916C127.481,62.154 136.486,67.965 144.919,65.855C148.955,64.845 152.435,59.36 156.497,61.123C160.289,62.77 159.536,72.567 160.755,76.909C164.895,91.656 181.049,110.404 195.14,116.607C213.216,124.563 241.193,123.374 235.31,96.405C232.825,85.01 205.672,61.801 197.042,51.548C177.839,28.737 174.895,10.732 144.572,-2.508C108.025,-18.466 63.048,-31.489 31.646,-55.814C30.858,-56.424 29.611,-56.652 28.621,-56.8L29.028,-58.58L48.408,-54.423ZM-434.461,-60.647C-399.032,-76.241 -365.297,-95.545 -330.139,-111.815C-289.717,-130.522 -254.372,-144.552 -208.549,-143.026C-160.667,-141.432 -122.44,-121.714 -76.849,-112.685C-39.597,-105.308 23.749,-108.149 53.039,-85.972C61.979,-79.203 65.902,-71.18 72.78,-63.252C86.515,-47.419 131.018,-32.639 151.516,-23.356C183.964,-8.66 186.724,4.812 206.319,31.05C225.4,56.599 271.068,90.919 250.188,126.532C232.019,157.52 181.7,137.123 162.686,116.083C157.062,109.86 148.073,93.988 143.099,90.017C141.876,89.041 140.369,88.769 138.842,88.896C145.889,120.623 164.236,151.302 170.494,183.063C176.87,215.421 162.474,246.089 124.947,235.307C115.251,232.521 110.307,225.853 101.466,222.896C89.647,242.941 59.717,244.944 42.782,230.026C37.962,225.78 35.335,219.979 31.588,214.929C23.493,218.182 16.447,222.418 7.453,223.279C-44.86,228.29 -79.226,170.439 -116.811,146.007C-133.999,134.835 -155.97,134.8 -175.631,130.479C-204.237,124.193 -229.076,112.551 -252.4,94.928C-266.843,99.019 -280.59,107.137 -291.755,117.123C-306.354,130.181 -315.935,148.355 -331.839,160.04C-335.906,151.902 -331.496,142.914 -331.257,134.77C-362.412,160.853 -398.159,193.404 -434.875,211.375L-434.461,-60.647Z" style="fill-rule:nonzero;"/>
            </g>
        </g>
        <g transform="matrix(4.166667,0,0,4.166667,26461.265625,9402.5625)">
            <g transform="matrix(1,0,0,1,574.5676,555.9879)">
                <path d="M0,-183.688L-19.381,-187.846L-19.788,-186.066C-18.797,-185.917 -17.55,-185.69 -16.762,-185.079C14.639,-160.755 59.617,-147.732 96.164,-131.774C126.486,-118.534 129.431,-100.529 148.633,-77.717C157.263,-67.465 184.416,-44.255 186.902,-32.861C192.785,-5.891 164.808,-4.702 146.732,-12.659C132.64,-18.861 116.487,-37.609 112.347,-52.356C111.128,-56.699 111.881,-66.496 108.089,-68.142C104.027,-69.905 100.547,-64.42 96.51,-63.411C88.077,-61.301 79.072,-67.111 72.048,-71.349C58.916,-79.272 48.989,-87.276 48.068,-103.902C42.63,-99.607 38.336,-93.074 31.316,-91.276C18.444,-87.98 -10.656,-90.98 -23.109,-96.218C-43.295,-104.71 -32.477,-113.31 -41.166,-128.902L-55.78,-106.628C-65.538,-94.322 -92.916,-77.678 -108.706,-81.516C-131.992,-87.176 -115.447,-119.597 -118.855,-135.107C-131.954,-120.228 -143.094,-98.973 -136.373,-78.72C-119.476,-27.797 -47.672,-24.161 -27.651,27.339C-18.375,51.199 -30.071,74.627 -58.004,68.559C-88.055,62.03 -115.346,25.897 -138.685,6.879C-158.975,-9.655 -184.101,-16.989 -202.411,-35.627C-204.526,-36.481 -203.871,-30.628 -203.715,-29.709C-202.635,-23.34 -196.315,-21.475 -209.329,-22.124C-252.196,-24.261 -294.149,-57.589 -311.204,-95.879C-314.97,-104.333 -317.078,-113.219 -320.867,-121.629C-328.08,-107.853 -330.914,-92.618 -323.454,-78.284C-340.713,-78.433 -357.883,-79.276 -374.864,-75.801C-366.873,-96.618 -349.14,-111.462 -336.763,-129.537C-353.343,-137.323 -370.782,-135.667 -388.248,-132.493C-376.313,-154.914 -356.004,-172.55 -334.811,-185.985C-343.684,-195.684 -355.898,-201.525 -369.241,-197.724C-369.594,-199.174 -368.764,-199.573 -367.955,-200.471C-355.342,-214.475 -315.249,-234.803 -296.884,-239.93C-231.032,-258.315 -193.651,-231.864 -133.245,-220.032C-99.672,-213.455 -31.915,-215.095 -6.987,-195.994C-3.539,-193.353 2.679,-188.377 0,-183.688" style="fill:rgb(255,196,53);fill-rule:nonzero;"/>
            </g>
        </g>
        <g transform="matrix(4.166667,0,0,4.166667,26461.265625,9402.5625)">
            <g transform="matrix(1,0,0,1,612.1213,646.79)">
                <path d="M0,-160.081C6.059,-149.348 17.771,-144.546 28.378,-139.41C36.829,-121.153 42.292,-101.094 48.991,-81.917C54.975,-64.787 74.856,-23.996 63.932,-7.706C58.764,0 46.736,-3.269 40.033,-6.872C22.77,-16.148 4.11,-57.823 16.21,-75.573C17.947,-78.121 21.073,-78.644 21.04,-81.108C11.182,-81.923 3.274,-88.249 -3.078,-95.229C-18.499,-112.176 -26.749,-135.251 -26.008,-158.126L0,-160.081Z" style="fill:rgb(255,196,53);fill-rule:nonzero;"/>
            </g>
        </g>
        <g transform="matrix(4.166667,0,0,4.166667,26461.265625,9402.5625)">
            <g transform="matrix(1,0,0,1,527.3157,650.3463)">
                <path d="M0,-172.647L0.862,-175.371L2.102,-175.281C15.368,-169.539 28.544,-162.51 43.454,-162.384C43.142,-150.461 42.585,-139.722 45.072,-127.92C46.767,-119.879 50.92,-111.333 54.889,-104.159C58.212,-98.154 76.551,-73.91 77.095,-71.165C78.422,-64.46 76.93,-55.898 78.591,-48.008C80.333,-39.728 85.228,-32.346 87.275,-24.912C89.014,-18.596 89.119,-14.522 84.75,-9.448C74.27,2.724 54.819,-3.483 48.174,-16.783C43.547,-26.044 47.201,-26.495 47.869,-34.684C48.865,-46.888 43.352,-65.112 38.679,-76.544C30.723,-96.008 17.104,-103.396 26.332,-126.937C28.157,-131.593 31.744,-135.32 31.998,-140.563C27.306,-139.14 17.7,-134.605 13.476,-137.556C7.982,-141.392 -1.226,-166.525 -0.961,-173.97L0,-172.647Z" style="fill:rgb(255,196,53);fill-rule:nonzero;"/>
            </g>
        </g>
        <g transform="matrix(4.166667,0,0,4.166667,26461.265625,9402.5625)">
            <g transform="matrix(1,0,0,1,526.1592,501.9004)">
                <path d="M0,26.359C-1.153,27.598 -17.922,17.795 -20.099,16.363C-25.224,12.994 -30.194,9.354 -33.681,4.249C-15.976,-1.239 -3.491,9.927 0,26.359" style="fill:rgb(255,196,53);fill-rule:nonzero;"/>
            </g>
        </g>
        <g transform="matrix(4.166667,0,0,4.166667,26461.265625,9402.5625)">
            <g transform="matrix(1,0,0,1,1345.9131,146.2772)">
                <path d="M0,340.934C8.733,338.139 17.23,331.416 21.803,323.474C24.693,318.455 37.4,282.594 35.182,279.552C27.026,283.094 17.766,287.214 9.05,289.06C4.792,289.962 -2.634,291.21 -6.822,291.318C-16.965,291.577 -16.454,286.515 -18.816,300.002C-22.961,323.674 -25.28,379.924 -14.335,400.828C-8.136,412.669 5.705,415.783 14.433,404.549C24.352,391.782 32.269,352.559 15.652,342.862C10.462,339.833 8.192,341.374 3.135,341.818C2.156,341.904 -0.235,342.471 0,340.934M183.208,286.777C173.755,285.534 164.446,282.78 155.419,279.81C152.105,278.719 136.559,271.902 135.045,272.401C124.136,295.012 117.848,322.206 120.042,347.677C121.059,359.486 128.796,383.704 141.215,387.906C148.833,390.483 156.089,380.834 158.703,374.634C161.753,367.402 163.263,350.996 162.491,343.134C161.461,332.647 148.397,324.788 140.802,318.812C140.703,316.03 159.629,314.109 162.942,312.989C173.487,309.425 180.189,296.725 183.208,286.777M106.11,253.758C103.923,251.552 94.746,242.612 92.505,242.615C89.177,242.621 73.493,254.849 70.831,257.882C59.033,271.321 49.614,303.593 44.861,321.26C39.207,342.272 43.749,348.272 44.25,367.505C44.589,380.512 39.179,395.045 49.161,405.923C61.09,418.923 77.804,410.669 82.375,395.777C86.579,382.079 83.976,373.117 73.113,363.936C84.102,357.804 87.179,350.441 89.093,338.417C91.691,322.085 87.833,308.668 77.611,295.805C81.33,295.177 84.771,298.688 88.028,298.569C89.982,298.498 90.777,297.107 91.841,296.908C93.026,296.687 94.183,297.493 95.069,297.328C103.159,295.82 113.597,271.52 114.548,263.698C114.452,262.051 107.759,255.42 106.11,253.758M381.756,-33.611C359.663,-25.708 336.06,-22.2 312.705,-20.091C289.407,-17.987 265.67,-18.558 242.447,-15.441C153.622,-3.516 85.79,71.732 -4.073,80.994C-13.928,82.01 -23.857,81.761 -33.722,82.933C-67.905,86.995 -96.561,101.225 -127.938,113.264C-147.176,120.645 -187.588,130.957 -199.935,146.86C-215.57,166.996 -194.162,179.903 -175.586,181.219C-163.172,182.098 -135.684,176.637 -126.037,168.595C-125.245,167.935 -125.628,166.782 -125.159,166.178C-124.624,165.489 -123.446,165.305 -122.93,164.332C-120.816,160.349 -122.277,154.03 -121.837,149.59C-104.362,162.304 -67.305,157.21 -68.589,130.637C-60.303,137.299 -62.099,148.4 -48.318,147.795C-37.489,147.319 -22.388,145.011 -12.156,141.502C-8.644,140.297 -5.748,137.572 -1.846,137.825L-1.803,120.71C5.33,127.888 4.787,141.542 16.77,143.193C34.937,145.696 58.893,126.2 72.21,114.859C90.298,99.453 104.484,80.77 121.246,64.167C123.717,61.72 127.356,59.165 129.946,56.631C130.229,62.29 133.797,68.314 132.473,74.044C131.929,76.398 125.21,84.053 123.199,86.427C111.038,100.778 96.031,116.694 82.135,129.296C69.26,140.971 55.277,151.54 40.623,160.87C53.845,172.789 67.331,186.902 62.258,206.448C59.166,203.685 57.818,199.049 55.436,195.68C51.109,189.562 35.286,172.461 28.192,171.426C27.061,171.261 26.171,171.065 25.014,171.4C23.834,171.742 15.097,180.392 13.057,182.058C-3.428,195.514 -25.101,209.837 -38.838,225.829C-51.933,241.072 -45.537,257.556 -27.969,264.644C12.625,281.021 48.836,244.27 79.84,223.571C102.183,208.653 127.395,196.076 149.193,181.012C158.108,174.851 163.301,167.737 171.423,160.782C172.239,160.082 172.287,158.715 172.394,158.626C173.911,157.374 175.789,161.755 175.938,162.722C178.278,177.972 169.839,182.525 162.448,193.806C167.523,192.423 172.504,197.262 176.886,198.777C191.261,203.746 218.767,202.786 233.776,199.711C270.095,192.27 298.688,166.703 316.027,134.853L331.206,103.566C332.625,119.542 333.805,134.537 328.28,149.814C306.415,210.278 235.509,235.9 175.8,223.328C168.937,221.883 160.41,218.156 153.774,217.376C149.343,216.856 135.985,216.74 131.395,217.297C126.694,217.868 125.045,221.204 122.421,223.28C120.526,224.779 113.757,229.104 113.935,231.281C130.401,248.659 155.824,260.83 179.426,264.828C191.434,266.862 203.167,268.462 214.809,263.775C216.306,262.654 215.217,262.432 214.321,261.52C210.294,257.422 195.592,246.487 190.39,243.035C188.737,241.938 186.331,242.246 185.917,240.755C196.208,236.643 207.498,242.7 218.072,244.232C233.496,246.466 234.484,244.525 247.932,240.943C290.895,229.5 323.229,201.97 344.909,162.832C349.197,155.089 357.609,132.657 362.352,127.93C363.451,126.834 365.422,125.789 366.908,125.266L407.93,114.387C408.261,112.883 407.442,112.56 406.558,111.701C400.297,105.617 389.858,98.56 382.56,93.282C376.129,88.63 368.943,83.454 361.917,80.056C361.897,78.829 362.402,77.148 363.424,76.426C365.398,75.029 375.007,72.17 377.951,71.328C387.989,68.457 400.387,65.509 410.628,67.461C411.269,65.348 409.985,65.896 409.481,65.398C396.667,52.723 376.825,41.464 359.198,37.669C358.362,36.49 363.937,31.431 365.079,30.478C370.394,26.043 397.435,9.451 398.901,5.635L397.088,4.737L398.899,3.391C395.501,4.086 391.953,3.707 388.544,3.357C375.001,1.969 361.108,-0.021 348.365,-4.75C348.049,-6.331 349.183,-6.974 350.154,-7.913C359.882,-17.315 372.517,-23.626 381.756,-33.611M444.03,-99.503L444.03,140.565C428.043,143.22 411.825,145.369 396.01,148.952C391.38,150.001 380.298,151.925 376.926,154.236C372.785,157.073 367.171,172.165 364.177,177.587C348.142,206.622 322.567,233.085 293.917,249.924C284.75,255.312 278.3,256.461 268.974,260.18C247.114,268.898 230.786,288.95 205.911,288.726C202.975,296.321 200.246,303.988 196.309,311.159C192.864,317.434 186.811,323.754 184.325,329.86C180.825,338.46 183.882,348.953 183.24,358.559C180.174,404.437 137.562,429.808 109.948,384.847L104.696,373.42C103.284,387.147 104.042,398.791 96.94,411.245C82.268,436.974 53.254,440.437 32.949,418.79C31.462,420.769 29.28,419.347 28.003,419.883C26.596,420.473 21.19,426.257 17.99,427.962C-5.117,440.279 -25.516,423.967 -34.465,402.908C-43.86,380.798 -41.932,359.135 -41.485,335.996C-41.161,319.251 -42.464,303.635 -37.213,287.319C-37.628,285.142 -43.472,283.422 -45.423,282.099C-59.775,272.363 -66.861,257.984 -64.893,240.388C-62.158,215.941 -33.048,198.297 -16.679,183.007C-14.876,181.323 -4.657,171.416 -6.323,169.454C-8.304,169.288 -10.148,168.643 -12.156,168.504C-33.353,167.042 -60.294,167.637 -80.714,173.123C-119.405,183.517 -157.481,214.546 -199.431,196.941C-215.089,190.369 -224.993,179.377 -225.674,161.82C-226.927,129.52 -190.092,113.567 -165.154,103.123C-136.688,91.201 -99.891,76.469 -70.602,67.713C-32.608,56.356 1.472,64.022 37.884,49.848C101.05,25.259 154.383,-19.215 221.839,-34.244C258.436,-42.397 294.811,-43.118 331.213,-53.929C370.278,-65.53 405.293,-87.25 444.03,-99.503" style="fill-rule:nonzero;"/>
            </g>
        </g>
        <g transform="matrix(4.166667,0,0,4.166667,26461.265625,9402.5625)">
            <g transform="matrix(1,0,0,1,1727.6688,427.298)">
                <path d="M0,-314.632C-9.239,-304.647 -21.874,-298.336 -31.602,-288.933C-32.573,-287.995 -33.706,-287.352 -33.39,-285.771C-20.648,-281.042 -6.755,-279.052 6.788,-277.664C10.198,-277.314 13.745,-276.935 17.143,-277.63L15.332,-276.284L17.145,-275.386C15.679,-271.569 -11.362,-254.978 -16.676,-250.543C-17.819,-249.59 -23.394,-244.53 -22.558,-243.351C-4.931,-239.557 14.911,-228.297 27.725,-215.623C28.229,-215.125 29.513,-215.673 28.872,-213.56C18.631,-215.512 6.234,-212.564 -3.804,-209.693C-6.748,-208.851 -16.358,-205.992 -18.332,-204.595C-19.354,-203.872 -19.859,-202.192 -19.839,-200.965C-12.813,-197.566 -5.627,-192.391 0.804,-187.739C8.102,-182.461 18.541,-175.404 24.802,-169.32C25.687,-168.46 26.505,-168.137 26.174,-166.633L-14.848,-155.755C-16.334,-155.231 -18.304,-154.187 -19.404,-153.091C-24.146,-148.363 -32.558,-125.931 -36.847,-118.189C-58.526,-79.05 -90.861,-51.521 -133.824,-40.078C-147.271,-36.496 -148.26,-34.555 -163.684,-36.789C-174.258,-38.321 -185.548,-44.378 -195.838,-40.266C-195.425,-38.775 -193.019,-39.083 -191.366,-37.986C-186.164,-34.534 -171.461,-23.599 -167.434,-19.5C-166.539,-18.589 -165.45,-18.366 -166.947,-17.246C-178.588,-12.558 -190.322,-14.159 -202.33,-16.193C-225.932,-20.191 -251.355,-32.362 -267.821,-49.74C-267.999,-51.917 -261.23,-56.242 -259.335,-57.74C-256.711,-59.816 -255.062,-63.153 -250.361,-63.723C-245.771,-64.28 -232.413,-64.165 -227.982,-63.645C-221.346,-62.865 -212.818,-59.137 -205.956,-57.693C-146.246,-45.121 -75.341,-70.743 -53.476,-131.207C-47.951,-146.483 -49.13,-161.479 -50.549,-177.455L-65.729,-146.168C-83.068,-114.318 -111.661,-88.751 -147.98,-81.31C-162.989,-78.235 -190.495,-77.274 -204.87,-82.244C-209.251,-83.759 -214.233,-88.597 -219.308,-87.215C-211.916,-98.495 -203.478,-103.049 -205.818,-118.299C-205.966,-119.266 -207.845,-123.647 -209.362,-122.394C-209.469,-122.306 -209.517,-120.939 -210.333,-120.239C-218.454,-113.283 -223.648,-106.17 -232.563,-100.009C-254.36,-84.945 -279.573,-72.367 -301.916,-57.45C-332.919,-36.75 -369.131,0 -409.724,-16.376C-427.293,-23.464 -433.688,-39.949 -420.594,-55.192C-406.857,-71.184 -385.184,-85.506 -368.699,-98.963C-366.659,-100.629 -357.922,-109.279 -356.742,-109.621C-355.584,-109.956 -354.695,-109.76 -353.563,-109.594C-346.469,-108.559 -330.646,-91.459 -326.32,-85.341C-323.937,-81.972 -322.59,-77.336 -319.498,-74.573C-314.424,-94.118 -327.91,-108.232 -341.133,-120.15C-326.478,-129.481 -312.495,-140.05 -299.621,-151.725C-285.724,-164.327 -270.718,-180.243 -258.557,-194.594C-256.545,-196.967 -249.827,-204.623 -249.283,-206.977C-247.958,-212.707 -251.527,-218.73 -251.81,-224.389C-254.4,-221.856 -258.039,-219.301 -260.51,-216.854C-277.271,-200.251 -291.458,-181.568 -309.546,-166.162C-322.862,-154.821 -346.819,-135.325 -364.986,-137.828C-376.969,-139.478 -376.425,-153.132 -383.558,-160.311L-383.602,-143.195C-387.503,-143.449 -390.399,-140.723 -393.912,-139.519C-404.143,-136.01 -419.244,-133.701 -430.074,-133.226C-443.854,-132.621 -442.059,-143.722 -450.345,-150.383C-449.061,-123.81 -486.118,-118.716 -503.593,-131.431C-504.033,-126.991 -502.572,-120.671 -504.686,-116.688C-505.202,-115.716 -506.38,-115.531 -506.915,-114.843C-507.384,-114.239 -507.001,-113.086 -507.793,-112.426C-517.44,-104.384 -544.928,-98.923 -557.342,-99.802C-575.917,-101.117 -597.325,-114.025 -581.691,-134.161C-569.344,-150.063 -528.932,-160.376 -509.693,-167.757C-478.317,-179.795 -449.661,-194.026 -415.478,-198.088C-405.613,-199.26 -395.684,-199.011 -385.828,-200.026C-295.966,-209.288 -228.133,-284.537 -139.309,-296.462C-116.085,-299.579 -92.348,-299.008 -69.051,-301.112C-45.696,-303.221 -22.092,-306.729 0,-314.632" style="fill:rgb(255,196,53);fill-rule:nonzero;"/>
            </g>
        </g>
        <g transform="matrix(4.166667,0,0,4.166667,26461.265625,9402.5625)">
            <g transform="matrix(1,0,0,1,1452.0236,554.0538)">
                <path d="M0,-154.019C1.648,-152.357 8.342,-145.726 8.438,-144.078C7.486,-136.257 -2.951,-111.956 -11.041,-110.449C-11.927,-110.284 -13.085,-111.089 -14.27,-110.868C-15.334,-110.67 -16.129,-109.279 -18.082,-109.207C-21.339,-109.088 -24.78,-112.6 -28.5,-111.972C-18.277,-99.108 -14.419,-85.692 -17.018,-69.36C-18.931,-57.335 -22.009,-49.973 -32.997,-43.841C-22.135,-34.659 -19.531,-25.698 -23.736,-11.999C-28.307,2.892 -45.02,11.146 -56.95,-1.854C-66.931,-12.731 -61.522,-27.264 -61.861,-40.272C-62.362,-59.504 -66.903,-65.505 -61.25,-86.516C-56.496,-104.183 -47.078,-136.456 -35.28,-149.895C-32.618,-152.927 -16.933,-165.156 -13.605,-165.161C-11.364,-165.165 -2.188,-156.225 0,-154.019" style="fill:rgb(255,196,53);fill-rule:nonzero;"/>
            </g>
        </g>
        <g transform="matrix(4.166667,0,0,4.166667,26461.265625,9402.5625)">
            <g transform="matrix(1,0,0,1,1345.9131,500.6782)">
                <path d="M0,-13.467C-0.235,-11.93 2.156,-12.497 3.135,-12.583C8.192,-13.027 10.462,-14.568 15.652,-11.539C32.269,-1.842 24.352,37.381 14.433,50.148C5.705,61.382 -8.136,58.268 -14.335,46.427C-25.28,25.523 -22.961,-30.727 -18.816,-54.399C-16.454,-67.886 -16.965,-62.824 -6.822,-63.083C-2.634,-63.191 4.792,-64.439 9.05,-65.341C17.766,-67.187 27.026,-71.307 35.182,-74.849C37.4,-71.807 24.693,-35.946 21.803,-30.927C17.23,-22.985 8.733,-16.262 0,-13.467" style="fill:rgb(255,196,53);fill-rule:nonzero;"/>
            </g>
        </g>
        <g transform="matrix(4.166667,0,0,4.166667,26461.265625,9402.5625)">
            <g transform="matrix(1,0,0,1,1529.1206,521.8846)">
                <path d="M0,-88.83C-3.018,-78.883 -9.721,-66.183 -20.266,-62.618C-23.579,-61.498 -42.504,-59.577 -42.405,-56.795C-34.811,-50.82 -21.747,-42.96 -20.717,-32.473C-19.945,-24.611 -21.455,-8.206 -24.505,-0.973C-27.119,5.226 -34.375,14.876 -41.992,12.298C-54.411,8.097 -62.148,-16.121 -63.166,-27.93C-65.36,-53.401 -59.071,-80.595 -48.162,-103.206C-46.649,-103.706 -31.102,-96.888 -27.789,-95.798C-18.762,-92.827 -9.453,-90.073 0,-88.83" style="fill:rgb(255,196,53);fill-rule:nonzero;"/>
            </g>
        </g>
    </g>
</svg>
