<?xml version="1.0" encoding="UTF-8" standalone="no"?>
<!DOCTYPE svg PUBLIC "-//W3C//DTD SVG 1.1//EN" "http://www.w3.org/Graphics/SVG/1.1/DTD/svg11.dtd">
<svg width="100%" height="100%" viewBox="0 0 1062 296" version="1.1" xmlns="http://www.w3.org/2000/svg" xmlns:xlink="http://www.w3.org/1999/xlink" xml:space="preserve" xmlns:serif="http://www.serif.com/" style="fill-rule:evenodd;clip-rule:evenodd;stroke-linejoin:round;stroke-miterlimit:2;">
    <g transform="matrix(1,0,0,1,-6272.392917,-939.915417)">
        <g transform="matrix(4.166667,0,0,4.166667,5580.7125,0)">
            <g transform="matrix(1,0,0,1,192.2183,238.5606)">
                <path d="M0,29.336L-0.051,29.285C0.553,29.72 1.265,30.148 2.088,30.567C2.909,30.987 3.739,31.197 4.578,31.197C4.731,31.197 4.865,31.164 5.004,31.139C5.137,31.19 5.233,31.252 5.382,31.299L5.937,31.299C7.646,30.895 9.089,30.534 10.264,30.216C11.436,29.897 12.459,29.62 13.332,29.385C14.204,29.152 15.008,28.95 15.747,28.781C16.484,28.615 17.273,28.471 18.112,28.354C18.951,28.236 19.915,28.128 21.005,28.026C22.096,27.926 23.446,27.826 25.056,27.724C25.089,27.723 25.109,27.705 25.141,27.703L25.46,28.883C25.46,29.452 25.526,30.148 25.66,30.971C25.793,31.793 26.028,32.589 26.366,33.361C26.699,34.132 27.152,34.794 27.722,35.349C28.293,35.902 29.014,36.178 29.887,36.178C30.557,36.178 31.136,36.061 31.622,35.825C32.108,35.59 32.52,35.339 32.855,35.071C33.224,34.735 33.526,34.367 33.761,33.965C33.257,31.716 32.663,29.561 31.975,27.499C31.287,25.436 30.573,23.397 29.836,21.386C29.099,19.372 28.369,17.343 27.648,15.296C26.926,13.252 26.281,11.087 25.711,8.807C27.152,8.538 28.62,8.538 30.112,8.807C31.606,9.076 33.057,9.519 34.465,10.14C35.874,10.762 37.225,11.516 38.515,12.405C39.807,13.293 40.956,14.24 41.962,15.247C42.97,16.253 43.824,17.269 44.528,18.29C45.234,19.316 45.703,20.263 45.938,21.133C45.769,22.711 45.854,24.095 46.189,25.285C46.524,26.476 46.995,27.491 47.598,28.328C48.202,29.167 48.889,29.797 49.661,30.216C50.431,30.636 51.171,30.846 51.874,30.846C53.182,30.846 54.039,30.544 54.441,29.94C54.843,29.336 54.909,28.479 54.643,27.373L47.195,-2.464C47.095,-3.035 46.759,-3.613 46.189,-4.199C45.618,-4.788 44.797,-5.082 43.724,-5.082C43.321,-5.082 42.919,-4.98 42.517,-4.78C42.113,-4.578 41.762,-4.317 41.46,-3.999C41.158,-3.68 40.931,-3.327 40.78,-2.943C40.629,-2.556 40.603,-2.178 40.705,-1.809C40.974,-0.635 41.317,0.504 41.736,1.612C42.156,2.717 42.583,3.774 43.019,4.782C43.454,5.788 43.866,6.752 44.252,7.674C44.638,8.597 44.932,9.46 45.132,10.266C43.152,8.825 41.225,7.599 39.346,6.594C37.466,5.586 35.547,4.774 33.584,4.153C31.622,3.531 29.577,3.055 27.446,2.717C25.317,2.384 23.027,2.165 20.578,2.065C19.908,2.233 19.447,2.416 19.194,2.617C18.943,2.819 18.784,3.255 18.717,3.925L23.715,22.425C23.532,22.446 23.308,22.477 23.042,22.517C22.505,22.601 21.794,22.737 20.905,22.921C20.015,23.105 18.866,23.364 17.459,23.699C17.088,23.231 16.712,22.476 16.326,21.435C15.939,20.396 15.563,19.206 15.194,17.863C14.824,16.522 14.465,15.079 14.112,13.536C13.759,11.993 13.416,10.475 13.081,8.983C12.746,7.489 12.418,6.072 12.099,4.731C11.781,3.39 11.471,2.249 11.169,1.31C11.001,0.739 10.824,0.228 10.64,-0.225C10.456,-0.678 10.228,-1.072 9.962,-1.408C9.691,-1.743 9.348,-1.994 8.93,-2.162C8.509,-2.329 7.981,-2.413 7.344,-2.413C6.707,-2.413 6.203,-2.313 5.835,-2.111C5.466,-1.911 5.197,-1.635 5.031,-1.282C4.862,-0.929 4.786,-0.527 4.803,-0.074C4.819,0.379 4.88,0.839 4.98,1.31C5.55,3.623 6.103,5.737 6.64,7.648C7.176,9.562 7.713,11.422 8.25,13.234C8.787,15.045 9.322,16.857 9.86,18.669C10.397,20.48 10.95,22.409 11.52,24.454C11.52,24.487 11.495,24.539 11.446,24.605C11.395,24.674 11.144,24.799 10.691,24.984C10.238,25.168 9.491,25.403 8.452,25.687C8.023,25.805 7.501,25.946 6.924,26.101C6.723,25.539 6.417,25.022 5.988,24.556C5.182,23.684 4.276,22.911 3.27,22.241C1.894,21.302 0.359,20.288 -1.333,19.196C-3.027,18.108 -4.739,16.992 -6.466,15.851C-8.193,14.71 -9.879,13.561 -11.522,12.405C-13.167,11.246 -14.618,10.122 -15.875,9.032C-17.133,7.942 -18.147,6.929 -18.919,5.99C-19.692,5.051 -20.076,4.227 -20.076,3.523C-20.076,2.584 -19.608,1.788 -18.668,1.133C-17.729,0.479 -16.571,-0.049 -15.196,-0.451C-13.82,-0.855 -12.361,-1.147 -10.818,-1.333C-9.275,-1.515 -7.899,-1.609 -6.693,-1.609C-5.015,-1.609 -3.741,-1.39 -2.868,-0.955C-1.996,-0.519 -1.561,-0.067 -1.561,0.404C-1.561,1.376 -1.694,2.157 -1.963,2.743C-2.231,3.331 -2.551,3.792 -2.919,4.127C-3.288,4.462 -3.656,4.68 -4.025,4.782C-4.396,4.882 -4.697,4.933 -4.931,4.933C-4.999,4.933 -5.158,4.907 -5.409,4.856C-5.66,4.805 -5.931,4.749 -6.215,4.68C-6.499,4.613 -6.768,4.564 -7.019,4.529C-7.272,4.496 -7.431,4.48 -7.497,4.48C-7.968,4.48 -8.37,4.588 -8.705,4.805C-9.04,5.025 -9.309,5.294 -9.511,5.611C-9.711,5.931 -9.862,6.274 -9.964,6.643C-10.064,7.013 -10.115,7.364 -10.115,7.699C-10.115,8.605 -9.956,9.293 -9.636,9.762C-9.317,10.232 -8.924,10.585 -8.454,10.818C-7.983,11.054 -7.481,11.189 -6.944,11.222C-6.407,11.256 -5.921,11.271 -5.486,11.271C-4.411,11.271 -3.288,11.105 -2.113,10.769C-0.939,10.434 0.141,9.905 1.131,9.183C2.121,8.464 2.935,7.515 3.572,6.341C4.209,5.168 4.529,3.725 4.529,2.014C4.529,0.202 4.201,-1.298 3.547,-2.49C2.892,-3.68 2.037,-4.629 0.98,-5.333C-0.076,-6.036 -1.259,-6.531 -2.566,-6.817C-3.874,-7.101 -5.166,-7.244 -6.44,-7.244C-7.481,-7.244 -8.689,-7.193 -10.064,-7.093C-11.44,-6.993 -12.865,-6.799 -14.34,-6.515C-15.818,-6.229 -17.259,-5.842 -18.668,-5.358C-20.076,-4.87 -21.343,-4.25 -22.466,-3.496C-23.589,-2.741 -24.495,-1.835 -25.183,-0.778C-25.872,0.279 -26.215,1.51 -26.215,2.919C-26.215,4.529 -25.677,6.115 -24.605,7.674C-23.531,9.234 -22.115,10.818 -20.353,12.43C-18.592,14.04 -16.588,15.667 -14.34,17.31C-12.093,18.953 -9.779,20.649 -7.397,22.392L-4.076,25.009C-5.419,25.444 -6.591,25.823 -7.597,26.14C-8.605,26.46 -9.544,26.744 -10.416,26.995C-11.289,27.248 -12.126,27.483 -12.932,27.701C-13.736,27.919 -14.6,28.136 -15.524,28.354C-16.445,28.573 -17.476,28.824 -18.617,29.109C-19.759,29.393 -21.082,29.72 -22.592,30.091C-22.693,30.559 -22.768,31.046 -22.819,31.549C-22.87,32.053 -22.893,32.438 -22.893,32.706C-22.893,33.177 -22.852,33.637 -22.768,34.09C-22.686,34.543 -22.543,34.953 -22.341,35.324C-22.139,35.692 -21.862,35.994 -21.511,36.229C-21.158,36.463 -20.698,36.58 -20.127,36.58C-19.657,36.58 -19.104,36.463 -18.467,36.229C-17.829,35.994 -17.192,35.725 -16.555,35.424C-15.918,35.122 -15.339,34.82 -14.818,34.518C-14.298,34.216 -13.922,34.014 -13.687,33.914C-12.814,33.512 -11.834,33.075 -10.742,32.606C-9.654,32.136 -8.503,31.683 -7.295,31.248C-6.089,30.81 -4.864,30.416 -3.623,30.065C-2.382,29.712 -1.174,29.469 0,29.336" style="fill:rgb(252,196,6);fill-rule:nonzero;"/>
            </g>
        </g>
        <g transform="matrix(4.166667,0,0,4.166667,5580.7125,0)">
            <g transform="matrix(1,0,0,1,194.0534,226.4597)">
                <path d="M0,5.939C0.386,6.223 0.806,6.441 1.257,6.592C1.71,6.743 2.17,6.819 2.641,6.819C3.211,6.819 3.749,6.686 4.25,6.417C4.754,6.149 5.199,5.796 5.586,5.361C5.97,4.923 6.272,4.412 6.491,3.826C6.709,3.239 6.817,2.626 6.817,1.988C6.817,0.881 6.54,0.128 5.988,-0.276C5.435,-0.678 4.839,-0.88 4.201,-0.88C3.731,-0.88 3.186,-0.745 2.566,-0.476C1.945,-0.207 1.349,0.144 0.78,0.579C0.21,1.016 -0.276,1.485 -0.68,1.988C-1.082,2.492 -1.284,2.979 -1.284,3.447C-1.284,3.984 -1.165,4.463 -0.931,4.882C-0.696,5.302 -0.386,5.655 0,5.939" style="fill:rgb(252,196,6);fill-rule:nonzero;"/>
            </g>
        </g>
        <g transform="matrix(4.166667,0,0,4.166667,5580.7125,0)">
            <g transform="matrix(1,0,0,1,248.5452,257.7564)">
                <path d="M0,-11.873C0.084,-12.996 0.284,-14.096 0.604,-15.169C0.923,-16.243 1.376,-17.198 1.963,-18.037C2.549,-18.876 3.278,-19.547 4.152,-20.05C5.023,-20.552 6.08,-20.805 7.321,-20.805C8.362,-20.805 9.268,-20.578 10.038,-20.125C10.811,-19.672 11.448,-19.102 11.952,-18.415C12.453,-17.727 12.822,-16.972 13.057,-16.151C13.293,-15.328 13.41,-14.532 13.41,-13.761C13.41,-13.191 13.367,-12.62 13.285,-12.049C13.2,-11.479 12.924,-11.195 12.453,-11.195C12.285,-11.195 12.067,-11.277 11.801,-11.446C11.53,-11.614 11.297,-11.699 11.095,-11.699C10.424,-11.699 9.869,-11.463 9.434,-10.993C8.999,-10.522 8.781,-9.936 8.781,-9.232C8.781,-8.528 8.889,-7.94 9.109,-7.472C9.326,-7.001 9.603,-6.623 9.938,-6.338C10.273,-6.054 10.65,-5.852 11.069,-5.735C11.489,-5.617 11.901,-5.56 12.303,-5.56C13.51,-5.56 14.567,-5.827 15.473,-6.364C16.379,-6.901 17.133,-7.579 17.737,-8.403C18.341,-9.224 18.784,-10.138 19.07,-11.144C19.355,-12.149 19.498,-13.14 19.498,-14.112C19.498,-15.068 19.357,-15.995 19.106,-16.899C19.768,-16.406 20.206,-15.913 20.404,-15.422C20.739,-14.481 21.082,-13.283 21.435,-11.824C21.786,-10.363 22.121,-8.771 22.441,-7.044C22.76,-5.315 23.078,-3.539 23.397,-1.709C23.646,-0.276 23.89,1.069 24.13,2.367C24.018,2.251 23.934,2.1 23.799,2.014C23.515,1.829 23.203,1.696 22.87,1.612C22.533,1.527 22.231,1.484 21.964,1.484C21.394,1.484 20.721,1.627 19.951,1.914C19.178,2.198 18.382,2.533 17.561,2.919C16.739,3.306 15.926,3.692 15.12,4.076C14.316,4.462 13.595,4.772 12.957,5.007C11.716,5.443 10.432,5.888 9.109,6.341C7.781,6.794 6.617,7.139 5.611,7.372C5.209,7.339 4.764,6.801 4.278,5.762C3.792,4.723 3.304,3.506 2.817,2.114C2.331,0.722 1.888,-0.686 1.484,-2.113C1.082,-3.539 0.78,-4.654 0.578,-5.458C0.31,-6.364 0.125,-7.377 0.025,-8.503C-0.074,-9.626 -0.084,-10.75 0,-11.873M-4.25,-2.339C-3.949,-1.231 -3.631,-0.2 -3.296,0.755C-2.96,1.712 -2.641,2.576 -2.339,3.347C-1.835,4.723 -1.333,6.115 -0.829,7.523C-0.327,8.932 0.043,10.491 0.276,12.203C0.714,12.773 1.182,13.191 1.686,13.459C2.19,13.728 2.759,13.897 3.398,13.963C4.605,13.326 5.729,12.822 6.768,12.454C7.807,12.085 8.897,11.716 10.038,11.348C10.911,11.046 11.883,10.801 12.957,10.617C14.03,10.432 15.128,10.223 16.253,9.989C17.376,9.754 18.5,9.47 19.623,9.132C20.747,8.799 21.796,8.329 22.768,7.725C23.172,7.489 23.497,7.188 23.75,6.819C24.001,6.45 24.203,6.082 24.354,5.711C24.471,5.426 24.54,5.17 24.607,4.915C24.801,5.931 24.987,6.896 25.158,7.75C25.409,9.007 25.652,9.938 25.887,10.542C26.056,11.011 26.322,11.489 26.693,11.975C27.062,12.461 27.581,12.707 28.252,12.707C28.385,12.707 28.554,12.714 28.756,12.73C28.957,12.748 29.201,12.722 29.485,12.656C29.769,12.587 30.104,12.461 30.491,12.277C30.877,12.093 31.338,11.801 31.875,11.397C32.612,10.895 33.492,10.391 34.516,9.887C35.539,9.385 36.621,8.899 37.762,8.429C38.901,7.96 40.076,7.507 41.284,7.07C42.491,6.635 43.624,6.233 44.681,5.862C45.738,5.494 46.685,5.151 47.524,4.831C48.361,4.513 49.016,4.237 49.487,4.002C50.459,3.498 51.071,2.927 51.322,2.29C51.574,1.653 51.616,1.049 51.447,0.479C51.28,-0.092 50.971,-0.545 50.518,-0.88C50.065,-1.215 49.62,-1.333 49.185,-1.231C48.612,-1.098 47.616,-0.812 46.191,-0.376C44.764,0.059 43.162,0.596 41.385,1.233C39.607,1.871 37.796,2.584 35.951,3.372C34.106,4.16 32.479,4.956 31.069,5.762C30.7,4.723 30.298,3.423 29.863,1.863C29.426,0.302 28.999,-1.323 28.579,-3.017C28.16,-4.711 27.765,-6.389 27.397,-8.05C27.028,-9.711 26.742,-11.144 26.542,-12.351L27.195,-12.049C27.932,-11.648 28.914,-11.136 30.14,-10.514C31.363,-9.895 32.622,-9.307 33.914,-8.754C35.204,-8.201 36.394,-7.722 37.486,-7.321C38.574,-6.917 39.372,-6.717 39.876,-6.717C40.211,-6.717 40.562,-6.783 40.933,-6.917C41.301,-7.052 41.636,-7.226 41.938,-7.446C42.24,-7.664 42.491,-7.924 42.693,-8.226C42.895,-8.528 42.995,-8.846 42.995,-9.181C42.995,-9.585 42.709,-10.012 42.14,-10.465C41.568,-10.918 40.823,-11.379 39.901,-11.85C38.978,-12.318 37.929,-12.796 36.757,-13.283C35.58,-13.769 34.398,-14.263 33.208,-14.767C32.018,-15.271 30.877,-15.773 29.787,-16.276C28.697,-16.78 27.75,-17.282 26.944,-17.786L35.649,-20.703C35.682,-20.703 35.782,-20.545 35.951,-20.227C36.117,-19.907 36.345,-19.554 36.629,-19.17C36.915,-18.784 37.233,-18.431 37.586,-18.113C37.939,-17.794 38.315,-17.635 38.717,-17.635C39.121,-17.635 39.59,-17.794 40.127,-18.113C40.662,-18.431 41.166,-18.833 41.636,-19.321C42.105,-19.805 42.499,-20.317 42.819,-20.854C43.136,-21.391 43.297,-21.878 43.297,-22.315C43.297,-22.95 43.07,-23.497 42.617,-23.95C42.164,-24.403 41.611,-24.762 40.956,-25.03C40.303,-25.299 39.59,-25.501 38.819,-25.634C38.047,-25.769 37.343,-25.836 36.706,-25.836C35.429,-25.836 34.131,-25.718 32.806,-25.483C31.481,-25.25 30.197,-24.956 28.957,-24.603C27.714,-24.252 26.583,-23.891 25.56,-23.523C24.536,-23.152 23.725,-22.834 23.121,-22.566C22.819,-22.431 22.29,-22.548 21.535,-22.919C20.78,-23.287 19.766,-23.705 18.49,-24.175C17.553,-24.511 16.814,-24.544 16.277,-24.277C15.741,-24.007 15.422,-23.572 15.322,-22.968C15.311,-22.899 15.314,-22.847 15.305,-22.78C14.377,-23.594 13.369,-24.295 12.228,-24.805C10.834,-25.424 9.401,-25.736 7.925,-25.736C5.644,-25.736 3.664,-25.24 1.988,-24.252C0.31,-23.262 -1.065,-21.995 -2.137,-20.452C-3.211,-18.909 -4.007,-17.172 -4.527,-15.245C-5.048,-13.316 -5.307,-11.428 -5.307,-9.585C-5.307,-8.309 -5.207,-7.06 -5.005,-5.836C-4.805,-4.611 -4.552,-3.446 -4.25,-2.339" style="fill:rgb(252,196,6);fill-rule:nonzero;"/>
            </g>
        </g>
        <g transform="matrix(4.166667,0,0,4.166667,5580.7125,0)">
            <g transform="matrix(1,0,0,1,380.0243,254.4747)">
                <path d="M0,1.386C-0.563,2.39 -1.286,3.282 -2.168,4.066C-3.051,4.848 -4.035,5.482 -5.119,5.962C-6.203,6.444 -7.248,6.685 -8.25,6.685C-9.256,6.685 -10.118,6.495 -10.84,6.113C-11.563,5.733 -12.146,5.25 -12.587,4.668C-13.03,4.086 -13.361,3.474 -13.581,2.831C-13.802,2.19 -13.912,1.586 -13.912,1.023C-13.912,0.382 -13.851,-0.31 -13.732,-1.053C-13.612,-1.796 -13.43,-2.488 -13.191,-3.131C-12.949,-3.774 -12.638,-4.325 -12.255,-4.788C-11.875,-5.249 -11.444,-5.541 -10.961,-5.662C-10.801,-5.339 -10.53,-5.039 -10.148,-4.758C-9.767,-4.476 -9.334,-4.337 -8.854,-4.337C-8.05,-4.337 -7.529,-4.566 -7.287,-5.029C-7.046,-5.49 -6.907,-5.901 -6.866,-6.264C-6.866,-6.625 -6.766,-6.815 -6.564,-6.837C-6.364,-6.856 -6.103,-6.866 -5.782,-6.866C-4.98,-6.866 -4.176,-6.744 -3.372,-6.505C-2.57,-6.264 -1.857,-5.911 -1.235,-5.45C-0.612,-4.988 -0.11,-4.437 0.271,-3.794C0.653,-3.151 0.843,-2.449 0.843,-1.686C0.843,-0.641 0.563,0.382 0,1.386M-27.042,1.386C-27.605,2.39 -28.328,3.282 -29.21,4.066C-30.093,4.848 -31.077,5.482 -32.161,5.962C-33.245,6.444 -34.29,6.685 -35.292,6.685C-36.298,6.685 -37.16,6.495 -37.882,6.113C-38.605,5.733 -39.188,5.25 -39.629,4.668C-40.072,4.086 -40.403,3.474 -40.623,2.831C-40.844,2.19 -40.954,1.586 -40.954,1.023C-40.954,0.382 -40.893,-0.31 -40.774,-1.053C-40.654,-1.796 -40.472,-2.488 -40.233,-3.131C-39.991,-3.774 -39.68,-4.325 -39.297,-4.788C-38.917,-5.249 -38.486,-5.541 -38.003,-5.662C-37.843,-5.339 -37.572,-5.039 -37.19,-4.758C-36.81,-4.476 -36.376,-4.337 -35.896,-4.337C-35.092,-4.337 -34.571,-4.566 -34.329,-5.029C-34.088,-5.49 -33.949,-5.901 -33.908,-6.264C-33.908,-6.625 -33.808,-6.815 -33.606,-6.837C-33.406,-6.856 -33.145,-6.866 -32.824,-6.866C-32.022,-6.866 -31.218,-6.744 -30.414,-6.505C-29.612,-6.264 -28.899,-5.911 -28.277,-5.45C-27.654,-4.988 -27.152,-4.437 -26.771,-3.794C-26.389,-3.151 -26.199,-2.449 -26.199,-1.686C-26.199,-0.641 -26.479,0.382 -27.042,1.386M8.432,-2.77C8.432,-4.456 7.729,-5.952 6.325,-7.258C4.919,-8.562 3.172,-9.666 1.084,-10.57C-1.004,-11.473 -3.243,-12.156 -5.631,-12.618C-8.021,-13.079 -10.199,-13.31 -12.165,-13.31C-13.812,-13.31 -15.108,-13.12 -16.051,-12.738C-16.994,-12.356 -17.467,-11.685 -17.467,-10.72C-17.467,-9.997 -17.225,-9.315 -16.743,-8.674C-17.634,-7.452 -18.39,-6.204 -19.064,-4.942C-19.412,-5.769 -19.95,-6.545 -20.717,-7.258C-22.123,-8.562 -23.87,-9.666 -25.958,-10.57C-28.046,-11.473 -30.285,-12.156 -32.673,-12.618C-35.063,-13.079 -37.241,-13.31 -39.207,-13.31C-40.854,-13.31 -42.15,-13.12 -43.093,-12.738C-44.036,-12.356 -44.509,-11.685 -44.509,-10.72C-44.509,-9.997 -44.267,-9.315 -43.785,-8.674C-44.869,-7.188 -45.793,-5.67 -46.555,-4.125C-47.318,-2.58 -47.7,-0.882 -47.7,0.964C-47.7,2.249 -47.408,3.605 -46.826,5.029C-46.75,5.215 -46.633,5.385 -46.548,5.568C-46.622,5.501 -46.687,5.422 -46.765,5.36C-47.228,4.999 -47.73,4.739 -48.271,4.578C-48.814,4.417 -49.326,4.337 -49.808,4.337C-50.49,4.337 -51.163,4.417 -51.825,4.578C-52.488,4.739 -53.151,4.929 -53.813,5.15C-54.476,5.372 -55.129,5.582 -55.77,5.782C-56.413,5.984 -57.035,6.103 -57.637,6.144C-56.915,5.099 -56.082,3.966 -55.137,2.741C-54.194,1.515 -53.3,0.263 -52.457,-1.024C-51.614,-2.308 -50.902,-3.562 -50.32,-4.788C-49.737,-6.013 -49.445,-7.146 -49.445,-8.191C-49.445,-10.519 -50.269,-12.156 -51.916,-13.099C-53.563,-14.042 -55.792,-14.514 -58.601,-14.514C-59.203,-14.514 -60.017,-14.444 -61.04,-14.304C-62.063,-14.163 -63.179,-13.951 -64.383,-13.671C-65.587,-13.391 -66.802,-13.028 -68.027,-12.587C-69.251,-12.146 -70.366,-11.614 -71.368,-10.991C-72.372,-10.368 -73.186,-9.656 -73.809,-8.854C-74.431,-8.05 -74.742,-7.127 -74.742,-6.084C-74.742,-5.119 -74.491,-4.135 -73.99,-3.131C-73.486,-2.127 -72.854,-1.214 -72.092,-0.392C-71.329,0.431 -70.506,1.106 -69.623,1.627C-68.739,2.149 -67.916,2.409 -67.153,2.409C-66.832,2.409 -66.471,2.249 -66.069,1.927C-65.669,1.608 -65.287,1.225 -64.924,0.784C-64.563,0.341 -64.263,-0.1 -64.022,-0.541C-63.781,-0.982 -63.659,-1.325 -63.659,-1.567C-63.659,-1.847 -63.791,-2.198 -64.051,-2.619C-64.312,-3.041 -64.634,-3.443 -65.016,-3.825C-65.396,-4.206 -65.798,-4.566 -66.22,-4.909C-66.641,-5.249 -66.992,-5.521 -67.275,-5.721C-66.992,-6.203 -66.561,-6.654 -65.979,-7.076C-65.396,-7.497 -64.744,-7.85 -64.022,-8.131C-63.299,-8.411 -62.546,-8.632 -61.764,-8.793C-60.979,-8.954 -60.268,-9.034 -59.625,-9.034C-58.582,-9.034 -57.98,-8.862 -57.817,-8.523C-57.658,-8.18 -57.578,-7.909 -57.578,-7.709C-57.578,-7.266 -57.607,-6.725 -57.668,-6.084C-57.727,-5.441 -58.009,-4.547 -58.511,-3.404C-59.013,-2.259 -59.805,-0.792 -60.889,0.994C-61.973,2.782 -63.54,5.04 -65.587,7.77C-65.91,7.889 -66.32,8.062 -66.822,8.281C-67.324,8.503 -67.816,8.764 -68.298,9.066C-68.78,9.365 -69.192,9.687 -69.533,10.028C-69.874,10.369 -70.045,10.72 -70.045,11.083C-70.045,11.604 -70.004,12.148 -69.923,12.708C-69.843,13.271 -69.663,13.792 -69.382,14.275C-69.102,14.757 -68.68,15.147 -68.118,15.449C-67.555,15.749 -66.792,15.9 -65.828,15.9C-65.306,15.9 -64.714,15.759 -64.051,15.479C-63.389,15.198 -62.716,14.886 -62.034,14.545C-61.352,14.204 -60.66,13.863 -59.956,13.522C-59.254,13.181 -58.601,12.949 -57.999,12.83C-56.995,12.628 -55.982,12.428 -54.956,12.226C-53.933,12.026 -52.878,11.926 -51.794,11.926C-50.51,11.926 -48.985,12.226 -47.218,12.83C-46.697,12.547 -46.214,11.985 -45.771,11.142C-45.33,10.299 -45.111,9.477 -45.111,8.673C-45.111,8.366 -45.156,8.088 -45.208,7.816C-44.922,8.206 -44.659,8.605 -44.326,8.973C-43.244,10.179 -41.938,11.173 -40.413,11.955C-38.888,12.738 -37.16,13.13 -35.233,13.13C-33.786,13.13 -32.1,12.628 -30.173,11.624C-28.246,10.62 -26.43,9.346 -24.723,7.799C-23.048,6.282 -21.632,4.606 -20.458,2.778C-20.313,3.509 -20.1,4.257 -19.784,5.029C-19.204,6.454 -18.368,7.77 -17.284,8.973C-16.202,10.179 -14.896,11.173 -13.371,11.955C-11.846,12.738 -10.118,13.13 -8.191,13.13C-6.744,13.13 -5.058,12.628 -3.131,11.624C-1.204,10.62 0.612,9.346 2.319,7.799C4.025,6.254 5.47,4.548 6.656,2.68C7.84,0.813 8.432,-1.004 8.432,-2.77" style="fill:rgb(252,196,6);fill-rule:nonzero;"/>
            </g>
        </g>
        <g transform="matrix(4.166667,0,0,4.166667,5580.7125,0)">
            <g transform="matrix(1,0,0,1,419.7452,261.6405)">
                <path d="M0,-6.864C-0.743,-8.35 -1.708,-9.575 -2.892,-10.538C-4.076,-11.503 -5.421,-12.224 -6.927,-12.706C-8.432,-13.189 -9.948,-13.43 -11.473,-13.43C-12.599,-13.43 -13.743,-13.208 -14.906,-12.767C-16.073,-12.324 -17.186,-11.842 -18.249,-11.322C-19.313,-10.799 -20.307,-10.317 -21.231,-9.875C-22.154,-9.434 -22.939,-9.213 -23.58,-9.213C-23.782,-9.213 -23.972,-9.383 -24.152,-9.724C-24.332,-10.066 -24.483,-10.477 -24.603,-10.96C-24.725,-11.442 -24.834,-11.944 -24.934,-12.465C-25.036,-12.987 -25.107,-13.43 -25.146,-13.791L-12.077,-16.381C-11.714,-16.461 -11.314,-16.751 -10.871,-17.253C-10.43,-17.755 -10.209,-18.469 -10.209,-19.392C-10.209,-20.798 -10.562,-21.802 -11.263,-22.403C-11.965,-23.005 -12.699,-23.307 -13.461,-23.307C-14.387,-23.307 -15.479,-23.115 -16.743,-22.735C-18.01,-22.352 -19.304,-21.921 -20.629,-21.439C-21.954,-20.958 -23.28,-20.496 -24.603,-20.055C-25.928,-19.612 -27.115,-19.331 -28.158,-19.212C-28.64,-19.212 -29.161,-19.202 -29.724,-19.18C-30.287,-19.161 -30.889,-19.09 -31.53,-18.971C-32.214,-18.729 -32.694,-18.257 -32.975,-17.555C-33.257,-16.851 -33.437,-16.139 -33.518,-15.416C-32.675,-14.453 -32.002,-13.489 -31.5,-12.526C-30.998,-11.562 -30.587,-10.577 -30.265,-9.575C-29.944,-8.57 -29.653,-7.527 -29.393,-6.442C-29.132,-5.358 -28.801,-4.194 -28.399,-2.949C-27.836,-2.547 -27.305,-2.288 -26.803,-2.167C-26.301,-2.047 -25.828,-1.986 -25.387,-1.986C-24.182,-1.986 -23.058,-2.237 -22.013,-2.739C-20.97,-3.241 -19.886,-3.782 -18.763,-4.364C-17.637,-4.947 -16.424,-5.488 -15.118,-5.992C-13.814,-6.493 -12.318,-6.744 -10.63,-6.744C-9.426,-6.744 -8.383,-6.292 -7.499,-5.39C-6.617,-4.486 -6.174,-3.11 -6.174,-1.263C-6.174,-0.018 -6.476,1.147 -7.078,2.229C-7.68,3.313 -8.462,4.319 -9.426,5.24C-10.389,6.166 -11.465,6.997 -12.648,7.74C-13.834,8.483 -15.018,9.105 -16.202,9.609C-17.386,10.11 -18.502,10.501 -19.545,10.783C-20.59,11.063 -21.433,11.204 -22.074,11.204C-23.199,11.204 -24.082,10.954 -24.725,10.452C-25.368,9.948 -25.848,9.326 -26.17,8.583C-26.491,7.84 -26.722,7.029 -26.862,6.144C-27.003,5.262 -27.134,4.448 -27.254,3.705C-27.375,2.962 -27.536,2.341 -27.736,1.839C-27.938,1.337 -28.258,1.086 -28.699,1.086C-29.222,1.086 -29.804,1.125 -30.446,1.206C-31.089,1.288 -31.69,1.476 -32.253,1.778C-32.814,2.08 -33.286,2.511 -33.669,3.074C-34.049,3.637 -34.241,4.378 -34.241,5.301C-34.241,7.068 -33.869,8.644 -33.126,10.03C-32.385,11.414 -31.42,12.579 -30.236,13.522C-29.052,14.465 -27.705,15.188 -26.199,15.69C-24.693,16.192 -23.18,16.443 -21.652,16.443C-20.449,16.443 -19.043,16.263 -17.437,15.902C-15.832,15.541 -14.185,14.998 -12.499,14.275C-10.812,13.553 -9.156,12.669 -7.529,11.626C-5.903,10.581 -4.448,9.397 -3.162,8.072C-1.878,6.746 -0.843,5.272 -0.061,3.645C0.721,2.019 1.114,0.263 1.114,-1.625C1.114,-3.631 0.741,-5.378 0,-6.864" style="fill:rgb(252,196,6);fill-rule:nonzero;"/>
            </g>
        </g>
        <g transform="matrix(4.166667,0,0,4.166667,5580.7125,0)">
            <g transform="matrix(1,0,0,1,377.351,295.9982)">
                <path d="M0,-18.761C-12.122,-14.291 -25.101,-16.587 -37.696,-16.027C-47.455,-15.592 -56.663,-12.882 -65.688,-9.501C-65.884,-10.793 -67.122,-11.802 -68.767,-11.575C-108.382,-6.098 -148.421,-3.848 -188.401,-4.752C-191.632,-4.825 -191.631,0.194 -188.401,0.267C-150.596,1.121 -112.791,-0.936 -75.29,-5.727C-75.317,-5.707 -75.34,-5.682 -75.367,-5.662C-77.451,-4.143 -76.288,0.091 -73.434,-1.075C-61.307,-6.028 -49.144,-10.728 -35.887,-11.07C-23.43,-11.391 -10.642,-9.505 1.334,-13.921C4.339,-15.03 3.04,-19.882 0,-18.761" style="fill:rgb(252,196,6);fill-rule:nonzero;"/>
            </g>
        </g>
    </g>
</svg>
