<?xml version="1.0" encoding="UTF-8" standalone="no"?>
<!DOCTYPE svg PUBLIC "-//W3C//DTD SVG 1.1//EN" "http://www.w3.org/Graphics/SVG/1.1/DTD/svg11.dtd">
<svg width="100%" height="100%" viewBox="0 0 1733 177" version="1.1" xmlns="http://www.w3.org/2000/svg" xmlns:xlink="http://www.w3.org/1999/xlink" xml:space="preserve" xmlns:serif="http://www.serif.com/" style="fill-rule:evenodd;clip-rule:evenodd;stroke-linejoin:round;stroke-miterlimit:2;">
    <g transform="matrix(1,0,0,1,-364.147887,-6435.449375)">
        <g transform="matrix(4.166667,0,0,4.166667,0,3946.359375)">
            <g transform="matrix(0.24,0,0,0.24,227.516868,456.282079)">
                <g transform="matrix(214.716667,0,0,214.716667,299.3643,756.585919)">
                    <path d="M0.29,-0.728L0.17,-0L0.02,-0L0.141,-0.728L0.29,-0.728Z" style="fill:white;fill-rule:nonzero;"/>
                </g>
                <g transform="matrix(214.716667,0,0,214.716667,364.765549,756.585919)">
                    <path d="M0.295,0.011C0.237,0.011 0.187,0.002 0.145,-0.016C0.104,-0.034 0.073,-0.06 0.053,-0.096C0.033,-0.131 0.026,-0.174 0.033,-0.226L0.178,-0.226C0.176,-0.201 0.18,-0.181 0.19,-0.164C0.2,-0.148 0.215,-0.136 0.235,-0.127C0.254,-0.119 0.278,-0.115 0.305,-0.115C0.331,-0.115 0.355,-0.119 0.376,-0.127C0.397,-0.135 0.414,-0.145 0.428,-0.159C0.441,-0.173 0.449,-0.189 0.452,-0.208C0.455,-0.225 0.452,-0.239 0.445,-0.25C0.437,-0.261 0.424,-0.27 0.407,-0.279C0.389,-0.287 0.368,-0.294 0.342,-0.3L0.265,-0.32C0.208,-0.335 0.164,-0.358 0.133,-0.389C0.103,-0.421 0.092,-0.464 0.101,-0.518C0.108,-0.562 0.125,-0.6 0.153,-0.633C0.18,-0.666 0.215,-0.692 0.258,-0.71C0.3,-0.728 0.348,-0.737 0.401,-0.737C0.455,-0.737 0.501,-0.728 0.539,-0.71C0.578,-0.691 0.607,-0.666 0.625,-0.633C0.644,-0.601 0.65,-0.563 0.644,-0.52L0.5,-0.52C0.502,-0.549 0.494,-0.572 0.474,-0.588C0.455,-0.604 0.426,-0.612 0.389,-0.612C0.363,-0.612 0.341,-0.608 0.322,-0.601C0.303,-0.594 0.288,-0.584 0.277,-0.571C0.265,-0.559 0.258,-0.544 0.255,-0.528C0.252,-0.51 0.255,-0.495 0.264,-0.484C0.273,-0.472 0.285,-0.462 0.302,-0.455C0.319,-0.447 0.337,-0.441 0.357,-0.436L0.419,-0.42C0.449,-0.413 0.476,-0.403 0.5,-0.392C0.525,-0.38 0.545,-0.366 0.562,-0.349C0.579,-0.332 0.591,-0.312 0.599,-0.288C0.606,-0.265 0.607,-0.238 0.602,-0.207C0.595,-0.163 0.578,-0.125 0.552,-0.092C0.526,-0.059 0.492,-0.034 0.449,-0.016C0.406,0.002 0.354,0.011 0.295,0.011Z" style="fill:white;fill-rule:nonzero;"/>
                </g>
                <g transform="matrix(214.716667,0,0,214.716667,510.396169,756.585919)">
                </g>
                <g transform="matrix(214.716667,0,0,214.716667,543.613896,756.585919)">
                    <path d="M0.347,0.01C0.289,0.01 0.238,-0.002 0.195,-0.025C0.151,-0.049 0.117,-0.082 0.092,-0.127C0.067,-0.171 0.055,-0.225 0.055,-0.288C0.055,-0.347 0.065,-0.404 0.083,-0.458C0.102,-0.512 0.129,-0.56 0.164,-0.602C0.199,-0.644 0.241,-0.677 0.29,-0.701C0.339,-0.725 0.394,-0.737 0.455,-0.737C0.512,-0.737 0.563,-0.726 0.606,-0.702C0.65,-0.679 0.684,-0.645 0.709,-0.601C0.733,-0.557 0.746,-0.503 0.746,-0.44C0.746,-0.38 0.736,-0.324 0.718,-0.27C0.699,-0.216 0.672,-0.168 0.637,-0.126C0.602,-0.084 0.56,-0.051 0.511,-0.026C0.462,-0.002 0.408,0.01 0.347,0.01ZM0.353,-0.123C0.393,-0.123 0.428,-0.132 0.459,-0.151C0.489,-0.169 0.514,-0.194 0.535,-0.225C0.555,-0.256 0.57,-0.29 0.581,-0.328C0.591,-0.365 0.596,-0.402 0.596,-0.44C0.596,-0.476 0.59,-0.506 0.578,-0.531C0.566,-0.555 0.549,-0.574 0.527,-0.586C0.505,-0.599 0.479,-0.605 0.449,-0.605C0.408,-0.605 0.373,-0.596 0.343,-0.577C0.312,-0.558 0.287,-0.533 0.266,-0.502C0.246,-0.471 0.231,-0.437 0.22,-0.4C0.21,-0.363 0.205,-0.325 0.205,-0.288C0.205,-0.252 0.211,-0.222 0.223,-0.197C0.235,-0.172 0.252,-0.154 0.274,-0.141C0.296,-0.129 0.322,-0.123 0.353,-0.123Z" style="fill:white;fill-rule:nonzero;"/>
                </g>
                <g transform="matrix(214.716667,0,0,214.716667,711.592728,756.585919)">
                    <path d="M0.327,0.01C0.265,0.01 0.213,-0.001 0.171,-0.024C0.128,-0.047 0.098,-0.079 0.079,-0.12C0.06,-0.161 0.055,-0.207 0.063,-0.26L0.141,-0.728L0.29,-0.728L0.213,-0.263C0.209,-0.234 0.211,-0.21 0.219,-0.188C0.227,-0.167 0.241,-0.151 0.261,-0.139C0.28,-0.128 0.304,-0.122 0.333,-0.122C0.365,-0.122 0.393,-0.128 0.419,-0.142C0.445,-0.155 0.467,-0.173 0.484,-0.196C0.501,-0.218 0.512,-0.244 0.517,-0.273L0.592,-0.728L0.741,-0.728L0.662,-0.25C0.654,-0.197 0.634,-0.151 0.603,-0.112C0.572,-0.073 0.533,-0.043 0.486,-0.022C0.439,-0.001 0.386,0.01 0.327,0.01Z" style="fill:white;fill-rule:nonzero;"/>
                </g>
                <g transform="matrix(214.716667,0,0,214.716667,864.070601,756.585919)">
                    <path d="M0.02,-0L0.141,-0.728L0.425,-0.728C0.48,-0.728 0.526,-0.718 0.561,-0.698C0.597,-0.678 0.622,-0.651 0.636,-0.615C0.65,-0.58 0.654,-0.538 0.646,-0.491C0.638,-0.443 0.621,-0.402 0.594,-0.367C0.568,-0.332 0.534,-0.306 0.491,-0.287C0.449,-0.269 0.4,-0.26 0.344,-0.26L0.151,-0.26L0.171,-0.38L0.34,-0.38C0.37,-0.38 0.396,-0.384 0.417,-0.393C0.438,-0.401 0.455,-0.414 0.468,-0.43C0.48,-0.446 0.488,-0.467 0.492,-0.491C0.498,-0.528 0.492,-0.557 0.472,-0.576C0.453,-0.595 0.421,-0.605 0.377,-0.605L0.27,-0.605L0.17,-0L0.02,-0ZM0.425,-0L0.303,-0.331L0.464,-0.331L0.591,-0L0.425,-0Z" style="fill:white;fill-rule:nonzero;"/>
                </g>
                <g transform="matrix(214.716667,0,0,214.716667,1010.331957,756.585919)">
                    <path d="M0.295,0.011C0.237,0.011 0.187,0.002 0.145,-0.016C0.104,-0.034 0.073,-0.06 0.053,-0.096C0.033,-0.131 0.026,-0.174 0.033,-0.226L0.178,-0.226C0.176,-0.201 0.18,-0.181 0.19,-0.164C0.2,-0.148 0.215,-0.136 0.235,-0.127C0.254,-0.119 0.278,-0.115 0.305,-0.115C0.331,-0.115 0.355,-0.119 0.376,-0.127C0.397,-0.135 0.414,-0.145 0.428,-0.159C0.441,-0.173 0.449,-0.189 0.452,-0.208C0.455,-0.225 0.452,-0.239 0.445,-0.25C0.437,-0.261 0.424,-0.27 0.407,-0.279C0.389,-0.287 0.368,-0.294 0.342,-0.3L0.265,-0.32C0.208,-0.335 0.164,-0.358 0.133,-0.389C0.103,-0.421 0.092,-0.464 0.101,-0.518C0.108,-0.562 0.125,-0.6 0.153,-0.633C0.18,-0.666 0.215,-0.692 0.258,-0.71C0.3,-0.728 0.348,-0.737 0.401,-0.737C0.455,-0.737 0.501,-0.728 0.539,-0.71C0.578,-0.691 0.607,-0.666 0.625,-0.633C0.644,-0.601 0.65,-0.563 0.644,-0.52L0.5,-0.52C0.502,-0.549 0.494,-0.572 0.474,-0.588C0.455,-0.604 0.426,-0.612 0.389,-0.612C0.363,-0.612 0.341,-0.608 0.322,-0.601C0.303,-0.594 0.288,-0.584 0.277,-0.571C0.265,-0.559 0.258,-0.544 0.255,-0.528C0.252,-0.51 0.255,-0.495 0.264,-0.484C0.273,-0.472 0.285,-0.462 0.302,-0.455C0.319,-0.447 0.337,-0.441 0.357,-0.436L0.419,-0.42C0.449,-0.413 0.476,-0.403 0.5,-0.392C0.525,-0.38 0.545,-0.366 0.562,-0.349C0.579,-0.332 0.591,-0.312 0.599,-0.288C0.606,-0.265 0.607,-0.238 0.602,-0.207C0.595,-0.163 0.578,-0.125 0.552,-0.092C0.526,-0.059 0.492,-0.034 0.449,-0.016C0.406,0.002 0.354,0.011 0.295,0.011Z" style="fill:white;fill-rule:nonzero;"/>
                </g>
                <g transform="matrix(214.716667,0,0,214.716667,1150.828668,756.585919)">
                </g>
            </g>
        </g>
        <g transform="matrix(4.166667,0,0,4.166667,0,3946.359375)">
            <g transform="matrix(0.24,0,0,0.24,65.555168,456.71541)">
                <g transform="matrix(211.45125,0,0,211.45125,86.2568,754.780374)">
                    <path d="M0.346,-0L0.478,-0.728L0.588,-0.728L0.457,-0L0.346,-0ZM0.022,-0.182L0.043,-0.293L0.61,-0.293L0.589,-0.182L0.022,-0.182ZM0.09,-0L0.222,-0.728L0.333,-0.728L0.201,-0L0.09,-0ZM0.069,-0.434L0.09,-0.546L0.656,-0.546L0.635,-0.434L0.069,-0.434Z" style="fill:white;fill-rule:nonzero;"/>
                </g>
                <g transform="matrix(211.45125,0,0,211.45125,223.458379,754.780374)">
                </g>
            </g>
        </g>
        <g transform="matrix(4.166667,0,0,4.166667,0,3946.359375)">
            <g transform="matrix(1,0,0,1,191.3808,639.1253)">
                <path d="M0,-38.43L-27.156,-39.089L-31.893,-29.091L-22.353,-28.902L-31.733,0.215C-31.733,0.215 -19.104,0.659 -19.108,0.206C-19.112,-0.246 -13.261,-28.173 -13.261,-28.173L-1.573,-28.913L0,-38.43Z" style="fill:rgb(227,6,19);fill-rule:nonzero;"/>
            </g>
        </g>
        <g transform="matrix(4.166667,0,0,4.166667,0,3946.359375)">
            <g transform="matrix(1,0,0,1,197.8427,619.8048)">
                <path d="M0,1.376L3.297,-12.25L7.352,1.993L0,1.376ZM-1.742,-17.876L-5.828,-7.31L-9.645,1.233L-15.679,19.748L-5.454,19.944L-3.256,7.81L10.33,9.273L12.142,18.198L22.523,17.869L10.943,-18.568L-1.742,-17.876Z" style="fill:rgb(227,6,19);fill-rule:nonzero;"/>
            </g>
        </g>
        <g transform="matrix(4.166667,0,0,4.166667,0,3946.359375)">
            <g transform="matrix(1,0,0,1,246.9612,613.8546)">
                <path d="M0,8.614L-5.771,14.52L-12.492,14.961L-14.313,-1.523L-10.617,-8.087L7.828,-5.707L7.94,-13.758L-9.018,-16.473L-19.69,-14.488L-25.008,-2.36L-24.006,10.962L-20.67,24.975L-3.55,25.087L5.221,18.856L10.159,2.6L-6.976,1.179L0,8.614Z" style="fill:rgb(227,6,19);fill-rule:nonzero;"/>
            </g>
        </g>
        <g transform="matrix(4.166667,0,0,4.166667,0,3946.359375)">
            <g transform="matrix(1,0,0,1,275.683,631.6474)">
                <path d="M0,-25.233L13.854,-23.929L13.245,-32.081L-10.008,-30.132L-14.502,-9.496L-17.43,6.848L6.232,5.697L5.48,-3.524L-6.686,-3.013L-4.872,-9.449L7.43,-9.694L8.041,-15.986L-3.616,-18.421L0,-25.233Z" style="fill:rgb(227,6,19);fill-rule:nonzero;"/>
            </g>
        </g>
        <g transform="matrix(4.166667,0,0,4.166667,0,3946.359375)">
            <g transform="matrix(1,0,0,1,147.3464,625.056)">
                <path d="M0,-11.737L6.926,-10.263L9.356,-10.541L9.964,-14.131L9.508,-22.064L1.794,-25.707L-12.283,-25.196L-19.303,-22.827L-21.526,-13.846L-16.842,-5.567L-5.558,-3.493L-2.796,4.675L-10.08,6.149L-12.821,0.285L-23.576,0.126L-19.259,10.329L-11.417,13.97L6.401,12.917L9.658,2.634L9.932,-3.506L-2.301,-11.332L-8.211,-13.711L-1.57,-15.435L0,-11.737Z" style="fill:rgb(227,6,19);fill-rule:nonzero;"/>
            </g>
        </g>
    </g>
</svg>
