<?xml version="1.0" encoding="UTF-8" standalone="no"?>
<!DOCTYPE svg PUBLIC "-//W3C//DTD SVG 1.1//EN" "http://www.w3.org/Graphics/SVG/1.1/DTD/svg11.dtd">
<svg width="100%" height="100%" viewBox="0 0 554 623" version="1.1" xmlns="http://www.w3.org/2000/svg" xmlns:xlink="http://www.w3.org/1999/xlink" xml:space="preserve" xmlns:serif="http://www.serif.com/" style="fill-rule:evenodd;clip-rule:evenodd;stroke-linejoin:round;stroke-miterlimit:2;">
    <rect x="-42" y="-25" width="638" height="677" style="fill:rgb(29,29,27);"/>
    <g id="Layer-1" serif:id="Layer 1" transform="matrix(2.834646,0,0,2.834646,1235.608809,-109.773539)">
        <path id="path6" d="M-435.895,258.274C-435.895,258.274 -422.384,178.674 -416.954,175.906C-411.771,173.264 -360.03,146.812 -360.03,146.812L-357.537,138.213L-363.37,125.339L-365.607,120.926L-368.517,118.502L-369.98,112.767L-373.265,97.514L-371.959,94.399L-372.968,86.571L-373.642,79.194L-374.869,73.772L-374.818,65.737L-371.258,59.263L-365.393,52.147L-356.28,42.982L-347.119,40.929L-334.888,38.726L-325.05,41.427L-315.108,44.931L-308.112,49.017L-303.722,56.83L-298.422,65.737L-295.938,72.747L-298.324,85.743L-299.025,93.352L-296.423,95.992L-300.069,111.786L-302.198,119.075L-306.864,121.741L-309.171,132.57L-311.295,136.261L-309.432,144.967L-297.807,149.153L-259.654,167.427L-248.779,181.753L-240.568,258.274L-435.895,258.274L-435.895,258.274Z" style="fill:rgb(219,8,18);fill-rule:nonzero;stroke:rgb(246,246,246);stroke-width:1.41px;"/>
    </g>
</svg>
